%TF.GenerationSoftware,KiCad,Pcbnew,8.0.1*%
%TF.CreationDate,2025-04-09T12:06:59+02:00*%
%TF.ProjectId,PCB-Oktopus_v4_7x7,5043422d-4f6b-4746-9f70-75735f76345f,rev?*%
%TF.SameCoordinates,Original*%
%TF.FileFunction,Soldermask,Top*%
%TF.FilePolarity,Negative*%
%FSLAX46Y46*%
G04 Gerber Fmt 4.6, Leading zero omitted, Abs format (unit mm)*
G04 Created by KiCad (PCBNEW 8.0.1) date 2025-04-09 12:06:59*
%MOMM*%
%LPD*%
G01*
G04 APERTURE LIST*
%ADD10C,0.010000*%
%ADD11C,3.300000*%
%ADD12C,5.400000*%
G04 APERTURE END LIST*
D10*
%TO.C,G\u002A\u002A\u002A*%
X52872379Y-68462848D02*
X52991566Y-68514904D01*
X53099001Y-68602452D01*
X53193627Y-68720022D01*
X53274392Y-68862147D01*
X53340239Y-69023360D01*
X53390116Y-69198192D01*
X53422967Y-69381174D01*
X53437738Y-69566840D01*
X53433374Y-69749721D01*
X53408822Y-69924349D01*
X53363027Y-70085256D01*
X53294933Y-70226975D01*
X53229750Y-70316072D01*
X53130472Y-70404831D01*
X53023713Y-70455857D01*
X52914076Y-70467454D01*
X52851075Y-70455474D01*
X52717891Y-70393042D01*
X52599524Y-70292041D01*
X52497065Y-70153949D01*
X52411603Y-69980244D01*
X52344228Y-69772402D01*
X52342628Y-69766168D01*
X52302730Y-69564937D01*
X52285454Y-69369386D01*
X52289306Y-69183192D01*
X52312791Y-69010030D01*
X52354416Y-68853575D01*
X52412687Y-68717504D01*
X52486110Y-68605491D01*
X52573190Y-68521213D01*
X52672435Y-68468345D01*
X52782348Y-68450563D01*
X52872379Y-68462848D01*
G36*
X52872379Y-68462848D02*
G01*
X52991566Y-68514904D01*
X53099001Y-68602452D01*
X53193627Y-68720022D01*
X53274392Y-68862147D01*
X53340239Y-69023360D01*
X53390116Y-69198192D01*
X53422967Y-69381174D01*
X53437738Y-69566840D01*
X53433374Y-69749721D01*
X53408822Y-69924349D01*
X53363027Y-70085256D01*
X53294933Y-70226975D01*
X53229750Y-70316072D01*
X53130472Y-70404831D01*
X53023713Y-70455857D01*
X52914076Y-70467454D01*
X52851075Y-70455474D01*
X52717891Y-70393042D01*
X52599524Y-70292041D01*
X52497065Y-70153949D01*
X52411603Y-69980244D01*
X52344228Y-69772402D01*
X52342628Y-69766168D01*
X52302730Y-69564937D01*
X52285454Y-69369386D01*
X52289306Y-69183192D01*
X52312791Y-69010030D01*
X52354416Y-68853575D01*
X52412687Y-68717504D01*
X52486110Y-68605491D01*
X52573190Y-68521213D01*
X52672435Y-68468345D01*
X52782348Y-68450563D01*
X52872379Y-68462848D01*
G37*
X112490472Y-68480156D02*
X112593207Y-68550524D01*
X112596715Y-68553728D01*
X112693252Y-68665618D01*
X112765162Y-68802142D01*
X112813455Y-68966522D01*
X112839139Y-69161979D01*
X112844088Y-69342835D01*
X112829667Y-69566327D01*
X112792016Y-69775161D01*
X112733163Y-69964780D01*
X112655133Y-70130630D01*
X112559956Y-70268153D01*
X112449659Y-70372794D01*
X112362472Y-70425008D01*
X112267396Y-70461408D01*
X112186072Y-70471396D01*
X112100755Y-70456843D01*
X112090044Y-70453728D01*
X111985497Y-70400894D01*
X111894360Y-70311761D01*
X111818437Y-70190737D01*
X111759527Y-70042234D01*
X111719434Y-69870661D01*
X111699957Y-69680428D01*
X111701253Y-69501966D01*
X111723548Y-69297942D01*
X111765030Y-69109557D01*
X111823222Y-68939433D01*
X111895650Y-68790193D01*
X111979835Y-68664459D01*
X112073303Y-68564854D01*
X112173577Y-68493998D01*
X112278181Y-68454515D01*
X112384638Y-68449027D01*
X112490472Y-68480156D01*
G36*
X112490472Y-68480156D02*
G01*
X112593207Y-68550524D01*
X112596715Y-68553728D01*
X112693252Y-68665618D01*
X112765162Y-68802142D01*
X112813455Y-68966522D01*
X112839139Y-69161979D01*
X112844088Y-69342835D01*
X112829667Y-69566327D01*
X112792016Y-69775161D01*
X112733163Y-69964780D01*
X112655133Y-70130630D01*
X112559956Y-70268153D01*
X112449659Y-70372794D01*
X112362472Y-70425008D01*
X112267396Y-70461408D01*
X112186072Y-70471396D01*
X112100755Y-70456843D01*
X112090044Y-70453728D01*
X111985497Y-70400894D01*
X111894360Y-70311761D01*
X111818437Y-70190737D01*
X111759527Y-70042234D01*
X111719434Y-69870661D01*
X111699957Y-69680428D01*
X111701253Y-69501966D01*
X111723548Y-69297942D01*
X111765030Y-69109557D01*
X111823222Y-68939433D01*
X111895650Y-68790193D01*
X111979835Y-68664459D01*
X112073303Y-68564854D01*
X112173577Y-68493998D01*
X112278181Y-68454515D01*
X112384638Y-68449027D01*
X112490472Y-68480156D01*
G37*
X99310216Y-95371975D02*
X99481367Y-95409916D01*
X99634951Y-95466585D01*
X99765343Y-95541787D01*
X99866917Y-95635327D01*
X99917101Y-95710158D01*
X99934506Y-95764731D01*
X99945306Y-95839697D01*
X99947045Y-95881154D01*
X99926351Y-96002626D01*
X99865075Y-96116024D01*
X99764427Y-96220030D01*
X99625617Y-96313325D01*
X99491962Y-96377670D01*
X99328493Y-96430728D01*
X99139127Y-96467143D01*
X98937260Y-96486026D01*
X98736291Y-96486485D01*
X98549616Y-96467628D01*
X98451071Y-96446940D01*
X98285963Y-96394240D01*
X98157179Y-96330933D01*
X98059340Y-96253682D01*
X97987065Y-96159150D01*
X97987060Y-96159142D01*
X97943436Y-96045801D01*
X97938715Y-95926874D01*
X97971423Y-95809494D01*
X98040085Y-95700795D01*
X98092874Y-95647091D01*
X98229465Y-95548494D01*
X98387871Y-95469987D01*
X98562466Y-95411374D01*
X98747624Y-95372460D01*
X98937719Y-95353052D01*
X99127125Y-95352955D01*
X99310216Y-95371975D01*
G36*
X99310216Y-95371975D02*
G01*
X99481367Y-95409916D01*
X99634951Y-95466585D01*
X99765343Y-95541787D01*
X99866917Y-95635327D01*
X99917101Y-95710158D01*
X99934506Y-95764731D01*
X99945306Y-95839697D01*
X99947045Y-95881154D01*
X99926351Y-96002626D01*
X99865075Y-96116024D01*
X99764427Y-96220030D01*
X99625617Y-96313325D01*
X99491962Y-96377670D01*
X99328493Y-96430728D01*
X99139127Y-96467143D01*
X98937260Y-96486026D01*
X98736291Y-96486485D01*
X98549616Y-96467628D01*
X98451071Y-96446940D01*
X98285963Y-96394240D01*
X98157179Y-96330933D01*
X98059340Y-96253682D01*
X97987065Y-96159150D01*
X97987060Y-96159142D01*
X97943436Y-96045801D01*
X97938715Y-95926874D01*
X97971423Y-95809494D01*
X98040085Y-95700795D01*
X98092874Y-95647091D01*
X98229465Y-95548494D01*
X98387871Y-95469987D01*
X98562466Y-95411374D01*
X98747624Y-95372460D01*
X98937719Y-95353052D01*
X99127125Y-95352955D01*
X99310216Y-95371975D01*
G37*
X53367383Y-71368275D02*
X53484164Y-71411663D01*
X53600255Y-71488726D01*
X53707912Y-71587650D01*
X53861223Y-71773261D01*
X53991173Y-71991354D01*
X54096189Y-72238116D01*
X54174701Y-72509737D01*
X54225139Y-72802404D01*
X54231163Y-72857511D01*
X54240040Y-73080446D01*
X54222058Y-73290057D01*
X54178528Y-73480514D01*
X54110761Y-73645988D01*
X54024929Y-73774971D01*
X53927970Y-73858547D01*
X53811059Y-73908516D01*
X53681620Y-73923561D01*
X53547079Y-73902361D01*
X53470603Y-73873391D01*
X53323033Y-73782563D01*
X53187330Y-73656290D01*
X53064915Y-73500151D01*
X52957212Y-73319727D01*
X52865645Y-73120597D01*
X52791637Y-72908342D01*
X52736610Y-72688541D01*
X52701987Y-72466775D01*
X52689193Y-72248623D01*
X52699650Y-72039665D01*
X52734781Y-71845480D01*
X52796009Y-71671650D01*
X52874723Y-71537057D01*
X52968794Y-71439877D01*
X53081887Y-71379850D01*
X53216683Y-71355652D01*
X53242795Y-71355001D01*
X53367383Y-71368275D01*
G36*
X53367383Y-71368275D02*
G01*
X53484164Y-71411663D01*
X53600255Y-71488726D01*
X53707912Y-71587650D01*
X53861223Y-71773261D01*
X53991173Y-71991354D01*
X54096189Y-72238116D01*
X54174701Y-72509737D01*
X54225139Y-72802404D01*
X54231163Y-72857511D01*
X54240040Y-73080446D01*
X54222058Y-73290057D01*
X54178528Y-73480514D01*
X54110761Y-73645988D01*
X54024929Y-73774971D01*
X53927970Y-73858547D01*
X53811059Y-73908516D01*
X53681620Y-73923561D01*
X53547079Y-73902361D01*
X53470603Y-73873391D01*
X53323033Y-73782563D01*
X53187330Y-73656290D01*
X53064915Y-73500151D01*
X52957212Y-73319727D01*
X52865645Y-73120597D01*
X52791637Y-72908342D01*
X52736610Y-72688541D01*
X52701987Y-72466775D01*
X52689193Y-72248623D01*
X52699650Y-72039665D01*
X52734781Y-71845480D01*
X52796009Y-71671650D01*
X52874723Y-71537057D01*
X52968794Y-71439877D01*
X53081887Y-71379850D01*
X53216683Y-71355652D01*
X53242795Y-71355001D01*
X53367383Y-71368275D01*
G37*
X66117891Y-95397892D02*
X66287044Y-95415543D01*
X66434831Y-95444348D01*
X66457963Y-95450666D01*
X66643046Y-95516429D01*
X66798737Y-95597477D01*
X66922364Y-95691433D01*
X67011255Y-95795920D01*
X67062740Y-95908560D01*
X67075212Y-96000030D01*
X67055626Y-96125201D01*
X66996769Y-96235560D01*
X66898488Y-96331256D01*
X66760633Y-96412436D01*
X66588379Y-96477630D01*
X66507929Y-96494867D01*
X66397752Y-96508626D01*
X66270353Y-96518328D01*
X66138239Y-96523392D01*
X66013917Y-96523239D01*
X65909892Y-96517286D01*
X65865132Y-96511197D01*
X65637387Y-96455543D01*
X65442104Y-96378378D01*
X65281223Y-96280610D01*
X65182559Y-96192447D01*
X65100236Y-96080792D01*
X65058392Y-95968243D01*
X65055344Y-95857680D01*
X65089405Y-95751981D01*
X65158892Y-95654025D01*
X65262118Y-95566690D01*
X65397400Y-95492856D01*
X65563051Y-95435400D01*
X65635879Y-95417979D01*
X65776945Y-95398499D01*
X65942737Y-95392007D01*
X66117891Y-95397892D01*
G36*
X66117891Y-95397892D02*
G01*
X66287044Y-95415543D01*
X66434831Y-95444348D01*
X66457963Y-95450666D01*
X66643046Y-95516429D01*
X66798737Y-95597477D01*
X66922364Y-95691433D01*
X67011255Y-95795920D01*
X67062740Y-95908560D01*
X67075212Y-96000030D01*
X67055626Y-96125201D01*
X66996769Y-96235560D01*
X66898488Y-96331256D01*
X66760633Y-96412436D01*
X66588379Y-96477630D01*
X66507929Y-96494867D01*
X66397752Y-96508626D01*
X66270353Y-96518328D01*
X66138239Y-96523392D01*
X66013917Y-96523239D01*
X65909892Y-96517286D01*
X65865132Y-96511197D01*
X65637387Y-96455543D01*
X65442104Y-96378378D01*
X65281223Y-96280610D01*
X65182559Y-96192447D01*
X65100236Y-96080792D01*
X65058392Y-95968243D01*
X65055344Y-95857680D01*
X65089405Y-95751981D01*
X65158892Y-95654025D01*
X65262118Y-95566690D01*
X65397400Y-95492856D01*
X65563051Y-95435400D01*
X65635879Y-95417979D01*
X65776945Y-95398499D01*
X65942737Y-95392007D01*
X66117891Y-95397892D01*
G37*
X111742720Y-86307920D02*
X111844768Y-86329678D01*
X111926098Y-86369726D01*
X111996785Y-86431688D01*
X112007932Y-86444050D01*
X112070442Y-86544689D01*
X112095918Y-86658211D01*
X112086392Y-86781194D01*
X112043898Y-86910218D01*
X111970469Y-87041863D01*
X111868139Y-87172708D01*
X111738941Y-87299333D01*
X111584908Y-87418317D01*
X111408074Y-87526240D01*
X111345295Y-87558728D01*
X111144432Y-87644365D01*
X110950732Y-87699723D01*
X110769763Y-87723752D01*
X110607093Y-87715404D01*
X110562129Y-87706292D01*
X110436896Y-87660222D01*
X110346094Y-87590192D01*
X110287823Y-87493975D01*
X110260182Y-87369343D01*
X110258711Y-87350485D01*
X110256629Y-87269810D01*
X110265427Y-87206151D01*
X110289355Y-87139477D01*
X110315051Y-87085002D01*
X110420351Y-86915896D01*
X110560173Y-86758769D01*
X110727404Y-86617925D01*
X110914934Y-86497672D01*
X111115651Y-86402317D01*
X111322444Y-86336166D01*
X111528202Y-86303527D01*
X111609879Y-86300826D01*
X111742720Y-86307920D01*
G36*
X111742720Y-86307920D02*
G01*
X111844768Y-86329678D01*
X111926098Y-86369726D01*
X111996785Y-86431688D01*
X112007932Y-86444050D01*
X112070442Y-86544689D01*
X112095918Y-86658211D01*
X112086392Y-86781194D01*
X112043898Y-86910218D01*
X111970469Y-87041863D01*
X111868139Y-87172708D01*
X111738941Y-87299333D01*
X111584908Y-87418317D01*
X111408074Y-87526240D01*
X111345295Y-87558728D01*
X111144432Y-87644365D01*
X110950732Y-87699723D01*
X110769763Y-87723752D01*
X110607093Y-87715404D01*
X110562129Y-87706292D01*
X110436896Y-87660222D01*
X110346094Y-87590192D01*
X110287823Y-87493975D01*
X110260182Y-87369343D01*
X110258711Y-87350485D01*
X110256629Y-87269810D01*
X110265427Y-87206151D01*
X110289355Y-87139477D01*
X110315051Y-87085002D01*
X110420351Y-86915896D01*
X110560173Y-86758769D01*
X110727404Y-86617925D01*
X110914934Y-86497672D01*
X111115651Y-86402317D01*
X111322444Y-86336166D01*
X111528202Y-86303527D01*
X111609879Y-86300826D01*
X111742720Y-86307920D01*
G37*
X95376778Y-95158245D02*
X95602190Y-95178821D01*
X95819748Y-95217908D01*
X96004177Y-95269862D01*
X96211026Y-95352704D01*
X96389769Y-95449365D01*
X96538444Y-95557397D01*
X96655087Y-95674354D01*
X96737735Y-95797788D01*
X96784425Y-95925251D01*
X96793195Y-96054298D01*
X96762081Y-96182481D01*
X96752998Y-96203335D01*
X96680079Y-96312175D01*
X96571283Y-96407450D01*
X96431317Y-96487645D01*
X96264886Y-96551248D01*
X96076696Y-96596745D01*
X95871451Y-96622622D01*
X95653857Y-96627368D01*
X95473312Y-96614851D01*
X95234069Y-96576125D01*
X95003925Y-96515106D01*
X94789990Y-96434698D01*
X94599372Y-96337804D01*
X94439182Y-96227326D01*
X94368476Y-96163687D01*
X94261941Y-96034064D01*
X94196670Y-95902273D01*
X94171927Y-95771452D01*
X94186976Y-95644739D01*
X94241082Y-95525274D01*
X94333509Y-95416195D01*
X94463521Y-95320640D01*
X94579806Y-95262056D01*
X94745027Y-95208086D01*
X94939036Y-95172827D01*
X95152673Y-95156230D01*
X95376778Y-95158245D01*
G36*
X95376778Y-95158245D02*
G01*
X95602190Y-95178821D01*
X95819748Y-95217908D01*
X96004177Y-95269862D01*
X96211026Y-95352704D01*
X96389769Y-95449365D01*
X96538444Y-95557397D01*
X96655087Y-95674354D01*
X96737735Y-95797788D01*
X96784425Y-95925251D01*
X96793195Y-96054298D01*
X96762081Y-96182481D01*
X96752998Y-96203335D01*
X96680079Y-96312175D01*
X96571283Y-96407450D01*
X96431317Y-96487645D01*
X96264886Y-96551248D01*
X96076696Y-96596745D01*
X95871451Y-96622622D01*
X95653857Y-96627368D01*
X95473312Y-96614851D01*
X95234069Y-96576125D01*
X95003925Y-96515106D01*
X94789990Y-96434698D01*
X94599372Y-96337804D01*
X94439182Y-96227326D01*
X94368476Y-96163687D01*
X94261941Y-96034064D01*
X94196670Y-95902273D01*
X94171927Y-95771452D01*
X94186976Y-95644739D01*
X94241082Y-95525274D01*
X94333509Y-95416195D01*
X94463521Y-95320640D01*
X94579806Y-95262056D01*
X94745027Y-95208086D01*
X94939036Y-95172827D01*
X95152673Y-95156230D01*
X95376778Y-95158245D01*
G37*
X109096522Y-87813023D02*
X109268533Y-87846833D01*
X109407918Y-87903816D01*
X109516598Y-87984810D01*
X109596496Y-88090656D01*
X109609642Y-88115800D01*
X109644275Y-88195969D01*
X109659249Y-88263018D01*
X109659063Y-88338590D01*
X109658217Y-88349490D01*
X109624585Y-88501097D01*
X109549440Y-88651185D01*
X109433600Y-88798550D01*
X109277884Y-88941982D01*
X109232012Y-88977695D01*
X109017083Y-89119370D01*
X108782432Y-89237538D01*
X108535660Y-89330081D01*
X108284363Y-89394881D01*
X108036142Y-89429824D01*
X107798595Y-89432790D01*
X107655556Y-89416909D01*
X107488622Y-89372449D01*
X107347562Y-89300021D01*
X107251363Y-89217855D01*
X107172192Y-89104283D01*
X107133128Y-88980517D01*
X107133748Y-88848583D01*
X107173629Y-88710507D01*
X107252346Y-88568316D01*
X107369477Y-88424035D01*
X107430044Y-88363283D01*
X107633984Y-88197168D01*
X107866515Y-88056385D01*
X108120398Y-87943717D01*
X108388393Y-87861952D01*
X108663261Y-87813875D01*
X108889962Y-87801546D01*
X109096522Y-87813023D01*
G36*
X109096522Y-87813023D02*
G01*
X109268533Y-87846833D01*
X109407918Y-87903816D01*
X109516598Y-87984810D01*
X109596496Y-88090656D01*
X109609642Y-88115800D01*
X109644275Y-88195969D01*
X109659249Y-88263018D01*
X109659063Y-88338590D01*
X109658217Y-88349490D01*
X109624585Y-88501097D01*
X109549440Y-88651185D01*
X109433600Y-88798550D01*
X109277884Y-88941982D01*
X109232012Y-88977695D01*
X109017083Y-89119370D01*
X108782432Y-89237538D01*
X108535660Y-89330081D01*
X108284363Y-89394881D01*
X108036142Y-89429824D01*
X107798595Y-89432790D01*
X107655556Y-89416909D01*
X107488622Y-89372449D01*
X107347562Y-89300021D01*
X107251363Y-89217855D01*
X107172192Y-89104283D01*
X107133128Y-88980517D01*
X107133748Y-88848583D01*
X107173629Y-88710507D01*
X107252346Y-88568316D01*
X107369477Y-88424035D01*
X107430044Y-88363283D01*
X107633984Y-88197168D01*
X107866515Y-88056385D01*
X108120398Y-87943717D01*
X108388393Y-87861952D01*
X108663261Y-87813875D01*
X108889962Y-87801546D01*
X109096522Y-87813023D01*
G37*
X112024303Y-71367285D02*
X112138743Y-71422337D01*
X112240668Y-71514733D01*
X112295458Y-71590003D01*
X112369739Y-71745353D01*
X112418041Y-71927188D01*
X112441405Y-72129404D01*
X112440870Y-72345894D01*
X112417474Y-72570552D01*
X112372257Y-72797273D01*
X112306258Y-73019951D01*
X112220516Y-73232480D01*
X112116070Y-73428755D01*
X111993959Y-73602669D01*
X111942846Y-73661946D01*
X111816592Y-73778604D01*
X111683776Y-73862717D01*
X111549339Y-73912717D01*
X111418216Y-73927039D01*
X111295347Y-73904115D01*
X111246923Y-73882756D01*
X111135973Y-73800960D01*
X111045839Y-73686817D01*
X110976488Y-73544824D01*
X110927889Y-73379476D01*
X110900010Y-73195273D01*
X110892818Y-72996709D01*
X110906282Y-72788282D01*
X110940370Y-72574489D01*
X110995050Y-72359827D01*
X111070289Y-72148793D01*
X111166057Y-71945883D01*
X111261824Y-71785786D01*
X111381238Y-71630054D01*
X111508171Y-71507871D01*
X111639282Y-71419871D01*
X111771234Y-71366684D01*
X111900687Y-71348945D01*
X112024303Y-71367285D01*
G36*
X112024303Y-71367285D02*
G01*
X112138743Y-71422337D01*
X112240668Y-71514733D01*
X112295458Y-71590003D01*
X112369739Y-71745353D01*
X112418041Y-71927188D01*
X112441405Y-72129404D01*
X112440870Y-72345894D01*
X112417474Y-72570552D01*
X112372257Y-72797273D01*
X112306258Y-73019951D01*
X112220516Y-73232480D01*
X112116070Y-73428755D01*
X111993959Y-73602669D01*
X111942846Y-73661946D01*
X111816592Y-73778604D01*
X111683776Y-73862717D01*
X111549339Y-73912717D01*
X111418216Y-73927039D01*
X111295347Y-73904115D01*
X111246923Y-73882756D01*
X111135973Y-73800960D01*
X111045839Y-73686817D01*
X110976488Y-73544824D01*
X110927889Y-73379476D01*
X110900010Y-73195273D01*
X110892818Y-72996709D01*
X110906282Y-72788282D01*
X110940370Y-72574489D01*
X110995050Y-72359827D01*
X111070289Y-72148793D01*
X111166057Y-71945883D01*
X111261824Y-71785786D01*
X111381238Y-71630054D01*
X111508171Y-71507871D01*
X111639282Y-71419871D01*
X111771234Y-71366684D01*
X111900687Y-71348945D01*
X112024303Y-71367285D01*
G37*
X53207153Y-86094812D02*
X53382061Y-86139611D01*
X53561521Y-86208538D01*
X53740139Y-86300766D01*
X53821101Y-86351160D01*
X53984045Y-86472007D01*
X54120051Y-86600337D01*
X54227880Y-86732679D01*
X54306289Y-86865557D01*
X54354038Y-86995500D01*
X54369884Y-87119034D01*
X54352588Y-87232685D01*
X54300908Y-87332979D01*
X54213602Y-87416444D01*
X54204091Y-87422921D01*
X54158544Y-87450699D01*
X54115420Y-87468619D01*
X54063164Y-87479141D01*
X53990218Y-87484723D01*
X53900596Y-87487481D01*
X53739049Y-87484841D01*
X53609987Y-87469309D01*
X53570879Y-87460182D01*
X53436616Y-87413519D01*
X53287025Y-87345775D01*
X53137642Y-87264845D01*
X53004005Y-87178619D01*
X52975868Y-87157913D01*
X52825922Y-87029349D01*
X52705211Y-86895098D01*
X52614898Y-86758802D01*
X52556150Y-86624102D01*
X52530131Y-86494640D01*
X52538006Y-86374058D01*
X52580940Y-86265998D01*
X52660099Y-86174100D01*
X52660914Y-86173412D01*
X52763677Y-86113440D01*
X52892567Y-86080899D01*
X53042191Y-86074965D01*
X53207153Y-86094812D01*
G36*
X53207153Y-86094812D02*
G01*
X53382061Y-86139611D01*
X53561521Y-86208538D01*
X53740139Y-86300766D01*
X53821101Y-86351160D01*
X53984045Y-86472007D01*
X54120051Y-86600337D01*
X54227880Y-86732679D01*
X54306289Y-86865557D01*
X54354038Y-86995500D01*
X54369884Y-87119034D01*
X54352588Y-87232685D01*
X54300908Y-87332979D01*
X54213602Y-87416444D01*
X54204091Y-87422921D01*
X54158544Y-87450699D01*
X54115420Y-87468619D01*
X54063164Y-87479141D01*
X53990218Y-87484723D01*
X53900596Y-87487481D01*
X53739049Y-87484841D01*
X53609987Y-87469309D01*
X53570879Y-87460182D01*
X53436616Y-87413519D01*
X53287025Y-87345775D01*
X53137642Y-87264845D01*
X53004005Y-87178619D01*
X52975868Y-87157913D01*
X52825922Y-87029349D01*
X52705211Y-86895098D01*
X52614898Y-86758802D01*
X52556150Y-86624102D01*
X52530131Y-86494640D01*
X52538006Y-86374058D01*
X52580940Y-86265998D01*
X52660099Y-86174100D01*
X52660914Y-86173412D01*
X52763677Y-86113440D01*
X52892567Y-86080899D01*
X53042191Y-86074965D01*
X53207153Y-86094812D01*
G37*
X69964518Y-95196835D02*
X70120714Y-95213774D01*
X70232624Y-95236382D01*
X70429861Y-95302374D01*
X70587721Y-95383853D01*
X70706238Y-95480852D01*
X70785446Y-95593401D01*
X70825378Y-95721534D01*
X70830584Y-95801168D01*
X70807978Y-95942137D01*
X70745431Y-96076364D01*
X70645041Y-96202092D01*
X70508907Y-96317560D01*
X70339128Y-96421010D01*
X70137800Y-96510683D01*
X69907024Y-96584819D01*
X69890622Y-96589171D01*
X69755163Y-96616790D01*
X69594255Y-96637128D01*
X69419803Y-96649770D01*
X69243718Y-96654297D01*
X69077908Y-96650293D01*
X68934281Y-96637342D01*
X68863795Y-96625121D01*
X68669053Y-96568817D01*
X68507073Y-96493240D01*
X68379442Y-96399817D01*
X68287748Y-96289977D01*
X68233579Y-96165147D01*
X68218212Y-96044585D01*
X68238892Y-95908950D01*
X68299283Y-95778743D01*
X68396912Y-95655831D01*
X68529308Y-95542086D01*
X68693998Y-95439377D01*
X68888510Y-95349574D01*
X69110370Y-95274547D01*
X69297712Y-95228144D01*
X69444908Y-95205229D01*
X69613711Y-95192449D01*
X69791215Y-95189688D01*
X69964518Y-95196835D01*
G36*
X69964518Y-95196835D02*
G01*
X70120714Y-95213774D01*
X70232624Y-95236382D01*
X70429861Y-95302374D01*
X70587721Y-95383853D01*
X70706238Y-95480852D01*
X70785446Y-95593401D01*
X70825378Y-95721534D01*
X70830584Y-95801168D01*
X70807978Y-95942137D01*
X70745431Y-96076364D01*
X70645041Y-96202092D01*
X70508907Y-96317560D01*
X70339128Y-96421010D01*
X70137800Y-96510683D01*
X69907024Y-96584819D01*
X69890622Y-96589171D01*
X69755163Y-96616790D01*
X69594255Y-96637128D01*
X69419803Y-96649770D01*
X69243718Y-96654297D01*
X69077908Y-96650293D01*
X68934281Y-96637342D01*
X68863795Y-96625121D01*
X68669053Y-96568817D01*
X68507073Y-96493240D01*
X68379442Y-96399817D01*
X68287748Y-96289977D01*
X68233579Y-96165147D01*
X68218212Y-96044585D01*
X68238892Y-95908950D01*
X68299283Y-95778743D01*
X68396912Y-95655831D01*
X68529308Y-95542086D01*
X68693998Y-95439377D01*
X68888510Y-95349574D01*
X69110370Y-95274547D01*
X69297712Y-95228144D01*
X69444908Y-95205229D01*
X69613711Y-95192449D01*
X69791215Y-95189688D01*
X69964518Y-95196835D01*
G37*
X110726186Y-74741174D02*
X110853208Y-74801149D01*
X110955814Y-74895071D01*
X111036388Y-75024580D01*
X111042018Y-75036668D01*
X111066497Y-75098923D01*
X111081202Y-75162883D01*
X111088283Y-75242313D01*
X111089904Y-75343585D01*
X111068814Y-75579938D01*
X111007221Y-75820472D01*
X110906399Y-76062529D01*
X110767625Y-76303450D01*
X110592171Y-76540575D01*
X110428543Y-76723393D01*
X110233720Y-76907178D01*
X110037626Y-77058064D01*
X109842920Y-77174903D01*
X109652264Y-77256544D01*
X109468318Y-77301838D01*
X109293742Y-77309635D01*
X109138073Y-77280975D01*
X109008373Y-77220882D01*
X108906520Y-77132567D01*
X108832053Y-77019285D01*
X108784516Y-76884293D01*
X108763447Y-76730847D01*
X108768389Y-76562203D01*
X108798882Y-76381617D01*
X108854468Y-76192346D01*
X108934687Y-75997645D01*
X109039080Y-75800771D01*
X109167188Y-75604980D01*
X109318553Y-75413529D01*
X109416465Y-75306127D01*
X109619285Y-75113679D01*
X109822730Y-74957487D01*
X110024762Y-74838597D01*
X110223342Y-74758054D01*
X110416430Y-74716903D01*
X110572364Y-74713506D01*
X110726186Y-74741174D01*
G36*
X110726186Y-74741174D02*
G01*
X110853208Y-74801149D01*
X110955814Y-74895071D01*
X111036388Y-75024580D01*
X111042018Y-75036668D01*
X111066497Y-75098923D01*
X111081202Y-75162883D01*
X111088283Y-75242313D01*
X111089904Y-75343585D01*
X111068814Y-75579938D01*
X111007221Y-75820472D01*
X110906399Y-76062529D01*
X110767625Y-76303450D01*
X110592171Y-76540575D01*
X110428543Y-76723393D01*
X110233720Y-76907178D01*
X110037626Y-77058064D01*
X109842920Y-77174903D01*
X109652264Y-77256544D01*
X109468318Y-77301838D01*
X109293742Y-77309635D01*
X109138073Y-77280975D01*
X109008373Y-77220882D01*
X108906520Y-77132567D01*
X108832053Y-77019285D01*
X108784516Y-76884293D01*
X108763447Y-76730847D01*
X108768389Y-76562203D01*
X108798882Y-76381617D01*
X108854468Y-76192346D01*
X108934687Y-75997645D01*
X109039080Y-75800771D01*
X109167188Y-75604980D01*
X109318553Y-75413529D01*
X109416465Y-75306127D01*
X109619285Y-75113679D01*
X109822730Y-74957487D01*
X110024762Y-74838597D01*
X110223342Y-74758054D01*
X110416430Y-74716903D01*
X110572364Y-74713506D01*
X110726186Y-74741174D01*
G37*
X104989654Y-88860976D02*
X105035755Y-88865293D01*
X105271412Y-88899607D01*
X105471993Y-88950637D01*
X105642036Y-89020166D01*
X105786078Y-89109975D01*
X105888163Y-89200198D01*
X105986265Y-89326185D01*
X106043318Y-89459478D01*
X106059499Y-89597777D01*
X106034988Y-89738781D01*
X105969963Y-89880191D01*
X105864603Y-90019705D01*
X105820947Y-90065001D01*
X105639584Y-90214768D01*
X105426263Y-90340839D01*
X105184977Y-90441870D01*
X104919721Y-90516518D01*
X104634486Y-90563439D01*
X104333267Y-90581290D01*
X104286212Y-90581373D01*
X104162382Y-90578723D01*
X104040539Y-90572721D01*
X103933294Y-90564203D01*
X103853261Y-90554008D01*
X103841712Y-90551858D01*
X103625043Y-90494781D01*
X103439683Y-90418010D01*
X103287317Y-90323013D01*
X103169631Y-90211253D01*
X103088312Y-90084198D01*
X103045045Y-89943311D01*
X103038050Y-89853335D01*
X103059059Y-89700269D01*
X103121501Y-89554938D01*
X103225459Y-89417210D01*
X103371015Y-89286953D01*
X103407118Y-89260363D01*
X103626687Y-89127041D01*
X103874408Y-89017880D01*
X104142425Y-88934787D01*
X104422877Y-88879668D01*
X104707906Y-88854429D01*
X104989654Y-88860976D01*
G36*
X104989654Y-88860976D02*
G01*
X105035755Y-88865293D01*
X105271412Y-88899607D01*
X105471993Y-88950637D01*
X105642036Y-89020166D01*
X105786078Y-89109975D01*
X105888163Y-89200198D01*
X105986265Y-89326185D01*
X106043318Y-89459478D01*
X106059499Y-89597777D01*
X106034988Y-89738781D01*
X105969963Y-89880191D01*
X105864603Y-90019705D01*
X105820947Y-90065001D01*
X105639584Y-90214768D01*
X105426263Y-90340839D01*
X105184977Y-90441870D01*
X104919721Y-90516518D01*
X104634486Y-90563439D01*
X104333267Y-90581290D01*
X104286212Y-90581373D01*
X104162382Y-90578723D01*
X104040539Y-90572721D01*
X103933294Y-90564203D01*
X103853261Y-90554008D01*
X103841712Y-90551858D01*
X103625043Y-90494781D01*
X103439683Y-90418010D01*
X103287317Y-90323013D01*
X103169631Y-90211253D01*
X103088312Y-90084198D01*
X103045045Y-89943311D01*
X103038050Y-89853335D01*
X103059059Y-89700269D01*
X103121501Y-89554938D01*
X103225459Y-89417210D01*
X103371015Y-89286953D01*
X103407118Y-89260363D01*
X103626687Y-89127041D01*
X103874408Y-89017880D01*
X104142425Y-88934787D01*
X104422877Y-88879668D01*
X104707906Y-88854429D01*
X104989654Y-88860976D01*
G37*
X55918182Y-87589785D02*
X56101710Y-87613038D01*
X56273115Y-87649862D01*
X56279471Y-87651590D01*
X56521539Y-87732114D01*
X56749413Y-87835549D01*
X56957544Y-87958182D01*
X57140384Y-88096294D01*
X57292386Y-88246171D01*
X57408000Y-88404097D01*
X57411218Y-88409552D01*
X57456481Y-88517216D01*
X57481330Y-88641494D01*
X57483628Y-88764993D01*
X57466173Y-88856598D01*
X57420053Y-88941612D01*
X57343054Y-89025594D01*
X57245734Y-89098852D01*
X57148946Y-89147819D01*
X57061243Y-89171537D01*
X56943060Y-89188998D01*
X56805842Y-89199808D01*
X56661034Y-89203574D01*
X56520083Y-89199902D01*
X56394433Y-89188399D01*
X56324668Y-89176152D01*
X56067250Y-89104996D01*
X55826233Y-89012488D01*
X55605861Y-88901401D01*
X55410377Y-88774508D01*
X55244026Y-88634581D01*
X55111048Y-88484393D01*
X55015690Y-88326718D01*
X55011770Y-88318213D01*
X54976795Y-88200036D01*
X54968720Y-88070358D01*
X54987568Y-87946243D01*
X55011173Y-87882850D01*
X55077120Y-87790984D01*
X55177130Y-87710142D01*
X55303325Y-87645580D01*
X55422962Y-87607974D01*
X55565997Y-87586601D01*
X55735341Y-87580755D01*
X55918182Y-87589785D01*
G36*
X55918182Y-87589785D02*
G01*
X56101710Y-87613038D01*
X56273115Y-87649862D01*
X56279471Y-87651590D01*
X56521539Y-87732114D01*
X56749413Y-87835549D01*
X56957544Y-87958182D01*
X57140384Y-88096294D01*
X57292386Y-88246171D01*
X57408000Y-88404097D01*
X57411218Y-88409552D01*
X57456481Y-88517216D01*
X57481330Y-88641494D01*
X57483628Y-88764993D01*
X57466173Y-88856598D01*
X57420053Y-88941612D01*
X57343054Y-89025594D01*
X57245734Y-89098852D01*
X57148946Y-89147819D01*
X57061243Y-89171537D01*
X56943060Y-89188998D01*
X56805842Y-89199808D01*
X56661034Y-89203574D01*
X56520083Y-89199902D01*
X56394433Y-89188399D01*
X56324668Y-89176152D01*
X56067250Y-89104996D01*
X55826233Y-89012488D01*
X55605861Y-88901401D01*
X55410377Y-88774508D01*
X55244026Y-88634581D01*
X55111048Y-88484393D01*
X55015690Y-88326718D01*
X55011770Y-88318213D01*
X54976795Y-88200036D01*
X54968720Y-88070358D01*
X54987568Y-87946243D01*
X55011173Y-87882850D01*
X55077120Y-87790984D01*
X55177130Y-87710142D01*
X55303325Y-87645580D01*
X55422962Y-87607974D01*
X55565997Y-87586601D01*
X55735341Y-87580755D01*
X55918182Y-87589785D01*
G37*
X59975077Y-88641675D02*
X60192973Y-88660329D01*
X60394694Y-88693163D01*
X60469119Y-88710521D01*
X60718522Y-88786523D01*
X60940223Y-88877707D01*
X61132385Y-88982271D01*
X61293171Y-89098415D01*
X61420745Y-89224337D01*
X61513270Y-89358235D01*
X61568911Y-89498310D01*
X61585830Y-89642759D01*
X61563841Y-89784209D01*
X61504846Y-89913391D01*
X61408150Y-90031735D01*
X61277620Y-90136417D01*
X61117124Y-90224612D01*
X60930529Y-90293498D01*
X60831045Y-90319279D01*
X60721572Y-90337621D01*
X60583035Y-90351434D01*
X60428509Y-90360257D01*
X60271066Y-90363631D01*
X60123781Y-90361096D01*
X59999727Y-90352194D01*
X59976648Y-90349307D01*
X59725298Y-90303395D01*
X59492285Y-90238797D01*
X59279939Y-90157612D01*
X59090588Y-90061939D01*
X58926563Y-89953879D01*
X58790192Y-89835530D01*
X58683805Y-89708994D01*
X58609732Y-89576370D01*
X58570302Y-89439757D01*
X58567843Y-89301255D01*
X58604687Y-89162964D01*
X58620997Y-89127291D01*
X58705978Y-89002956D01*
X58828351Y-88893230D01*
X58985158Y-88799915D01*
X59173443Y-88724812D01*
X59362813Y-88675221D01*
X59546149Y-88648680D01*
X59754853Y-88637645D01*
X59975077Y-88641675D01*
G36*
X59975077Y-88641675D02*
G01*
X60192973Y-88660329D01*
X60394694Y-88693163D01*
X60469119Y-88710521D01*
X60718522Y-88786523D01*
X60940223Y-88877707D01*
X61132385Y-88982271D01*
X61293171Y-89098415D01*
X61420745Y-89224337D01*
X61513270Y-89358235D01*
X61568911Y-89498310D01*
X61585830Y-89642759D01*
X61563841Y-89784209D01*
X61504846Y-89913391D01*
X61408150Y-90031735D01*
X61277620Y-90136417D01*
X61117124Y-90224612D01*
X60930529Y-90293498D01*
X60831045Y-90319279D01*
X60721572Y-90337621D01*
X60583035Y-90351434D01*
X60428509Y-90360257D01*
X60271066Y-90363631D01*
X60123781Y-90361096D01*
X59999727Y-90352194D01*
X59976648Y-90349307D01*
X59725298Y-90303395D01*
X59492285Y-90238797D01*
X59279939Y-90157612D01*
X59090588Y-90061939D01*
X58926563Y-89953879D01*
X58790192Y-89835530D01*
X58683805Y-89708994D01*
X58609732Y-89576370D01*
X58570302Y-89439757D01*
X58567843Y-89301255D01*
X58604687Y-89162964D01*
X58620997Y-89127291D01*
X58705978Y-89002956D01*
X58828351Y-88893230D01*
X58985158Y-88799915D01*
X59173443Y-88724812D01*
X59362813Y-88675221D01*
X59546149Y-88648680D01*
X59754853Y-88637645D01*
X59975077Y-88641675D01*
G37*
X90898295Y-93899451D02*
X91146592Y-93913910D01*
X91386732Y-93955520D01*
X91627352Y-94026624D01*
X91877088Y-94129563D01*
X92035000Y-94207635D01*
X92272088Y-94348238D01*
X92477795Y-94505417D01*
X92649202Y-94676429D01*
X92783390Y-94858534D01*
X92841459Y-94964897D01*
X92878806Y-95051007D01*
X92899108Y-95125553D01*
X92907223Y-95210101D01*
X92908220Y-95261230D01*
X92892951Y-95416675D01*
X92844408Y-95547629D01*
X92761370Y-95655648D01*
X92642618Y-95742285D01*
X92486932Y-95809095D01*
X92475212Y-95812882D01*
X92382783Y-95834588D01*
X92263267Y-95852045D01*
X92131801Y-95864052D01*
X92003521Y-95869406D01*
X91893564Y-95866907D01*
X91850795Y-95862428D01*
X91542362Y-95799747D01*
X91246226Y-95705769D01*
X90967737Y-95583140D01*
X90712242Y-95434509D01*
X90485090Y-95262524D01*
X90324526Y-95106799D01*
X90199505Y-94948956D01*
X90109890Y-94788993D01*
X90056656Y-94630498D01*
X90040775Y-94477059D01*
X90063220Y-94332264D01*
X90093471Y-94255110D01*
X90169182Y-94140763D01*
X90275243Y-94048372D01*
X90415407Y-93975054D01*
X90496129Y-93945717D01*
X90573089Y-93923535D01*
X90647483Y-93909413D01*
X90732360Y-93901850D01*
X90840771Y-93899345D01*
X90898295Y-93899451D01*
G36*
X90898295Y-93899451D02*
G01*
X91146592Y-93913910D01*
X91386732Y-93955520D01*
X91627352Y-94026624D01*
X91877088Y-94129563D01*
X92035000Y-94207635D01*
X92272088Y-94348238D01*
X92477795Y-94505417D01*
X92649202Y-94676429D01*
X92783390Y-94858534D01*
X92841459Y-94964897D01*
X92878806Y-95051007D01*
X92899108Y-95125553D01*
X92907223Y-95210101D01*
X92908220Y-95261230D01*
X92892951Y-95416675D01*
X92844408Y-95547629D01*
X92761370Y-95655648D01*
X92642618Y-95742285D01*
X92486932Y-95809095D01*
X92475212Y-95812882D01*
X92382783Y-95834588D01*
X92263267Y-95852045D01*
X92131801Y-95864052D01*
X92003521Y-95869406D01*
X91893564Y-95866907D01*
X91850795Y-95862428D01*
X91542362Y-95799747D01*
X91246226Y-95705769D01*
X90967737Y-95583140D01*
X90712242Y-95434509D01*
X90485090Y-95262524D01*
X90324526Y-95106799D01*
X90199505Y-94948956D01*
X90109890Y-94788993D01*
X90056656Y-94630498D01*
X90040775Y-94477059D01*
X90063220Y-94332264D01*
X90093471Y-94255110D01*
X90169182Y-94140763D01*
X90275243Y-94048372D01*
X90415407Y-93975054D01*
X90496129Y-93945717D01*
X90573089Y-93923535D01*
X90647483Y-93909413D01*
X90732360Y-93901850D01*
X90840771Y-93899345D01*
X90898295Y-93899451D01*
G37*
X107625812Y-77537730D02*
X107825359Y-77577306D01*
X107994960Y-77641874D01*
X108133220Y-77730429D01*
X108238746Y-77841968D01*
X108310143Y-77975486D01*
X108346018Y-78129980D01*
X108350212Y-78210219D01*
X108329892Y-78379813D01*
X108271029Y-78554187D01*
X108176765Y-78730749D01*
X108050242Y-78906905D01*
X107894604Y-79080063D01*
X107712991Y-79247630D01*
X107508548Y-79407012D01*
X107284417Y-79555616D01*
X107043739Y-79690850D01*
X106789659Y-79810121D01*
X106525317Y-79910835D01*
X106253858Y-79990400D01*
X106168455Y-80010431D01*
X106057468Y-80029150D01*
X105922497Y-80043126D01*
X105774755Y-80052062D01*
X105625459Y-80055662D01*
X105485823Y-80053627D01*
X105367064Y-80045662D01*
X105289550Y-80033699D01*
X105106306Y-79975295D01*
X104952907Y-79892008D01*
X104831342Y-79786410D01*
X104743598Y-79661076D01*
X104691664Y-79518577D01*
X104677526Y-79361488D01*
X104688918Y-79256204D01*
X104741999Y-79073703D01*
X104833783Y-78888668D01*
X104960981Y-78703943D01*
X105120306Y-78522369D01*
X105308470Y-78346789D01*
X105522183Y-78180046D01*
X105758159Y-78024982D01*
X106013110Y-77884441D01*
X106283746Y-77761264D01*
X106519295Y-77673796D01*
X106812809Y-77590454D01*
X107095683Y-77541239D01*
X107379412Y-77524191D01*
X107397712Y-77524149D01*
X107625812Y-77537730D01*
G36*
X107625812Y-77537730D02*
G01*
X107825359Y-77577306D01*
X107994960Y-77641874D01*
X108133220Y-77730429D01*
X108238746Y-77841968D01*
X108310143Y-77975486D01*
X108346018Y-78129980D01*
X108350212Y-78210219D01*
X108329892Y-78379813D01*
X108271029Y-78554187D01*
X108176765Y-78730749D01*
X108050242Y-78906905D01*
X107894604Y-79080063D01*
X107712991Y-79247630D01*
X107508548Y-79407012D01*
X107284417Y-79555616D01*
X107043739Y-79690850D01*
X106789659Y-79810121D01*
X106525317Y-79910835D01*
X106253858Y-79990400D01*
X106168455Y-80010431D01*
X106057468Y-80029150D01*
X105922497Y-80043126D01*
X105774755Y-80052062D01*
X105625459Y-80055662D01*
X105485823Y-80053627D01*
X105367064Y-80045662D01*
X105289550Y-80033699D01*
X105106306Y-79975295D01*
X104952907Y-79892008D01*
X104831342Y-79786410D01*
X104743598Y-79661076D01*
X104691664Y-79518577D01*
X104677526Y-79361488D01*
X104688918Y-79256204D01*
X104741999Y-79073703D01*
X104833783Y-78888668D01*
X104960981Y-78703943D01*
X105120306Y-78522369D01*
X105308470Y-78346789D01*
X105522183Y-78180046D01*
X105758159Y-78024982D01*
X106013110Y-77884441D01*
X106283746Y-77761264D01*
X106519295Y-77673796D01*
X106812809Y-77590454D01*
X107095683Y-77541239D01*
X107379412Y-77524191D01*
X107397712Y-77524149D01*
X107625812Y-77537730D01*
G37*
X54736664Y-74721625D02*
X54912361Y-74763545D01*
X55097443Y-74838105D01*
X55288897Y-74944920D01*
X55437119Y-75047667D01*
X55620399Y-75204507D01*
X55795421Y-75390309D01*
X55956673Y-75596904D01*
X56098644Y-75816126D01*
X56215822Y-76039806D01*
X56302697Y-76259778D01*
X56336634Y-76380751D01*
X56358603Y-76533897D01*
X56360834Y-76718211D01*
X56360786Y-76719418D01*
X56354961Y-76821886D01*
X56345154Y-76895905D01*
X56328304Y-76955347D01*
X56301351Y-77014088D01*
X56291895Y-77031718D01*
X56203881Y-77152125D01*
X56090896Y-77239220D01*
X55954949Y-77292313D01*
X55798051Y-77310713D01*
X55622211Y-77293730D01*
X55565138Y-77281408D01*
X55367862Y-77214056D01*
X55168708Y-77109403D01*
X54972119Y-76972005D01*
X54782536Y-76806420D01*
X54604400Y-76617205D01*
X54442152Y-76408918D01*
X54300233Y-76186117D01*
X54183086Y-75953357D01*
X54123422Y-75802012D01*
X54089049Y-75700340D01*
X54067083Y-75620951D01*
X54054842Y-75547740D01*
X54049642Y-75464598D01*
X54048799Y-75355420D01*
X54048804Y-75354168D01*
X54052420Y-75221287D01*
X54064318Y-75119687D01*
X54087708Y-75038622D01*
X54125797Y-74967345D01*
X54181793Y-74895109D01*
X54187954Y-74888042D01*
X54295997Y-74795553D01*
X54425471Y-74737244D01*
X54573364Y-74712729D01*
X54736664Y-74721625D01*
G36*
X54736664Y-74721625D02*
G01*
X54912361Y-74763545D01*
X55097443Y-74838105D01*
X55288897Y-74944920D01*
X55437119Y-75047667D01*
X55620399Y-75204507D01*
X55795421Y-75390309D01*
X55956673Y-75596904D01*
X56098644Y-75816126D01*
X56215822Y-76039806D01*
X56302697Y-76259778D01*
X56336634Y-76380751D01*
X56358603Y-76533897D01*
X56360834Y-76718211D01*
X56360786Y-76719418D01*
X56354961Y-76821886D01*
X56345154Y-76895905D01*
X56328304Y-76955347D01*
X56301351Y-77014088D01*
X56291895Y-77031718D01*
X56203881Y-77152125D01*
X56090896Y-77239220D01*
X55954949Y-77292313D01*
X55798051Y-77310713D01*
X55622211Y-77293730D01*
X55565138Y-77281408D01*
X55367862Y-77214056D01*
X55168708Y-77109403D01*
X54972119Y-76972005D01*
X54782536Y-76806420D01*
X54604400Y-76617205D01*
X54442152Y-76408918D01*
X54300233Y-76186117D01*
X54183086Y-75953357D01*
X54123422Y-75802012D01*
X54089049Y-75700340D01*
X54067083Y-75620951D01*
X54054842Y-75547740D01*
X54049642Y-75464598D01*
X54048799Y-75355420D01*
X54048804Y-75354168D01*
X54052420Y-75221287D01*
X54064318Y-75119687D01*
X54087708Y-75038622D01*
X54125797Y-74967345D01*
X54181793Y-74895109D01*
X54187954Y-74888042D01*
X54295997Y-74795553D01*
X54425471Y-74737244D01*
X54573364Y-74712729D01*
X54736664Y-74721625D01*
G37*
X74418845Y-93960635D02*
X74593329Y-94011233D01*
X74736030Y-94087723D01*
X74848257Y-94190721D01*
X74896295Y-94257009D01*
X74928898Y-94313682D01*
X74947997Y-94364186D01*
X74957102Y-94423586D01*
X74959723Y-94506949D01*
X74959778Y-94529508D01*
X74956899Y-94629370D01*
X74945923Y-94705303D01*
X74923309Y-94775464D01*
X74902644Y-94822422D01*
X74794115Y-95007319D01*
X74648666Y-95182540D01*
X74471146Y-95345298D01*
X74266403Y-95492805D01*
X74039287Y-95622274D01*
X73794647Y-95730917D01*
X73537331Y-95815946D01*
X73272188Y-95874574D01*
X73023045Y-95902948D01*
X72935582Y-95906650D01*
X72856466Y-95907289D01*
X72802276Y-95904742D01*
X72800795Y-95904564D01*
X72594401Y-95866046D01*
X72424447Y-95806709D01*
X72290392Y-95726338D01*
X72241839Y-95683455D01*
X72176365Y-95609985D01*
X72134603Y-95538732D01*
X72111767Y-95456655D01*
X72103070Y-95350714D01*
X72102478Y-95303751D01*
X72104139Y-95209079D01*
X72111881Y-95139569D01*
X72129499Y-95078115D01*
X72160784Y-95007607D01*
X72174109Y-94980722D01*
X72283894Y-94805086D01*
X72430097Y-94637666D01*
X72607143Y-94481321D01*
X72809458Y-94338914D01*
X73031465Y-94213304D01*
X73267591Y-94107354D01*
X73512259Y-94023924D01*
X73759896Y-93965874D01*
X74004925Y-93936067D01*
X74211262Y-93935312D01*
X74418845Y-93960635D01*
G36*
X74418845Y-93960635D02*
G01*
X74593329Y-94011233D01*
X74736030Y-94087723D01*
X74848257Y-94190721D01*
X74896295Y-94257009D01*
X74928898Y-94313682D01*
X74947997Y-94364186D01*
X74957102Y-94423586D01*
X74959723Y-94506949D01*
X74959778Y-94529508D01*
X74956899Y-94629370D01*
X74945923Y-94705303D01*
X74923309Y-94775464D01*
X74902644Y-94822422D01*
X74794115Y-95007319D01*
X74648666Y-95182540D01*
X74471146Y-95345298D01*
X74266403Y-95492805D01*
X74039287Y-95622274D01*
X73794647Y-95730917D01*
X73537331Y-95815946D01*
X73272188Y-95874574D01*
X73023045Y-95902948D01*
X72935582Y-95906650D01*
X72856466Y-95907289D01*
X72802276Y-95904742D01*
X72800795Y-95904564D01*
X72594401Y-95866046D01*
X72424447Y-95806709D01*
X72290392Y-95726338D01*
X72241839Y-95683455D01*
X72176365Y-95609985D01*
X72134603Y-95538732D01*
X72111767Y-95456655D01*
X72103070Y-95350714D01*
X72102478Y-95303751D01*
X72104139Y-95209079D01*
X72111881Y-95139569D01*
X72129499Y-95078115D01*
X72160784Y-95007607D01*
X72174109Y-94980722D01*
X72283894Y-94805086D01*
X72430097Y-94637666D01*
X72607143Y-94481321D01*
X72809458Y-94338914D01*
X73031465Y-94213304D01*
X73267591Y-94107354D01*
X73512259Y-94023924D01*
X73759896Y-93965874D01*
X74004925Y-93936067D01*
X74211262Y-93935312D01*
X74418845Y-93960635D01*
G37*
X87075964Y-90977347D02*
X87317650Y-91038910D01*
X87565407Y-91138929D01*
X87816811Y-91276180D01*
X88069438Y-91449440D01*
X88320863Y-91657486D01*
X88423284Y-91752793D01*
X88679599Y-92020781D01*
X88893922Y-92291653D01*
X89066520Y-92565807D01*
X89197662Y-92843635D01*
X89238025Y-92954251D01*
X89295942Y-93172167D01*
X89319257Y-93372606D01*
X89309409Y-93553449D01*
X89267838Y-93712577D01*
X89195982Y-93847870D01*
X89095281Y-93957207D01*
X88967174Y-94038469D01*
X88813100Y-94089537D01*
X88634498Y-94108290D01*
X88462193Y-94096931D01*
X88239098Y-94048161D01*
X88006130Y-93963074D01*
X87768022Y-93845088D01*
X87529505Y-93697621D01*
X87295312Y-93524091D01*
X87070175Y-93327914D01*
X86858827Y-93112508D01*
X86666001Y-92881292D01*
X86544889Y-92712329D01*
X86444436Y-92555599D01*
X86365427Y-92414978D01*
X86300409Y-92275636D01*
X86241932Y-92122744D01*
X86227420Y-92080544D01*
X86192609Y-91968589D01*
X86172045Y-91874198D01*
X86162160Y-91776533D01*
X86159563Y-91684251D01*
X86168691Y-91501604D01*
X86201501Y-91350892D01*
X86260369Y-91227467D01*
X86347673Y-91126680D01*
X86465792Y-91043884D01*
X86495245Y-91028085D01*
X86565933Y-90993244D01*
X86622264Y-90971564D01*
X86678582Y-90960045D01*
X86749232Y-90955691D01*
X86842774Y-90955461D01*
X87075964Y-90977347D01*
G36*
X87075964Y-90977347D02*
G01*
X87317650Y-91038910D01*
X87565407Y-91138929D01*
X87816811Y-91276180D01*
X88069438Y-91449440D01*
X88320863Y-91657486D01*
X88423284Y-91752793D01*
X88679599Y-92020781D01*
X88893922Y-92291653D01*
X89066520Y-92565807D01*
X89197662Y-92843635D01*
X89238025Y-92954251D01*
X89295942Y-93172167D01*
X89319257Y-93372606D01*
X89309409Y-93553449D01*
X89267838Y-93712577D01*
X89195982Y-93847870D01*
X89095281Y-93957207D01*
X88967174Y-94038469D01*
X88813100Y-94089537D01*
X88634498Y-94108290D01*
X88462193Y-94096931D01*
X88239098Y-94048161D01*
X88006130Y-93963074D01*
X87768022Y-93845088D01*
X87529505Y-93697621D01*
X87295312Y-93524091D01*
X87070175Y-93327914D01*
X86858827Y-93112508D01*
X86666001Y-92881292D01*
X86544889Y-92712329D01*
X86444436Y-92555599D01*
X86365427Y-92414978D01*
X86300409Y-92275636D01*
X86241932Y-92122744D01*
X86227420Y-92080544D01*
X86192609Y-91968589D01*
X86172045Y-91874198D01*
X86162160Y-91776533D01*
X86159563Y-91684251D01*
X86168691Y-91501604D01*
X86201501Y-91350892D01*
X86260369Y-91227467D01*
X86347673Y-91126680D01*
X86465792Y-91043884D01*
X86495245Y-91028085D01*
X86565933Y-90993244D01*
X86622264Y-90971564D01*
X86678582Y-90960045D01*
X86749232Y-90955691D01*
X86842774Y-90955461D01*
X87075964Y-90977347D01*
G37*
X78267448Y-90992783D02*
X78428708Y-91025454D01*
X78567927Y-91088831D01*
X78682423Y-91182661D01*
X78764460Y-91297202D01*
X78826881Y-91455588D01*
X78853643Y-91633743D01*
X78845241Y-91829415D01*
X78802170Y-92040353D01*
X78724927Y-92264304D01*
X78614008Y-92499017D01*
X78469908Y-92742241D01*
X78434591Y-92795501D01*
X78346906Y-92912907D01*
X78232913Y-93047036D01*
X78100640Y-93189855D01*
X77958115Y-93333328D01*
X77813368Y-93469419D01*
X77674427Y-93590093D01*
X77549321Y-93687315D01*
X77529686Y-93701154D01*
X77362114Y-93808515D01*
X77183344Y-93907893D01*
X77004529Y-93993840D01*
X76836824Y-94060912D01*
X76718534Y-94097223D01*
X76554223Y-94127813D01*
X76388320Y-94138930D01*
X76232978Y-94130641D01*
X76100347Y-94103009D01*
X76073977Y-94093789D01*
X75949794Y-94025429D01*
X75840871Y-93926052D01*
X75758941Y-93806827D01*
X75747419Y-93782909D01*
X75711998Y-93667493D01*
X75694014Y-93525390D01*
X75693785Y-93368628D01*
X75711628Y-93209234D01*
X75730027Y-93121726D01*
X75811761Y-92873449D01*
X75931026Y-92622125D01*
X76083721Y-92372382D01*
X76265746Y-92128849D01*
X76472999Y-91896153D01*
X76701379Y-91678923D01*
X76946787Y-91481787D01*
X77205121Y-91309373D01*
X77455637Y-91174190D01*
X77678242Y-91081520D01*
X77889533Y-91020564D01*
X78086829Y-90991068D01*
X78267448Y-90992783D01*
G36*
X78267448Y-90992783D02*
G01*
X78428708Y-91025454D01*
X78567927Y-91088831D01*
X78682423Y-91182661D01*
X78764460Y-91297202D01*
X78826881Y-91455588D01*
X78853643Y-91633743D01*
X78845241Y-91829415D01*
X78802170Y-92040353D01*
X78724927Y-92264304D01*
X78614008Y-92499017D01*
X78469908Y-92742241D01*
X78434591Y-92795501D01*
X78346906Y-92912907D01*
X78232913Y-93047036D01*
X78100640Y-93189855D01*
X77958115Y-93333328D01*
X77813368Y-93469419D01*
X77674427Y-93590093D01*
X77549321Y-93687315D01*
X77529686Y-93701154D01*
X77362114Y-93808515D01*
X77183344Y-93907893D01*
X77004529Y-93993840D01*
X76836824Y-94060912D01*
X76718534Y-94097223D01*
X76554223Y-94127813D01*
X76388320Y-94138930D01*
X76232978Y-94130641D01*
X76100347Y-94103009D01*
X76073977Y-94093789D01*
X75949794Y-94025429D01*
X75840871Y-93926052D01*
X75758941Y-93806827D01*
X75747419Y-93782909D01*
X75711998Y-93667493D01*
X75694014Y-93525390D01*
X75693785Y-93368628D01*
X75711628Y-93209234D01*
X75730027Y-93121726D01*
X75811761Y-92873449D01*
X75931026Y-92622125D01*
X76083721Y-92372382D01*
X76265746Y-92128849D01*
X76472999Y-91896153D01*
X76701379Y-91678923D01*
X76946787Y-91481787D01*
X77205121Y-91309373D01*
X77455637Y-91174190D01*
X77678242Y-91081520D01*
X77889533Y-91020564D01*
X78086829Y-90991068D01*
X78267448Y-90992783D01*
G37*
X57815560Y-77528271D02*
X57983301Y-77537773D01*
X58145692Y-77555512D01*
X58291100Y-77581095D01*
X58302732Y-77583717D01*
X58596806Y-77665696D01*
X58885047Y-77773534D01*
X59162873Y-77904101D01*
X59425702Y-78054269D01*
X59668952Y-78220909D01*
X59888040Y-78400893D01*
X60078386Y-78591091D01*
X60235408Y-78788376D01*
X60350929Y-78982309D01*
X60391373Y-79065844D01*
X60417140Y-79128896D01*
X60431535Y-79186096D01*
X60437862Y-79252074D01*
X60439427Y-79341462D01*
X60439462Y-79374239D01*
X60436427Y-79495953D01*
X60424439Y-79587429D01*
X60399176Y-79660509D01*
X60356314Y-79727036D01*
X60291528Y-79798850D01*
X60280309Y-79810154D01*
X60152111Y-79910585D01*
X59994066Y-79987954D01*
X59838986Y-80033266D01*
X59737120Y-80048047D01*
X59607146Y-80057019D01*
X59462910Y-80060030D01*
X59318260Y-80056924D01*
X59187040Y-80047551D01*
X59134802Y-80041062D01*
X58847376Y-79981752D01*
X58549818Y-79888631D01*
X58250869Y-79765780D01*
X57959276Y-79617279D01*
X57683783Y-79447210D01*
X57433133Y-79259652D01*
X57399334Y-79231216D01*
X57211858Y-79055245D01*
X57056639Y-78876416D01*
X56934807Y-78697342D01*
X56847491Y-78520633D01*
X56795819Y-78348901D01*
X56780920Y-78184757D01*
X56803923Y-78030812D01*
X56839901Y-77937115D01*
X56927786Y-77805167D01*
X57050688Y-77696978D01*
X57208569Y-77612577D01*
X57396564Y-77553112D01*
X57510559Y-77535548D01*
X57654102Y-77527398D01*
X57815560Y-77528271D01*
G36*
X57815560Y-77528271D02*
G01*
X57983301Y-77537773D01*
X58145692Y-77555512D01*
X58291100Y-77581095D01*
X58302732Y-77583717D01*
X58596806Y-77665696D01*
X58885047Y-77773534D01*
X59162873Y-77904101D01*
X59425702Y-78054269D01*
X59668952Y-78220909D01*
X59888040Y-78400893D01*
X60078386Y-78591091D01*
X60235408Y-78788376D01*
X60350929Y-78982309D01*
X60391373Y-79065844D01*
X60417140Y-79128896D01*
X60431535Y-79186096D01*
X60437862Y-79252074D01*
X60439427Y-79341462D01*
X60439462Y-79374239D01*
X60436427Y-79495953D01*
X60424439Y-79587429D01*
X60399176Y-79660509D01*
X60356314Y-79727036D01*
X60291528Y-79798850D01*
X60280309Y-79810154D01*
X60152111Y-79910585D01*
X59994066Y-79987954D01*
X59838986Y-80033266D01*
X59737120Y-80048047D01*
X59607146Y-80057019D01*
X59462910Y-80060030D01*
X59318260Y-80056924D01*
X59187040Y-80047551D01*
X59134802Y-80041062D01*
X58847376Y-79981752D01*
X58549818Y-79888631D01*
X58250869Y-79765780D01*
X57959276Y-79617279D01*
X57683783Y-79447210D01*
X57433133Y-79259652D01*
X57399334Y-79231216D01*
X57211858Y-79055245D01*
X57056639Y-78876416D01*
X56934807Y-78697342D01*
X56847491Y-78520633D01*
X56795819Y-78348901D01*
X56780920Y-78184757D01*
X56803923Y-78030812D01*
X56839901Y-77937115D01*
X56927786Y-77805167D01*
X57050688Y-77696978D01*
X57208569Y-77612577D01*
X57396564Y-77553112D01*
X57510559Y-77535548D01*
X57654102Y-77527398D01*
X57815560Y-77528271D01*
G37*
X81527864Y-85452594D02*
X81674252Y-85486560D01*
X81807883Y-85554261D01*
X81927068Y-85656335D01*
X82030117Y-85793421D01*
X82115343Y-85966157D01*
X82170869Y-86135322D01*
X82194201Y-86256260D01*
X82209474Y-86407480D01*
X82216579Y-86577686D01*
X82215408Y-86755578D01*
X82205850Y-86929860D01*
X82187797Y-87089233D01*
X82180535Y-87133418D01*
X82114957Y-87449396D01*
X82033049Y-87748719D01*
X81930711Y-88043632D01*
X81803838Y-88346378D01*
X81701852Y-88562168D01*
X81518497Y-88910698D01*
X81328346Y-89222721D01*
X81127460Y-89503971D01*
X80911900Y-89760176D01*
X80791395Y-89886725D01*
X80580255Y-90082431D01*
X80373416Y-90240304D01*
X80172113Y-90359746D01*
X79977577Y-90440157D01*
X79791043Y-90480935D01*
X79613744Y-90481480D01*
X79579029Y-90476631D01*
X79422296Y-90430351D01*
X79284474Y-90347264D01*
X79166571Y-90228925D01*
X79069595Y-90076887D01*
X78994556Y-89892707D01*
X78942461Y-89677938D01*
X78915626Y-89454094D01*
X78913460Y-89201644D01*
X78938955Y-88924680D01*
X78990452Y-88629224D01*
X79066288Y-88321296D01*
X79164805Y-88006915D01*
X79284340Y-87692104D01*
X79423234Y-87382881D01*
X79558668Y-87122835D01*
X79733913Y-86827861D01*
X79914980Y-86559599D01*
X80100179Y-86318687D01*
X80287821Y-86105763D01*
X80476218Y-85921465D01*
X80663681Y-85766432D01*
X80848520Y-85641303D01*
X81029047Y-85546716D01*
X81203573Y-85483310D01*
X81370408Y-85451723D01*
X81527864Y-85452594D01*
G36*
X81527864Y-85452594D02*
G01*
X81674252Y-85486560D01*
X81807883Y-85554261D01*
X81927068Y-85656335D01*
X82030117Y-85793421D01*
X82115343Y-85966157D01*
X82170869Y-86135322D01*
X82194201Y-86256260D01*
X82209474Y-86407480D01*
X82216579Y-86577686D01*
X82215408Y-86755578D01*
X82205850Y-86929860D01*
X82187797Y-87089233D01*
X82180535Y-87133418D01*
X82114957Y-87449396D01*
X82033049Y-87748719D01*
X81930711Y-88043632D01*
X81803838Y-88346378D01*
X81701852Y-88562168D01*
X81518497Y-88910698D01*
X81328346Y-89222721D01*
X81127460Y-89503971D01*
X80911900Y-89760176D01*
X80791395Y-89886725D01*
X80580255Y-90082431D01*
X80373416Y-90240304D01*
X80172113Y-90359746D01*
X79977577Y-90440157D01*
X79791043Y-90480935D01*
X79613744Y-90481480D01*
X79579029Y-90476631D01*
X79422296Y-90430351D01*
X79284474Y-90347264D01*
X79166571Y-90228925D01*
X79069595Y-90076887D01*
X78994556Y-89892707D01*
X78942461Y-89677938D01*
X78915626Y-89454094D01*
X78913460Y-89201644D01*
X78938955Y-88924680D01*
X78990452Y-88629224D01*
X79066288Y-88321296D01*
X79164805Y-88006915D01*
X79284340Y-87692104D01*
X79423234Y-87382881D01*
X79558668Y-87122835D01*
X79733913Y-86827861D01*
X79914980Y-86559599D01*
X80100179Y-86318687D01*
X80287821Y-86105763D01*
X80476218Y-85921465D01*
X80663681Y-85766432D01*
X80848520Y-85641303D01*
X81029047Y-85546716D01*
X81203573Y-85483310D01*
X81370408Y-85451723D01*
X81527864Y-85452594D01*
G37*
X99365930Y-88426702D02*
X99637026Y-88462597D01*
X99910984Y-88519734D01*
X100179879Y-88597235D01*
X100452362Y-88699639D01*
X100699760Y-88817944D01*
X100918927Y-88949912D01*
X101106722Y-89093302D01*
X101260000Y-89245873D01*
X101375619Y-89405386D01*
X101413334Y-89476312D01*
X101449908Y-89559784D01*
X101470640Y-89629349D01*
X101479786Y-89704543D01*
X101481629Y-89789835D01*
X101479546Y-89882503D01*
X101470850Y-89949464D01*
X101451869Y-90007242D01*
X101418933Y-90072361D01*
X101418803Y-90072596D01*
X101334716Y-90193290D01*
X101224186Y-90295204D01*
X101080312Y-90384362D01*
X101037129Y-90405940D01*
X100920242Y-90458402D01*
X100809703Y-90498817D01*
X100696929Y-90528777D01*
X100573340Y-90549876D01*
X100430356Y-90563707D01*
X100259396Y-90571863D01*
X100126962Y-90574912D01*
X99919374Y-90576215D01*
X99749614Y-90572557D01*
X99613449Y-90563780D01*
X99522198Y-90552379D01*
X99217546Y-90491042D01*
X98929087Y-90409533D01*
X98660128Y-90309770D01*
X98413973Y-90193672D01*
X98193929Y-90063157D01*
X98003301Y-89920145D01*
X97845396Y-89766554D01*
X97723518Y-89604302D01*
X97653410Y-89467682D01*
X97620613Y-89346602D01*
X97610501Y-89210973D01*
X97623012Y-89077950D01*
X97655274Y-88970762D01*
X97736863Y-88839695D01*
X97854063Y-88725026D01*
X98003237Y-88627293D01*
X98180744Y-88547034D01*
X98382946Y-88484789D01*
X98606205Y-88441094D01*
X98846881Y-88416490D01*
X99101335Y-88411513D01*
X99365930Y-88426702D01*
G36*
X99365930Y-88426702D02*
G01*
X99637026Y-88462597D01*
X99910984Y-88519734D01*
X100179879Y-88597235D01*
X100452362Y-88699639D01*
X100699760Y-88817944D01*
X100918927Y-88949912D01*
X101106722Y-89093302D01*
X101260000Y-89245873D01*
X101375619Y-89405386D01*
X101413334Y-89476312D01*
X101449908Y-89559784D01*
X101470640Y-89629349D01*
X101479786Y-89704543D01*
X101481629Y-89789835D01*
X101479546Y-89882503D01*
X101470850Y-89949464D01*
X101451869Y-90007242D01*
X101418933Y-90072361D01*
X101418803Y-90072596D01*
X101334716Y-90193290D01*
X101224186Y-90295204D01*
X101080312Y-90384362D01*
X101037129Y-90405940D01*
X100920242Y-90458402D01*
X100809703Y-90498817D01*
X100696929Y-90528777D01*
X100573340Y-90549876D01*
X100430356Y-90563707D01*
X100259396Y-90571863D01*
X100126962Y-90574912D01*
X99919374Y-90576215D01*
X99749614Y-90572557D01*
X99613449Y-90563780D01*
X99522198Y-90552379D01*
X99217546Y-90491042D01*
X98929087Y-90409533D01*
X98660128Y-90309770D01*
X98413973Y-90193672D01*
X98193929Y-90063157D01*
X98003301Y-89920145D01*
X97845396Y-89766554D01*
X97723518Y-89604302D01*
X97653410Y-89467682D01*
X97620613Y-89346602D01*
X97610501Y-89210973D01*
X97623012Y-89077950D01*
X97655274Y-88970762D01*
X97736863Y-88839695D01*
X97854063Y-88725026D01*
X98003237Y-88627293D01*
X98180744Y-88547034D01*
X98382946Y-88484789D01*
X98606205Y-88441094D01*
X98846881Y-88416490D01*
X99101335Y-88411513D01*
X99365930Y-88426702D01*
G37*
X65881288Y-88202808D02*
X66042426Y-88221216D01*
X66286100Y-88273891D01*
X66496268Y-88345734D01*
X66671910Y-88435885D01*
X66812004Y-88543486D01*
X66915529Y-88667679D01*
X66981462Y-88807602D01*
X67008783Y-88962399D01*
X67008399Y-89033420D01*
X66978225Y-89198994D01*
X66908150Y-89360853D01*
X66800559Y-89517261D01*
X66657837Y-89666481D01*
X66482371Y-89806778D01*
X66276547Y-89936415D01*
X66042749Y-90053657D01*
X65783363Y-90156767D01*
X65500775Y-90244010D01*
X65268898Y-90299276D01*
X65147452Y-90322497D01*
X65031595Y-90339170D01*
X64908482Y-90350569D01*
X64765269Y-90357969D01*
X64641045Y-90361569D01*
X64518316Y-90363879D01*
X64409040Y-90365065D01*
X64320785Y-90365113D01*
X64261116Y-90364011D01*
X64238879Y-90362253D01*
X64203360Y-90355235D01*
X64139154Y-90343860D01*
X64059381Y-90330444D01*
X64049573Y-90328837D01*
X63818861Y-90277727D01*
X63618053Y-90205319D01*
X63449020Y-90112953D01*
X63313635Y-90001970D01*
X63213770Y-89873708D01*
X63151298Y-89729507D01*
X63138912Y-89677110D01*
X63130002Y-89520046D01*
X63161074Y-89363030D01*
X63229817Y-89207957D01*
X63333920Y-89056722D01*
X63471071Y-88911220D01*
X63638959Y-88773347D01*
X63835274Y-88644998D01*
X64057704Y-88528069D01*
X64303938Y-88424456D01*
X64571665Y-88336053D01*
X64858574Y-88264756D01*
X64861824Y-88264075D01*
X65049673Y-88232276D01*
X65257842Y-88209803D01*
X65474033Y-88197103D01*
X65685948Y-88194623D01*
X65881288Y-88202808D01*
G36*
X65881288Y-88202808D02*
G01*
X66042426Y-88221216D01*
X66286100Y-88273891D01*
X66496268Y-88345734D01*
X66671910Y-88435885D01*
X66812004Y-88543486D01*
X66915529Y-88667679D01*
X66981462Y-88807602D01*
X67008783Y-88962399D01*
X67008399Y-89033420D01*
X66978225Y-89198994D01*
X66908150Y-89360853D01*
X66800559Y-89517261D01*
X66657837Y-89666481D01*
X66482371Y-89806778D01*
X66276547Y-89936415D01*
X66042749Y-90053657D01*
X65783363Y-90156767D01*
X65500775Y-90244010D01*
X65268898Y-90299276D01*
X65147452Y-90322497D01*
X65031595Y-90339170D01*
X64908482Y-90350569D01*
X64765269Y-90357969D01*
X64641045Y-90361569D01*
X64518316Y-90363879D01*
X64409040Y-90365065D01*
X64320785Y-90365113D01*
X64261116Y-90364011D01*
X64238879Y-90362253D01*
X64203360Y-90355235D01*
X64139154Y-90343860D01*
X64059381Y-90330444D01*
X64049573Y-90328837D01*
X63818861Y-90277727D01*
X63618053Y-90205319D01*
X63449020Y-90112953D01*
X63313635Y-90001970D01*
X63213770Y-89873708D01*
X63151298Y-89729507D01*
X63138912Y-89677110D01*
X63130002Y-89520046D01*
X63161074Y-89363030D01*
X63229817Y-89207957D01*
X63333920Y-89056722D01*
X63471071Y-88911220D01*
X63638959Y-88773347D01*
X63835274Y-88644998D01*
X64057704Y-88528069D01*
X64303938Y-88424456D01*
X64571665Y-88336053D01*
X64858574Y-88264756D01*
X64861824Y-88264075D01*
X65049673Y-88232276D01*
X65257842Y-88209803D01*
X65474033Y-88197103D01*
X65685948Y-88194623D01*
X65881288Y-88202808D01*
G37*
X63722986Y-47559280D02*
X64000528Y-47628954D01*
X64262493Y-47732792D01*
X64506245Y-47868393D01*
X64729146Y-48033350D01*
X64928558Y-48225262D01*
X65101843Y-48441725D01*
X65246364Y-48680334D01*
X65359483Y-48938686D01*
X65438562Y-49214378D01*
X65480964Y-49505006D01*
X65487712Y-49679001D01*
X65467417Y-49976523D01*
X65408160Y-50262760D01*
X65312385Y-50534693D01*
X65182533Y-50789305D01*
X65021048Y-51023579D01*
X64830372Y-51234496D01*
X64612948Y-51419039D01*
X64371218Y-51574189D01*
X64107626Y-51696930D01*
X63824613Y-51784242D01*
X63774682Y-51795358D01*
X63640480Y-51816725D01*
X63483441Y-51831025D01*
X63320362Y-51837511D01*
X63168043Y-51835436D01*
X63064129Y-51826972D01*
X62816777Y-51778434D01*
X62564716Y-51697383D01*
X62321919Y-51589292D01*
X62102358Y-51459634D01*
X62071624Y-51438187D01*
X62001398Y-51382812D01*
X61915574Y-51307459D01*
X61826889Y-51223606D01*
X61772389Y-51168568D01*
X61580082Y-50941346D01*
X61425898Y-50699162D01*
X61306937Y-50436763D01*
X61228834Y-50183960D01*
X61199914Y-50026801D01*
X61183189Y-49844091D01*
X61178685Y-49649941D01*
X61186425Y-49458462D01*
X61206434Y-49283764D01*
X61227104Y-49181585D01*
X61321595Y-48888386D01*
X61451735Y-48617144D01*
X61616692Y-48369304D01*
X61815636Y-48146314D01*
X61829517Y-48132911D01*
X62065656Y-47933248D01*
X62315292Y-47773579D01*
X62579366Y-47653470D01*
X62858820Y-47572487D01*
X63131725Y-47532042D01*
X63432506Y-47526175D01*
X63722986Y-47559280D01*
G36*
X63722986Y-47559280D02*
G01*
X64000528Y-47628954D01*
X64262493Y-47732792D01*
X64506245Y-47868393D01*
X64729146Y-48033350D01*
X64928558Y-48225262D01*
X65101843Y-48441725D01*
X65246364Y-48680334D01*
X65359483Y-48938686D01*
X65438562Y-49214378D01*
X65480964Y-49505006D01*
X65487712Y-49679001D01*
X65467417Y-49976523D01*
X65408160Y-50262760D01*
X65312385Y-50534693D01*
X65182533Y-50789305D01*
X65021048Y-51023579D01*
X64830372Y-51234496D01*
X64612948Y-51419039D01*
X64371218Y-51574189D01*
X64107626Y-51696930D01*
X63824613Y-51784242D01*
X63774682Y-51795358D01*
X63640480Y-51816725D01*
X63483441Y-51831025D01*
X63320362Y-51837511D01*
X63168043Y-51835436D01*
X63064129Y-51826972D01*
X62816777Y-51778434D01*
X62564716Y-51697383D01*
X62321919Y-51589292D01*
X62102358Y-51459634D01*
X62071624Y-51438187D01*
X62001398Y-51382812D01*
X61915574Y-51307459D01*
X61826889Y-51223606D01*
X61772389Y-51168568D01*
X61580082Y-50941346D01*
X61425898Y-50699162D01*
X61306937Y-50436763D01*
X61228834Y-50183960D01*
X61199914Y-50026801D01*
X61183189Y-49844091D01*
X61178685Y-49649941D01*
X61186425Y-49458462D01*
X61206434Y-49283764D01*
X61227104Y-49181585D01*
X61321595Y-48888386D01*
X61451735Y-48617144D01*
X61616692Y-48369304D01*
X61815636Y-48146314D01*
X61829517Y-48132911D01*
X62065656Y-47933248D01*
X62315292Y-47773579D01*
X62579366Y-47653470D01*
X62858820Y-47572487D01*
X63131725Y-47532042D01*
X63432506Y-47526175D01*
X63722986Y-47559280D01*
G37*
X83760692Y-85437741D02*
X83904774Y-85474844D01*
X83941564Y-85488860D01*
X84152622Y-85596292D01*
X84364515Y-85742234D01*
X84574835Y-85922985D01*
X84781174Y-86134846D01*
X84981128Y-86374115D01*
X85172288Y-86637094D01*
X85352249Y-86920083D01*
X85518603Y-87219381D01*
X85668944Y-87531288D01*
X85800865Y-87852105D01*
X85911959Y-88178132D01*
X85999820Y-88505668D01*
X86043920Y-88720918D01*
X86068142Y-88893207D01*
X86083166Y-89079933D01*
X86088866Y-89269462D01*
X86085117Y-89450160D01*
X86071791Y-89610392D01*
X86054652Y-89713760D01*
X85994299Y-89918179D01*
X85910467Y-90091863D01*
X85804799Y-90233078D01*
X85678937Y-90340087D01*
X85534524Y-90411154D01*
X85373205Y-90444542D01*
X85362183Y-90445366D01*
X85274240Y-90447392D01*
X85189253Y-90443093D01*
X85140962Y-90436283D01*
X84947441Y-90374929D01*
X84746227Y-90272883D01*
X84538443Y-90130858D01*
X84325209Y-89949566D01*
X84228501Y-89856093D01*
X84009089Y-89617982D01*
X83803941Y-89359286D01*
X83614217Y-89083643D01*
X83441073Y-88794692D01*
X83285670Y-88496072D01*
X83149164Y-88191421D01*
X83032713Y-87884378D01*
X82937478Y-87578581D01*
X82864614Y-87277669D01*
X82815281Y-86985280D01*
X82790637Y-86705054D01*
X82791841Y-86440629D01*
X82820049Y-86195643D01*
X82876422Y-85973734D01*
X82942364Y-85815687D01*
X83015410Y-85700819D01*
X83109466Y-85595813D01*
X83213995Y-85510598D01*
X83318460Y-85455103D01*
X83328935Y-85451424D01*
X83457576Y-85425102D01*
X83606561Y-85420851D01*
X83760692Y-85437741D01*
G36*
X83760692Y-85437741D02*
G01*
X83904774Y-85474844D01*
X83941564Y-85488860D01*
X84152622Y-85596292D01*
X84364515Y-85742234D01*
X84574835Y-85922985D01*
X84781174Y-86134846D01*
X84981128Y-86374115D01*
X85172288Y-86637094D01*
X85352249Y-86920083D01*
X85518603Y-87219381D01*
X85668944Y-87531288D01*
X85800865Y-87852105D01*
X85911959Y-88178132D01*
X85999820Y-88505668D01*
X86043920Y-88720918D01*
X86068142Y-88893207D01*
X86083166Y-89079933D01*
X86088866Y-89269462D01*
X86085117Y-89450160D01*
X86071791Y-89610392D01*
X86054652Y-89713760D01*
X85994299Y-89918179D01*
X85910467Y-90091863D01*
X85804799Y-90233078D01*
X85678937Y-90340087D01*
X85534524Y-90411154D01*
X85373205Y-90444542D01*
X85362183Y-90445366D01*
X85274240Y-90447392D01*
X85189253Y-90443093D01*
X85140962Y-90436283D01*
X84947441Y-90374929D01*
X84746227Y-90272883D01*
X84538443Y-90130858D01*
X84325209Y-89949566D01*
X84228501Y-89856093D01*
X84009089Y-89617982D01*
X83803941Y-89359286D01*
X83614217Y-89083643D01*
X83441073Y-88794692D01*
X83285670Y-88496072D01*
X83149164Y-88191421D01*
X83032713Y-87884378D01*
X82937478Y-87578581D01*
X82864614Y-87277669D01*
X82815281Y-86985280D01*
X82790637Y-86705054D01*
X82791841Y-86440629D01*
X82820049Y-86195643D01*
X82876422Y-85973734D01*
X82942364Y-85815687D01*
X83015410Y-85700819D01*
X83109466Y-85595813D01*
X83213995Y-85510598D01*
X83318460Y-85455103D01*
X83328935Y-85451424D01*
X83457576Y-85425102D01*
X83606561Y-85420851D01*
X83760692Y-85437741D01*
G37*
X100672439Y-46284482D02*
X100972103Y-46331753D01*
X101252684Y-46416730D01*
X101515083Y-46539838D01*
X101760204Y-46701501D01*
X101988949Y-46902143D01*
X101991303Y-46904493D01*
X102191368Y-47131198D01*
X102352602Y-47373180D01*
X102476132Y-47632816D01*
X102563087Y-47912480D01*
X102614595Y-48214545D01*
X102614912Y-48217483D01*
X102625835Y-48513125D01*
X102594597Y-48805186D01*
X102521238Y-49093452D01*
X102405797Y-49377706D01*
X102403391Y-49382668D01*
X102253962Y-49643075D01*
X102073673Y-49876144D01*
X101865576Y-50079872D01*
X101632729Y-50252253D01*
X101378187Y-50391284D01*
X101105004Y-50494960D01*
X100816237Y-50561276D01*
X100568526Y-50586437D01*
X100455504Y-50589190D01*
X100340696Y-50588024D01*
X100241260Y-50583277D01*
X100198373Y-50579142D01*
X99957915Y-50532340D01*
X99710854Y-50454248D01*
X99471671Y-50350289D01*
X99255075Y-50226034D01*
X99184496Y-50174536D01*
X99098172Y-50104512D01*
X99010111Y-50027548D01*
X98970155Y-49990414D01*
X98770873Y-49772411D01*
X98606483Y-49533710D01*
X98477390Y-49278167D01*
X98384001Y-49009637D01*
X98326722Y-48731974D01*
X98305957Y-48449035D01*
X98322114Y-48164674D01*
X98375598Y-47882746D01*
X98466814Y-47607107D01*
X98596170Y-47341611D01*
X98677484Y-47210569D01*
X98729759Y-47140790D01*
X98802955Y-47053961D01*
X98886884Y-46961743D01*
X98961929Y-46885001D01*
X99190806Y-46688932D01*
X99439571Y-46529689D01*
X99705794Y-46408125D01*
X99987050Y-46325093D01*
X100280910Y-46281444D01*
X100584947Y-46278031D01*
X100672439Y-46284482D01*
G36*
X100672439Y-46284482D02*
G01*
X100972103Y-46331753D01*
X101252684Y-46416730D01*
X101515083Y-46539838D01*
X101760204Y-46701501D01*
X101988949Y-46902143D01*
X101991303Y-46904493D01*
X102191368Y-47131198D01*
X102352602Y-47373180D01*
X102476132Y-47632816D01*
X102563087Y-47912480D01*
X102614595Y-48214545D01*
X102614912Y-48217483D01*
X102625835Y-48513125D01*
X102594597Y-48805186D01*
X102521238Y-49093452D01*
X102405797Y-49377706D01*
X102403391Y-49382668D01*
X102253962Y-49643075D01*
X102073673Y-49876144D01*
X101865576Y-50079872D01*
X101632729Y-50252253D01*
X101378187Y-50391284D01*
X101105004Y-50494960D01*
X100816237Y-50561276D01*
X100568526Y-50586437D01*
X100455504Y-50589190D01*
X100340696Y-50588024D01*
X100241260Y-50583277D01*
X100198373Y-50579142D01*
X99957915Y-50532340D01*
X99710854Y-50454248D01*
X99471671Y-50350289D01*
X99255075Y-50226034D01*
X99184496Y-50174536D01*
X99098172Y-50104512D01*
X99010111Y-50027548D01*
X98970155Y-49990414D01*
X98770873Y-49772411D01*
X98606483Y-49533710D01*
X98477390Y-49278167D01*
X98384001Y-49009637D01*
X98326722Y-48731974D01*
X98305957Y-48449035D01*
X98322114Y-48164674D01*
X98375598Y-47882746D01*
X98466814Y-47607107D01*
X98596170Y-47341611D01*
X98677484Y-47210569D01*
X98729759Y-47140790D01*
X98802955Y-47053961D01*
X98886884Y-46961743D01*
X98961929Y-46885001D01*
X99190806Y-46688932D01*
X99439571Y-46529689D01*
X99705794Y-46408125D01*
X99987050Y-46325093D01*
X100280910Y-46281444D01*
X100584947Y-46278031D01*
X100672439Y-46284482D01*
G37*
X72694284Y-84472123D02*
X72791587Y-84485571D01*
X72972270Y-84541804D01*
X73130978Y-84628819D01*
X73263130Y-84743007D01*
X73364143Y-84880757D01*
X73406705Y-84970150D01*
X73438759Y-85090239D01*
X73454547Y-85237107D01*
X73454060Y-85398448D01*
X73437290Y-85561954D01*
X73407212Y-85704668D01*
X73334362Y-85915794D01*
X73228656Y-86142540D01*
X73093625Y-86378891D01*
X72932800Y-86618834D01*
X72749713Y-86856354D01*
X72687970Y-86929737D01*
X72435530Y-87202200D01*
X72156795Y-87464435D01*
X71856998Y-87713156D01*
X71541368Y-87945074D01*
X71215139Y-88156904D01*
X70883541Y-88345357D01*
X70551806Y-88507146D01*
X70225164Y-88638985D01*
X69908848Y-88737585D01*
X69752795Y-88774095D01*
X69605754Y-88797830D01*
X69445714Y-88812787D01*
X69285216Y-88818619D01*
X69136801Y-88814984D01*
X69013009Y-88801537D01*
X68981456Y-88795290D01*
X68795952Y-88734943D01*
X68640575Y-88646552D01*
X68515754Y-88532242D01*
X68421917Y-88394137D01*
X68359494Y-88234362D01*
X68328911Y-88055041D01*
X68330599Y-87858297D01*
X68364984Y-87646255D01*
X68432496Y-87421040D01*
X68533563Y-87184776D01*
X68622777Y-87016963D01*
X68818239Y-86712371D01*
X69051076Y-86411944D01*
X69316332Y-86119442D01*
X69609049Y-85838622D01*
X69924271Y-85573245D01*
X70257041Y-85327068D01*
X70602404Y-85103852D01*
X70955402Y-84907354D01*
X71311078Y-84741334D01*
X71664477Y-84609551D01*
X71880045Y-84546745D01*
X72037809Y-84512856D01*
X72209356Y-84487694D01*
X72383445Y-84472015D01*
X72548834Y-84466574D01*
X72694284Y-84472123D01*
G36*
X72694284Y-84472123D02*
G01*
X72791587Y-84485571D01*
X72972270Y-84541804D01*
X73130978Y-84628819D01*
X73263130Y-84743007D01*
X73364143Y-84880757D01*
X73406705Y-84970150D01*
X73438759Y-85090239D01*
X73454547Y-85237107D01*
X73454060Y-85398448D01*
X73437290Y-85561954D01*
X73407212Y-85704668D01*
X73334362Y-85915794D01*
X73228656Y-86142540D01*
X73093625Y-86378891D01*
X72932800Y-86618834D01*
X72749713Y-86856354D01*
X72687970Y-86929737D01*
X72435530Y-87202200D01*
X72156795Y-87464435D01*
X71856998Y-87713156D01*
X71541368Y-87945074D01*
X71215139Y-88156904D01*
X70883541Y-88345357D01*
X70551806Y-88507146D01*
X70225164Y-88638985D01*
X69908848Y-88737585D01*
X69752795Y-88774095D01*
X69605754Y-88797830D01*
X69445714Y-88812787D01*
X69285216Y-88818619D01*
X69136801Y-88814984D01*
X69013009Y-88801537D01*
X68981456Y-88795290D01*
X68795952Y-88734943D01*
X68640575Y-88646552D01*
X68515754Y-88532242D01*
X68421917Y-88394137D01*
X68359494Y-88234362D01*
X68328911Y-88055041D01*
X68330599Y-87858297D01*
X68364984Y-87646255D01*
X68432496Y-87421040D01*
X68533563Y-87184776D01*
X68622777Y-87016963D01*
X68818239Y-86712371D01*
X69051076Y-86411944D01*
X69316332Y-86119442D01*
X69609049Y-85838622D01*
X69924271Y-85573245D01*
X70257041Y-85327068D01*
X70602404Y-85103852D01*
X70955402Y-84907354D01*
X71311078Y-84741334D01*
X71664477Y-84609551D01*
X71880045Y-84546745D01*
X72037809Y-84512856D01*
X72209356Y-84487694D01*
X72383445Y-84472015D01*
X72548834Y-84466574D01*
X72694284Y-84472123D01*
G37*
X92461633Y-84710696D02*
X92728393Y-84766053D01*
X93014544Y-84851289D01*
X93237468Y-84933788D01*
X93608120Y-85100232D01*
X93977103Y-85301349D01*
X94338771Y-85532630D01*
X94687477Y-85789568D01*
X95017576Y-86067655D01*
X95323420Y-86362384D01*
X95599365Y-86669247D01*
X95839763Y-86983736D01*
X95881246Y-87044415D01*
X95955777Y-87165122D01*
X96033576Y-87307378D01*
X96107889Y-87457473D01*
X96171957Y-87601696D01*
X96219026Y-87726338D01*
X96222370Y-87736668D01*
X96252264Y-87858872D01*
X96272532Y-87999920D01*
X96282678Y-88147458D01*
X96282205Y-88289135D01*
X96270616Y-88412598D01*
X96252694Y-88490908D01*
X96179968Y-88655089D01*
X96079455Y-88788944D01*
X95949157Y-88894266D01*
X95787076Y-88972850D01*
X95678160Y-89006769D01*
X95565812Y-89026230D01*
X95424446Y-89035882D01*
X95266176Y-89035925D01*
X95103117Y-89026557D01*
X94947384Y-89007977D01*
X94867045Y-88993447D01*
X94527393Y-88904100D01*
X94179575Y-88777602D01*
X93828262Y-88617143D01*
X93478122Y-88425913D01*
X93133824Y-88207101D01*
X92800038Y-87963897D01*
X92481431Y-87699492D01*
X92182673Y-87417074D01*
X91908433Y-87119835D01*
X91663380Y-86810964D01*
X91654248Y-86798409D01*
X91558617Y-86655139D01*
X91464259Y-86493262D01*
X91376365Y-86323360D01*
X91300128Y-86156016D01*
X91240739Y-86001812D01*
X91206745Y-85886276D01*
X91167975Y-85656231D01*
X91163966Y-85448855D01*
X91193323Y-85264802D01*
X91254647Y-85104729D01*
X91346542Y-84969291D01*
X91467610Y-84859143D01*
X91616453Y-84774940D01*
X91791674Y-84717339D01*
X91991876Y-84686994D01*
X92215662Y-84684561D01*
X92461633Y-84710696D01*
G36*
X92461633Y-84710696D02*
G01*
X92728393Y-84766053D01*
X93014544Y-84851289D01*
X93237468Y-84933788D01*
X93608120Y-85100232D01*
X93977103Y-85301349D01*
X94338771Y-85532630D01*
X94687477Y-85789568D01*
X95017576Y-86067655D01*
X95323420Y-86362384D01*
X95599365Y-86669247D01*
X95839763Y-86983736D01*
X95881246Y-87044415D01*
X95955777Y-87165122D01*
X96033576Y-87307378D01*
X96107889Y-87457473D01*
X96171957Y-87601696D01*
X96219026Y-87726338D01*
X96222370Y-87736668D01*
X96252264Y-87858872D01*
X96272532Y-87999920D01*
X96282678Y-88147458D01*
X96282205Y-88289135D01*
X96270616Y-88412598D01*
X96252694Y-88490908D01*
X96179968Y-88655089D01*
X96079455Y-88788944D01*
X95949157Y-88894266D01*
X95787076Y-88972850D01*
X95678160Y-89006769D01*
X95565812Y-89026230D01*
X95424446Y-89035882D01*
X95266176Y-89035925D01*
X95103117Y-89026557D01*
X94947384Y-89007977D01*
X94867045Y-88993447D01*
X94527393Y-88904100D01*
X94179575Y-88777602D01*
X93828262Y-88617143D01*
X93478122Y-88425913D01*
X93133824Y-88207101D01*
X92800038Y-87963897D01*
X92481431Y-87699492D01*
X92182673Y-87417074D01*
X91908433Y-87119835D01*
X91663380Y-86810964D01*
X91654248Y-86798409D01*
X91558617Y-86655139D01*
X91464259Y-86493262D01*
X91376365Y-86323360D01*
X91300128Y-86156016D01*
X91240739Y-86001812D01*
X91206745Y-85886276D01*
X91167975Y-85656231D01*
X91163966Y-85448855D01*
X91193323Y-85264802D01*
X91254647Y-85104729D01*
X91346542Y-84969291D01*
X91467610Y-84859143D01*
X91616453Y-84774940D01*
X91791674Y-84717339D01*
X91991876Y-84686994D01*
X92215662Y-84684561D01*
X92461633Y-84710696D01*
G37*
X65004679Y-78942066D02*
X65176364Y-78947173D01*
X65324356Y-78955349D01*
X65403045Y-78962353D01*
X65721265Y-79007080D01*
X66018212Y-79068900D01*
X66291379Y-79146571D01*
X66538257Y-79238851D01*
X66756337Y-79344498D01*
X66943113Y-79462271D01*
X67096075Y-79590927D01*
X67212717Y-79729227D01*
X67290529Y-79875926D01*
X67299614Y-79901310D01*
X67326516Y-80039082D01*
X67324187Y-80190274D01*
X67293879Y-80338932D01*
X67258193Y-80429884D01*
X67154544Y-80595514D01*
X67011700Y-80751343D01*
X66831904Y-80896234D01*
X66617399Y-81029047D01*
X66370429Y-81148642D01*
X66093235Y-81253882D01*
X65788062Y-81343626D01*
X65457152Y-81416735D01*
X65244295Y-81452576D01*
X65166286Y-81461317D01*
X65056252Y-81469634D01*
X64922287Y-81477282D01*
X64772482Y-81484017D01*
X64614930Y-81489595D01*
X64457723Y-81493771D01*
X64308952Y-81496300D01*
X64176711Y-81496940D01*
X64069091Y-81495444D01*
X63994184Y-81491570D01*
X63984879Y-81490610D01*
X63683682Y-81451405D01*
X63419083Y-81407499D01*
X63185491Y-81357656D01*
X62977312Y-81300641D01*
X62788954Y-81235221D01*
X62740522Y-81215854D01*
X62519078Y-81110974D01*
X62326070Y-80991209D01*
X62165281Y-80859491D01*
X62040492Y-80718752D01*
X61983104Y-80628697D01*
X61932352Y-80495364D01*
X61911658Y-80345472D01*
X61921811Y-80193051D01*
X61952252Y-80079828D01*
X62037678Y-79911651D01*
X62162313Y-79752580D01*
X62323776Y-79603812D01*
X62519689Y-79466542D01*
X62747672Y-79341966D01*
X63005346Y-79231280D01*
X63290332Y-79135680D01*
X63600250Y-79056360D01*
X63932722Y-78994519D01*
X64175379Y-78962514D01*
X64300737Y-78952298D01*
X64457332Y-78945144D01*
X64634177Y-78941053D01*
X64820289Y-78940027D01*
X65004679Y-78942066D01*
G36*
X65004679Y-78942066D02*
G01*
X65176364Y-78947173D01*
X65324356Y-78955349D01*
X65403045Y-78962353D01*
X65721265Y-79007080D01*
X66018212Y-79068900D01*
X66291379Y-79146571D01*
X66538257Y-79238851D01*
X66756337Y-79344498D01*
X66943113Y-79462271D01*
X67096075Y-79590927D01*
X67212717Y-79729227D01*
X67290529Y-79875926D01*
X67299614Y-79901310D01*
X67326516Y-80039082D01*
X67324187Y-80190274D01*
X67293879Y-80338932D01*
X67258193Y-80429884D01*
X67154544Y-80595514D01*
X67011700Y-80751343D01*
X66831904Y-80896234D01*
X66617399Y-81029047D01*
X66370429Y-81148642D01*
X66093235Y-81253882D01*
X65788062Y-81343626D01*
X65457152Y-81416735D01*
X65244295Y-81452576D01*
X65166286Y-81461317D01*
X65056252Y-81469634D01*
X64922287Y-81477282D01*
X64772482Y-81484017D01*
X64614930Y-81489595D01*
X64457723Y-81493771D01*
X64308952Y-81496300D01*
X64176711Y-81496940D01*
X64069091Y-81495444D01*
X63994184Y-81491570D01*
X63984879Y-81490610D01*
X63683682Y-81451405D01*
X63419083Y-81407499D01*
X63185491Y-81357656D01*
X62977312Y-81300641D01*
X62788954Y-81235221D01*
X62740522Y-81215854D01*
X62519078Y-81110974D01*
X62326070Y-80991209D01*
X62165281Y-80859491D01*
X62040492Y-80718752D01*
X61983104Y-80628697D01*
X61932352Y-80495364D01*
X61911658Y-80345472D01*
X61921811Y-80193051D01*
X61952252Y-80079828D01*
X62037678Y-79911651D01*
X62162313Y-79752580D01*
X62323776Y-79603812D01*
X62519689Y-79466542D01*
X62747672Y-79341966D01*
X63005346Y-79231280D01*
X63290332Y-79135680D01*
X63600250Y-79056360D01*
X63932722Y-78994519D01*
X64175379Y-78962514D01*
X64300737Y-78952298D01*
X64457332Y-78945144D01*
X64634177Y-78941053D01*
X64820289Y-78940027D01*
X65004679Y-78942066D01*
G37*
X100489034Y-78940554D02*
X100763636Y-78953108D01*
X101029031Y-78974940D01*
X101272679Y-79005689D01*
X101280545Y-79006905D01*
X101553470Y-79059353D01*
X101825605Y-79130477D01*
X102088113Y-79217142D01*
X102332157Y-79316213D01*
X102548898Y-79424556D01*
X102676053Y-79501843D01*
X102796936Y-79593184D01*
X102916082Y-79702772D01*
X103023938Y-79820421D01*
X103110952Y-79935950D01*
X103156098Y-80013653D01*
X103187636Y-80084624D01*
X103206080Y-80148077D01*
X103214762Y-80220648D01*
X103217014Y-80317751D01*
X103215247Y-80413776D01*
X103207356Y-80483822D01*
X103189994Y-80544154D01*
X103159815Y-80611034D01*
X103154462Y-80621676D01*
X103056228Y-80770547D01*
X102918609Y-80908973D01*
X102743472Y-81036030D01*
X102532680Y-81150790D01*
X102288099Y-81252329D01*
X102011594Y-81339720D01*
X101705030Y-81412039D01*
X101481629Y-81451932D01*
X101401708Y-81461348D01*
X101289585Y-81470212D01*
X101153631Y-81478264D01*
X101002217Y-81485242D01*
X100843715Y-81490886D01*
X100686498Y-81494932D01*
X100538936Y-81497120D01*
X100409402Y-81497189D01*
X100306267Y-81494877D01*
X100243379Y-81490596D01*
X100189202Y-81484398D01*
X100107128Y-81475017D01*
X100011320Y-81464071D01*
X99968212Y-81459148D01*
X99713849Y-81421617D01*
X99446851Y-81367142D01*
X99187744Y-81300274D01*
X99030043Y-81251231D01*
X98738372Y-81139448D01*
X98484065Y-81013344D01*
X98267808Y-80873408D01*
X98090286Y-80720130D01*
X97952184Y-80553999D01*
X97878366Y-80428368D01*
X97838212Y-80341910D01*
X97815142Y-80273389D01*
X97804631Y-80204337D01*
X97802156Y-80117307D01*
X97805321Y-80022848D01*
X97818066Y-79949190D01*
X97845266Y-79875065D01*
X97869428Y-79823797D01*
X97965605Y-79674361D01*
X98100676Y-79535234D01*
X98272210Y-79407538D01*
X98477776Y-79292394D01*
X98714942Y-79190926D01*
X98981278Y-79104257D01*
X99274354Y-79033508D01*
X99591737Y-78979802D01*
X99735379Y-78962195D01*
X99962366Y-78944735D01*
X100217764Y-78937642D01*
X100489034Y-78940554D01*
G36*
X100489034Y-78940554D02*
G01*
X100763636Y-78953108D01*
X101029031Y-78974940D01*
X101272679Y-79005689D01*
X101280545Y-79006905D01*
X101553470Y-79059353D01*
X101825605Y-79130477D01*
X102088113Y-79217142D01*
X102332157Y-79316213D01*
X102548898Y-79424556D01*
X102676053Y-79501843D01*
X102796936Y-79593184D01*
X102916082Y-79702772D01*
X103023938Y-79820421D01*
X103110952Y-79935950D01*
X103156098Y-80013653D01*
X103187636Y-80084624D01*
X103206080Y-80148077D01*
X103214762Y-80220648D01*
X103217014Y-80317751D01*
X103215247Y-80413776D01*
X103207356Y-80483822D01*
X103189994Y-80544154D01*
X103159815Y-80611034D01*
X103154462Y-80621676D01*
X103056228Y-80770547D01*
X102918609Y-80908973D01*
X102743472Y-81036030D01*
X102532680Y-81150790D01*
X102288099Y-81252329D01*
X102011594Y-81339720D01*
X101705030Y-81412039D01*
X101481629Y-81451932D01*
X101401708Y-81461348D01*
X101289585Y-81470212D01*
X101153631Y-81478264D01*
X101002217Y-81485242D01*
X100843715Y-81490886D01*
X100686498Y-81494932D01*
X100538936Y-81497120D01*
X100409402Y-81497189D01*
X100306267Y-81494877D01*
X100243379Y-81490596D01*
X100189202Y-81484398D01*
X100107128Y-81475017D01*
X100011320Y-81464071D01*
X99968212Y-81459148D01*
X99713849Y-81421617D01*
X99446851Y-81367142D01*
X99187744Y-81300274D01*
X99030043Y-81251231D01*
X98738372Y-81139448D01*
X98484065Y-81013344D01*
X98267808Y-80873408D01*
X98090286Y-80720130D01*
X97952184Y-80553999D01*
X97878366Y-80428368D01*
X97838212Y-80341910D01*
X97815142Y-80273389D01*
X97804631Y-80204337D01*
X97802156Y-80117307D01*
X97805321Y-80022848D01*
X97818066Y-79949190D01*
X97845266Y-79875065D01*
X97869428Y-79823797D01*
X97965605Y-79674361D01*
X98100676Y-79535234D01*
X98272210Y-79407538D01*
X98477776Y-79292394D01*
X98714942Y-79190926D01*
X98981278Y-79104257D01*
X99274354Y-79033508D01*
X99591737Y-78979802D01*
X99735379Y-78962195D01*
X99962366Y-78944735D01*
X100217764Y-78937642D01*
X100489034Y-78940554D01*
G37*
X79687727Y-36524709D02*
X79968657Y-36581750D01*
X80226116Y-36673390D01*
X80426671Y-36778820D01*
X80552689Y-36866549D01*
X80693950Y-36982374D01*
X80842529Y-37118961D01*
X80990499Y-37268975D01*
X81129936Y-37425083D01*
X81146915Y-37445312D01*
X81319778Y-37670895D01*
X81457326Y-37891728D01*
X81559310Y-38109894D01*
X81625479Y-38327474D01*
X81655582Y-38546548D01*
X81649370Y-38769196D01*
X81606593Y-38997501D01*
X81526999Y-39233543D01*
X81410339Y-39479403D01*
X81256363Y-39737161D01*
X81064821Y-40008900D01*
X80835461Y-40296698D01*
X80798808Y-40340171D01*
X80664042Y-40500072D01*
X80554304Y-40633124D01*
X80466265Y-40743908D01*
X80396594Y-40837009D01*
X80341963Y-40917007D01*
X80299042Y-40988486D01*
X80264501Y-41056029D01*
X80242525Y-41105819D01*
X80196069Y-41225363D01*
X80155430Y-41348723D01*
X80119738Y-41480837D01*
X80088118Y-41626640D01*
X80059699Y-41791070D01*
X80033607Y-41979063D01*
X80008970Y-42195556D01*
X79984915Y-42445484D01*
X79965503Y-42672835D01*
X79951765Y-42832676D01*
X79936880Y-42991670D01*
X79921789Y-43140728D01*
X79907433Y-43270766D01*
X79894752Y-43372696D01*
X79888803Y-43413668D01*
X79832774Y-43693604D01*
X79758413Y-43936451D01*
X79664546Y-44143818D01*
X79550001Y-44317317D01*
X79413605Y-44458558D01*
X79254183Y-44569151D01*
X79070564Y-44650706D01*
X78964599Y-44682309D01*
X78845907Y-44704351D01*
X78699613Y-44718943D01*
X78539897Y-44725459D01*
X78380936Y-44723274D01*
X78253479Y-44713716D01*
X78056673Y-44687161D01*
X77854599Y-44650497D01*
X77644102Y-44602635D01*
X77422029Y-44542487D01*
X77185224Y-44468963D01*
X76930533Y-44380975D01*
X76654803Y-44277433D01*
X76354877Y-44157247D01*
X76027603Y-44019331D01*
X75669825Y-43862593D01*
X75284256Y-43688624D01*
X75018704Y-43563777D01*
X74789394Y-43447508D01*
X74591909Y-43336613D01*
X74421831Y-43227885D01*
X74274743Y-43118120D01*
X74146226Y-43004111D01*
X74031863Y-42882653D01*
X73927237Y-42750540D01*
X73861595Y-42656287D01*
X73708042Y-42388021D01*
X73592925Y-42103741D01*
X73516363Y-41805435D01*
X73478475Y-41495091D01*
X73479382Y-41174696D01*
X73519204Y-40846238D01*
X73598058Y-40511703D01*
X73712572Y-40181745D01*
X73837743Y-39901373D01*
X73982323Y-39638176D01*
X74151095Y-39385220D01*
X74348842Y-39135565D01*
X74580347Y-38882276D01*
X74672990Y-38788751D01*
X75012076Y-38474350D01*
X75383309Y-38169387D01*
X75779921Y-37878057D01*
X76195142Y-37604554D01*
X76622204Y-37353074D01*
X77054337Y-37127812D01*
X77484774Y-36932963D01*
X77906744Y-36772722D01*
X77948603Y-36758634D01*
X78339347Y-36642618D01*
X78709134Y-36561222D01*
X79057462Y-36514441D01*
X79383827Y-36502271D01*
X79687727Y-36524709D01*
G36*
X79687727Y-36524709D02*
G01*
X79968657Y-36581750D01*
X80226116Y-36673390D01*
X80426671Y-36778820D01*
X80552689Y-36866549D01*
X80693950Y-36982374D01*
X80842529Y-37118961D01*
X80990499Y-37268975D01*
X81129936Y-37425083D01*
X81146915Y-37445312D01*
X81319778Y-37670895D01*
X81457326Y-37891728D01*
X81559310Y-38109894D01*
X81625479Y-38327474D01*
X81655582Y-38546548D01*
X81649370Y-38769196D01*
X81606593Y-38997501D01*
X81526999Y-39233543D01*
X81410339Y-39479403D01*
X81256363Y-39737161D01*
X81064821Y-40008900D01*
X80835461Y-40296698D01*
X80798808Y-40340171D01*
X80664042Y-40500072D01*
X80554304Y-40633124D01*
X80466265Y-40743908D01*
X80396594Y-40837009D01*
X80341963Y-40917007D01*
X80299042Y-40988486D01*
X80264501Y-41056029D01*
X80242525Y-41105819D01*
X80196069Y-41225363D01*
X80155430Y-41348723D01*
X80119738Y-41480837D01*
X80088118Y-41626640D01*
X80059699Y-41791070D01*
X80033607Y-41979063D01*
X80008970Y-42195556D01*
X79984915Y-42445484D01*
X79965503Y-42672835D01*
X79951765Y-42832676D01*
X79936880Y-42991670D01*
X79921789Y-43140728D01*
X79907433Y-43270766D01*
X79894752Y-43372696D01*
X79888803Y-43413668D01*
X79832774Y-43693604D01*
X79758413Y-43936451D01*
X79664546Y-44143818D01*
X79550001Y-44317317D01*
X79413605Y-44458558D01*
X79254183Y-44569151D01*
X79070564Y-44650706D01*
X78964599Y-44682309D01*
X78845907Y-44704351D01*
X78699613Y-44718943D01*
X78539897Y-44725459D01*
X78380936Y-44723274D01*
X78253479Y-44713716D01*
X78056673Y-44687161D01*
X77854599Y-44650497D01*
X77644102Y-44602635D01*
X77422029Y-44542487D01*
X77185224Y-44468963D01*
X76930533Y-44380975D01*
X76654803Y-44277433D01*
X76354877Y-44157247D01*
X76027603Y-44019331D01*
X75669825Y-43862593D01*
X75284256Y-43688624D01*
X75018704Y-43563777D01*
X74789394Y-43447508D01*
X74591909Y-43336613D01*
X74421831Y-43227885D01*
X74274743Y-43118120D01*
X74146226Y-43004111D01*
X74031863Y-42882653D01*
X73927237Y-42750540D01*
X73861595Y-42656287D01*
X73708042Y-42388021D01*
X73592925Y-42103741D01*
X73516363Y-41805435D01*
X73478475Y-41495091D01*
X73479382Y-41174696D01*
X73519204Y-40846238D01*
X73598058Y-40511703D01*
X73712572Y-40181745D01*
X73837743Y-39901373D01*
X73982323Y-39638176D01*
X74151095Y-39385220D01*
X74348842Y-39135565D01*
X74580347Y-38882276D01*
X74672990Y-38788751D01*
X75012076Y-38474350D01*
X75383309Y-38169387D01*
X75779921Y-37878057D01*
X76195142Y-37604554D01*
X76622204Y-37353074D01*
X77054337Y-37127812D01*
X77484774Y-36932963D01*
X77906744Y-36772722D01*
X77948603Y-36758634D01*
X78339347Y-36642618D01*
X78709134Y-36561222D01*
X79057462Y-36514441D01*
X79383827Y-36502271D01*
X79687727Y-36524709D01*
G37*
X87978210Y-63575240D02*
X88310487Y-63575516D01*
X88610791Y-63576010D01*
X88880850Y-63576768D01*
X89122391Y-63577838D01*
X89337140Y-63579269D01*
X89526824Y-63581108D01*
X89693170Y-63583403D01*
X89837906Y-63586202D01*
X89962757Y-63589552D01*
X90069451Y-63593502D01*
X90159714Y-63598099D01*
X90235274Y-63603391D01*
X90297857Y-63609426D01*
X90349191Y-63616251D01*
X90391001Y-63623916D01*
X90425015Y-63632466D01*
X90452960Y-63641951D01*
X90476563Y-63652418D01*
X90497550Y-63663915D01*
X90517648Y-63676489D01*
X90538584Y-63690189D01*
X90562085Y-63705062D01*
X90567118Y-63708106D01*
X90684111Y-63793089D01*
X90794092Y-63899974D01*
X90886432Y-64016884D01*
X90950501Y-64131941D01*
X90953962Y-64140394D01*
X90978726Y-64212412D01*
X90993819Y-64285534D01*
X91001346Y-64374036D01*
X91003382Y-64475599D01*
X91002854Y-64575153D01*
X90998438Y-64646606D01*
X90987131Y-64704184D01*
X90965930Y-64762110D01*
X90931833Y-64834607D01*
X90924417Y-64849648D01*
X90819595Y-65016847D01*
X90686002Y-65153130D01*
X90524436Y-65257878D01*
X90335693Y-65330474D01*
X90290159Y-65342173D01*
X90252702Y-65345997D01*
X90175381Y-65349588D01*
X90060638Y-65352948D01*
X89910917Y-65356077D01*
X89728661Y-65358975D01*
X89516312Y-65361641D01*
X89276314Y-65364078D01*
X89011109Y-65366283D01*
X88723140Y-65368259D01*
X88414851Y-65370005D01*
X88088683Y-65371521D01*
X87747081Y-65372808D01*
X87392487Y-65373867D01*
X87027345Y-65374696D01*
X86654096Y-65375297D01*
X86275184Y-65375670D01*
X85893051Y-65375815D01*
X85510142Y-65375732D01*
X85128898Y-65375422D01*
X84751763Y-65374885D01*
X84381180Y-65374121D01*
X84019591Y-65373131D01*
X83669440Y-65371914D01*
X83333169Y-65370472D01*
X83013221Y-65368803D01*
X82712040Y-65366909D01*
X82432068Y-65364790D01*
X82175748Y-65362446D01*
X81945524Y-65359878D01*
X81743837Y-65357085D01*
X81573132Y-65354068D01*
X81435850Y-65350827D01*
X81334436Y-65347362D01*
X81271331Y-65343674D01*
X81252066Y-65341171D01*
X81065822Y-65275539D01*
X80899564Y-65175691D01*
X80758389Y-65045722D01*
X80647396Y-64889728D01*
X80617290Y-64831168D01*
X80558745Y-64657620D01*
X80538566Y-64475113D01*
X80556352Y-64291696D01*
X80611704Y-64115419D01*
X80657331Y-64025593D01*
X80748761Y-63904334D01*
X80871413Y-63791948D01*
X81014184Y-63696333D01*
X81165975Y-63625385D01*
X81259244Y-63597366D01*
X81292968Y-63594554D01*
X81368766Y-63591930D01*
X81486378Y-63589494D01*
X81645546Y-63587248D01*
X81846011Y-63585193D01*
X82087513Y-63583330D01*
X82369794Y-63581661D01*
X82692594Y-63580186D01*
X83055655Y-63578908D01*
X83458717Y-63577827D01*
X83901521Y-63576944D01*
X84383809Y-63576262D01*
X84905321Y-63575780D01*
X85465798Y-63575501D01*
X85776806Y-63575435D01*
X86294846Y-63575345D01*
X86772280Y-63575233D01*
X87210834Y-63575146D01*
X87612235Y-63575132D01*
X87978210Y-63575240D01*
G36*
X87978210Y-63575240D02*
G01*
X88310487Y-63575516D01*
X88610791Y-63576010D01*
X88880850Y-63576768D01*
X89122391Y-63577838D01*
X89337140Y-63579269D01*
X89526824Y-63581108D01*
X89693170Y-63583403D01*
X89837906Y-63586202D01*
X89962757Y-63589552D01*
X90069451Y-63593502D01*
X90159714Y-63598099D01*
X90235274Y-63603391D01*
X90297857Y-63609426D01*
X90349191Y-63616251D01*
X90391001Y-63623916D01*
X90425015Y-63632466D01*
X90452960Y-63641951D01*
X90476563Y-63652418D01*
X90497550Y-63663915D01*
X90517648Y-63676489D01*
X90538584Y-63690189D01*
X90562085Y-63705062D01*
X90567118Y-63708106D01*
X90684111Y-63793089D01*
X90794092Y-63899974D01*
X90886432Y-64016884D01*
X90950501Y-64131941D01*
X90953962Y-64140394D01*
X90978726Y-64212412D01*
X90993819Y-64285534D01*
X91001346Y-64374036D01*
X91003382Y-64475599D01*
X91002854Y-64575153D01*
X90998438Y-64646606D01*
X90987131Y-64704184D01*
X90965930Y-64762110D01*
X90931833Y-64834607D01*
X90924417Y-64849648D01*
X90819595Y-65016847D01*
X90686002Y-65153130D01*
X90524436Y-65257878D01*
X90335693Y-65330474D01*
X90290159Y-65342173D01*
X90252702Y-65345997D01*
X90175381Y-65349588D01*
X90060638Y-65352948D01*
X89910917Y-65356077D01*
X89728661Y-65358975D01*
X89516312Y-65361641D01*
X89276314Y-65364078D01*
X89011109Y-65366283D01*
X88723140Y-65368259D01*
X88414851Y-65370005D01*
X88088683Y-65371521D01*
X87747081Y-65372808D01*
X87392487Y-65373867D01*
X87027345Y-65374696D01*
X86654096Y-65375297D01*
X86275184Y-65375670D01*
X85893051Y-65375815D01*
X85510142Y-65375732D01*
X85128898Y-65375422D01*
X84751763Y-65374885D01*
X84381180Y-65374121D01*
X84019591Y-65373131D01*
X83669440Y-65371914D01*
X83333169Y-65370472D01*
X83013221Y-65368803D01*
X82712040Y-65366909D01*
X82432068Y-65364790D01*
X82175748Y-65362446D01*
X81945524Y-65359878D01*
X81743837Y-65357085D01*
X81573132Y-65354068D01*
X81435850Y-65350827D01*
X81334436Y-65347362D01*
X81271331Y-65343674D01*
X81252066Y-65341171D01*
X81065822Y-65275539D01*
X80899564Y-65175691D01*
X80758389Y-65045722D01*
X80647396Y-64889728D01*
X80617290Y-64831168D01*
X80558745Y-64657620D01*
X80538566Y-64475113D01*
X80556352Y-64291696D01*
X80611704Y-64115419D01*
X80657331Y-64025593D01*
X80748761Y-63904334D01*
X80871413Y-63791948D01*
X81014184Y-63696333D01*
X81165975Y-63625385D01*
X81259244Y-63597366D01*
X81292968Y-63594554D01*
X81368766Y-63591930D01*
X81486378Y-63589494D01*
X81645546Y-63587248D01*
X81846011Y-63585193D01*
X82087513Y-63583330D01*
X82369794Y-63581661D01*
X82692594Y-63580186D01*
X83055655Y-63578908D01*
X83458717Y-63577827D01*
X83901521Y-63576944D01*
X84383809Y-63576262D01*
X84905321Y-63575780D01*
X85465798Y-63575501D01*
X85776806Y-63575435D01*
X86294846Y-63575345D01*
X86772280Y-63575233D01*
X87210834Y-63575146D01*
X87612235Y-63575132D01*
X87978210Y-63575240D01*
G37*
X92889120Y-33770812D02*
X93047281Y-33814489D01*
X93213801Y-33895549D01*
X93314117Y-33960283D01*
X93498160Y-34105428D01*
X93692262Y-34288075D01*
X93894410Y-34505152D01*
X94102592Y-34753584D01*
X94314796Y-35030299D01*
X94529011Y-35332224D01*
X94743224Y-35656284D01*
X94955423Y-35999406D01*
X95163596Y-36358518D01*
X95365732Y-36730545D01*
X95559818Y-37112415D01*
X95743842Y-37501053D01*
X95915793Y-37893387D01*
X95962363Y-38005585D01*
X96083465Y-38312129D01*
X96182925Y-38589809D01*
X96262276Y-38845181D01*
X96323055Y-39084806D01*
X96366797Y-39315242D01*
X96395037Y-39543047D01*
X96409311Y-39774779D01*
X96411824Y-39925375D01*
X96391684Y-40351120D01*
X96331263Y-40773084D01*
X96232107Y-41187750D01*
X96095760Y-41591603D01*
X95923764Y-41981124D01*
X95717665Y-42352797D01*
X95479007Y-42703104D01*
X95209332Y-43028530D01*
X94924889Y-43312279D01*
X94643187Y-43540131D01*
X94338221Y-43734804D01*
X94014493Y-43894061D01*
X93676500Y-44015667D01*
X93353629Y-44092954D01*
X93249187Y-44107320D01*
X93113616Y-44119090D01*
X92957565Y-44127991D01*
X92791683Y-44133748D01*
X92626622Y-44136088D01*
X92473029Y-44134736D01*
X92341555Y-44129417D01*
X92252962Y-44121285D01*
X91890254Y-44052480D01*
X91529983Y-43944525D01*
X91178693Y-43800406D01*
X90842927Y-43623106D01*
X90529229Y-43415610D01*
X90298739Y-43230038D01*
X90057520Y-42995034D01*
X89837782Y-42735285D01*
X89642036Y-42455888D01*
X89472791Y-42161943D01*
X89332558Y-41858548D01*
X89223847Y-41550800D01*
X89149169Y-41243800D01*
X89111033Y-40942644D01*
X89106455Y-40808446D01*
X89119674Y-40549139D01*
X89163003Y-40307827D01*
X89239332Y-40073183D01*
X89351556Y-39833882D01*
X89358724Y-39820551D01*
X89418568Y-39714531D01*
X89483677Y-39609161D01*
X89557523Y-39499807D01*
X89643581Y-39381834D01*
X89745322Y-39250606D01*
X89866219Y-39101488D01*
X90009747Y-38929844D01*
X90145062Y-38771018D01*
X90335999Y-38546691D01*
X90501167Y-38348823D01*
X90643794Y-38173028D01*
X90767108Y-38014923D01*
X90874337Y-37870120D01*
X90968706Y-37734235D01*
X91053445Y-37602883D01*
X91131780Y-37471679D01*
X91206939Y-37336236D01*
X91222494Y-37307085D01*
X91263226Y-37228851D01*
X91300979Y-37152554D01*
X91337027Y-37074543D01*
X91372645Y-36991165D01*
X91409106Y-36898771D01*
X91447686Y-36793708D01*
X91489658Y-36672326D01*
X91536296Y-36530973D01*
X91588876Y-36365999D01*
X91648671Y-36173752D01*
X91716956Y-35950581D01*
X91795005Y-35692834D01*
X91852402Y-35502283D01*
X91919842Y-35279013D01*
X91984948Y-35065277D01*
X92046498Y-34864972D01*
X92103270Y-34681991D01*
X92154042Y-34520229D01*
X92197591Y-34383580D01*
X92232696Y-34275941D01*
X92258134Y-34201204D01*
X92272415Y-34163835D01*
X92315411Y-34081998D01*
X92366489Y-33998833D01*
X92386971Y-33969458D01*
X92488245Y-33863839D01*
X92607258Y-33795510D01*
X92741664Y-33764493D01*
X92889120Y-33770812D01*
G36*
X92889120Y-33770812D02*
G01*
X93047281Y-33814489D01*
X93213801Y-33895549D01*
X93314117Y-33960283D01*
X93498160Y-34105428D01*
X93692262Y-34288075D01*
X93894410Y-34505152D01*
X94102592Y-34753584D01*
X94314796Y-35030299D01*
X94529011Y-35332224D01*
X94743224Y-35656284D01*
X94955423Y-35999406D01*
X95163596Y-36358518D01*
X95365732Y-36730545D01*
X95559818Y-37112415D01*
X95743842Y-37501053D01*
X95915793Y-37893387D01*
X95962363Y-38005585D01*
X96083465Y-38312129D01*
X96182925Y-38589809D01*
X96262276Y-38845181D01*
X96323055Y-39084806D01*
X96366797Y-39315242D01*
X96395037Y-39543047D01*
X96409311Y-39774779D01*
X96411824Y-39925375D01*
X96391684Y-40351120D01*
X96331263Y-40773084D01*
X96232107Y-41187750D01*
X96095760Y-41591603D01*
X95923764Y-41981124D01*
X95717665Y-42352797D01*
X95479007Y-42703104D01*
X95209332Y-43028530D01*
X94924889Y-43312279D01*
X94643187Y-43540131D01*
X94338221Y-43734804D01*
X94014493Y-43894061D01*
X93676500Y-44015667D01*
X93353629Y-44092954D01*
X93249187Y-44107320D01*
X93113616Y-44119090D01*
X92957565Y-44127991D01*
X92791683Y-44133748D01*
X92626622Y-44136088D01*
X92473029Y-44134736D01*
X92341555Y-44129417D01*
X92252962Y-44121285D01*
X91890254Y-44052480D01*
X91529983Y-43944525D01*
X91178693Y-43800406D01*
X90842927Y-43623106D01*
X90529229Y-43415610D01*
X90298739Y-43230038D01*
X90057520Y-42995034D01*
X89837782Y-42735285D01*
X89642036Y-42455888D01*
X89472791Y-42161943D01*
X89332558Y-41858548D01*
X89223847Y-41550800D01*
X89149169Y-41243800D01*
X89111033Y-40942644D01*
X89106455Y-40808446D01*
X89119674Y-40549139D01*
X89163003Y-40307827D01*
X89239332Y-40073183D01*
X89351556Y-39833882D01*
X89358724Y-39820551D01*
X89418568Y-39714531D01*
X89483677Y-39609161D01*
X89557523Y-39499807D01*
X89643581Y-39381834D01*
X89745322Y-39250606D01*
X89866219Y-39101488D01*
X90009747Y-38929844D01*
X90145062Y-38771018D01*
X90335999Y-38546691D01*
X90501167Y-38348823D01*
X90643794Y-38173028D01*
X90767108Y-38014923D01*
X90874337Y-37870120D01*
X90968706Y-37734235D01*
X91053445Y-37602883D01*
X91131780Y-37471679D01*
X91206939Y-37336236D01*
X91222494Y-37307085D01*
X91263226Y-37228851D01*
X91300979Y-37152554D01*
X91337027Y-37074543D01*
X91372645Y-36991165D01*
X91409106Y-36898771D01*
X91447686Y-36793708D01*
X91489658Y-36672326D01*
X91536296Y-36530973D01*
X91588876Y-36365999D01*
X91648671Y-36173752D01*
X91716956Y-35950581D01*
X91795005Y-35692834D01*
X91852402Y-35502283D01*
X91919842Y-35279013D01*
X91984948Y-35065277D01*
X92046498Y-34864972D01*
X92103270Y-34681991D01*
X92154042Y-34520229D01*
X92197591Y-34383580D01*
X92232696Y-34275941D01*
X92258134Y-34201204D01*
X92272415Y-34163835D01*
X92315411Y-34081998D01*
X92366489Y-33998833D01*
X92386971Y-33969458D01*
X92488245Y-33863839D01*
X92607258Y-33795510D01*
X92741664Y-33764493D01*
X92889120Y-33770812D01*
G37*
X74638356Y-45356898D02*
X74816017Y-45365881D01*
X74994941Y-45380333D01*
X75167020Y-45400021D01*
X75256129Y-45413050D01*
X75832238Y-45521091D01*
X76423186Y-45662815D01*
X77021937Y-45835660D01*
X77621459Y-46037066D01*
X78214715Y-46264470D01*
X78794672Y-46515312D01*
X79354295Y-46787028D01*
X79886549Y-47077059D01*
X79986879Y-47135725D01*
X80358221Y-47363924D01*
X80695479Y-47589759D01*
X81006137Y-47818884D01*
X81297678Y-48056950D01*
X81577584Y-48309611D01*
X81708842Y-48436585D01*
X82024278Y-48770984D01*
X82299434Y-49110994D01*
X82533933Y-49455985D01*
X82727398Y-49805327D01*
X82879452Y-50158389D01*
X82989718Y-50514543D01*
X83013219Y-50615501D01*
X83049325Y-50801509D01*
X83075091Y-50981660D01*
X83090212Y-51161203D01*
X83094383Y-51345389D01*
X83087299Y-51539471D01*
X83068653Y-51748699D01*
X83038141Y-51978324D01*
X82995458Y-52233598D01*
X82940298Y-52519772D01*
X82887951Y-52769972D01*
X82764461Y-53299025D01*
X82627703Y-53799728D01*
X82478327Y-54270833D01*
X82316982Y-54711089D01*
X82144318Y-55119250D01*
X81960985Y-55494065D01*
X81767631Y-55834285D01*
X81564907Y-56138663D01*
X81353461Y-56405950D01*
X81133944Y-56634895D01*
X80907004Y-56824252D01*
X80714061Y-56950120D01*
X80517430Y-57053586D01*
X80335116Y-57128368D01*
X80154227Y-57178212D01*
X79961874Y-57206867D01*
X79796379Y-57216894D01*
X79669758Y-57219238D01*
X79572257Y-57216650D01*
X79490839Y-57208064D01*
X79412469Y-57192418D01*
X79373045Y-57182340D01*
X79117139Y-57092278D01*
X78863198Y-56960369D01*
X78611648Y-56787075D01*
X78362920Y-56572854D01*
X78117440Y-56318166D01*
X77875636Y-56023471D01*
X77637938Y-55689229D01*
X77404773Y-55315898D01*
X77176570Y-54903940D01*
X77086177Y-54727251D01*
X76890234Y-54313650D01*
X76708359Y-53885804D01*
X76542621Y-53450241D01*
X76395089Y-53013488D01*
X76267833Y-52582074D01*
X76162921Y-52162525D01*
X76082425Y-51761370D01*
X76029345Y-51393501D01*
X76009567Y-51219468D01*
X75993144Y-51080719D01*
X75979018Y-50970438D01*
X75966131Y-50881806D01*
X75953425Y-50808005D01*
X75939841Y-50742217D01*
X75924323Y-50677625D01*
X75909452Y-50620918D01*
X75855861Y-50441145D01*
X75787922Y-50249077D01*
X75704229Y-50041744D01*
X75603374Y-49816177D01*
X75483950Y-49569408D01*
X75344551Y-49298467D01*
X75183770Y-49000385D01*
X75000198Y-48672194D01*
X74916399Y-48525418D01*
X74767717Y-48266236D01*
X74638412Y-48040445D01*
X74526677Y-47844784D01*
X74430703Y-47675992D01*
X74348683Y-47530810D01*
X74278808Y-47405975D01*
X74219270Y-47298229D01*
X74168263Y-47204310D01*
X74123977Y-47120957D01*
X74084605Y-47044911D01*
X74048339Y-46972910D01*
X74013370Y-46901695D01*
X73995073Y-46863835D01*
X73874649Y-46597686D01*
X73783921Y-46360628D01*
X73722973Y-46151499D01*
X73691889Y-45969137D01*
X73690753Y-45812378D01*
X73719649Y-45680061D01*
X73778662Y-45571023D01*
X73867875Y-45484102D01*
X73987374Y-45418135D01*
X74102545Y-45380252D01*
X74194054Y-45365059D01*
X74319265Y-45356256D01*
X74470069Y-45353613D01*
X74638356Y-45356898D01*
G36*
X74638356Y-45356898D02*
G01*
X74816017Y-45365881D01*
X74994941Y-45380333D01*
X75167020Y-45400021D01*
X75256129Y-45413050D01*
X75832238Y-45521091D01*
X76423186Y-45662815D01*
X77021937Y-45835660D01*
X77621459Y-46037066D01*
X78214715Y-46264470D01*
X78794672Y-46515312D01*
X79354295Y-46787028D01*
X79886549Y-47077059D01*
X79986879Y-47135725D01*
X80358221Y-47363924D01*
X80695479Y-47589759D01*
X81006137Y-47818884D01*
X81297678Y-48056950D01*
X81577584Y-48309611D01*
X81708842Y-48436585D01*
X82024278Y-48770984D01*
X82299434Y-49110994D01*
X82533933Y-49455985D01*
X82727398Y-49805327D01*
X82879452Y-50158389D01*
X82989718Y-50514543D01*
X83013219Y-50615501D01*
X83049325Y-50801509D01*
X83075091Y-50981660D01*
X83090212Y-51161203D01*
X83094383Y-51345389D01*
X83087299Y-51539471D01*
X83068653Y-51748699D01*
X83038141Y-51978324D01*
X82995458Y-52233598D01*
X82940298Y-52519772D01*
X82887951Y-52769972D01*
X82764461Y-53299025D01*
X82627703Y-53799728D01*
X82478327Y-54270833D01*
X82316982Y-54711089D01*
X82144318Y-55119250D01*
X81960985Y-55494065D01*
X81767631Y-55834285D01*
X81564907Y-56138663D01*
X81353461Y-56405950D01*
X81133944Y-56634895D01*
X80907004Y-56824252D01*
X80714061Y-56950120D01*
X80517430Y-57053586D01*
X80335116Y-57128368D01*
X80154227Y-57178212D01*
X79961874Y-57206867D01*
X79796379Y-57216894D01*
X79669758Y-57219238D01*
X79572257Y-57216650D01*
X79490839Y-57208064D01*
X79412469Y-57192418D01*
X79373045Y-57182340D01*
X79117139Y-57092278D01*
X78863198Y-56960369D01*
X78611648Y-56787075D01*
X78362920Y-56572854D01*
X78117440Y-56318166D01*
X77875636Y-56023471D01*
X77637938Y-55689229D01*
X77404773Y-55315898D01*
X77176570Y-54903940D01*
X77086177Y-54727251D01*
X76890234Y-54313650D01*
X76708359Y-53885804D01*
X76542621Y-53450241D01*
X76395089Y-53013488D01*
X76267833Y-52582074D01*
X76162921Y-52162525D01*
X76082425Y-51761370D01*
X76029345Y-51393501D01*
X76009567Y-51219468D01*
X75993144Y-51080719D01*
X75979018Y-50970438D01*
X75966131Y-50881806D01*
X75953425Y-50808005D01*
X75939841Y-50742217D01*
X75924323Y-50677625D01*
X75909452Y-50620918D01*
X75855861Y-50441145D01*
X75787922Y-50249077D01*
X75704229Y-50041744D01*
X75603374Y-49816177D01*
X75483950Y-49569408D01*
X75344551Y-49298467D01*
X75183770Y-49000385D01*
X75000198Y-48672194D01*
X74916399Y-48525418D01*
X74767717Y-48266236D01*
X74638412Y-48040445D01*
X74526677Y-47844784D01*
X74430703Y-47675992D01*
X74348683Y-47530810D01*
X74278808Y-47405975D01*
X74219270Y-47298229D01*
X74168263Y-47204310D01*
X74123977Y-47120957D01*
X74084605Y-47044911D01*
X74048339Y-46972910D01*
X74013370Y-46901695D01*
X73995073Y-46863835D01*
X73874649Y-46597686D01*
X73783921Y-46360628D01*
X73722973Y-46151499D01*
X73691889Y-45969137D01*
X73690753Y-45812378D01*
X73719649Y-45680061D01*
X73778662Y-45571023D01*
X73867875Y-45484102D01*
X73987374Y-45418135D01*
X74102545Y-45380252D01*
X74194054Y-45365059D01*
X74319265Y-45356256D01*
X74470069Y-45353613D01*
X74638356Y-45356898D01*
G37*
X84501404Y-40092480D02*
X84603508Y-40095638D01*
X84686089Y-40102388D01*
X84760544Y-40113965D01*
X84838270Y-40131599D01*
X84906935Y-40149919D01*
X85211682Y-40252241D01*
X85527460Y-40392998D01*
X85852095Y-40570404D01*
X86183413Y-40782674D01*
X86519241Y-41028020D01*
X86857403Y-41304657D01*
X87195727Y-41610799D01*
X87532037Y-41944660D01*
X87864161Y-42304455D01*
X88189923Y-42688396D01*
X88507150Y-43094698D01*
X88531948Y-43127918D01*
X88788325Y-43486571D01*
X89013139Y-43831859D01*
X89211339Y-44171843D01*
X89387871Y-44514586D01*
X89405120Y-44550576D01*
X89480385Y-44701298D01*
X89560775Y-44846436D01*
X89648557Y-44988413D01*
X89745998Y-45129649D01*
X89855366Y-45272567D01*
X89978931Y-45419589D01*
X90118958Y-45573136D01*
X90277717Y-45735629D01*
X90457474Y-45909492D01*
X90660499Y-46097144D01*
X90889058Y-46301009D01*
X91145420Y-46523508D01*
X91431853Y-46767062D01*
X91660295Y-46958755D01*
X91944781Y-47197905D01*
X92197345Y-47413688D01*
X92419925Y-47608143D01*
X92614459Y-47783309D01*
X92782887Y-47941226D01*
X92927148Y-48083932D01*
X93049181Y-48213468D01*
X93150924Y-48331872D01*
X93234316Y-48441183D01*
X93301296Y-48543441D01*
X93353803Y-48640686D01*
X93393776Y-48734956D01*
X93417192Y-48806656D01*
X93441774Y-48948677D01*
X93427931Y-49074687D01*
X93374558Y-49188661D01*
X93281675Y-49293559D01*
X93158574Y-49383688D01*
X92994296Y-49469207D01*
X92789783Y-49549812D01*
X92545971Y-49625198D01*
X92263799Y-49695063D01*
X91944206Y-49759102D01*
X91734379Y-49794682D01*
X91263582Y-49858843D01*
X90763287Y-49906784D01*
X90243315Y-49937974D01*
X89713486Y-49951881D01*
X89183623Y-49947975D01*
X89003786Y-49942442D01*
X88839964Y-49935166D01*
X88660196Y-49925138D01*
X88480009Y-49913353D01*
X88314930Y-49900809D01*
X88210036Y-49891470D01*
X87605509Y-49819922D01*
X87031576Y-49725845D01*
X86488807Y-49609551D01*
X85977772Y-49471352D01*
X85499039Y-49311560D01*
X85053179Y-49130487D01*
X84640761Y-48928446D01*
X84262353Y-48705749D01*
X83918527Y-48462708D01*
X83609850Y-48199636D01*
X83336893Y-47916843D01*
X83100224Y-47614643D01*
X82900413Y-47293348D01*
X82738031Y-46953270D01*
X82706681Y-46874120D01*
X82645961Y-46692500D01*
X82586852Y-46470920D01*
X82529773Y-46211739D01*
X82475148Y-45917314D01*
X82423398Y-45590002D01*
X82374944Y-45232161D01*
X82330207Y-44846149D01*
X82311264Y-44662501D01*
X82300985Y-44529262D01*
X82293046Y-44365022D01*
X82287406Y-44176946D01*
X82284022Y-43972198D01*
X82282853Y-43757942D01*
X82283858Y-43541342D01*
X82286995Y-43329565D01*
X82292223Y-43129773D01*
X82299501Y-42949131D01*
X82308786Y-42794803D01*
X82320038Y-42673955D01*
X82322898Y-42651668D01*
X82385165Y-42269257D01*
X82462334Y-41924029D01*
X82555586Y-41613119D01*
X82666102Y-41333661D01*
X82795066Y-41082789D01*
X82943657Y-40857638D01*
X83113058Y-40655342D01*
X83170459Y-40596352D01*
X83368951Y-40420405D01*
X83573057Y-40282540D01*
X83789412Y-40178515D01*
X83870962Y-40148740D01*
X83940199Y-40126519D01*
X84000946Y-40110919D01*
X84063251Y-40100788D01*
X84137165Y-40094974D01*
X84232737Y-40092322D01*
X84360016Y-40091682D01*
X84368379Y-40091682D01*
X84501404Y-40092480D01*
G36*
X84501404Y-40092480D02*
G01*
X84603508Y-40095638D01*
X84686089Y-40102388D01*
X84760544Y-40113965D01*
X84838270Y-40131599D01*
X84906935Y-40149919D01*
X85211682Y-40252241D01*
X85527460Y-40392998D01*
X85852095Y-40570404D01*
X86183413Y-40782674D01*
X86519241Y-41028020D01*
X86857403Y-41304657D01*
X87195727Y-41610799D01*
X87532037Y-41944660D01*
X87864161Y-42304455D01*
X88189923Y-42688396D01*
X88507150Y-43094698D01*
X88531948Y-43127918D01*
X88788325Y-43486571D01*
X89013139Y-43831859D01*
X89211339Y-44171843D01*
X89387871Y-44514586D01*
X89405120Y-44550576D01*
X89480385Y-44701298D01*
X89560775Y-44846436D01*
X89648557Y-44988413D01*
X89745998Y-45129649D01*
X89855366Y-45272567D01*
X89978931Y-45419589D01*
X90118958Y-45573136D01*
X90277717Y-45735629D01*
X90457474Y-45909492D01*
X90660499Y-46097144D01*
X90889058Y-46301009D01*
X91145420Y-46523508D01*
X91431853Y-46767062D01*
X91660295Y-46958755D01*
X91944781Y-47197905D01*
X92197345Y-47413688D01*
X92419925Y-47608143D01*
X92614459Y-47783309D01*
X92782887Y-47941226D01*
X92927148Y-48083932D01*
X93049181Y-48213468D01*
X93150924Y-48331872D01*
X93234316Y-48441183D01*
X93301296Y-48543441D01*
X93353803Y-48640686D01*
X93393776Y-48734956D01*
X93417192Y-48806656D01*
X93441774Y-48948677D01*
X93427931Y-49074687D01*
X93374558Y-49188661D01*
X93281675Y-49293559D01*
X93158574Y-49383688D01*
X92994296Y-49469207D01*
X92789783Y-49549812D01*
X92545971Y-49625198D01*
X92263799Y-49695063D01*
X91944206Y-49759102D01*
X91734379Y-49794682D01*
X91263582Y-49858843D01*
X90763287Y-49906784D01*
X90243315Y-49937974D01*
X89713486Y-49951881D01*
X89183623Y-49947975D01*
X89003786Y-49942442D01*
X88839964Y-49935166D01*
X88660196Y-49925138D01*
X88480009Y-49913353D01*
X88314930Y-49900809D01*
X88210036Y-49891470D01*
X87605509Y-49819922D01*
X87031576Y-49725845D01*
X86488807Y-49609551D01*
X85977772Y-49471352D01*
X85499039Y-49311560D01*
X85053179Y-49130487D01*
X84640761Y-48928446D01*
X84262353Y-48705749D01*
X83918527Y-48462708D01*
X83609850Y-48199636D01*
X83336893Y-47916843D01*
X83100224Y-47614643D01*
X82900413Y-47293348D01*
X82738031Y-46953270D01*
X82706681Y-46874120D01*
X82645961Y-46692500D01*
X82586852Y-46470920D01*
X82529773Y-46211739D01*
X82475148Y-45917314D01*
X82423398Y-45590002D01*
X82374944Y-45232161D01*
X82330207Y-44846149D01*
X82311264Y-44662501D01*
X82300985Y-44529262D01*
X82293046Y-44365022D01*
X82287406Y-44176946D01*
X82284022Y-43972198D01*
X82282853Y-43757942D01*
X82283858Y-43541342D01*
X82286995Y-43329565D01*
X82292223Y-43129773D01*
X82299501Y-42949131D01*
X82308786Y-42794803D01*
X82320038Y-42673955D01*
X82322898Y-42651668D01*
X82385165Y-42269257D01*
X82462334Y-41924029D01*
X82555586Y-41613119D01*
X82666102Y-41333661D01*
X82795066Y-41082789D01*
X82943657Y-40857638D01*
X83113058Y-40655342D01*
X83170459Y-40596352D01*
X83368951Y-40420405D01*
X83573057Y-40282540D01*
X83789412Y-40178515D01*
X83870962Y-40148740D01*
X83940199Y-40126519D01*
X84000946Y-40110919D01*
X84063251Y-40100788D01*
X84137165Y-40094974D01*
X84232737Y-40092322D01*
X84360016Y-40091682D01*
X84368379Y-40091682D01*
X84501404Y-40092480D01*
G37*
X73942249Y-34121513D02*
X74118230Y-34127109D01*
X74273806Y-34136148D01*
X74400962Y-34148632D01*
X74470295Y-34159729D01*
X74776301Y-34236028D01*
X75047860Y-34334176D01*
X75287736Y-34455843D01*
X75498697Y-34602699D01*
X75683507Y-34776412D01*
X75844932Y-34978652D01*
X75857529Y-34997014D01*
X75980615Y-35204572D01*
X76062401Y-35403572D01*
X76102955Y-35594440D01*
X76102345Y-35777602D01*
X76060642Y-35953482D01*
X76025251Y-36037085D01*
X75954018Y-36157309D01*
X75856257Y-36277886D01*
X75729651Y-36400658D01*
X75571886Y-36527469D01*
X75380644Y-36660162D01*
X75153609Y-36800581D01*
X74888465Y-36950568D01*
X74853962Y-36969306D01*
X74708741Y-37047920D01*
X74542171Y-37138197D01*
X74370082Y-37231553D01*
X74208300Y-37319402D01*
X74123712Y-37365381D01*
X73804898Y-37544073D01*
X73522630Y-37714660D01*
X73272870Y-37881070D01*
X73051578Y-38047232D01*
X72854713Y-38217074D01*
X72678236Y-38394526D01*
X72518107Y-38583515D01*
X72370286Y-38787971D01*
X72230733Y-39011823D01*
X72095409Y-39258998D01*
X72017963Y-39413168D01*
X71951463Y-39551190D01*
X71887862Y-39687701D01*
X71825832Y-39826189D01*
X71764045Y-39970141D01*
X71701172Y-40123046D01*
X71635884Y-40288393D01*
X71566851Y-40469669D01*
X71492746Y-40670363D01*
X71412239Y-40893964D01*
X71324002Y-41143959D01*
X71226705Y-41423837D01*
X71119021Y-41737086D01*
X71002009Y-42080168D01*
X70934495Y-42278123D01*
X70867169Y-42474437D01*
X70802100Y-42663152D01*
X70741358Y-42838306D01*
X70687013Y-42993938D01*
X70641135Y-43124090D01*
X70605794Y-43222800D01*
X70593787Y-43255625D01*
X70464684Y-43590954D01*
X70340325Y-43885206D01*
X70220041Y-44139289D01*
X70103161Y-44354112D01*
X69989017Y-44530583D01*
X69876938Y-44669611D01*
X69766256Y-44772104D01*
X69656300Y-44838971D01*
X69546401Y-44871120D01*
X69435890Y-44869460D01*
X69408532Y-44863974D01*
X69349304Y-44843751D01*
X69285643Y-44808618D01*
X69214619Y-44755757D01*
X69133306Y-44682349D01*
X69038776Y-44585578D01*
X68928101Y-44462623D01*
X68798353Y-44310667D01*
X68660512Y-44143918D01*
X68261082Y-43634276D01*
X67900030Y-43129669D01*
X67577545Y-42630644D01*
X67293815Y-42137749D01*
X67049030Y-41651529D01*
X66843376Y-41172532D01*
X66677043Y-40701304D01*
X66550219Y-40238393D01*
X66463093Y-39784345D01*
X66415853Y-39339706D01*
X66408687Y-38905024D01*
X66441784Y-38480846D01*
X66515332Y-38067718D01*
X66536435Y-37980436D01*
X66655282Y-37591830D01*
X66810250Y-37223120D01*
X67002274Y-36872721D01*
X67232284Y-36539052D01*
X67501214Y-36220530D01*
X67681459Y-36036204D01*
X67930855Y-35808364D01*
X68179915Y-35611630D01*
X68441471Y-35436875D01*
X68728357Y-35274972D01*
X68811462Y-35232459D01*
X68890863Y-35193005D01*
X68965410Y-35157198D01*
X69038383Y-35124028D01*
X69113064Y-35092489D01*
X69192732Y-35061574D01*
X69280669Y-35030274D01*
X69380155Y-34997582D01*
X69494471Y-34962491D01*
X69626896Y-34923994D01*
X69780713Y-34881081D01*
X69959201Y-34832747D01*
X70165642Y-34777984D01*
X70403315Y-34715783D01*
X70675502Y-34645138D01*
X70980462Y-34566337D01*
X71323882Y-34479358D01*
X71634980Y-34404271D01*
X71921545Y-34339433D01*
X72191368Y-34283201D01*
X72452237Y-34233933D01*
X72711942Y-34189986D01*
X72906629Y-34160120D01*
X73036748Y-34145102D01*
X73194546Y-34133515D01*
X73372010Y-34125361D01*
X73561124Y-34120641D01*
X73753875Y-34119357D01*
X73942249Y-34121513D01*
G36*
X73942249Y-34121513D02*
G01*
X74118230Y-34127109D01*
X74273806Y-34136148D01*
X74400962Y-34148632D01*
X74470295Y-34159729D01*
X74776301Y-34236028D01*
X75047860Y-34334176D01*
X75287736Y-34455843D01*
X75498697Y-34602699D01*
X75683507Y-34776412D01*
X75844932Y-34978652D01*
X75857529Y-34997014D01*
X75980615Y-35204572D01*
X76062401Y-35403572D01*
X76102955Y-35594440D01*
X76102345Y-35777602D01*
X76060642Y-35953482D01*
X76025251Y-36037085D01*
X75954018Y-36157309D01*
X75856257Y-36277886D01*
X75729651Y-36400658D01*
X75571886Y-36527469D01*
X75380644Y-36660162D01*
X75153609Y-36800581D01*
X74888465Y-36950568D01*
X74853962Y-36969306D01*
X74708741Y-37047920D01*
X74542171Y-37138197D01*
X74370082Y-37231553D01*
X74208300Y-37319402D01*
X74123712Y-37365381D01*
X73804898Y-37544073D01*
X73522630Y-37714660D01*
X73272870Y-37881070D01*
X73051578Y-38047232D01*
X72854713Y-38217074D01*
X72678236Y-38394526D01*
X72518107Y-38583515D01*
X72370286Y-38787971D01*
X72230733Y-39011823D01*
X72095409Y-39258998D01*
X72017963Y-39413168D01*
X71951463Y-39551190D01*
X71887862Y-39687701D01*
X71825832Y-39826189D01*
X71764045Y-39970141D01*
X71701172Y-40123046D01*
X71635884Y-40288393D01*
X71566851Y-40469669D01*
X71492746Y-40670363D01*
X71412239Y-40893964D01*
X71324002Y-41143959D01*
X71226705Y-41423837D01*
X71119021Y-41737086D01*
X71002009Y-42080168D01*
X70934495Y-42278123D01*
X70867169Y-42474437D01*
X70802100Y-42663152D01*
X70741358Y-42838306D01*
X70687013Y-42993938D01*
X70641135Y-43124090D01*
X70605794Y-43222800D01*
X70593787Y-43255625D01*
X70464684Y-43590954D01*
X70340325Y-43885206D01*
X70220041Y-44139289D01*
X70103161Y-44354112D01*
X69989017Y-44530583D01*
X69876938Y-44669611D01*
X69766256Y-44772104D01*
X69656300Y-44838971D01*
X69546401Y-44871120D01*
X69435890Y-44869460D01*
X69408532Y-44863974D01*
X69349304Y-44843751D01*
X69285643Y-44808618D01*
X69214619Y-44755757D01*
X69133306Y-44682349D01*
X69038776Y-44585578D01*
X68928101Y-44462623D01*
X68798353Y-44310667D01*
X68660512Y-44143918D01*
X68261082Y-43634276D01*
X67900030Y-43129669D01*
X67577545Y-42630644D01*
X67293815Y-42137749D01*
X67049030Y-41651529D01*
X66843376Y-41172532D01*
X66677043Y-40701304D01*
X66550219Y-40238393D01*
X66463093Y-39784345D01*
X66415853Y-39339706D01*
X66408687Y-38905024D01*
X66441784Y-38480846D01*
X66515332Y-38067718D01*
X66536435Y-37980436D01*
X66655282Y-37591830D01*
X66810250Y-37223120D01*
X67002274Y-36872721D01*
X67232284Y-36539052D01*
X67501214Y-36220530D01*
X67681459Y-36036204D01*
X67930855Y-35808364D01*
X68179915Y-35611630D01*
X68441471Y-35436875D01*
X68728357Y-35274972D01*
X68811462Y-35232459D01*
X68890863Y-35193005D01*
X68965410Y-35157198D01*
X69038383Y-35124028D01*
X69113064Y-35092489D01*
X69192732Y-35061574D01*
X69280669Y-35030274D01*
X69380155Y-34997582D01*
X69494471Y-34962491D01*
X69626896Y-34923994D01*
X69780713Y-34881081D01*
X69959201Y-34832747D01*
X70165642Y-34777984D01*
X70403315Y-34715783D01*
X70675502Y-34645138D01*
X70980462Y-34566337D01*
X71323882Y-34479358D01*
X71634980Y-34404271D01*
X71921545Y-34339433D01*
X72191368Y-34283201D01*
X72452237Y-34233933D01*
X72711942Y-34189986D01*
X72906629Y-34160120D01*
X73036748Y-34145102D01*
X73194546Y-34133515D01*
X73372010Y-34125361D01*
X73561124Y-34120641D01*
X73753875Y-34119357D01*
X73942249Y-34121513D01*
G37*
X81330962Y-29515510D02*
X81591105Y-29516451D01*
X81846299Y-29517940D01*
X82092210Y-29519918D01*
X82324507Y-29522324D01*
X82538855Y-29525099D01*
X82730924Y-29528181D01*
X82896378Y-29531512D01*
X83030887Y-29535032D01*
X83130116Y-29538679D01*
X83172462Y-29541009D01*
X83675423Y-29587238D01*
X84155917Y-29655229D01*
X84610004Y-29744217D01*
X85033748Y-29853440D01*
X85397924Y-29972792D01*
X85679034Y-30087217D01*
X85970551Y-30226778D01*
X86260990Y-30384999D01*
X86538868Y-30555406D01*
X86792702Y-30731527D01*
X86922678Y-30832357D01*
X87241271Y-31117652D01*
X87539691Y-31438676D01*
X87816661Y-31793278D01*
X88070903Y-32179304D01*
X88301141Y-32594603D01*
X88506097Y-33037022D01*
X88684494Y-33504409D01*
X88835054Y-33994610D01*
X88863933Y-34103816D01*
X88896245Y-34234050D01*
X88933265Y-34390794D01*
X88973385Y-34566534D01*
X89014993Y-34753758D01*
X89056478Y-34944955D01*
X89096230Y-35132611D01*
X89132638Y-35309214D01*
X89164091Y-35467252D01*
X89188979Y-35599211D01*
X89205691Y-35697581D01*
X89205819Y-35698418D01*
X89234997Y-36019235D01*
X89224221Y-36329267D01*
X89174893Y-36626763D01*
X89088418Y-36909975D01*
X88966197Y-37177155D01*
X88809634Y-37426553D01*
X88620132Y-37656421D01*
X88399095Y-37865009D01*
X88147924Y-38050570D01*
X87868024Y-38211354D01*
X87560797Y-38345612D01*
X87227646Y-38451596D01*
X86946685Y-38514248D01*
X86805958Y-38534771D01*
X86637564Y-38550908D01*
X86453444Y-38562239D01*
X86265536Y-38568346D01*
X86085780Y-38568808D01*
X85926115Y-38563207D01*
X85818956Y-38553845D01*
X85574418Y-38504791D01*
X85321979Y-38417909D01*
X85067123Y-38295536D01*
X84815334Y-38140007D01*
X84766834Y-38105851D01*
X84664275Y-38030404D01*
X84565192Y-37953498D01*
X84466742Y-37872305D01*
X84366087Y-37783992D01*
X84260385Y-37685730D01*
X84146797Y-37574688D01*
X84022482Y-37448034D01*
X83884599Y-37302939D01*
X83730309Y-37136571D01*
X83556770Y-36946100D01*
X83361143Y-36728695D01*
X83168894Y-36513335D01*
X82910672Y-36227054D01*
X82674239Y-35973396D01*
X82457043Y-35750351D01*
X82256533Y-35555905D01*
X82070155Y-35388048D01*
X81895358Y-35244768D01*
X81729589Y-35124053D01*
X81570297Y-35023891D01*
X81414928Y-34942271D01*
X81260932Y-34877181D01*
X81105755Y-34826609D01*
X80993030Y-34798317D01*
X80908946Y-34783157D01*
X80815947Y-34774024D01*
X80708444Y-34771046D01*
X80580844Y-34774354D01*
X80427557Y-34784077D01*
X80242993Y-34800345D01*
X80050379Y-34820165D01*
X79861583Y-34836614D01*
X79649557Y-34848440D01*
X79423618Y-34855631D01*
X79193081Y-34858182D01*
X78967263Y-34856083D01*
X78755480Y-34849326D01*
X78567048Y-34837902D01*
X78411283Y-34821804D01*
X78409962Y-34821625D01*
X78069721Y-34762244D01*
X77765987Y-34681557D01*
X77498636Y-34579480D01*
X77267543Y-34455928D01*
X77072585Y-34310816D01*
X76913638Y-34144059D01*
X76790577Y-33955571D01*
X76703278Y-33745269D01*
X76673006Y-33631935D01*
X76650251Y-33473599D01*
X76644446Y-33290086D01*
X76654976Y-33094734D01*
X76681224Y-32900881D01*
X76713580Y-32754134D01*
X76809733Y-32458577D01*
X76940493Y-32156950D01*
X77102241Y-31853209D01*
X77291356Y-31551312D01*
X77504218Y-31255216D01*
X77737205Y-30968875D01*
X77986698Y-30696248D01*
X78249076Y-30441290D01*
X78520719Y-30207959D01*
X78798006Y-30000210D01*
X79077316Y-29822001D01*
X79355030Y-29677288D01*
X79627045Y-29570183D01*
X79806962Y-29511735D01*
X81330962Y-29515510D01*
G36*
X81330962Y-29515510D02*
G01*
X81591105Y-29516451D01*
X81846299Y-29517940D01*
X82092210Y-29519918D01*
X82324507Y-29522324D01*
X82538855Y-29525099D01*
X82730924Y-29528181D01*
X82896378Y-29531512D01*
X83030887Y-29535032D01*
X83130116Y-29538679D01*
X83172462Y-29541009D01*
X83675423Y-29587238D01*
X84155917Y-29655229D01*
X84610004Y-29744217D01*
X85033748Y-29853440D01*
X85397924Y-29972792D01*
X85679034Y-30087217D01*
X85970551Y-30226778D01*
X86260990Y-30384999D01*
X86538868Y-30555406D01*
X86792702Y-30731527D01*
X86922678Y-30832357D01*
X87241271Y-31117652D01*
X87539691Y-31438676D01*
X87816661Y-31793278D01*
X88070903Y-32179304D01*
X88301141Y-32594603D01*
X88506097Y-33037022D01*
X88684494Y-33504409D01*
X88835054Y-33994610D01*
X88863933Y-34103816D01*
X88896245Y-34234050D01*
X88933265Y-34390794D01*
X88973385Y-34566534D01*
X89014993Y-34753758D01*
X89056478Y-34944955D01*
X89096230Y-35132611D01*
X89132638Y-35309214D01*
X89164091Y-35467252D01*
X89188979Y-35599211D01*
X89205691Y-35697581D01*
X89205819Y-35698418D01*
X89234997Y-36019235D01*
X89224221Y-36329267D01*
X89174893Y-36626763D01*
X89088418Y-36909975D01*
X88966197Y-37177155D01*
X88809634Y-37426553D01*
X88620132Y-37656421D01*
X88399095Y-37865009D01*
X88147924Y-38050570D01*
X87868024Y-38211354D01*
X87560797Y-38345612D01*
X87227646Y-38451596D01*
X86946685Y-38514248D01*
X86805958Y-38534771D01*
X86637564Y-38550908D01*
X86453444Y-38562239D01*
X86265536Y-38568346D01*
X86085780Y-38568808D01*
X85926115Y-38563207D01*
X85818956Y-38553845D01*
X85574418Y-38504791D01*
X85321979Y-38417909D01*
X85067123Y-38295536D01*
X84815334Y-38140007D01*
X84766834Y-38105851D01*
X84664275Y-38030404D01*
X84565192Y-37953498D01*
X84466742Y-37872305D01*
X84366087Y-37783992D01*
X84260385Y-37685730D01*
X84146797Y-37574688D01*
X84022482Y-37448034D01*
X83884599Y-37302939D01*
X83730309Y-37136571D01*
X83556770Y-36946100D01*
X83361143Y-36728695D01*
X83168894Y-36513335D01*
X82910672Y-36227054D01*
X82674239Y-35973396D01*
X82457043Y-35750351D01*
X82256533Y-35555905D01*
X82070155Y-35388048D01*
X81895358Y-35244768D01*
X81729589Y-35124053D01*
X81570297Y-35023891D01*
X81414928Y-34942271D01*
X81260932Y-34877181D01*
X81105755Y-34826609D01*
X80993030Y-34798317D01*
X80908946Y-34783157D01*
X80815947Y-34774024D01*
X80708444Y-34771046D01*
X80580844Y-34774354D01*
X80427557Y-34784077D01*
X80242993Y-34800345D01*
X80050379Y-34820165D01*
X79861583Y-34836614D01*
X79649557Y-34848440D01*
X79423618Y-34855631D01*
X79193081Y-34858182D01*
X78967263Y-34856083D01*
X78755480Y-34849326D01*
X78567048Y-34837902D01*
X78411283Y-34821804D01*
X78409962Y-34821625D01*
X78069721Y-34762244D01*
X77765987Y-34681557D01*
X77498636Y-34579480D01*
X77267543Y-34455928D01*
X77072585Y-34310816D01*
X76913638Y-34144059D01*
X76790577Y-33955571D01*
X76703278Y-33745269D01*
X76673006Y-33631935D01*
X76650251Y-33473599D01*
X76644446Y-33290086D01*
X76654976Y-33094734D01*
X76681224Y-32900881D01*
X76713580Y-32754134D01*
X76809733Y-32458577D01*
X76940493Y-32156950D01*
X77102241Y-31853209D01*
X77291356Y-31551312D01*
X77504218Y-31255216D01*
X77737205Y-30968875D01*
X77986698Y-30696248D01*
X78249076Y-30441290D01*
X78520719Y-30207959D01*
X78798006Y-30000210D01*
X79077316Y-29822001D01*
X79355030Y-29677288D01*
X79627045Y-29570183D01*
X79806962Y-29511735D01*
X81330962Y-29515510D01*
G37*
X101570470Y-58442893D02*
X101698392Y-58444069D01*
X101798637Y-58446834D01*
X101878531Y-58451695D01*
X101945402Y-58459161D01*
X102006574Y-58469740D01*
X102069375Y-58483937D01*
X102095462Y-58490456D01*
X102346886Y-58572706D01*
X102568154Y-58683735D01*
X102758597Y-58822971D01*
X102917545Y-58989839D01*
X103044328Y-59183768D01*
X103127688Y-59373335D01*
X103191528Y-59607629D01*
X103227503Y-59870903D01*
X103235687Y-60160334D01*
X103216152Y-60473096D01*
X103168972Y-60806365D01*
X103094220Y-61157318D01*
X103079805Y-61214539D01*
X102962967Y-61619270D01*
X102815455Y-62046783D01*
X102639349Y-62493040D01*
X102436729Y-62954004D01*
X102209675Y-63425637D01*
X101960269Y-63903904D01*
X101690590Y-64384766D01*
X101402719Y-64864188D01*
X101098736Y-65338130D01*
X100780722Y-65802557D01*
X100554522Y-66114918D01*
X100417302Y-66298027D01*
X100290207Y-66462640D01*
X100168322Y-66614204D01*
X100046733Y-66758166D01*
X99920527Y-66899972D01*
X99784788Y-67045070D01*
X99634602Y-67198905D01*
X99465056Y-67366926D01*
X99271234Y-67554578D01*
X99157278Y-67663577D01*
X98746999Y-68047333D01*
X98357718Y-68395964D01*
X97988135Y-68710329D01*
X97636950Y-68991288D01*
X97302864Y-69239702D01*
X96984577Y-69456430D01*
X96680791Y-69642332D01*
X96390205Y-69798269D01*
X96111521Y-69925100D01*
X95843438Y-70023686D01*
X95584657Y-70094886D01*
X95440107Y-70123667D01*
X95302420Y-70141382D01*
X95149276Y-70151676D01*
X94997214Y-70154047D01*
X94862775Y-70147995D01*
X94814129Y-70142627D01*
X94579463Y-70090313D01*
X94350869Y-70001363D01*
X94137228Y-69880376D01*
X93947423Y-69731948D01*
X93867852Y-69652804D01*
X93743451Y-69491876D01*
X93654571Y-69315577D01*
X93601277Y-69123048D01*
X93583636Y-68913428D01*
X93601713Y-68685859D01*
X93655572Y-68439482D01*
X93745279Y-68173438D01*
X93870900Y-67886866D01*
X94024439Y-67593264D01*
X94096355Y-67467019D01*
X94171204Y-67340456D01*
X94251845Y-67209199D01*
X94341136Y-67068871D01*
X94441935Y-66915096D01*
X94557101Y-66743497D01*
X94689492Y-66549698D01*
X94841966Y-66329321D01*
X94967427Y-66149392D01*
X95138127Y-65904289D01*
X95286520Y-65689098D01*
X95415371Y-65499622D01*
X95527443Y-65331662D01*
X95625501Y-65181020D01*
X95712309Y-65043498D01*
X95790631Y-64914898D01*
X95863232Y-64791021D01*
X95872646Y-64774605D01*
X95993671Y-64550318D01*
X96100447Y-64323812D01*
X96194097Y-64090562D01*
X96275747Y-63846045D01*
X96346522Y-63585736D01*
X96407546Y-63305111D01*
X96459944Y-62999647D01*
X96504842Y-62664818D01*
X96543364Y-62296102D01*
X96570911Y-61966251D01*
X96594516Y-61667711D01*
X96617467Y-61407233D01*
X96640382Y-61180569D01*
X96663882Y-60983466D01*
X96688586Y-60811675D01*
X96715114Y-60660944D01*
X96744086Y-60527022D01*
X96776121Y-60405660D01*
X96811839Y-60292606D01*
X96817184Y-60277156D01*
X96909972Y-60055088D01*
X97020413Y-59870375D01*
X97149656Y-59721389D01*
X97282569Y-59616779D01*
X97383026Y-59559081D01*
X97519315Y-59491762D01*
X97686504Y-59416629D01*
X97879663Y-59335487D01*
X98093861Y-59250141D01*
X98324167Y-59162398D01*
X98565650Y-59074062D01*
X98813379Y-58986939D01*
X99062424Y-58902835D01*
X99307854Y-58823555D01*
X99544737Y-58750905D01*
X99768144Y-58686689D01*
X99963435Y-58635135D01*
X100190441Y-58579827D01*
X100386433Y-58535950D01*
X100560789Y-58502253D01*
X100722886Y-58477489D01*
X100882100Y-58460409D01*
X101047809Y-58449763D01*
X101229390Y-58444303D01*
X101407545Y-58442799D01*
X101570470Y-58442893D01*
G36*
X101570470Y-58442893D02*
G01*
X101698392Y-58444069D01*
X101798637Y-58446834D01*
X101878531Y-58451695D01*
X101945402Y-58459161D01*
X102006574Y-58469740D01*
X102069375Y-58483937D01*
X102095462Y-58490456D01*
X102346886Y-58572706D01*
X102568154Y-58683735D01*
X102758597Y-58822971D01*
X102917545Y-58989839D01*
X103044328Y-59183768D01*
X103127688Y-59373335D01*
X103191528Y-59607629D01*
X103227503Y-59870903D01*
X103235687Y-60160334D01*
X103216152Y-60473096D01*
X103168972Y-60806365D01*
X103094220Y-61157318D01*
X103079805Y-61214539D01*
X102962967Y-61619270D01*
X102815455Y-62046783D01*
X102639349Y-62493040D01*
X102436729Y-62954004D01*
X102209675Y-63425637D01*
X101960269Y-63903904D01*
X101690590Y-64384766D01*
X101402719Y-64864188D01*
X101098736Y-65338130D01*
X100780722Y-65802557D01*
X100554522Y-66114918D01*
X100417302Y-66298027D01*
X100290207Y-66462640D01*
X100168322Y-66614204D01*
X100046733Y-66758166D01*
X99920527Y-66899972D01*
X99784788Y-67045070D01*
X99634602Y-67198905D01*
X99465056Y-67366926D01*
X99271234Y-67554578D01*
X99157278Y-67663577D01*
X98746999Y-68047333D01*
X98357718Y-68395964D01*
X97988135Y-68710329D01*
X97636950Y-68991288D01*
X97302864Y-69239702D01*
X96984577Y-69456430D01*
X96680791Y-69642332D01*
X96390205Y-69798269D01*
X96111521Y-69925100D01*
X95843438Y-70023686D01*
X95584657Y-70094886D01*
X95440107Y-70123667D01*
X95302420Y-70141382D01*
X95149276Y-70151676D01*
X94997214Y-70154047D01*
X94862775Y-70147995D01*
X94814129Y-70142627D01*
X94579463Y-70090313D01*
X94350869Y-70001363D01*
X94137228Y-69880376D01*
X93947423Y-69731948D01*
X93867852Y-69652804D01*
X93743451Y-69491876D01*
X93654571Y-69315577D01*
X93601277Y-69123048D01*
X93583636Y-68913428D01*
X93601713Y-68685859D01*
X93655572Y-68439482D01*
X93745279Y-68173438D01*
X93870900Y-67886866D01*
X94024439Y-67593264D01*
X94096355Y-67467019D01*
X94171204Y-67340456D01*
X94251845Y-67209199D01*
X94341136Y-67068871D01*
X94441935Y-66915096D01*
X94557101Y-66743497D01*
X94689492Y-66549698D01*
X94841966Y-66329321D01*
X94967427Y-66149392D01*
X95138127Y-65904289D01*
X95286520Y-65689098D01*
X95415371Y-65499622D01*
X95527443Y-65331662D01*
X95625501Y-65181020D01*
X95712309Y-65043498D01*
X95790631Y-64914898D01*
X95863232Y-64791021D01*
X95872646Y-64774605D01*
X95993671Y-64550318D01*
X96100447Y-64323812D01*
X96194097Y-64090562D01*
X96275747Y-63846045D01*
X96346522Y-63585736D01*
X96407546Y-63305111D01*
X96459944Y-62999647D01*
X96504842Y-62664818D01*
X96543364Y-62296102D01*
X96570911Y-61966251D01*
X96594516Y-61667711D01*
X96617467Y-61407233D01*
X96640382Y-61180569D01*
X96663882Y-60983466D01*
X96688586Y-60811675D01*
X96715114Y-60660944D01*
X96744086Y-60527022D01*
X96776121Y-60405660D01*
X96811839Y-60292606D01*
X96817184Y-60277156D01*
X96909972Y-60055088D01*
X97020413Y-59870375D01*
X97149656Y-59721389D01*
X97282569Y-59616779D01*
X97383026Y-59559081D01*
X97519315Y-59491762D01*
X97686504Y-59416629D01*
X97879663Y-59335487D01*
X98093861Y-59250141D01*
X98324167Y-59162398D01*
X98565650Y-59074062D01*
X98813379Y-58986939D01*
X99062424Y-58902835D01*
X99307854Y-58823555D01*
X99544737Y-58750905D01*
X99768144Y-58686689D01*
X99963435Y-58635135D01*
X100190441Y-58579827D01*
X100386433Y-58535950D01*
X100560789Y-58502253D01*
X100722886Y-58477489D01*
X100882100Y-58460409D01*
X101047809Y-58449763D01*
X101229390Y-58444303D01*
X101407545Y-58442799D01*
X101570470Y-58442893D01*
G37*
X76844838Y-58021103D02*
X77115525Y-58049494D01*
X77354225Y-58104309D01*
X77550628Y-58180781D01*
X77645429Y-58238698D01*
X77752864Y-58323228D01*
X77863242Y-58425013D01*
X77966871Y-58534699D01*
X78054060Y-58642928D01*
X78098000Y-58709201D01*
X78166981Y-58835423D01*
X78214058Y-58949139D01*
X78242893Y-59064361D01*
X78257150Y-59195105D01*
X78260547Y-59331001D01*
X78257210Y-59476889D01*
X78244973Y-59601991D01*
X78220891Y-59719982D01*
X78182022Y-59844537D01*
X78125420Y-59989332D01*
X78111918Y-60021439D01*
X78061971Y-60133185D01*
X78005459Y-60247110D01*
X77940038Y-60366859D01*
X77863366Y-60496077D01*
X77773098Y-60638410D01*
X77666891Y-60797503D01*
X77542402Y-60977003D01*
X77397288Y-61180554D01*
X77229204Y-61411802D01*
X77140690Y-61532335D01*
X76956189Y-61784088D01*
X76795220Y-62006582D01*
X76655163Y-62203846D01*
X76533396Y-62379908D01*
X76427298Y-62538798D01*
X76334249Y-62684544D01*
X76251629Y-62821178D01*
X76176817Y-62952727D01*
X76107191Y-63083220D01*
X76040132Y-63216688D01*
X76025229Y-63247335D01*
X75965387Y-63376391D01*
X75909824Y-63508333D01*
X75858087Y-63645711D01*
X75809726Y-63791077D01*
X75764286Y-63946980D01*
X75721317Y-64115972D01*
X75680366Y-64300603D01*
X75640981Y-64503424D01*
X75602710Y-64726985D01*
X75565100Y-64973836D01*
X75527700Y-65246529D01*
X75490057Y-65547614D01*
X75451720Y-65879642D01*
X75412235Y-66245163D01*
X75371151Y-66646728D01*
X75328016Y-67086888D01*
X75308629Y-67289668D01*
X75268433Y-67703455D01*
X75230065Y-68078255D01*
X75193074Y-68417352D01*
X75157008Y-68724032D01*
X75121415Y-69001580D01*
X75085842Y-69253279D01*
X75049840Y-69482416D01*
X75012955Y-69692274D01*
X74974736Y-69886139D01*
X74934731Y-70067295D01*
X74915629Y-70147168D01*
X74827401Y-70468736D01*
X74730271Y-70749273D01*
X74624013Y-70989185D01*
X74508398Y-71188875D01*
X74383199Y-71348749D01*
X74248190Y-71469210D01*
X74134295Y-71536846D01*
X74061241Y-71568311D01*
X73995967Y-71586609D01*
X73921501Y-71595069D01*
X73827379Y-71597023D01*
X73793293Y-71596812D01*
X73760629Y-71595599D01*
X73726406Y-71592495D01*
X73687644Y-71586614D01*
X73641364Y-71577065D01*
X73584586Y-71562962D01*
X73514330Y-71543417D01*
X73427617Y-71517541D01*
X73321466Y-71484446D01*
X73192899Y-71443244D01*
X73038936Y-71393048D01*
X72856596Y-71332969D01*
X72642900Y-71262119D01*
X72394869Y-71179610D01*
X72123462Y-71089198D01*
X71832492Y-70992128D01*
X71578469Y-70907069D01*
X71358115Y-70832835D01*
X71168154Y-70768243D01*
X71005306Y-70712108D01*
X70866296Y-70663246D01*
X70747846Y-70620471D01*
X70646677Y-70582600D01*
X70559513Y-70548449D01*
X70483076Y-70516831D01*
X70414089Y-70486563D01*
X70349274Y-70456461D01*
X70285354Y-70425340D01*
X70281962Y-70423656D01*
X69918134Y-70226768D01*
X69546478Y-69995062D01*
X69171072Y-69732544D01*
X68795993Y-69443218D01*
X68425318Y-69131091D01*
X68063124Y-68800167D01*
X67713490Y-68454451D01*
X67380492Y-68097950D01*
X67068208Y-67734668D01*
X66780715Y-67368611D01*
X66522091Y-67003784D01*
X66296413Y-66644193D01*
X66136445Y-66351401D01*
X65979921Y-66014494D01*
X65861127Y-65695774D01*
X65779941Y-65394467D01*
X65736244Y-65109800D01*
X65729914Y-64840999D01*
X65760830Y-64587292D01*
X65825358Y-64357439D01*
X65891648Y-64208756D01*
X65988868Y-64038195D01*
X66114073Y-63849264D01*
X66264319Y-63645473D01*
X66436660Y-63430333D01*
X66628151Y-63207352D01*
X66835848Y-62980041D01*
X67056806Y-62751909D01*
X67288079Y-62526466D01*
X67526722Y-62307221D01*
X67599664Y-62242875D01*
X68065083Y-61854611D01*
X68567766Y-61469408D01*
X69102644Y-61090141D01*
X69664649Y-60719685D01*
X70248712Y-60360916D01*
X70849762Y-60016707D01*
X71462733Y-59689934D01*
X72082555Y-59383471D01*
X72704159Y-59100194D01*
X73322476Y-58842976D01*
X73932437Y-58614695D01*
X74097430Y-58557579D01*
X74577679Y-58402558D01*
X75029529Y-58273572D01*
X75452465Y-58170675D01*
X75845977Y-58093924D01*
X76209551Y-58043374D01*
X76542676Y-58019082D01*
X76844838Y-58021103D01*
G36*
X76844838Y-58021103D02*
G01*
X77115525Y-58049494D01*
X77354225Y-58104309D01*
X77550628Y-58180781D01*
X77645429Y-58238698D01*
X77752864Y-58323228D01*
X77863242Y-58425013D01*
X77966871Y-58534699D01*
X78054060Y-58642928D01*
X78098000Y-58709201D01*
X78166981Y-58835423D01*
X78214058Y-58949139D01*
X78242893Y-59064361D01*
X78257150Y-59195105D01*
X78260547Y-59331001D01*
X78257210Y-59476889D01*
X78244973Y-59601991D01*
X78220891Y-59719982D01*
X78182022Y-59844537D01*
X78125420Y-59989332D01*
X78111918Y-60021439D01*
X78061971Y-60133185D01*
X78005459Y-60247110D01*
X77940038Y-60366859D01*
X77863366Y-60496077D01*
X77773098Y-60638410D01*
X77666891Y-60797503D01*
X77542402Y-60977003D01*
X77397288Y-61180554D01*
X77229204Y-61411802D01*
X77140690Y-61532335D01*
X76956189Y-61784088D01*
X76795220Y-62006582D01*
X76655163Y-62203846D01*
X76533396Y-62379908D01*
X76427298Y-62538798D01*
X76334249Y-62684544D01*
X76251629Y-62821178D01*
X76176817Y-62952727D01*
X76107191Y-63083220D01*
X76040132Y-63216688D01*
X76025229Y-63247335D01*
X75965387Y-63376391D01*
X75909824Y-63508333D01*
X75858087Y-63645711D01*
X75809726Y-63791077D01*
X75764286Y-63946980D01*
X75721317Y-64115972D01*
X75680366Y-64300603D01*
X75640981Y-64503424D01*
X75602710Y-64726985D01*
X75565100Y-64973836D01*
X75527700Y-65246529D01*
X75490057Y-65547614D01*
X75451720Y-65879642D01*
X75412235Y-66245163D01*
X75371151Y-66646728D01*
X75328016Y-67086888D01*
X75308629Y-67289668D01*
X75268433Y-67703455D01*
X75230065Y-68078255D01*
X75193074Y-68417352D01*
X75157008Y-68724032D01*
X75121415Y-69001580D01*
X75085842Y-69253279D01*
X75049840Y-69482416D01*
X75012955Y-69692274D01*
X74974736Y-69886139D01*
X74934731Y-70067295D01*
X74915629Y-70147168D01*
X74827401Y-70468736D01*
X74730271Y-70749273D01*
X74624013Y-70989185D01*
X74508398Y-71188875D01*
X74383199Y-71348749D01*
X74248190Y-71469210D01*
X74134295Y-71536846D01*
X74061241Y-71568311D01*
X73995967Y-71586609D01*
X73921501Y-71595069D01*
X73827379Y-71597023D01*
X73793293Y-71596812D01*
X73760629Y-71595599D01*
X73726406Y-71592495D01*
X73687644Y-71586614D01*
X73641364Y-71577065D01*
X73584586Y-71562962D01*
X73514330Y-71543417D01*
X73427617Y-71517541D01*
X73321466Y-71484446D01*
X73192899Y-71443244D01*
X73038936Y-71393048D01*
X72856596Y-71332969D01*
X72642900Y-71262119D01*
X72394869Y-71179610D01*
X72123462Y-71089198D01*
X71832492Y-70992128D01*
X71578469Y-70907069D01*
X71358115Y-70832835D01*
X71168154Y-70768243D01*
X71005306Y-70712108D01*
X70866296Y-70663246D01*
X70747846Y-70620471D01*
X70646677Y-70582600D01*
X70559513Y-70548449D01*
X70483076Y-70516831D01*
X70414089Y-70486563D01*
X70349274Y-70456461D01*
X70285354Y-70425340D01*
X70281962Y-70423656D01*
X69918134Y-70226768D01*
X69546478Y-69995062D01*
X69171072Y-69732544D01*
X68795993Y-69443218D01*
X68425318Y-69131091D01*
X68063124Y-68800167D01*
X67713490Y-68454451D01*
X67380492Y-68097950D01*
X67068208Y-67734668D01*
X66780715Y-67368611D01*
X66522091Y-67003784D01*
X66296413Y-66644193D01*
X66136445Y-66351401D01*
X65979921Y-66014494D01*
X65861127Y-65695774D01*
X65779941Y-65394467D01*
X65736244Y-65109800D01*
X65729914Y-64840999D01*
X65760830Y-64587292D01*
X65825358Y-64357439D01*
X65891648Y-64208756D01*
X65988868Y-64038195D01*
X66114073Y-63849264D01*
X66264319Y-63645473D01*
X66436660Y-63430333D01*
X66628151Y-63207352D01*
X66835848Y-62980041D01*
X67056806Y-62751909D01*
X67288079Y-62526466D01*
X67526722Y-62307221D01*
X67599664Y-62242875D01*
X68065083Y-61854611D01*
X68567766Y-61469408D01*
X69102644Y-61090141D01*
X69664649Y-60719685D01*
X70248712Y-60360916D01*
X70849762Y-60016707D01*
X71462733Y-59689934D01*
X72082555Y-59383471D01*
X72704159Y-59100194D01*
X73322476Y-58842976D01*
X73932437Y-58614695D01*
X74097430Y-58557579D01*
X74577679Y-58402558D01*
X75029529Y-58273572D01*
X75452465Y-58170675D01*
X75845977Y-58093924D01*
X76209551Y-58043374D01*
X76542676Y-58019082D01*
X76844838Y-58021103D01*
G37*
X85891163Y-69233944D02*
X86538901Y-69277990D01*
X87155666Y-69344012D01*
X87740661Y-69431868D01*
X88293086Y-69541412D01*
X88812143Y-69672500D01*
X89297035Y-69824988D01*
X89746963Y-69998731D01*
X90161128Y-70193585D01*
X90278926Y-70256489D01*
X90626403Y-70468506D01*
X90968308Y-70717687D01*
X91299786Y-70998867D01*
X91615983Y-71306881D01*
X91912046Y-71636565D01*
X92183118Y-71982756D01*
X92424348Y-72340289D01*
X92630879Y-72704000D01*
X92688294Y-72819692D01*
X92835401Y-73164832D01*
X92949426Y-73514532D01*
X93029332Y-73863631D01*
X93074081Y-74206972D01*
X93082636Y-74539398D01*
X93070925Y-74721959D01*
X93041142Y-74942999D01*
X92996959Y-75161998D01*
X92940874Y-75370534D01*
X92875388Y-75560188D01*
X92803001Y-75722539D01*
X92743629Y-75824397D01*
X92638178Y-75944553D01*
X92495238Y-76046669D01*
X92314467Y-76130934D01*
X92095524Y-76197538D01*
X92052597Y-76207540D01*
X91950840Y-76223632D01*
X91814216Y-76235348D01*
X91649957Y-76242752D01*
X91465295Y-76245908D01*
X91267464Y-76244878D01*
X91063696Y-76239726D01*
X90861223Y-76230515D01*
X90667278Y-76217308D01*
X90489094Y-76200170D01*
X90432629Y-76193361D01*
X90205297Y-76162573D01*
X89957785Y-76125706D01*
X89686738Y-76082185D01*
X89388798Y-76031434D01*
X89060610Y-75972877D01*
X88698817Y-75905939D01*
X88300064Y-75830044D01*
X88187263Y-75808258D01*
X87741122Y-75722221D01*
X87333125Y-75644372D01*
X86959990Y-75574183D01*
X86618433Y-75511122D01*
X86305174Y-75454661D01*
X86016929Y-75404269D01*
X85750417Y-75359416D01*
X85502355Y-75319572D01*
X85269462Y-75284208D01*
X85048455Y-75252792D01*
X84836051Y-75224797D01*
X84628969Y-75199690D01*
X84423926Y-75176943D01*
X84217641Y-75156026D01*
X84050879Y-75140377D01*
X83857185Y-75125876D01*
X83640723Y-75115001D01*
X83409714Y-75107756D01*
X83172381Y-75104148D01*
X82936946Y-75104181D01*
X82711631Y-75107861D01*
X82504659Y-75115193D01*
X82324251Y-75126182D01*
X82191599Y-75139179D01*
X82046553Y-75157953D01*
X81915588Y-75177040D01*
X81793144Y-75197907D01*
X81673665Y-75222021D01*
X81551592Y-75250851D01*
X81421366Y-75285863D01*
X81277430Y-75328525D01*
X81114225Y-75380304D01*
X80926193Y-75442668D01*
X80707775Y-75517084D01*
X80537212Y-75575960D01*
X80002263Y-75755553D01*
X79496332Y-75913761D01*
X79020475Y-76050314D01*
X78575743Y-76164942D01*
X78163192Y-76257378D01*
X77783875Y-76327352D01*
X77438847Y-76374595D01*
X77386427Y-76380073D01*
X77251260Y-76390245D01*
X77097641Y-76396440D01*
X76937188Y-76398671D01*
X76781515Y-76396950D01*
X76642237Y-76391290D01*
X76530969Y-76381705D01*
X76511607Y-76379100D01*
X76249883Y-76324566D01*
X76020222Y-76242414D01*
X75822546Y-76132578D01*
X75656775Y-75994989D01*
X75522830Y-75829579D01*
X75420632Y-75636280D01*
X75350101Y-75415024D01*
X75341423Y-75375444D01*
X75322666Y-75248267D01*
X75311232Y-75092364D01*
X75307286Y-74920733D01*
X75310988Y-74746372D01*
X75322503Y-74582278D01*
X75330609Y-74512781D01*
X75390785Y-74165137D01*
X75481359Y-73788225D01*
X75602284Y-73382192D01*
X75753512Y-72947183D01*
X75934996Y-72483346D01*
X76146687Y-71990825D01*
X76166662Y-71946335D01*
X76250507Y-71761011D01*
X76320138Y-71609655D01*
X76378268Y-71487435D01*
X76427608Y-71389516D01*
X76470871Y-71311064D01*
X76510769Y-71247247D01*
X76550013Y-71193229D01*
X76591317Y-71144177D01*
X76637391Y-71095258D01*
X76653129Y-71079301D01*
X76825441Y-70927590D01*
X77037929Y-70777913D01*
X77288456Y-70630949D01*
X77574885Y-70487383D01*
X77895081Y-70347894D01*
X78246907Y-70213166D01*
X78628226Y-70083881D01*
X79036903Y-69960718D01*
X79470800Y-69844362D01*
X79927782Y-69735493D01*
X80405712Y-69634794D01*
X80902453Y-69542945D01*
X81415870Y-69460630D01*
X81943826Y-69388530D01*
X81955379Y-69387089D01*
X82326595Y-69343012D01*
X82673176Y-69306608D01*
X83005854Y-69277143D01*
X83335357Y-69253880D01*
X83672416Y-69236086D01*
X84027763Y-69223025D01*
X84412125Y-69213962D01*
X84505962Y-69212362D01*
X85213251Y-69212020D01*
X85891163Y-69233944D01*
G36*
X85891163Y-69233944D02*
G01*
X86538901Y-69277990D01*
X87155666Y-69344012D01*
X87740661Y-69431868D01*
X88293086Y-69541412D01*
X88812143Y-69672500D01*
X89297035Y-69824988D01*
X89746963Y-69998731D01*
X90161128Y-70193585D01*
X90278926Y-70256489D01*
X90626403Y-70468506D01*
X90968308Y-70717687D01*
X91299786Y-70998867D01*
X91615983Y-71306881D01*
X91912046Y-71636565D01*
X92183118Y-71982756D01*
X92424348Y-72340289D01*
X92630879Y-72704000D01*
X92688294Y-72819692D01*
X92835401Y-73164832D01*
X92949426Y-73514532D01*
X93029332Y-73863631D01*
X93074081Y-74206972D01*
X93082636Y-74539398D01*
X93070925Y-74721959D01*
X93041142Y-74942999D01*
X92996959Y-75161998D01*
X92940874Y-75370534D01*
X92875388Y-75560188D01*
X92803001Y-75722539D01*
X92743629Y-75824397D01*
X92638178Y-75944553D01*
X92495238Y-76046669D01*
X92314467Y-76130934D01*
X92095524Y-76197538D01*
X92052597Y-76207540D01*
X91950840Y-76223632D01*
X91814216Y-76235348D01*
X91649957Y-76242752D01*
X91465295Y-76245908D01*
X91267464Y-76244878D01*
X91063696Y-76239726D01*
X90861223Y-76230515D01*
X90667278Y-76217308D01*
X90489094Y-76200170D01*
X90432629Y-76193361D01*
X90205297Y-76162573D01*
X89957785Y-76125706D01*
X89686738Y-76082185D01*
X89388798Y-76031434D01*
X89060610Y-75972877D01*
X88698817Y-75905939D01*
X88300064Y-75830044D01*
X88187263Y-75808258D01*
X87741122Y-75722221D01*
X87333125Y-75644372D01*
X86959990Y-75574183D01*
X86618433Y-75511122D01*
X86305174Y-75454661D01*
X86016929Y-75404269D01*
X85750417Y-75359416D01*
X85502355Y-75319572D01*
X85269462Y-75284208D01*
X85048455Y-75252792D01*
X84836051Y-75224797D01*
X84628969Y-75199690D01*
X84423926Y-75176943D01*
X84217641Y-75156026D01*
X84050879Y-75140377D01*
X83857185Y-75125876D01*
X83640723Y-75115001D01*
X83409714Y-75107756D01*
X83172381Y-75104148D01*
X82936946Y-75104181D01*
X82711631Y-75107861D01*
X82504659Y-75115193D01*
X82324251Y-75126182D01*
X82191599Y-75139179D01*
X82046553Y-75157953D01*
X81915588Y-75177040D01*
X81793144Y-75197907D01*
X81673665Y-75222021D01*
X81551592Y-75250851D01*
X81421366Y-75285863D01*
X81277430Y-75328525D01*
X81114225Y-75380304D01*
X80926193Y-75442668D01*
X80707775Y-75517084D01*
X80537212Y-75575960D01*
X80002263Y-75755553D01*
X79496332Y-75913761D01*
X79020475Y-76050314D01*
X78575743Y-76164942D01*
X78163192Y-76257378D01*
X77783875Y-76327352D01*
X77438847Y-76374595D01*
X77386427Y-76380073D01*
X77251260Y-76390245D01*
X77097641Y-76396440D01*
X76937188Y-76398671D01*
X76781515Y-76396950D01*
X76642237Y-76391290D01*
X76530969Y-76381705D01*
X76511607Y-76379100D01*
X76249883Y-76324566D01*
X76020222Y-76242414D01*
X75822546Y-76132578D01*
X75656775Y-75994989D01*
X75522830Y-75829579D01*
X75420632Y-75636280D01*
X75350101Y-75415024D01*
X75341423Y-75375444D01*
X75322666Y-75248267D01*
X75311232Y-75092364D01*
X75307286Y-74920733D01*
X75310988Y-74746372D01*
X75322503Y-74582278D01*
X75330609Y-74512781D01*
X75390785Y-74165137D01*
X75481359Y-73788225D01*
X75602284Y-73382192D01*
X75753512Y-72947183D01*
X75934996Y-72483346D01*
X76146687Y-71990825D01*
X76166662Y-71946335D01*
X76250507Y-71761011D01*
X76320138Y-71609655D01*
X76378268Y-71487435D01*
X76427608Y-71389516D01*
X76470871Y-71311064D01*
X76510769Y-71247247D01*
X76550013Y-71193229D01*
X76591317Y-71144177D01*
X76637391Y-71095258D01*
X76653129Y-71079301D01*
X76825441Y-70927590D01*
X77037929Y-70777913D01*
X77288456Y-70630949D01*
X77574885Y-70487383D01*
X77895081Y-70347894D01*
X78246907Y-70213166D01*
X78628226Y-70083881D01*
X79036903Y-69960718D01*
X79470800Y-69844362D01*
X79927782Y-69735493D01*
X80405712Y-69634794D01*
X80902453Y-69542945D01*
X81415870Y-69460630D01*
X81943826Y-69388530D01*
X81955379Y-69387089D01*
X82326595Y-69343012D01*
X82673176Y-69306608D01*
X83005854Y-69277143D01*
X83335357Y-69253880D01*
X83672416Y-69236086D01*
X84027763Y-69223025D01*
X84412125Y-69213962D01*
X84505962Y-69212362D01*
X85213251Y-69212020D01*
X85891163Y-69233944D01*
G37*
X87699961Y-50726529D02*
X88155740Y-50758343D01*
X88649150Y-50806765D01*
X89180547Y-50871783D01*
X89750287Y-50953385D01*
X90189212Y-51023187D01*
X90480818Y-51072291D01*
X90778712Y-51124397D01*
X91086135Y-51180157D01*
X91406326Y-51240219D01*
X91742525Y-51305234D01*
X92097972Y-51375851D01*
X92475908Y-51452719D01*
X92879572Y-51536489D01*
X93312204Y-51627810D01*
X93777044Y-51727332D01*
X94277332Y-51835704D01*
X94681062Y-51923906D01*
X95187325Y-52034598D01*
X95653806Y-52136030D01*
X96081962Y-52228497D01*
X96473251Y-52312299D01*
X96829129Y-52387733D01*
X97151055Y-52455097D01*
X97440486Y-52514689D01*
X97698879Y-52566807D01*
X97927692Y-52611750D01*
X98128382Y-52649814D01*
X98302407Y-52681298D01*
X98451223Y-52706500D01*
X98576290Y-52725718D01*
X98655323Y-52736377D01*
X98769612Y-52748085D01*
X98893298Y-52755446D01*
X99030035Y-52758279D01*
X99183477Y-52756407D01*
X99357278Y-52749650D01*
X99555093Y-52737831D01*
X99780574Y-52720769D01*
X100037376Y-52698286D01*
X100329154Y-52670204D01*
X100624379Y-52640026D01*
X101009947Y-52600060D01*
X101356707Y-52564826D01*
X101667896Y-52534098D01*
X101946746Y-52507647D01*
X102196493Y-52485244D01*
X102420371Y-52466661D01*
X102621615Y-52451670D01*
X102803459Y-52440043D01*
X102969138Y-52431552D01*
X103121885Y-52425968D01*
X103264937Y-52423063D01*
X103401527Y-52422610D01*
X103534890Y-52424379D01*
X103640629Y-52427216D01*
X103786438Y-52433408D01*
X103935908Y-52442354D01*
X104076753Y-52453142D01*
X104196689Y-52464858D01*
X104265045Y-52473631D01*
X104483635Y-52516382D01*
X104685643Y-52575268D01*
X104865662Y-52647855D01*
X105018287Y-52731710D01*
X105138113Y-52824400D01*
X105200750Y-52894837D01*
X105257361Y-52978241D01*
X105295074Y-53051876D01*
X105317539Y-53128500D01*
X105328403Y-53220870D01*
X105331315Y-53341745D01*
X105331316Y-53351418D01*
X105325881Y-53486626D01*
X105307978Y-53612843D01*
X105274801Y-53739987D01*
X105223546Y-53877978D01*
X105151407Y-54036734D01*
X105118805Y-54102835D01*
X105024315Y-54277088D01*
X104910370Y-54463784D01*
X104781239Y-54657557D01*
X104641192Y-54853044D01*
X104494500Y-55044882D01*
X104345432Y-55227708D01*
X104198260Y-55396157D01*
X104057253Y-55544867D01*
X103926680Y-55668475D01*
X103810814Y-55761615D01*
X103783084Y-55780532D01*
X103576702Y-55903366D01*
X103330538Y-56029317D01*
X103046970Y-56157695D01*
X102728380Y-56287808D01*
X102377145Y-56418965D01*
X101995647Y-56550474D01*
X101586263Y-56681643D01*
X101151373Y-56811782D01*
X100693357Y-56940198D01*
X100214594Y-57066201D01*
X99717464Y-57189099D01*
X99204346Y-57308200D01*
X98677620Y-57422813D01*
X98139664Y-57532247D01*
X97592858Y-57635810D01*
X97100129Y-57722577D01*
X96255437Y-57858038D01*
X95439401Y-57972390D01*
X94644448Y-58066423D01*
X93863007Y-58140927D01*
X93087503Y-58196694D01*
X92310364Y-58234512D01*
X92136545Y-58240563D01*
X91932258Y-58247031D01*
X91761397Y-58251944D01*
X91615086Y-58255299D01*
X91484447Y-58257088D01*
X91360602Y-58257306D01*
X91234673Y-58255947D01*
X91097782Y-58253006D01*
X90941052Y-58248476D01*
X90755604Y-58242353D01*
X90676045Y-58239617D01*
X90079047Y-58209267D01*
X89514637Y-58160753D01*
X88983458Y-58094257D01*
X88486152Y-58009958D01*
X88023359Y-57908037D01*
X87595722Y-57788675D01*
X87203883Y-57652052D01*
X86848483Y-57498348D01*
X86530164Y-57327745D01*
X86249568Y-57140423D01*
X86007335Y-56936561D01*
X85992091Y-56921927D01*
X85849539Y-56769664D01*
X85699424Y-56583366D01*
X85545937Y-56369663D01*
X85393269Y-56135188D01*
X85245614Y-55886575D01*
X85107161Y-55630454D01*
X84982103Y-55373458D01*
X84910810Y-55211057D01*
X84758512Y-54806542D01*
X84640515Y-54403513D01*
X84557021Y-54004882D01*
X84508234Y-53613562D01*
X84494356Y-53232468D01*
X84515589Y-52864511D01*
X84572137Y-52512605D01*
X84664203Y-52179662D01*
X84694068Y-52096336D01*
X84776673Y-51902295D01*
X84878695Y-51702978D01*
X84993199Y-51510065D01*
X85113250Y-51335235D01*
X85231915Y-51190166D01*
X85232510Y-51189516D01*
X85365652Y-51071324D01*
X85533218Y-50969846D01*
X85735563Y-50885072D01*
X85973044Y-50816990D01*
X86246018Y-50765587D01*
X86554840Y-50730851D01*
X86899867Y-50712771D01*
X87281455Y-50711334D01*
X87699961Y-50726529D01*
G36*
X87699961Y-50726529D02*
G01*
X88155740Y-50758343D01*
X88649150Y-50806765D01*
X89180547Y-50871783D01*
X89750287Y-50953385D01*
X90189212Y-51023187D01*
X90480818Y-51072291D01*
X90778712Y-51124397D01*
X91086135Y-51180157D01*
X91406326Y-51240219D01*
X91742525Y-51305234D01*
X92097972Y-51375851D01*
X92475908Y-51452719D01*
X92879572Y-51536489D01*
X93312204Y-51627810D01*
X93777044Y-51727332D01*
X94277332Y-51835704D01*
X94681062Y-51923906D01*
X95187325Y-52034598D01*
X95653806Y-52136030D01*
X96081962Y-52228497D01*
X96473251Y-52312299D01*
X96829129Y-52387733D01*
X97151055Y-52455097D01*
X97440486Y-52514689D01*
X97698879Y-52566807D01*
X97927692Y-52611750D01*
X98128382Y-52649814D01*
X98302407Y-52681298D01*
X98451223Y-52706500D01*
X98576290Y-52725718D01*
X98655323Y-52736377D01*
X98769612Y-52748085D01*
X98893298Y-52755446D01*
X99030035Y-52758279D01*
X99183477Y-52756407D01*
X99357278Y-52749650D01*
X99555093Y-52737831D01*
X99780574Y-52720769D01*
X100037376Y-52698286D01*
X100329154Y-52670204D01*
X100624379Y-52640026D01*
X101009947Y-52600060D01*
X101356707Y-52564826D01*
X101667896Y-52534098D01*
X101946746Y-52507647D01*
X102196493Y-52485244D01*
X102420371Y-52466661D01*
X102621615Y-52451670D01*
X102803459Y-52440043D01*
X102969138Y-52431552D01*
X103121885Y-52425968D01*
X103264937Y-52423063D01*
X103401527Y-52422610D01*
X103534890Y-52424379D01*
X103640629Y-52427216D01*
X103786438Y-52433408D01*
X103935908Y-52442354D01*
X104076753Y-52453142D01*
X104196689Y-52464858D01*
X104265045Y-52473631D01*
X104483635Y-52516382D01*
X104685643Y-52575268D01*
X104865662Y-52647855D01*
X105018287Y-52731710D01*
X105138113Y-52824400D01*
X105200750Y-52894837D01*
X105257361Y-52978241D01*
X105295074Y-53051876D01*
X105317539Y-53128500D01*
X105328403Y-53220870D01*
X105331315Y-53341745D01*
X105331316Y-53351418D01*
X105325881Y-53486626D01*
X105307978Y-53612843D01*
X105274801Y-53739987D01*
X105223546Y-53877978D01*
X105151407Y-54036734D01*
X105118805Y-54102835D01*
X105024315Y-54277088D01*
X104910370Y-54463784D01*
X104781239Y-54657557D01*
X104641192Y-54853044D01*
X104494500Y-55044882D01*
X104345432Y-55227708D01*
X104198260Y-55396157D01*
X104057253Y-55544867D01*
X103926680Y-55668475D01*
X103810814Y-55761615D01*
X103783084Y-55780532D01*
X103576702Y-55903366D01*
X103330538Y-56029317D01*
X103046970Y-56157695D01*
X102728380Y-56287808D01*
X102377145Y-56418965D01*
X101995647Y-56550474D01*
X101586263Y-56681643D01*
X101151373Y-56811782D01*
X100693357Y-56940198D01*
X100214594Y-57066201D01*
X99717464Y-57189099D01*
X99204346Y-57308200D01*
X98677620Y-57422813D01*
X98139664Y-57532247D01*
X97592858Y-57635810D01*
X97100129Y-57722577D01*
X96255437Y-57858038D01*
X95439401Y-57972390D01*
X94644448Y-58066423D01*
X93863007Y-58140927D01*
X93087503Y-58196694D01*
X92310364Y-58234512D01*
X92136545Y-58240563D01*
X91932258Y-58247031D01*
X91761397Y-58251944D01*
X91615086Y-58255299D01*
X91484447Y-58257088D01*
X91360602Y-58257306D01*
X91234673Y-58255947D01*
X91097782Y-58253006D01*
X90941052Y-58248476D01*
X90755604Y-58242353D01*
X90676045Y-58239617D01*
X90079047Y-58209267D01*
X89514637Y-58160753D01*
X88983458Y-58094257D01*
X88486152Y-58009958D01*
X88023359Y-57908037D01*
X87595722Y-57788675D01*
X87203883Y-57652052D01*
X86848483Y-57498348D01*
X86530164Y-57327745D01*
X86249568Y-57140423D01*
X86007335Y-56936561D01*
X85992091Y-56921927D01*
X85849539Y-56769664D01*
X85699424Y-56583366D01*
X85545937Y-56369663D01*
X85393269Y-56135188D01*
X85245614Y-55886575D01*
X85107161Y-55630454D01*
X84982103Y-55373458D01*
X84910810Y-55211057D01*
X84758512Y-54806542D01*
X84640515Y-54403513D01*
X84557021Y-54004882D01*
X84508234Y-53613562D01*
X84494356Y-53232468D01*
X84515589Y-52864511D01*
X84572137Y-52512605D01*
X84664203Y-52179662D01*
X84694068Y-52096336D01*
X84776673Y-51902295D01*
X84878695Y-51702978D01*
X84993199Y-51510065D01*
X85113250Y-51335235D01*
X85231915Y-51190166D01*
X85232510Y-51189516D01*
X85365652Y-51071324D01*
X85533218Y-50969846D01*
X85735563Y-50885072D01*
X85973044Y-50816990D01*
X86246018Y-50765587D01*
X86554840Y-50730851D01*
X86899867Y-50712771D01*
X87281455Y-50711334D01*
X87699961Y-50726529D01*
G37*
X71109656Y-46302680D02*
X71318963Y-46358247D01*
X71540035Y-46454451D01*
X71772799Y-46591324D01*
X71913075Y-46689317D01*
X71996445Y-46756528D01*
X72100976Y-46849706D01*
X72220438Y-46962539D01*
X72348602Y-47088716D01*
X72479237Y-47221926D01*
X72606114Y-47355857D01*
X72723003Y-47484198D01*
X72823675Y-47600638D01*
X72875034Y-47663857D01*
X73186022Y-48079013D01*
X73484360Y-48516064D01*
X73765847Y-48967679D01*
X74026279Y-49426528D01*
X74261456Y-49885282D01*
X74467176Y-50336609D01*
X74606769Y-50684863D01*
X74670646Y-50862450D01*
X74724005Y-51028611D01*
X74768226Y-51190706D01*
X74804687Y-51356094D01*
X74834768Y-51532136D01*
X74859849Y-51726190D01*
X74881308Y-51945616D01*
X74900526Y-52197773D01*
X74906140Y-52282140D01*
X74926590Y-52872913D01*
X74910124Y-53442968D01*
X74856787Y-53992231D01*
X74766622Y-54520628D01*
X74639671Y-55028085D01*
X74475978Y-55514530D01*
X74275586Y-55979887D01*
X74038539Y-56424083D01*
X73764879Y-56847045D01*
X73454650Y-57248699D01*
X73107894Y-57628971D01*
X72724656Y-57987788D01*
X72304979Y-58325075D01*
X71848905Y-58640760D01*
X71356477Y-58934768D01*
X70853462Y-59194689D01*
X70722831Y-59257074D01*
X70599703Y-59314599D01*
X70480765Y-59368442D01*
X70362707Y-59419784D01*
X70242216Y-59469803D01*
X70115981Y-59519677D01*
X69980691Y-59570587D01*
X69833034Y-59623711D01*
X69669699Y-59680227D01*
X69487374Y-59741317D01*
X69282748Y-59808157D01*
X69052509Y-59881928D01*
X68793346Y-59963808D01*
X68501947Y-60054976D01*
X68175001Y-60156612D01*
X67995962Y-60212095D01*
X67713320Y-60299618D01*
X67412394Y-60392801D01*
X67100390Y-60489414D01*
X66784518Y-60587223D01*
X66471985Y-60683998D01*
X66170000Y-60777507D01*
X65885771Y-60865516D01*
X65626506Y-60945795D01*
X65399413Y-61016111D01*
X65369211Y-61025463D01*
X65156029Y-61091231D01*
X64952039Y-61153705D01*
X64761364Y-61211651D01*
X64588129Y-61263839D01*
X64436457Y-61309035D01*
X64310473Y-61346007D01*
X64214300Y-61373525D01*
X64152063Y-61390354D01*
X64133363Y-61394691D01*
X64010253Y-61409361D01*
X63865025Y-61413458D01*
X63716471Y-61407300D01*
X63583383Y-61391203D01*
X63550962Y-61384852D01*
X63313851Y-61311913D01*
X63081394Y-61198388D01*
X62855315Y-61045925D01*
X62637338Y-60856170D01*
X62429187Y-60630769D01*
X62232585Y-60371370D01*
X62049259Y-60079620D01*
X61910260Y-59817835D01*
X61763820Y-59490222D01*
X61641425Y-59154162D01*
X61543277Y-58813590D01*
X61469576Y-58472441D01*
X61420522Y-58134649D01*
X61396315Y-57804149D01*
X61397155Y-57484876D01*
X61423243Y-57180766D01*
X61474779Y-56895753D01*
X61551964Y-56633771D01*
X61654998Y-56398757D01*
X61729731Y-56271686D01*
X61797385Y-56180425D01*
X61892626Y-56068795D01*
X62009696Y-55942506D01*
X62142835Y-55807268D01*
X62286285Y-55668791D01*
X62434285Y-55532785D01*
X62581077Y-55404960D01*
X62710988Y-55298802D01*
X62796166Y-55231975D01*
X62877497Y-55168737D01*
X62957193Y-55107571D01*
X63037470Y-55046958D01*
X63120540Y-54985381D01*
X63208615Y-54921323D01*
X63303911Y-54853266D01*
X63408639Y-54779692D01*
X63525014Y-54699083D01*
X63655248Y-54609923D01*
X63801555Y-54510693D01*
X63966148Y-54399876D01*
X64151240Y-54275954D01*
X64359046Y-54137409D01*
X64591777Y-53982725D01*
X64851648Y-53810383D01*
X65140872Y-53618866D01*
X65461661Y-53406656D01*
X65709962Y-53242484D01*
X66154994Y-52945254D01*
X66563913Y-52665628D01*
X66938409Y-52402161D01*
X67280174Y-52153408D01*
X67590898Y-51917924D01*
X67872275Y-51694263D01*
X68125994Y-51480980D01*
X68353747Y-51276631D01*
X68557226Y-51079770D01*
X68738122Y-50888952D01*
X68898125Y-50702733D01*
X69038929Y-50519666D01*
X69162223Y-50338306D01*
X69220849Y-50242722D01*
X69291747Y-50115604D01*
X69349007Y-49994414D01*
X69394839Y-49871103D01*
X69431453Y-49737619D01*
X69461060Y-49585912D01*
X69485869Y-49407932D01*
X69507976Y-49196859D01*
X69540134Y-48878435D01*
X69574094Y-48595732D01*
X69610948Y-48342141D01*
X69651787Y-48111058D01*
X69697705Y-47895874D01*
X69749793Y-47689982D01*
X69767699Y-47625835D01*
X69867749Y-47317141D01*
X69980237Y-47048791D01*
X70105089Y-46820816D01*
X70242230Y-46633250D01*
X70391585Y-46486124D01*
X70553080Y-46379471D01*
X70726640Y-46313325D01*
X70912191Y-46287717D01*
X71109656Y-46302680D01*
G36*
X71109656Y-46302680D02*
G01*
X71318963Y-46358247D01*
X71540035Y-46454451D01*
X71772799Y-46591324D01*
X71913075Y-46689317D01*
X71996445Y-46756528D01*
X72100976Y-46849706D01*
X72220438Y-46962539D01*
X72348602Y-47088716D01*
X72479237Y-47221926D01*
X72606114Y-47355857D01*
X72723003Y-47484198D01*
X72823675Y-47600638D01*
X72875034Y-47663857D01*
X73186022Y-48079013D01*
X73484360Y-48516064D01*
X73765847Y-48967679D01*
X74026279Y-49426528D01*
X74261456Y-49885282D01*
X74467176Y-50336609D01*
X74606769Y-50684863D01*
X74670646Y-50862450D01*
X74724005Y-51028611D01*
X74768226Y-51190706D01*
X74804687Y-51356094D01*
X74834768Y-51532136D01*
X74859849Y-51726190D01*
X74881308Y-51945616D01*
X74900526Y-52197773D01*
X74906140Y-52282140D01*
X74926590Y-52872913D01*
X74910124Y-53442968D01*
X74856787Y-53992231D01*
X74766622Y-54520628D01*
X74639671Y-55028085D01*
X74475978Y-55514530D01*
X74275586Y-55979887D01*
X74038539Y-56424083D01*
X73764879Y-56847045D01*
X73454650Y-57248699D01*
X73107894Y-57628971D01*
X72724656Y-57987788D01*
X72304979Y-58325075D01*
X71848905Y-58640760D01*
X71356477Y-58934768D01*
X70853462Y-59194689D01*
X70722831Y-59257074D01*
X70599703Y-59314599D01*
X70480765Y-59368442D01*
X70362707Y-59419784D01*
X70242216Y-59469803D01*
X70115981Y-59519677D01*
X69980691Y-59570587D01*
X69833034Y-59623711D01*
X69669699Y-59680227D01*
X69487374Y-59741317D01*
X69282748Y-59808157D01*
X69052509Y-59881928D01*
X68793346Y-59963808D01*
X68501947Y-60054976D01*
X68175001Y-60156612D01*
X67995962Y-60212095D01*
X67713320Y-60299618D01*
X67412394Y-60392801D01*
X67100390Y-60489414D01*
X66784518Y-60587223D01*
X66471985Y-60683998D01*
X66170000Y-60777507D01*
X65885771Y-60865516D01*
X65626506Y-60945795D01*
X65399413Y-61016111D01*
X65369211Y-61025463D01*
X65156029Y-61091231D01*
X64952039Y-61153705D01*
X64761364Y-61211651D01*
X64588129Y-61263839D01*
X64436457Y-61309035D01*
X64310473Y-61346007D01*
X64214300Y-61373525D01*
X64152063Y-61390354D01*
X64133363Y-61394691D01*
X64010253Y-61409361D01*
X63865025Y-61413458D01*
X63716471Y-61407300D01*
X63583383Y-61391203D01*
X63550962Y-61384852D01*
X63313851Y-61311913D01*
X63081394Y-61198388D01*
X62855315Y-61045925D01*
X62637338Y-60856170D01*
X62429187Y-60630769D01*
X62232585Y-60371370D01*
X62049259Y-60079620D01*
X61910260Y-59817835D01*
X61763820Y-59490222D01*
X61641425Y-59154162D01*
X61543277Y-58813590D01*
X61469576Y-58472441D01*
X61420522Y-58134649D01*
X61396315Y-57804149D01*
X61397155Y-57484876D01*
X61423243Y-57180766D01*
X61474779Y-56895753D01*
X61551964Y-56633771D01*
X61654998Y-56398757D01*
X61729731Y-56271686D01*
X61797385Y-56180425D01*
X61892626Y-56068795D01*
X62009696Y-55942506D01*
X62142835Y-55807268D01*
X62286285Y-55668791D01*
X62434285Y-55532785D01*
X62581077Y-55404960D01*
X62710988Y-55298802D01*
X62796166Y-55231975D01*
X62877497Y-55168737D01*
X62957193Y-55107571D01*
X63037470Y-55046958D01*
X63120540Y-54985381D01*
X63208615Y-54921323D01*
X63303911Y-54853266D01*
X63408639Y-54779692D01*
X63525014Y-54699083D01*
X63655248Y-54609923D01*
X63801555Y-54510693D01*
X63966148Y-54399876D01*
X64151240Y-54275954D01*
X64359046Y-54137409D01*
X64591777Y-53982725D01*
X64851648Y-53810383D01*
X65140872Y-53618866D01*
X65461661Y-53406656D01*
X65709962Y-53242484D01*
X66154994Y-52945254D01*
X66563913Y-52665628D01*
X66938409Y-52402161D01*
X67280174Y-52153408D01*
X67590898Y-51917924D01*
X67872275Y-51694263D01*
X68125994Y-51480980D01*
X68353747Y-51276631D01*
X68557226Y-51079770D01*
X68738122Y-50888952D01*
X68898125Y-50702733D01*
X69038929Y-50519666D01*
X69162223Y-50338306D01*
X69220849Y-50242722D01*
X69291747Y-50115604D01*
X69349007Y-49994414D01*
X69394839Y-49871103D01*
X69431453Y-49737619D01*
X69461060Y-49585912D01*
X69485869Y-49407932D01*
X69507976Y-49196859D01*
X69540134Y-48878435D01*
X69574094Y-48595732D01*
X69610948Y-48342141D01*
X69651787Y-48111058D01*
X69697705Y-47895874D01*
X69749793Y-47689982D01*
X69767699Y-47625835D01*
X69867749Y-47317141D01*
X69980237Y-47048791D01*
X70105089Y-46820816D01*
X70242230Y-46633250D01*
X70391585Y-46486124D01*
X70553080Y-46379471D01*
X70726640Y-46313325D01*
X70912191Y-46287717D01*
X71109656Y-46302680D01*
G37*
%TO.C,Ref\u002A\u002A*%
X89588833Y-78562333D02*
X89461833Y-78562333D01*
X89461833Y-78096667D01*
X89588833Y-78096667D01*
X89588833Y-78562333D01*
G36*
X89588833Y-78562333D02*
G01*
X89461833Y-78562333D01*
X89461833Y-78096667D01*
X89588833Y-78096667D01*
X89588833Y-78562333D01*
G37*
X89607905Y-78859034D02*
X89666656Y-78861528D01*
X89698932Y-78868234D01*
X89712665Y-78881240D01*
X89715782Y-78902632D01*
X89715833Y-78911583D01*
X89708999Y-78949401D01*
X89679947Y-78963236D01*
X89652333Y-78964500D01*
X89588833Y-78964500D01*
X89588833Y-79303167D01*
X89461833Y-79303167D01*
X89461833Y-78964500D01*
X89387750Y-78964500D01*
X89337650Y-78960546D01*
X89317140Y-78942755D01*
X89313667Y-78911583D01*
X89315063Y-78887069D01*
X89324538Y-78871608D01*
X89350023Y-78863114D01*
X89399446Y-78859500D01*
X89480736Y-78858680D01*
X89514750Y-78858667D01*
X89607905Y-78859034D01*
G36*
X89607905Y-78859034D02*
G01*
X89666656Y-78861528D01*
X89698932Y-78868234D01*
X89712665Y-78881240D01*
X89715782Y-78902632D01*
X89715833Y-78911583D01*
X89708999Y-78949401D01*
X89679947Y-78963236D01*
X89652333Y-78964500D01*
X89588833Y-78964500D01*
X89588833Y-79303167D01*
X89461833Y-79303167D01*
X89461833Y-78964500D01*
X89387750Y-78964500D01*
X89337650Y-78960546D01*
X89317140Y-78942755D01*
X89313667Y-78911583D01*
X89315063Y-78887069D01*
X89324538Y-78871608D01*
X89350023Y-78863114D01*
X89399446Y-78859500D01*
X89480736Y-78858680D01*
X89514750Y-78858667D01*
X89607905Y-78859034D01*
G37*
X89607905Y-79621034D02*
X89666656Y-79623528D01*
X89698932Y-79630234D01*
X89712665Y-79643240D01*
X89715782Y-79664632D01*
X89715833Y-79673583D01*
X89708999Y-79711401D01*
X89679947Y-79725236D01*
X89652333Y-79726500D01*
X89588833Y-79726500D01*
X89588833Y-80065167D01*
X89461833Y-80065167D01*
X89461833Y-79726500D01*
X89387750Y-79726500D01*
X89337650Y-79722546D01*
X89317140Y-79704755D01*
X89313667Y-79673583D01*
X89315063Y-79649069D01*
X89324538Y-79633608D01*
X89350023Y-79625114D01*
X89399446Y-79621500D01*
X89480736Y-79620680D01*
X89514750Y-79620667D01*
X89607905Y-79621034D01*
G36*
X89607905Y-79621034D02*
G01*
X89666656Y-79623528D01*
X89698932Y-79630234D01*
X89712665Y-79643240D01*
X89715782Y-79664632D01*
X89715833Y-79673583D01*
X89708999Y-79711401D01*
X89679947Y-79725236D01*
X89652333Y-79726500D01*
X89588833Y-79726500D01*
X89588833Y-80065167D01*
X89461833Y-80065167D01*
X89461833Y-79726500D01*
X89387750Y-79726500D01*
X89337650Y-79722546D01*
X89317140Y-79704755D01*
X89313667Y-79673583D01*
X89315063Y-79649069D01*
X89324538Y-79633608D01*
X89350023Y-79625114D01*
X89399446Y-79621500D01*
X89480736Y-79620680D01*
X89514750Y-79620667D01*
X89607905Y-79621034D01*
G37*
X81213589Y-77682708D02*
X81254869Y-77716457D01*
X81261595Y-77726096D01*
X81283794Y-77778159D01*
X81279999Y-77833177D01*
X81247716Y-77896722D01*
X81184449Y-77974371D01*
X81121520Y-78038990D01*
X80979749Y-78159838D01*
X80837380Y-78245988D01*
X80697976Y-78296323D01*
X80565099Y-78309723D01*
X80442312Y-78285066D01*
X80399770Y-78265873D01*
X80317558Y-78210596D01*
X80256926Y-78146396D01*
X80224343Y-78081706D01*
X80222831Y-78035225D01*
X80249366Y-77968634D01*
X80292564Y-77935494D01*
X80354411Y-77927333D01*
X80441166Y-77947799D01*
X80491027Y-77980250D01*
X80540385Y-78014795D01*
X80581969Y-78032539D01*
X80587941Y-78033167D01*
X80653159Y-78017506D01*
X80736473Y-77974055D01*
X80829571Y-77908106D01*
X80924137Y-77824955D01*
X80940765Y-77808477D01*
X81008843Y-77742044D01*
X81058216Y-77701403D01*
X81098164Y-77680584D01*
X81137968Y-77673616D01*
X81150805Y-77673333D01*
X81213589Y-77682708D01*
G36*
X81213589Y-77682708D02*
G01*
X81254869Y-77716457D01*
X81261595Y-77726096D01*
X81283794Y-77778159D01*
X81279999Y-77833177D01*
X81247716Y-77896722D01*
X81184449Y-77974371D01*
X81121520Y-78038990D01*
X80979749Y-78159838D01*
X80837380Y-78245988D01*
X80697976Y-78296323D01*
X80565099Y-78309723D01*
X80442312Y-78285066D01*
X80399770Y-78265873D01*
X80317558Y-78210596D01*
X80256926Y-78146396D01*
X80224343Y-78081706D01*
X80222831Y-78035225D01*
X80249366Y-77968634D01*
X80292564Y-77935494D01*
X80354411Y-77927333D01*
X80441166Y-77947799D01*
X80491027Y-77980250D01*
X80540385Y-78014795D01*
X80581969Y-78032539D01*
X80587941Y-78033167D01*
X80653159Y-78017506D01*
X80736473Y-77974055D01*
X80829571Y-77908106D01*
X80924137Y-77824955D01*
X80940765Y-77808477D01*
X81008843Y-77742044D01*
X81058216Y-77701403D01*
X81098164Y-77680584D01*
X81137968Y-77673616D01*
X81150805Y-77673333D01*
X81213589Y-77682708D01*
G37*
X86966876Y-77582370D02*
X86971020Y-77693921D01*
X86974893Y-77836227D01*
X86978260Y-77997712D01*
X86980888Y-78166796D01*
X86982541Y-78331903D01*
X86982751Y-78366542D01*
X86985333Y-78858667D01*
X85397833Y-78858667D01*
X85397833Y-78075500D01*
X85398160Y-77898141D01*
X85399090Y-77734848D01*
X85400548Y-77590280D01*
X85402461Y-77469095D01*
X85404753Y-77375953D01*
X85407350Y-77315511D01*
X85410177Y-77292430D01*
X85410374Y-77292333D01*
X85430367Y-77304276D01*
X85479430Y-77337732D01*
X85552522Y-77389140D01*
X85644604Y-77454940D01*
X85750637Y-77531570D01*
X85804663Y-77570902D01*
X85931546Y-77662877D01*
X86029062Y-77731845D01*
X86101530Y-77780433D01*
X86153272Y-77811272D01*
X86188606Y-77826991D01*
X86211854Y-77830218D01*
X86223911Y-77826051D01*
X86251880Y-77806672D01*
X86308036Y-77766268D01*
X86386584Y-77709062D01*
X86481730Y-77639278D01*
X86587680Y-77561139D01*
X86607498Y-77546478D01*
X86953583Y-77290324D01*
X86966876Y-77582370D01*
G36*
X86966876Y-77582370D02*
G01*
X86971020Y-77693921D01*
X86974893Y-77836227D01*
X86978260Y-77997712D01*
X86980888Y-78166796D01*
X86982541Y-78331903D01*
X86982751Y-78366542D01*
X86985333Y-78858667D01*
X85397833Y-78858667D01*
X85397833Y-78075500D01*
X85398160Y-77898141D01*
X85399090Y-77734848D01*
X85400548Y-77590280D01*
X85402461Y-77469095D01*
X85404753Y-77375953D01*
X85407350Y-77315511D01*
X85410177Y-77292430D01*
X85410374Y-77292333D01*
X85430367Y-77304276D01*
X85479430Y-77337732D01*
X85552522Y-77389140D01*
X85644604Y-77454940D01*
X85750637Y-77531570D01*
X85804663Y-77570902D01*
X85931546Y-77662877D01*
X86029062Y-77731845D01*
X86101530Y-77780433D01*
X86153272Y-77811272D01*
X86188606Y-77826991D01*
X86211854Y-77830218D01*
X86223911Y-77826051D01*
X86251880Y-77806672D01*
X86308036Y-77766268D01*
X86386584Y-77709062D01*
X86481730Y-77639278D01*
X86587680Y-77561139D01*
X86607498Y-77546478D01*
X86953583Y-77290324D01*
X86966876Y-77582370D01*
G37*
X89368191Y-77368203D02*
X89413642Y-77409678D01*
X89444826Y-77450585D01*
X89487211Y-77505048D01*
X89519946Y-77525781D01*
X89551422Y-77511623D01*
X89590025Y-77461415D01*
X89611470Y-77427537D01*
X89658194Y-77372559D01*
X89706976Y-77355833D01*
X89729753Y-77357215D01*
X89744517Y-77366388D01*
X89753005Y-77390895D01*
X89756953Y-77438278D01*
X89758100Y-77516080D01*
X89758167Y-77578083D01*
X89758167Y-77800333D01*
X89694667Y-77800333D01*
X89654494Y-77797188D01*
X89636253Y-77779803D01*
X89631334Y-77736253D01*
X89631167Y-77712386D01*
X89629849Y-77658327D01*
X89622498Y-77639621D01*
X89604015Y-77649299D01*
X89592458Y-77659469D01*
X89542711Y-77687541D01*
X89491466Y-77692311D01*
X89454439Y-77673422D01*
X89448321Y-77662750D01*
X89428575Y-77632312D01*
X89411131Y-77639778D01*
X89400132Y-77680761D01*
X89398333Y-77715667D01*
X89395826Y-77769955D01*
X89382237Y-77794089D01*
X89348469Y-77800200D01*
X89334833Y-77800333D01*
X89271333Y-77800333D01*
X89271333Y-77355833D01*
X89324686Y-77355833D01*
X89368191Y-77368203D01*
G36*
X89368191Y-77368203D02*
G01*
X89413642Y-77409678D01*
X89444826Y-77450585D01*
X89487211Y-77505048D01*
X89519946Y-77525781D01*
X89551422Y-77511623D01*
X89590025Y-77461415D01*
X89611470Y-77427537D01*
X89658194Y-77372559D01*
X89706976Y-77355833D01*
X89729753Y-77357215D01*
X89744517Y-77366388D01*
X89753005Y-77390895D01*
X89756953Y-77438278D01*
X89758100Y-77516080D01*
X89758167Y-77578083D01*
X89758167Y-77800333D01*
X89694667Y-77800333D01*
X89654494Y-77797188D01*
X89636253Y-77779803D01*
X89631334Y-77736253D01*
X89631167Y-77712386D01*
X89629849Y-77658327D01*
X89622498Y-77639621D01*
X89604015Y-77649299D01*
X89592458Y-77659469D01*
X89542711Y-77687541D01*
X89491466Y-77692311D01*
X89454439Y-77673422D01*
X89448321Y-77662750D01*
X89428575Y-77632312D01*
X89411131Y-77639778D01*
X89400132Y-77680761D01*
X89398333Y-77715667D01*
X89395826Y-77769955D01*
X89382237Y-77794089D01*
X89348469Y-77800200D01*
X89334833Y-77800333D01*
X89271333Y-77800333D01*
X89271333Y-77355833D01*
X89324686Y-77355833D01*
X89368191Y-77368203D01*
G37*
X89694667Y-80425000D02*
X89692354Y-80462590D01*
X89678138Y-80481335D01*
X89641096Y-80487787D01*
X89588833Y-80488500D01*
X89528461Y-80492307D01*
X89490142Y-80502042D01*
X89483000Y-80509667D01*
X89501918Y-80522290D01*
X89549784Y-80529862D01*
X89578250Y-80530833D01*
X89637027Y-80533026D01*
X89664874Y-80543807D01*
X89673136Y-80569477D01*
X89673500Y-80583750D01*
X89669552Y-80616404D01*
X89650146Y-80631875D01*
X89603941Y-80636464D01*
X89578250Y-80636667D01*
X89515469Y-80640822D01*
X89486873Y-80654950D01*
X89483000Y-80668417D01*
X89494330Y-80688383D01*
X89533557Y-80698135D01*
X89588833Y-80700167D01*
X89651644Y-80701882D01*
X89682979Y-80710638D01*
X89693664Y-80731846D01*
X89694667Y-80753083D01*
X89691803Y-80782895D01*
X89676448Y-80798746D01*
X89638460Y-80805069D01*
X89572958Y-80806289D01*
X89496757Y-80808644D01*
X89431557Y-80814384D01*
X89403625Y-80819341D01*
X89382924Y-80823520D01*
X89369305Y-80818182D01*
X89361286Y-80796396D01*
X89357383Y-80751236D01*
X89356115Y-80675771D01*
X89356000Y-80596802D01*
X89356000Y-80361500D01*
X89694667Y-80361500D01*
X89694667Y-80425000D01*
G36*
X89694667Y-80425000D02*
G01*
X89692354Y-80462590D01*
X89678138Y-80481335D01*
X89641096Y-80487787D01*
X89588833Y-80488500D01*
X89528461Y-80492307D01*
X89490142Y-80502042D01*
X89483000Y-80509667D01*
X89501918Y-80522290D01*
X89549784Y-80529862D01*
X89578250Y-80530833D01*
X89637027Y-80533026D01*
X89664874Y-80543807D01*
X89673136Y-80569477D01*
X89673500Y-80583750D01*
X89669552Y-80616404D01*
X89650146Y-80631875D01*
X89603941Y-80636464D01*
X89578250Y-80636667D01*
X89515469Y-80640822D01*
X89486873Y-80654950D01*
X89483000Y-80668417D01*
X89494330Y-80688383D01*
X89533557Y-80698135D01*
X89588833Y-80700167D01*
X89651644Y-80701882D01*
X89682979Y-80710638D01*
X89693664Y-80731846D01*
X89694667Y-80753083D01*
X89691803Y-80782895D01*
X89676448Y-80798746D01*
X89638460Y-80805069D01*
X89572958Y-80806289D01*
X89496757Y-80808644D01*
X89431557Y-80814384D01*
X89403625Y-80819341D01*
X89382924Y-80823520D01*
X89369305Y-80818182D01*
X89361286Y-80796396D01*
X89357383Y-80751236D01*
X89356115Y-80675771D01*
X89356000Y-80596802D01*
X89356000Y-80361500D01*
X89694667Y-80361500D01*
X89694667Y-80425000D01*
G37*
X86370179Y-79176425D02*
X86534739Y-79177162D01*
X86680638Y-79178319D01*
X86803246Y-79179837D01*
X86897936Y-79181657D01*
X86960081Y-79183720D01*
X86985054Y-79185969D01*
X86985333Y-79186237D01*
X86973272Y-79205435D01*
X86939532Y-79253474D01*
X86887776Y-79325283D01*
X86821671Y-79415795D01*
X86744879Y-79519939D01*
X86713725Y-79561945D01*
X86631277Y-79673287D01*
X86555683Y-79776032D01*
X86491231Y-79864299D01*
X86442208Y-79932208D01*
X86412903Y-79973878D01*
X86408523Y-79980500D01*
X86398550Y-79998192D01*
X86394461Y-80016442D01*
X86398917Y-80039856D01*
X86414579Y-80073037D01*
X86444108Y-80120588D01*
X86490165Y-80187114D01*
X86555410Y-80277219D01*
X86642506Y-80395505D01*
X86669548Y-80432106D01*
X86752902Y-80545698D01*
X86827109Y-80648345D01*
X86888653Y-80735058D01*
X86934017Y-80800846D01*
X86959684Y-80840719D01*
X86964167Y-80850148D01*
X86943609Y-80854936D01*
X86884366Y-80859198D01*
X86790084Y-80862844D01*
X86664409Y-80865785D01*
X86510988Y-80867931D01*
X86333465Y-80869190D01*
X86181000Y-80869500D01*
X85397833Y-80869500D01*
X85397833Y-79176167D01*
X86191583Y-79176167D01*
X86370179Y-79176425D01*
G36*
X86370179Y-79176425D02*
G01*
X86534739Y-79177162D01*
X86680638Y-79178319D01*
X86803246Y-79179837D01*
X86897936Y-79181657D01*
X86960081Y-79183720D01*
X86985054Y-79185969D01*
X86985333Y-79186237D01*
X86973272Y-79205435D01*
X86939532Y-79253474D01*
X86887776Y-79325283D01*
X86821671Y-79415795D01*
X86744879Y-79519939D01*
X86713725Y-79561945D01*
X86631277Y-79673287D01*
X86555683Y-79776032D01*
X86491231Y-79864299D01*
X86442208Y-79932208D01*
X86412903Y-79973878D01*
X86408523Y-79980500D01*
X86398550Y-79998192D01*
X86394461Y-80016442D01*
X86398917Y-80039856D01*
X86414579Y-80073037D01*
X86444108Y-80120588D01*
X86490165Y-80187114D01*
X86555410Y-80277219D01*
X86642506Y-80395505D01*
X86669548Y-80432106D01*
X86752902Y-80545698D01*
X86827109Y-80648345D01*
X86888653Y-80735058D01*
X86934017Y-80800846D01*
X86959684Y-80840719D01*
X86964167Y-80850148D01*
X86943609Y-80854936D01*
X86884366Y-80859198D01*
X86790084Y-80862844D01*
X86664409Y-80865785D01*
X86510988Y-80867931D01*
X86333465Y-80869190D01*
X86181000Y-80869500D01*
X85397833Y-80869500D01*
X85397833Y-79176167D01*
X86191583Y-79176167D01*
X86370179Y-79176425D01*
G37*
X88224930Y-79208483D02*
X88310293Y-79211119D01*
X88373186Y-79217229D01*
X88423537Y-79228215D01*
X88471274Y-79245482D01*
X88516443Y-79265786D01*
X88682137Y-79362039D01*
X88811810Y-79479314D01*
X88906214Y-79618923D01*
X88966104Y-79782181D01*
X88992232Y-79970399D01*
X88992072Y-80094683D01*
X88972335Y-80267851D01*
X88927873Y-80413421D01*
X88854548Y-80540786D01*
X88748218Y-80659339D01*
X88739704Y-80667300D01*
X88637098Y-80751972D01*
X88534302Y-80812203D01*
X88420780Y-80851785D01*
X88285997Y-80874514D01*
X88138917Y-80883664D01*
X88018557Y-80885274D01*
X87927644Y-80881028D01*
X87853552Y-80869763D01*
X87786203Y-80851157D01*
X87652179Y-80797491D01*
X87542823Y-80729034D01*
X87440601Y-80634357D01*
X87421309Y-80613319D01*
X87340069Y-80509879D01*
X87283735Y-80403619D01*
X87248876Y-80284182D01*
X87232062Y-80141213D01*
X87229188Y-80033417D01*
X87229839Y-79927777D01*
X87233746Y-79851894D01*
X87243138Y-79793203D01*
X87260243Y-79739138D01*
X87287290Y-79677136D01*
X87295451Y-79659798D01*
X87389565Y-79504075D01*
X87510816Y-79379825D01*
X87663138Y-79283116D01*
X87680632Y-79274618D01*
X87739417Y-79247651D01*
X87788621Y-79229144D01*
X87838410Y-79217507D01*
X87898950Y-79211151D01*
X87980409Y-79208484D01*
X88092952Y-79207919D01*
X88107167Y-79207917D01*
X88224930Y-79208483D01*
G36*
X88224930Y-79208483D02*
G01*
X88310293Y-79211119D01*
X88373186Y-79217229D01*
X88423537Y-79228215D01*
X88471274Y-79245482D01*
X88516443Y-79265786D01*
X88682137Y-79362039D01*
X88811810Y-79479314D01*
X88906214Y-79618923D01*
X88966104Y-79782181D01*
X88992232Y-79970399D01*
X88992072Y-80094683D01*
X88972335Y-80267851D01*
X88927873Y-80413421D01*
X88854548Y-80540786D01*
X88748218Y-80659339D01*
X88739704Y-80667300D01*
X88637098Y-80751972D01*
X88534302Y-80812203D01*
X88420780Y-80851785D01*
X88285997Y-80874514D01*
X88138917Y-80883664D01*
X88018557Y-80885274D01*
X87927644Y-80881028D01*
X87853552Y-80869763D01*
X87786203Y-80851157D01*
X87652179Y-80797491D01*
X87542823Y-80729034D01*
X87440601Y-80634357D01*
X87421309Y-80613319D01*
X87340069Y-80509879D01*
X87283735Y-80403619D01*
X87248876Y-80284182D01*
X87232062Y-80141213D01*
X87229188Y-80033417D01*
X87229839Y-79927777D01*
X87233746Y-79851894D01*
X87243138Y-79793203D01*
X87260243Y-79739138D01*
X87287290Y-79677136D01*
X87295451Y-79659798D01*
X87389565Y-79504075D01*
X87510816Y-79379825D01*
X87663138Y-79283116D01*
X87680632Y-79274618D01*
X87739417Y-79247651D01*
X87788621Y-79229144D01*
X87838410Y-79217507D01*
X87898950Y-79211151D01*
X87980409Y-79208484D01*
X88092952Y-79207919D01*
X88107167Y-79207917D01*
X88224930Y-79208483D01*
G37*
X88168625Y-77282936D02*
X88243311Y-77287466D01*
X88302097Y-77298061D01*
X88358191Y-77317112D01*
X88424801Y-77347011D01*
X88425669Y-77347422D01*
X88559234Y-77420919D01*
X88660945Y-77502758D01*
X88741265Y-77602441D01*
X88781122Y-77670200D01*
X88830414Y-77788337D01*
X88863284Y-77919593D01*
X88875797Y-78045509D01*
X88873097Y-78101496D01*
X88866444Y-78159242D01*
X88085402Y-78170750D01*
X88403201Y-78347037D01*
X88507404Y-78406374D01*
X88597260Y-78460471D01*
X88666715Y-78505442D01*
X88709715Y-78537404D01*
X88721000Y-78550949D01*
X88703900Y-78586149D01*
X88658495Y-78634405D01*
X88593630Y-78688473D01*
X88518148Y-78741108D01*
X88440892Y-78785066D01*
X88427207Y-78791624D01*
X88315181Y-78828253D01*
X88177646Y-78850263D01*
X88029022Y-78857099D01*
X87883730Y-78848203D01*
X87756191Y-78823018D01*
X87740508Y-78818139D01*
X87576625Y-78745113D01*
X87442038Y-78642397D01*
X87334128Y-78507631D01*
X87276246Y-78399974D01*
X87253951Y-78344162D01*
X87240031Y-78286671D01*
X87232781Y-78215400D01*
X87230499Y-78118251D01*
X87230560Y-78075500D01*
X87242358Y-77893646D01*
X87277716Y-77742469D01*
X87339743Y-77615580D01*
X87431552Y-77506587D01*
X87554434Y-77410306D01*
X87645866Y-77355568D01*
X87733441Y-77318381D01*
X87829100Y-77295744D01*
X87944784Y-77284658D01*
X88064833Y-77282079D01*
X88168625Y-77282936D01*
G36*
X88168625Y-77282936D02*
G01*
X88243311Y-77287466D01*
X88302097Y-77298061D01*
X88358191Y-77317112D01*
X88424801Y-77347011D01*
X88425669Y-77347422D01*
X88559234Y-77420919D01*
X88660945Y-77502758D01*
X88741265Y-77602441D01*
X88781122Y-77670200D01*
X88830414Y-77788337D01*
X88863284Y-77919593D01*
X88875797Y-78045509D01*
X88873097Y-78101496D01*
X88866444Y-78159242D01*
X88085402Y-78170750D01*
X88403201Y-78347037D01*
X88507404Y-78406374D01*
X88597260Y-78460471D01*
X88666715Y-78505442D01*
X88709715Y-78537404D01*
X88721000Y-78550949D01*
X88703900Y-78586149D01*
X88658495Y-78634405D01*
X88593630Y-78688473D01*
X88518148Y-78741108D01*
X88440892Y-78785066D01*
X88427207Y-78791624D01*
X88315181Y-78828253D01*
X88177646Y-78850263D01*
X88029022Y-78857099D01*
X87883730Y-78848203D01*
X87756191Y-78823018D01*
X87740508Y-78818139D01*
X87576625Y-78745113D01*
X87442038Y-78642397D01*
X87334128Y-78507631D01*
X87276246Y-78399974D01*
X87253951Y-78344162D01*
X87240031Y-78286671D01*
X87232781Y-78215400D01*
X87230499Y-78118251D01*
X87230560Y-78075500D01*
X87242358Y-77893646D01*
X87277716Y-77742469D01*
X87339743Y-77615580D01*
X87431552Y-77506587D01*
X87554434Y-77410306D01*
X87645866Y-77355568D01*
X87733441Y-77318381D01*
X87829100Y-77295744D01*
X87944784Y-77284658D01*
X88064833Y-77282079D01*
X88168625Y-77282936D01*
G37*
X84191597Y-77459367D02*
X84240238Y-77508575D01*
X84259165Y-77577038D01*
X84259070Y-77583311D01*
X84254686Y-77615172D01*
X84242870Y-77685001D01*
X84224299Y-77789218D01*
X84199649Y-77924241D01*
X84169596Y-78086489D01*
X84134816Y-78272380D01*
X84095987Y-78478335D01*
X84053784Y-78700770D01*
X84008884Y-78936106D01*
X83961963Y-79180762D01*
X83913698Y-79431155D01*
X83864764Y-79683705D01*
X83815839Y-79934831D01*
X83790331Y-80065167D01*
X83759456Y-80219932D01*
X83733915Y-80337977D01*
X83711546Y-80424246D01*
X83690187Y-80483681D01*
X83667678Y-80521228D01*
X83641856Y-80541830D01*
X83610561Y-80550431D01*
X83577500Y-80552000D01*
X83503152Y-80536118D01*
X83457634Y-80490682D01*
X83444227Y-80422165D01*
X83448441Y-80391063D01*
X83459789Y-80323104D01*
X83477384Y-80222998D01*
X83500341Y-80095455D01*
X83527773Y-79945183D01*
X83558793Y-79776894D01*
X83592516Y-79595296D01*
X83628055Y-79405100D01*
X83664524Y-79211015D01*
X83701036Y-79017752D01*
X83736706Y-78830018D01*
X83770647Y-78652526D01*
X83801972Y-78489983D01*
X83829795Y-78347101D01*
X83853231Y-78228588D01*
X83871393Y-78139154D01*
X83883394Y-78083510D01*
X83887056Y-78068983D01*
X83876388Y-78072703D01*
X83840273Y-78103407D01*
X83782512Y-78157472D01*
X83706903Y-78231274D01*
X83617246Y-78321190D01*
X83543027Y-78397067D01*
X83345222Y-78600721D01*
X83174617Y-78775975D01*
X83029025Y-78924900D01*
X82906260Y-79049568D01*
X82804137Y-79152052D01*
X82720468Y-79234423D01*
X82653068Y-79298753D01*
X82599750Y-79347115D01*
X82558328Y-79381579D01*
X82526616Y-79404218D01*
X82502428Y-79417105D01*
X82483576Y-79422310D01*
X82467876Y-79421906D01*
X82462768Y-79420834D01*
X82411721Y-79403197D01*
X82381583Y-79385306D01*
X82375364Y-79358588D01*
X82369336Y-79292966D01*
X82363654Y-79191870D01*
X82358473Y-79058729D01*
X82353948Y-78896974D01*
X82350236Y-78710034D01*
X82349833Y-78684840D01*
X82339250Y-78005072D01*
X82210307Y-78172578D01*
X81941970Y-78521098D01*
X81698487Y-78837185D01*
X81478955Y-79122003D01*
X81282474Y-79376714D01*
X81108139Y-79602483D01*
X80955049Y-79800472D01*
X80822301Y-79971844D01*
X80708993Y-80117764D01*
X80614223Y-80239394D01*
X80537088Y-80337897D01*
X80476685Y-80414438D01*
X80432113Y-80470178D01*
X80402468Y-80506282D01*
X80386849Y-80523914D01*
X80385067Y-80525542D01*
X80326500Y-80548917D01*
X80256042Y-80546207D01*
X80200170Y-80521981D01*
X80188943Y-80511799D01*
X80179851Y-80496423D01*
X80172581Y-80471433D01*
X80166821Y-80432408D01*
X80162259Y-80374927D01*
X80158583Y-80294571D01*
X80155479Y-80186918D01*
X80152638Y-80047548D01*
X80149744Y-79872040D01*
X80148500Y-79790527D01*
X80137917Y-79089092D01*
X79432702Y-79820546D01*
X79269363Y-79989765D01*
X79132584Y-80130879D01*
X79019694Y-80246408D01*
X78928025Y-80338872D01*
X78854908Y-80410791D01*
X78797676Y-80464685D01*
X78753658Y-80503075D01*
X78720187Y-80528480D01*
X78694594Y-80543419D01*
X78674210Y-80550414D01*
X78658107Y-80552000D01*
X78586591Y-80535906D01*
X78549702Y-80508877D01*
X78540491Y-80499134D01*
X78532825Y-80489575D01*
X78527173Y-80477131D01*
X78524007Y-80458729D01*
X78523794Y-80431299D01*
X78527004Y-80391770D01*
X78534108Y-80337072D01*
X78545574Y-80264132D01*
X78561872Y-80169881D01*
X78583472Y-80051248D01*
X78610843Y-79905160D01*
X78644454Y-79728549D01*
X78684776Y-79518341D01*
X78732278Y-79271468D01*
X78764491Y-79104101D01*
X78803429Y-78900791D01*
X78839541Y-78710395D01*
X78872096Y-78536895D01*
X78900364Y-78384272D01*
X78923615Y-78256507D01*
X78941119Y-78157581D01*
X78952145Y-78091475D01*
X78955963Y-78062170D01*
X78955807Y-78061084D01*
X78939987Y-78074190D01*
X78897873Y-78114841D01*
X78832449Y-78180009D01*
X78746702Y-78266666D01*
X78643616Y-78371783D01*
X78526178Y-78492332D01*
X78397373Y-78625284D01*
X78296372Y-78730000D01*
X78160110Y-78871098D01*
X78032158Y-79002751D01*
X77915634Y-79121809D01*
X77813661Y-79225123D01*
X77729359Y-79309541D01*
X77665848Y-79371914D01*
X77626249Y-79409092D01*
X77614338Y-79418475D01*
X77554782Y-79428799D01*
X77501094Y-79405670D01*
X77469954Y-79378212D01*
X77418000Y-79326257D01*
X77418000Y-78006470D01*
X77336969Y-78109777D01*
X77309606Y-78144977D01*
X77258953Y-78210464D01*
X77187532Y-78302967D01*
X77097862Y-78419217D01*
X76992464Y-78555943D01*
X76873859Y-78709877D01*
X76744567Y-78877749D01*
X76607107Y-79056289D01*
X76465972Y-79239667D01*
X76280613Y-79480598D01*
X76119348Y-79690210D01*
X75980377Y-79870675D01*
X75861898Y-80024163D01*
X75762113Y-80152844D01*
X75679220Y-80258892D01*
X75611419Y-80344476D01*
X75556911Y-80411768D01*
X75513894Y-80462939D01*
X75480568Y-80500160D01*
X75455133Y-80525603D01*
X75435788Y-80541438D01*
X75420734Y-80549836D01*
X75408170Y-80552970D01*
X75396296Y-80553009D01*
X75383311Y-80552126D01*
X75377785Y-80552000D01*
X75313123Y-80539363D01*
X75272864Y-80513291D01*
X75253283Y-80488341D01*
X75242056Y-80462073D01*
X75241209Y-80430842D01*
X75252768Y-80391002D01*
X75278758Y-80338907D01*
X75321203Y-80270911D01*
X75382131Y-80183370D01*
X75463566Y-80072638D01*
X75567534Y-79935069D01*
X75664901Y-79807666D01*
X75906780Y-79492148D01*
X76135494Y-79194174D01*
X76349980Y-78915117D01*
X76549177Y-78656347D01*
X76732023Y-78419235D01*
X76897457Y-78205152D01*
X77044416Y-78015469D01*
X77171838Y-77851557D01*
X77278663Y-77714787D01*
X77363827Y-77606531D01*
X77426270Y-77528158D01*
X77464928Y-77481041D01*
X77477775Y-77466958D01*
X77536558Y-77443129D01*
X77603382Y-77447426D01*
X77657427Y-77478434D01*
X77658136Y-77479208D01*
X77670105Y-77497559D01*
X77679166Y-77526386D01*
X77685764Y-77571338D01*
X77690343Y-77638063D01*
X77693348Y-77732209D01*
X77695224Y-77859425D01*
X77696036Y-77960750D01*
X77697621Y-78114196D01*
X77700286Y-78272473D01*
X77703760Y-78423694D01*
X77707772Y-78555975D01*
X77711911Y-78654799D01*
X77724917Y-78906015D01*
X78430807Y-78173257D01*
X78595999Y-78002065D01*
X78734637Y-77859157D01*
X78849280Y-77742087D01*
X78942489Y-77648409D01*
X79016828Y-77575678D01*
X79074855Y-77521447D01*
X79119133Y-77483270D01*
X79152222Y-77458702D01*
X79176685Y-77445296D01*
X79195081Y-77440607D01*
X79198098Y-77440500D01*
X79256588Y-77454941D01*
X79309020Y-77490560D01*
X79340640Y-77535796D01*
X79344167Y-77554945D01*
X79340806Y-77584380D01*
X79330603Y-77647646D01*
X79313378Y-77745710D01*
X79288951Y-77879539D01*
X79257141Y-78050103D01*
X79217767Y-78258368D01*
X79170649Y-78505301D01*
X79115608Y-78791872D01*
X79056313Y-79099126D01*
X79021642Y-79279829D01*
X78990029Y-79447255D01*
X78962284Y-79596920D01*
X78939215Y-79724339D01*
X78921630Y-79825029D01*
X78910338Y-79894504D01*
X78906146Y-79928281D01*
X78906400Y-79930789D01*
X78922484Y-79917947D01*
X78964863Y-79877552D01*
X79030547Y-79812620D01*
X79116547Y-79726169D01*
X79219875Y-79621217D01*
X79337542Y-79500782D01*
X79466558Y-79367881D01*
X79569051Y-79261756D01*
X79725063Y-79100015D01*
X79854639Y-78966210D01*
X79960620Y-78857700D01*
X80045850Y-78771848D01*
X80113169Y-78706013D01*
X80165422Y-78657556D01*
X80205449Y-78623837D01*
X80236094Y-78602217D01*
X80260198Y-78590056D01*
X80280604Y-78584714D01*
X80299366Y-78583552D01*
X80335069Y-78584179D01*
X80363846Y-78588888D01*
X80386525Y-78601837D01*
X80403936Y-78627188D01*
X80416908Y-78669099D01*
X80426268Y-78731731D01*
X80432846Y-78819242D01*
X80437471Y-78935794D01*
X80440971Y-79085546D01*
X80444175Y-79272657D01*
X80444833Y-79313702D01*
X80455417Y-79973971D01*
X81429083Y-78712527D01*
X81612621Y-78474901D01*
X81772223Y-78268690D01*
X81909684Y-78091699D01*
X82026804Y-77941729D01*
X82125380Y-77816585D01*
X82207209Y-77714069D01*
X82274088Y-77631983D01*
X82327816Y-77568132D01*
X82370190Y-77520317D01*
X82403007Y-77486343D01*
X82428065Y-77464011D01*
X82447161Y-77451125D01*
X82462093Y-77445487D01*
X82466250Y-77444859D01*
X82527055Y-77450412D01*
X82572083Y-77469590D01*
X82583586Y-77479700D01*
X82592899Y-77494391D01*
X82600338Y-77518072D01*
X82606218Y-77555152D01*
X82610855Y-77610041D01*
X82614565Y-77687147D01*
X82617663Y-77790880D01*
X82620466Y-77925650D01*
X82623288Y-78095864D01*
X82625000Y-78208636D01*
X82635583Y-78916727D01*
X82994391Y-78543738D01*
X83196911Y-78333304D01*
X83372260Y-78151377D01*
X83522553Y-77995894D01*
X83649902Y-77864790D01*
X83756421Y-77756002D01*
X83844222Y-77667466D01*
X83915418Y-77597117D01*
X83972122Y-77542891D01*
X84016447Y-77502724D01*
X84050507Y-77474552D01*
X84076414Y-77456311D01*
X84096281Y-77445937D01*
X84112220Y-77441366D01*
X84123749Y-77440500D01*
X84191597Y-77459367D01*
G36*
X84191597Y-77459367D02*
G01*
X84240238Y-77508575D01*
X84259165Y-77577038D01*
X84259070Y-77583311D01*
X84254686Y-77615172D01*
X84242870Y-77685001D01*
X84224299Y-77789218D01*
X84199649Y-77924241D01*
X84169596Y-78086489D01*
X84134816Y-78272380D01*
X84095987Y-78478335D01*
X84053784Y-78700770D01*
X84008884Y-78936106D01*
X83961963Y-79180762D01*
X83913698Y-79431155D01*
X83864764Y-79683705D01*
X83815839Y-79934831D01*
X83790331Y-80065167D01*
X83759456Y-80219932D01*
X83733915Y-80337977D01*
X83711546Y-80424246D01*
X83690187Y-80483681D01*
X83667678Y-80521228D01*
X83641856Y-80541830D01*
X83610561Y-80550431D01*
X83577500Y-80552000D01*
X83503152Y-80536118D01*
X83457634Y-80490682D01*
X83444227Y-80422165D01*
X83448441Y-80391063D01*
X83459789Y-80323104D01*
X83477384Y-80222998D01*
X83500341Y-80095455D01*
X83527773Y-79945183D01*
X83558793Y-79776894D01*
X83592516Y-79595296D01*
X83628055Y-79405100D01*
X83664524Y-79211015D01*
X83701036Y-79017752D01*
X83736706Y-78830018D01*
X83770647Y-78652526D01*
X83801972Y-78489983D01*
X83829795Y-78347101D01*
X83853231Y-78228588D01*
X83871393Y-78139154D01*
X83883394Y-78083510D01*
X83887056Y-78068983D01*
X83876388Y-78072703D01*
X83840273Y-78103407D01*
X83782512Y-78157472D01*
X83706903Y-78231274D01*
X83617246Y-78321190D01*
X83543027Y-78397067D01*
X83345222Y-78600721D01*
X83174617Y-78775975D01*
X83029025Y-78924900D01*
X82906260Y-79049568D01*
X82804137Y-79152052D01*
X82720468Y-79234423D01*
X82653068Y-79298753D01*
X82599750Y-79347115D01*
X82558328Y-79381579D01*
X82526616Y-79404218D01*
X82502428Y-79417105D01*
X82483576Y-79422310D01*
X82467876Y-79421906D01*
X82462768Y-79420834D01*
X82411721Y-79403197D01*
X82381583Y-79385306D01*
X82375364Y-79358588D01*
X82369336Y-79292966D01*
X82363654Y-79191870D01*
X82358473Y-79058729D01*
X82353948Y-78896974D01*
X82350236Y-78710034D01*
X82349833Y-78684840D01*
X82339250Y-78005072D01*
X82210307Y-78172578D01*
X81941970Y-78521098D01*
X81698487Y-78837185D01*
X81478955Y-79122003D01*
X81282474Y-79376714D01*
X81108139Y-79602483D01*
X80955049Y-79800472D01*
X80822301Y-79971844D01*
X80708993Y-80117764D01*
X80614223Y-80239394D01*
X80537088Y-80337897D01*
X80476685Y-80414438D01*
X80432113Y-80470178D01*
X80402468Y-80506282D01*
X80386849Y-80523914D01*
X80385067Y-80525542D01*
X80326500Y-80548917D01*
X80256042Y-80546207D01*
X80200170Y-80521981D01*
X80188943Y-80511799D01*
X80179851Y-80496423D01*
X80172581Y-80471433D01*
X80166821Y-80432408D01*
X80162259Y-80374927D01*
X80158583Y-80294571D01*
X80155479Y-80186918D01*
X80152638Y-80047548D01*
X80149744Y-79872040D01*
X80148500Y-79790527D01*
X80137917Y-79089092D01*
X79432702Y-79820546D01*
X79269363Y-79989765D01*
X79132584Y-80130879D01*
X79019694Y-80246408D01*
X78928025Y-80338872D01*
X78854908Y-80410791D01*
X78797676Y-80464685D01*
X78753658Y-80503075D01*
X78720187Y-80528480D01*
X78694594Y-80543419D01*
X78674210Y-80550414D01*
X78658107Y-80552000D01*
X78586591Y-80535906D01*
X78549702Y-80508877D01*
X78540491Y-80499134D01*
X78532825Y-80489575D01*
X78527173Y-80477131D01*
X78524007Y-80458729D01*
X78523794Y-80431299D01*
X78527004Y-80391770D01*
X78534108Y-80337072D01*
X78545574Y-80264132D01*
X78561872Y-80169881D01*
X78583472Y-80051248D01*
X78610843Y-79905160D01*
X78644454Y-79728549D01*
X78684776Y-79518341D01*
X78732278Y-79271468D01*
X78764491Y-79104101D01*
X78803429Y-78900791D01*
X78839541Y-78710395D01*
X78872096Y-78536895D01*
X78900364Y-78384272D01*
X78923615Y-78256507D01*
X78941119Y-78157581D01*
X78952145Y-78091475D01*
X78955963Y-78062170D01*
X78955807Y-78061084D01*
X78939987Y-78074190D01*
X78897873Y-78114841D01*
X78832449Y-78180009D01*
X78746702Y-78266666D01*
X78643616Y-78371783D01*
X78526178Y-78492332D01*
X78397373Y-78625284D01*
X78296372Y-78730000D01*
X78160110Y-78871098D01*
X78032158Y-79002751D01*
X77915634Y-79121809D01*
X77813661Y-79225123D01*
X77729359Y-79309541D01*
X77665848Y-79371914D01*
X77626249Y-79409092D01*
X77614338Y-79418475D01*
X77554782Y-79428799D01*
X77501094Y-79405670D01*
X77469954Y-79378212D01*
X77418000Y-79326257D01*
X77418000Y-78006470D01*
X77336969Y-78109777D01*
X77309606Y-78144977D01*
X77258953Y-78210464D01*
X77187532Y-78302967D01*
X77097862Y-78419217D01*
X76992464Y-78555943D01*
X76873859Y-78709877D01*
X76744567Y-78877749D01*
X76607107Y-79056289D01*
X76465972Y-79239667D01*
X76280613Y-79480598D01*
X76119348Y-79690210D01*
X75980377Y-79870675D01*
X75861898Y-80024163D01*
X75762113Y-80152844D01*
X75679220Y-80258892D01*
X75611419Y-80344476D01*
X75556911Y-80411768D01*
X75513894Y-80462939D01*
X75480568Y-80500160D01*
X75455133Y-80525603D01*
X75435788Y-80541438D01*
X75420734Y-80549836D01*
X75408170Y-80552970D01*
X75396296Y-80553009D01*
X75383311Y-80552126D01*
X75377785Y-80552000D01*
X75313123Y-80539363D01*
X75272864Y-80513291D01*
X75253283Y-80488341D01*
X75242056Y-80462073D01*
X75241209Y-80430842D01*
X75252768Y-80391002D01*
X75278758Y-80338907D01*
X75321203Y-80270911D01*
X75382131Y-80183370D01*
X75463566Y-80072638D01*
X75567534Y-79935069D01*
X75664901Y-79807666D01*
X75906780Y-79492148D01*
X76135494Y-79194174D01*
X76349980Y-78915117D01*
X76549177Y-78656347D01*
X76732023Y-78419235D01*
X76897457Y-78205152D01*
X77044416Y-78015469D01*
X77171838Y-77851557D01*
X77278663Y-77714787D01*
X77363827Y-77606531D01*
X77426270Y-77528158D01*
X77464928Y-77481041D01*
X77477775Y-77466958D01*
X77536558Y-77443129D01*
X77603382Y-77447426D01*
X77657427Y-77478434D01*
X77658136Y-77479208D01*
X77670105Y-77497559D01*
X77679166Y-77526386D01*
X77685764Y-77571338D01*
X77690343Y-77638063D01*
X77693348Y-77732209D01*
X77695224Y-77859425D01*
X77696036Y-77960750D01*
X77697621Y-78114196D01*
X77700286Y-78272473D01*
X77703760Y-78423694D01*
X77707772Y-78555975D01*
X77711911Y-78654799D01*
X77724917Y-78906015D01*
X78430807Y-78173257D01*
X78595999Y-78002065D01*
X78734637Y-77859157D01*
X78849280Y-77742087D01*
X78942489Y-77648409D01*
X79016828Y-77575678D01*
X79074855Y-77521447D01*
X79119133Y-77483270D01*
X79152222Y-77458702D01*
X79176685Y-77445296D01*
X79195081Y-77440607D01*
X79198098Y-77440500D01*
X79256588Y-77454941D01*
X79309020Y-77490560D01*
X79340640Y-77535796D01*
X79344167Y-77554945D01*
X79340806Y-77584380D01*
X79330603Y-77647646D01*
X79313378Y-77745710D01*
X79288951Y-77879539D01*
X79257141Y-78050103D01*
X79217767Y-78258368D01*
X79170649Y-78505301D01*
X79115608Y-78791872D01*
X79056313Y-79099126D01*
X79021642Y-79279829D01*
X78990029Y-79447255D01*
X78962284Y-79596920D01*
X78939215Y-79724339D01*
X78921630Y-79825029D01*
X78910338Y-79894504D01*
X78906146Y-79928281D01*
X78906400Y-79930789D01*
X78922484Y-79917947D01*
X78964863Y-79877552D01*
X79030547Y-79812620D01*
X79116547Y-79726169D01*
X79219875Y-79621217D01*
X79337542Y-79500782D01*
X79466558Y-79367881D01*
X79569051Y-79261756D01*
X79725063Y-79100015D01*
X79854639Y-78966210D01*
X79960620Y-78857700D01*
X80045850Y-78771848D01*
X80113169Y-78706013D01*
X80165422Y-78657556D01*
X80205449Y-78623837D01*
X80236094Y-78602217D01*
X80260198Y-78590056D01*
X80280604Y-78584714D01*
X80299366Y-78583552D01*
X80335069Y-78584179D01*
X80363846Y-78588888D01*
X80386525Y-78601837D01*
X80403936Y-78627188D01*
X80416908Y-78669099D01*
X80426268Y-78731731D01*
X80432846Y-78819242D01*
X80437471Y-78935794D01*
X80440971Y-79085546D01*
X80444175Y-79272657D01*
X80444833Y-79313702D01*
X80455417Y-79973971D01*
X81429083Y-78712527D01*
X81612621Y-78474901D01*
X81772223Y-78268690D01*
X81909684Y-78091699D01*
X82026804Y-77941729D01*
X82125380Y-77816585D01*
X82207209Y-77714069D01*
X82274088Y-77631983D01*
X82327816Y-77568132D01*
X82370190Y-77520317D01*
X82403007Y-77486343D01*
X82428065Y-77464011D01*
X82447161Y-77451125D01*
X82462093Y-77445487D01*
X82466250Y-77444859D01*
X82527055Y-77450412D01*
X82572083Y-77469590D01*
X82583586Y-77479700D01*
X82592899Y-77494391D01*
X82600338Y-77518072D01*
X82606218Y-77555152D01*
X82610855Y-77610041D01*
X82614565Y-77687147D01*
X82617663Y-77790880D01*
X82620466Y-77925650D01*
X82623288Y-78095864D01*
X82625000Y-78208636D01*
X82635583Y-78916727D01*
X82994391Y-78543738D01*
X83196911Y-78333304D01*
X83372260Y-78151377D01*
X83522553Y-77995894D01*
X83649902Y-77864790D01*
X83756421Y-77756002D01*
X83844222Y-77667466D01*
X83915418Y-77597117D01*
X83972122Y-77542891D01*
X84016447Y-77502724D01*
X84050507Y-77474552D01*
X84076414Y-77456311D01*
X84096281Y-77445937D01*
X84112220Y-77441366D01*
X84123749Y-77440500D01*
X84191597Y-77459367D01*
G37*
%TD*%
D11*
%TO.C,REF\u002A\u002A*%
X75325000Y-32275000D03*
D12*
X75325000Y-32275000D03*
%TD*%
M02*
