%TF.GenerationSoftware,KiCad,Pcbnew,8.0.1*%
%TF.CreationDate,2025-04-09T11:51:24+02:00*%
%TF.ProjectId,PCB-Shit_v4,5043422d-5368-4697-945f-76342e6b6963,rev?*%
%TF.SameCoordinates,Original*%
%TF.FileFunction,Soldermask,Bot*%
%TF.FilePolarity,Negative*%
%FSLAX46Y46*%
G04 Gerber Fmt 4.6, Leading zero omitted, Abs format (unit mm)*
G04 Created by KiCad (PCBNEW 8.0.1) date 2025-04-09 11:51:24*
%MOMM*%
%LPD*%
G01*
G04 APERTURE LIST*
G04 Aperture macros list*
%AMRoundRect*
0 Rectangle with rounded corners*
0 $1 Rounding radius*
0 $2 $3 $4 $5 $6 $7 $8 $9 X,Y pos of 4 corners*
0 Add a 4 corners polygon primitive as box body*
4,1,4,$2,$3,$4,$5,$6,$7,$8,$9,$2,$3,0*
0 Add four circle primitives for the rounded corners*
1,1,$1+$1,$2,$3*
1,1,$1+$1,$4,$5*
1,1,$1+$1,$6,$7*
1,1,$1+$1,$8,$9*
0 Add four rect primitives between the rounded corners*
20,1,$1+$1,$2,$3,$4,$5,0*
20,1,$1+$1,$4,$5,$6,$7,0*
20,1,$1+$1,$6,$7,$8,$9,0*
20,1,$1+$1,$8,$9,$2,$3,0*%
G04 Aperture macros list end*
%ADD10C,0.010000*%
%ADD11C,3.300000*%
%ADD12C,5.400000*%
%ADD13RoundRect,0.200000X-2.500000X0.762000X-2.500000X-0.762000X2.500000X-0.762000X2.500000X0.762000X0*%
%ADD14RoundRect,0.600000X1.298296X1.111048X-1.708720X0.016583X-1.298296X-1.111048X1.708720X-0.016583X0*%
%ADD15RoundRect,0.200000X-2.500000X-1.800000X2.500000X-1.800000X2.500000X1.800000X-2.500000X1.800000X0*%
G04 APERTURE END LIST*
D10*
%TO.C,G\u002A\u002A\u002A*%
X80259446Y-46417408D02*
X80271765Y-46443502D01*
X80292845Y-46501141D01*
X80319513Y-46581257D01*
X80343067Y-46656512D01*
X80559215Y-47297039D01*
X80815384Y-47933828D01*
X81109261Y-48563050D01*
X81438534Y-49180876D01*
X81800891Y-49783478D01*
X82194019Y-50367025D01*
X82615605Y-50927690D01*
X83063338Y-51461643D01*
X83534905Y-51965055D01*
X83570792Y-52001096D01*
X84103297Y-52504780D01*
X84656783Y-52971758D01*
X85231394Y-53402110D01*
X85827278Y-53795915D01*
X86444581Y-54153253D01*
X87083448Y-54474204D01*
X87744026Y-54758847D01*
X88426461Y-55007263D01*
X89130900Y-55219532D01*
X89741322Y-55370315D01*
X90090125Y-55448169D01*
X92302042Y-55462148D01*
X92664943Y-55464419D01*
X92988261Y-55466481D01*
X93274747Y-55468479D01*
X93527148Y-55470559D01*
X93748214Y-55472867D01*
X93940694Y-55475549D01*
X94107338Y-55478752D01*
X94250894Y-55482620D01*
X94374113Y-55487301D01*
X94479742Y-55492939D01*
X94570532Y-55499681D01*
X94649232Y-55507673D01*
X94718590Y-55517060D01*
X94781357Y-55527989D01*
X94840281Y-55540605D01*
X94898111Y-55555054D01*
X94957597Y-55571483D01*
X95021488Y-55590037D01*
X95090017Y-55610129D01*
X95455057Y-55737672D01*
X95798954Y-55901497D01*
X96122821Y-56102272D01*
X96427770Y-56340663D01*
X96641208Y-56540976D01*
X96900829Y-56832825D01*
X97125699Y-57148109D01*
X97314642Y-57484479D01*
X97466485Y-57839588D01*
X97580050Y-58211088D01*
X97647772Y-58552230D01*
X97664652Y-58700866D01*
X97675360Y-58872394D01*
X97679771Y-59053492D01*
X97677764Y-59230842D01*
X97669214Y-59391124D01*
X97656607Y-59504679D01*
X97580349Y-59871467D01*
X97464642Y-60231965D01*
X97312348Y-60578492D01*
X97148297Y-60869016D01*
X97097777Y-60960434D01*
X97049306Y-61066673D01*
X97020071Y-61145096D01*
X96996361Y-61217853D01*
X96977720Y-61272891D01*
X96967758Y-61299585D01*
X96967286Y-61300424D01*
X96947077Y-61295427D01*
X96896977Y-61276168D01*
X96825559Y-61246066D01*
X96775157Y-61223826D01*
X96262739Y-61016895D01*
X95739048Y-60849646D01*
X95206576Y-60722033D01*
X94667812Y-60634011D01*
X94125249Y-60585533D01*
X93581377Y-60576555D01*
X93038688Y-60607030D01*
X92499672Y-60676912D01*
X91966821Y-60786157D01*
X91442626Y-60934719D01*
X90929577Y-61122551D01*
X90449958Y-61339721D01*
X90012044Y-61573973D01*
X89603369Y-61827439D01*
X89216022Y-62105820D01*
X88842095Y-62414817D01*
X88473679Y-62760130D01*
X88458888Y-62774836D01*
X88068467Y-63190211D01*
X87716008Y-63621307D01*
X87399225Y-64071613D01*
X87115830Y-64544619D01*
X86863534Y-65043814D01*
X86662565Y-65514807D01*
X86617247Y-65631909D01*
X86573165Y-65748900D01*
X86534875Y-65853489D01*
X86506934Y-65933387D01*
X86503211Y-65944637D01*
X86456590Y-66087512D01*
X85452235Y-66087512D01*
X85209385Y-66087282D01*
X85005935Y-66086539D01*
X84838953Y-66085208D01*
X84705509Y-66083212D01*
X84602670Y-66080474D01*
X84527506Y-66076918D01*
X84477085Y-66072468D01*
X84448476Y-66067046D01*
X84438872Y-66061054D01*
X84302727Y-65679647D01*
X84165190Y-65332390D01*
X84022859Y-65011146D01*
X83875940Y-64714668D01*
X83593220Y-64217500D01*
X83279281Y-63746400D01*
X82935793Y-63302653D01*
X82564429Y-62887546D01*
X82166862Y-62502364D01*
X81744761Y-62148394D01*
X81299801Y-61826921D01*
X80833651Y-61539231D01*
X80347985Y-61286611D01*
X79844474Y-61070346D01*
X79324790Y-60891723D01*
X78790604Y-60752027D01*
X78698587Y-60732267D01*
X78180484Y-60644015D01*
X77653881Y-60592176D01*
X77124973Y-60576746D01*
X76599957Y-60597722D01*
X76085029Y-60655102D01*
X75654676Y-60733629D01*
X75464395Y-60775016D01*
X75425740Y-60727222D01*
X75145759Y-60353224D01*
X74906727Y-59973104D01*
X74707355Y-59583627D01*
X74546359Y-59181557D01*
X74422449Y-58763657D01*
X74334340Y-58326691D01*
X74280745Y-57867423D01*
X74278894Y-57843096D01*
X74277837Y-57790216D01*
X74279360Y-57697647D01*
X74283350Y-57567948D01*
X74289692Y-57403676D01*
X74298271Y-57207391D01*
X74308975Y-56981650D01*
X74321687Y-56729012D01*
X74336293Y-56452035D01*
X74352680Y-56153278D01*
X74361218Y-56001596D01*
X74456097Y-54329429D01*
X74562052Y-53912790D01*
X74757742Y-53228102D01*
X74991958Y-52560154D01*
X75263896Y-51910029D01*
X75572750Y-51278810D01*
X75917716Y-50667579D01*
X76297988Y-50077419D01*
X76712762Y-49509412D01*
X77161234Y-48964640D01*
X77642597Y-48444187D01*
X78156047Y-47949134D01*
X78700780Y-47480564D01*
X79275990Y-47039561D01*
X79880873Y-46627205D01*
X80065671Y-46510691D01*
X80142402Y-46465702D01*
X80205922Y-46433162D01*
X80247824Y-46417118D01*
X80259446Y-46417408D01*
G36*
X80259446Y-46417408D02*
G01*
X80271765Y-46443502D01*
X80292845Y-46501141D01*
X80319513Y-46581257D01*
X80343067Y-46656512D01*
X80559215Y-47297039D01*
X80815384Y-47933828D01*
X81109261Y-48563050D01*
X81438534Y-49180876D01*
X81800891Y-49783478D01*
X82194019Y-50367025D01*
X82615605Y-50927690D01*
X83063338Y-51461643D01*
X83534905Y-51965055D01*
X83570792Y-52001096D01*
X84103297Y-52504780D01*
X84656783Y-52971758D01*
X85231394Y-53402110D01*
X85827278Y-53795915D01*
X86444581Y-54153253D01*
X87083448Y-54474204D01*
X87744026Y-54758847D01*
X88426461Y-55007263D01*
X89130900Y-55219532D01*
X89741322Y-55370315D01*
X90090125Y-55448169D01*
X92302042Y-55462148D01*
X92664943Y-55464419D01*
X92988261Y-55466481D01*
X93274747Y-55468479D01*
X93527148Y-55470559D01*
X93748214Y-55472867D01*
X93940694Y-55475549D01*
X94107338Y-55478752D01*
X94250894Y-55482620D01*
X94374113Y-55487301D01*
X94479742Y-55492939D01*
X94570532Y-55499681D01*
X94649232Y-55507673D01*
X94718590Y-55517060D01*
X94781357Y-55527989D01*
X94840281Y-55540605D01*
X94898111Y-55555054D01*
X94957597Y-55571483D01*
X95021488Y-55590037D01*
X95090017Y-55610129D01*
X95455057Y-55737672D01*
X95798954Y-55901497D01*
X96122821Y-56102272D01*
X96427770Y-56340663D01*
X96641208Y-56540976D01*
X96900829Y-56832825D01*
X97125699Y-57148109D01*
X97314642Y-57484479D01*
X97466485Y-57839588D01*
X97580050Y-58211088D01*
X97647772Y-58552230D01*
X97664652Y-58700866D01*
X97675360Y-58872394D01*
X97679771Y-59053492D01*
X97677764Y-59230842D01*
X97669214Y-59391124D01*
X97656607Y-59504679D01*
X97580349Y-59871467D01*
X97464642Y-60231965D01*
X97312348Y-60578492D01*
X97148297Y-60869016D01*
X97097777Y-60960434D01*
X97049306Y-61066673D01*
X97020071Y-61145096D01*
X96996361Y-61217853D01*
X96977720Y-61272891D01*
X96967758Y-61299585D01*
X96967286Y-61300424D01*
X96947077Y-61295427D01*
X96896977Y-61276168D01*
X96825559Y-61246066D01*
X96775157Y-61223826D01*
X96262739Y-61016895D01*
X95739048Y-60849646D01*
X95206576Y-60722033D01*
X94667812Y-60634011D01*
X94125249Y-60585533D01*
X93581377Y-60576555D01*
X93038688Y-60607030D01*
X92499672Y-60676912D01*
X91966821Y-60786157D01*
X91442626Y-60934719D01*
X90929577Y-61122551D01*
X90449958Y-61339721D01*
X90012044Y-61573973D01*
X89603369Y-61827439D01*
X89216022Y-62105820D01*
X88842095Y-62414817D01*
X88473679Y-62760130D01*
X88458888Y-62774836D01*
X88068467Y-63190211D01*
X87716008Y-63621307D01*
X87399225Y-64071613D01*
X87115830Y-64544619D01*
X86863534Y-65043814D01*
X86662565Y-65514807D01*
X86617247Y-65631909D01*
X86573165Y-65748900D01*
X86534875Y-65853489D01*
X86506934Y-65933387D01*
X86503211Y-65944637D01*
X86456590Y-66087512D01*
X85452235Y-66087512D01*
X85209385Y-66087282D01*
X85005935Y-66086539D01*
X84838953Y-66085208D01*
X84705509Y-66083212D01*
X84602670Y-66080474D01*
X84527506Y-66076918D01*
X84477085Y-66072468D01*
X84448476Y-66067046D01*
X84438872Y-66061054D01*
X84302727Y-65679647D01*
X84165190Y-65332390D01*
X84022859Y-65011146D01*
X83875940Y-64714668D01*
X83593220Y-64217500D01*
X83279281Y-63746400D01*
X82935793Y-63302653D01*
X82564429Y-62887546D01*
X82166862Y-62502364D01*
X81744761Y-62148394D01*
X81299801Y-61826921D01*
X80833651Y-61539231D01*
X80347985Y-61286611D01*
X79844474Y-61070346D01*
X79324790Y-60891723D01*
X78790604Y-60752027D01*
X78698587Y-60732267D01*
X78180484Y-60644015D01*
X77653881Y-60592176D01*
X77124973Y-60576746D01*
X76599957Y-60597722D01*
X76085029Y-60655102D01*
X75654676Y-60733629D01*
X75464395Y-60775016D01*
X75425740Y-60727222D01*
X75145759Y-60353224D01*
X74906727Y-59973104D01*
X74707355Y-59583627D01*
X74546359Y-59181557D01*
X74422449Y-58763657D01*
X74334340Y-58326691D01*
X74280745Y-57867423D01*
X74278894Y-57843096D01*
X74277837Y-57790216D01*
X74279360Y-57697647D01*
X74283350Y-57567948D01*
X74289692Y-57403676D01*
X74298271Y-57207391D01*
X74308975Y-56981650D01*
X74321687Y-56729012D01*
X74336293Y-56452035D01*
X74352680Y-56153278D01*
X74361218Y-56001596D01*
X74456097Y-54329429D01*
X74562052Y-53912790D01*
X74757742Y-53228102D01*
X74991958Y-52560154D01*
X75263896Y-51910029D01*
X75572750Y-51278810D01*
X75917716Y-50667579D01*
X76297988Y-50077419D01*
X76712762Y-49509412D01*
X77161234Y-48964640D01*
X77642597Y-48444187D01*
X78156047Y-47949134D01*
X78700780Y-47480564D01*
X79275990Y-47039561D01*
X79880873Y-46627205D01*
X80065671Y-46510691D01*
X80142402Y-46465702D01*
X80205922Y-46433162D01*
X80247824Y-46417118D01*
X80259446Y-46417408D01*
G37*
X67973464Y-72842448D02*
X68022976Y-72843560D01*
X68159661Y-72850262D01*
X65418964Y-75527846D01*
X65130443Y-75809703D01*
X64848486Y-76085112D01*
X64574723Y-76352479D01*
X64310789Y-76610211D01*
X64058315Y-76856716D01*
X63818934Y-77090400D01*
X63594278Y-77309671D01*
X63385981Y-77512935D01*
X63195673Y-77698600D01*
X63024988Y-77865073D01*
X62875559Y-78010761D01*
X62749016Y-78134070D01*
X62646994Y-78233409D01*
X62571125Y-78307184D01*
X62523040Y-78353803D01*
X62509446Y-78366891D01*
X62340625Y-78528353D01*
X60615542Y-78490680D01*
X60349350Y-78484906D01*
X60095636Y-78479479D01*
X59857545Y-78474461D01*
X59638223Y-78469917D01*
X59440814Y-78465907D01*
X59268466Y-78462495D01*
X59124322Y-78459744D01*
X59011528Y-78457716D01*
X58933230Y-78456475D01*
X58892573Y-78456082D01*
X58887346Y-78456218D01*
X58886052Y-78477350D01*
X58883099Y-78538055D01*
X58878605Y-78635613D01*
X58872689Y-78767301D01*
X58865469Y-78930397D01*
X58857065Y-79122178D01*
X58847595Y-79339924D01*
X58837178Y-79580911D01*
X58825933Y-79842419D01*
X58813978Y-80121724D01*
X58801432Y-80416105D01*
X58788414Y-80722839D01*
X58787009Y-80756012D01*
X58773758Y-81068138D01*
X58760825Y-81371062D01*
X58748341Y-81661777D01*
X58736439Y-81937274D01*
X58725252Y-82194546D01*
X58714912Y-82430584D01*
X58705551Y-82642381D01*
X58697301Y-82826928D01*
X58690296Y-82981217D01*
X58684666Y-83102241D01*
X58680545Y-83186991D01*
X58678065Y-83232459D01*
X58678062Y-83232512D01*
X58666338Y-83412429D01*
X59793660Y-84751773D01*
X60389809Y-84764285D01*
X60519042Y-84766668D01*
X60684874Y-84769201D01*
X60881575Y-84771821D01*
X61103410Y-84774467D01*
X61344649Y-84777076D01*
X61599557Y-84779586D01*
X61862403Y-84781936D01*
X62127455Y-84784064D01*
X62388978Y-84785908D01*
X62394777Y-84785946D01*
X63803596Y-84795095D01*
X64443788Y-83973963D01*
X64571172Y-83810534D01*
X64691140Y-83656542D01*
X64801073Y-83515353D01*
X64898352Y-83390334D01*
X64980359Y-83284851D01*
X65044475Y-83202271D01*
X65088083Y-83145961D01*
X65108564Y-83119286D01*
X65109302Y-83118293D01*
X65118856Y-83111316D01*
X65138912Y-83104478D01*
X65172237Y-83097535D01*
X65221600Y-83090240D01*
X65289772Y-83082350D01*
X65379520Y-83073619D01*
X65493613Y-83063801D01*
X65634821Y-83052652D01*
X65805912Y-83039926D01*
X66009655Y-83025378D01*
X66248819Y-83008764D01*
X66526174Y-82989836D01*
X66669208Y-82980160D01*
X66896764Y-82964840D01*
X67108118Y-82950778D01*
X67305816Y-82937918D01*
X67492404Y-82926209D01*
X67670427Y-82915595D01*
X67842432Y-82906025D01*
X68010965Y-82897443D01*
X68178570Y-82889796D01*
X68347795Y-82883031D01*
X68521186Y-82877094D01*
X68701287Y-82871931D01*
X68890645Y-82867490D01*
X69091807Y-82863715D01*
X69307317Y-82860555D01*
X69539721Y-82857954D01*
X69791567Y-82855860D01*
X70065398Y-82854218D01*
X70363762Y-82852976D01*
X70689205Y-82852079D01*
X71044271Y-82851475D01*
X71431508Y-82851108D01*
X71853461Y-82850927D01*
X72312675Y-82850876D01*
X72807542Y-82850903D01*
X73741426Y-82851712D01*
X74633569Y-82853968D01*
X75484539Y-82857677D01*
X76294904Y-82862848D01*
X77065230Y-82869487D01*
X77796086Y-82877601D01*
X78488039Y-82887197D01*
X79141658Y-82898283D01*
X79757509Y-82910865D01*
X80336162Y-82924950D01*
X80878182Y-82940547D01*
X81384138Y-82957661D01*
X81396271Y-82958106D01*
X81973417Y-82979325D01*
X83227188Y-83493273D01*
X84480958Y-84007221D01*
X85783285Y-84226247D01*
X87085611Y-84445273D01*
X87760614Y-86045518D01*
X87873837Y-86313850D01*
X87989148Y-86586971D01*
X88104487Y-86860009D01*
X88217792Y-87128090D01*
X88327004Y-87386344D01*
X88430060Y-87629897D01*
X88524900Y-87853877D01*
X88609463Y-88053413D01*
X88681688Y-88223631D01*
X88738996Y-88358444D01*
X88808269Y-88521782D01*
X88871984Y-88673179D01*
X88928288Y-88808148D01*
X88975331Y-88922197D01*
X89011261Y-89010839D01*
X89034226Y-89069585D01*
X89042374Y-89093944D01*
X89042375Y-89093985D01*
X89028165Y-89096119D01*
X88985113Y-89098136D01*
X88912588Y-89100039D01*
X88809958Y-89101830D01*
X88676591Y-89103510D01*
X88511854Y-89105081D01*
X88315117Y-89106545D01*
X88085746Y-89107904D01*
X87823111Y-89109159D01*
X87526579Y-89110312D01*
X87195519Y-89111365D01*
X86829298Y-89112319D01*
X86427284Y-89113177D01*
X85988846Y-89113940D01*
X85513352Y-89114610D01*
X85000170Y-89115189D01*
X84448668Y-89115678D01*
X83858213Y-89116079D01*
X83228175Y-89116394D01*
X82557921Y-89116625D01*
X81846820Y-89116773D01*
X81094239Y-89116841D01*
X80820167Y-89116846D01*
X80056542Y-89116883D01*
X79334517Y-89116999D01*
X78653360Y-89117193D01*
X78012339Y-89117469D01*
X77410719Y-89117828D01*
X76847769Y-89118273D01*
X76322756Y-89118805D01*
X75834946Y-89119427D01*
X75383608Y-89120140D01*
X74968008Y-89120948D01*
X74587414Y-89121851D01*
X74241093Y-89122852D01*
X73928312Y-89123953D01*
X73648339Y-89125156D01*
X73400440Y-89126464D01*
X73183883Y-89127877D01*
X72997935Y-89129399D01*
X72841863Y-89131031D01*
X72714936Y-89132776D01*
X72616419Y-89134635D01*
X72545580Y-89136610D01*
X72501686Y-89138705D01*
X72485792Y-89140399D01*
X72317054Y-89191720D01*
X72144324Y-89272317D01*
X71981542Y-89374252D01*
X71842650Y-89489585D01*
X71806017Y-89527485D01*
X71692937Y-89673747D01*
X71594283Y-89843175D01*
X71521817Y-90014769D01*
X71464211Y-90185762D01*
X71453251Y-91879096D01*
X71442292Y-93572429D01*
X71383680Y-93738118D01*
X71310441Y-93912200D01*
X71220224Y-94059614D01*
X71103049Y-94195445D01*
X71042988Y-94253041D01*
X70857530Y-94394506D01*
X70645849Y-94503981D01*
X70410568Y-94580467D01*
X70154306Y-94622961D01*
X70057173Y-94629756D01*
X69951431Y-94631865D01*
X69845514Y-94629432D01*
X69757448Y-94623008D01*
X69734108Y-94619907D01*
X69480651Y-94561773D01*
X69251414Y-94472436D01*
X69048557Y-94353631D01*
X68874235Y-94207098D01*
X68730605Y-94034573D01*
X68619824Y-93837796D01*
X68558935Y-93673117D01*
X68552280Y-93647229D01*
X68546421Y-93615574D01*
X68541280Y-93575245D01*
X68536781Y-93523338D01*
X68532846Y-93456948D01*
X68529398Y-93373171D01*
X68526360Y-93269102D01*
X68523655Y-93141836D01*
X68521207Y-92988468D01*
X68518938Y-92806094D01*
X68516771Y-92591808D01*
X68514629Y-92342707D01*
X68512436Y-92055885D01*
X68511091Y-91868512D01*
X68499226Y-90185762D01*
X68442208Y-90016429D01*
X68348169Y-89796839D01*
X68223084Y-89605368D01*
X68066231Y-89441298D01*
X67876887Y-89303908D01*
X67654331Y-89192480D01*
X67589958Y-89167310D01*
X67568913Y-89160266D01*
X67544322Y-89154070D01*
X67513345Y-89148640D01*
X67473142Y-89143899D01*
X67420873Y-89139766D01*
X67353698Y-89136163D01*
X67268777Y-89133010D01*
X67163270Y-89130228D01*
X67034338Y-89127738D01*
X66879139Y-89125460D01*
X66694834Y-89123316D01*
X66478583Y-89121226D01*
X66227546Y-89119110D01*
X65938883Y-89116891D01*
X65727292Y-89115336D01*
X65394262Y-89112870D01*
X65100236Y-89110464D01*
X64841887Y-89107903D01*
X64615885Y-89104974D01*
X64418904Y-89101462D01*
X64247614Y-89097155D01*
X64098687Y-89091838D01*
X63968795Y-89085297D01*
X63854611Y-89077318D01*
X63752805Y-89067687D01*
X63660050Y-89056192D01*
X63573018Y-89042617D01*
X63488380Y-89026748D01*
X63402808Y-89008373D01*
X63312974Y-88987277D01*
X63215549Y-88963246D01*
X63165538Y-88950713D01*
X62701944Y-88812809D01*
X62245337Y-88634262D01*
X61797558Y-88416451D01*
X61360449Y-88160752D01*
X60935849Y-87868543D01*
X60525600Y-87541200D01*
X60131544Y-87180102D01*
X59755521Y-86786625D01*
X59399372Y-86362146D01*
X59064939Y-85908043D01*
X59030125Y-85857179D01*
X58692538Y-85323523D01*
X58394158Y-84773936D01*
X58135113Y-84208753D01*
X57915532Y-83628309D01*
X57735544Y-83032937D01*
X57595278Y-82422973D01*
X57511115Y-81920179D01*
X57496148Y-81781548D01*
X57484618Y-81609355D01*
X57476530Y-81412231D01*
X57471885Y-81198808D01*
X57470687Y-80977716D01*
X57472937Y-80757588D01*
X57478640Y-80547054D01*
X57487797Y-80354746D01*
X57500413Y-80189296D01*
X57510521Y-80099846D01*
X57610904Y-79504675D01*
X57751130Y-78917169D01*
X57929863Y-78340088D01*
X58145766Y-77776191D01*
X58397502Y-77228239D01*
X58683735Y-76698991D01*
X59003129Y-76191207D01*
X59354346Y-75707647D01*
X59736051Y-75251071D01*
X59989860Y-74980276D01*
X60399398Y-74588689D01*
X60821019Y-74237473D01*
X61254611Y-73926687D01*
X61700061Y-73656390D01*
X62157257Y-73426639D01*
X62626084Y-73237491D01*
X63106430Y-73089006D01*
X63598182Y-72981241D01*
X63991625Y-72925267D01*
X64038673Y-72922057D01*
X64124222Y-72918281D01*
X64244444Y-72914019D01*
X64395510Y-72909347D01*
X64573592Y-72904343D01*
X64774862Y-72899085D01*
X64995493Y-72893650D01*
X65231656Y-72888116D01*
X65479524Y-72882560D01*
X65735267Y-72877061D01*
X65995059Y-72871694D01*
X66255071Y-72866539D01*
X66511475Y-72861673D01*
X66760444Y-72857173D01*
X66998148Y-72853117D01*
X67220761Y-72849583D01*
X67424453Y-72846647D01*
X67605398Y-72844389D01*
X67759767Y-72842884D01*
X67883731Y-72842212D01*
X67973464Y-72842448D01*
G36*
X67973464Y-72842448D02*
G01*
X68022976Y-72843560D01*
X68159661Y-72850262D01*
X65418964Y-75527846D01*
X65130443Y-75809703D01*
X64848486Y-76085112D01*
X64574723Y-76352479D01*
X64310789Y-76610211D01*
X64058315Y-76856716D01*
X63818934Y-77090400D01*
X63594278Y-77309671D01*
X63385981Y-77512935D01*
X63195673Y-77698600D01*
X63024988Y-77865073D01*
X62875559Y-78010761D01*
X62749016Y-78134070D01*
X62646994Y-78233409D01*
X62571125Y-78307184D01*
X62523040Y-78353803D01*
X62509446Y-78366891D01*
X62340625Y-78528353D01*
X60615542Y-78490680D01*
X60349350Y-78484906D01*
X60095636Y-78479479D01*
X59857545Y-78474461D01*
X59638223Y-78469917D01*
X59440814Y-78465907D01*
X59268466Y-78462495D01*
X59124322Y-78459744D01*
X59011528Y-78457716D01*
X58933230Y-78456475D01*
X58892573Y-78456082D01*
X58887346Y-78456218D01*
X58886052Y-78477350D01*
X58883099Y-78538055D01*
X58878605Y-78635613D01*
X58872689Y-78767301D01*
X58865469Y-78930397D01*
X58857065Y-79122178D01*
X58847595Y-79339924D01*
X58837178Y-79580911D01*
X58825933Y-79842419D01*
X58813978Y-80121724D01*
X58801432Y-80416105D01*
X58788414Y-80722839D01*
X58787009Y-80756012D01*
X58773758Y-81068138D01*
X58760825Y-81371062D01*
X58748341Y-81661777D01*
X58736439Y-81937274D01*
X58725252Y-82194546D01*
X58714912Y-82430584D01*
X58705551Y-82642381D01*
X58697301Y-82826928D01*
X58690296Y-82981217D01*
X58684666Y-83102241D01*
X58680545Y-83186991D01*
X58678065Y-83232459D01*
X58678062Y-83232512D01*
X58666338Y-83412429D01*
X59793660Y-84751773D01*
X60389809Y-84764285D01*
X60519042Y-84766668D01*
X60684874Y-84769201D01*
X60881575Y-84771821D01*
X61103410Y-84774467D01*
X61344649Y-84777076D01*
X61599557Y-84779586D01*
X61862403Y-84781936D01*
X62127455Y-84784064D01*
X62388978Y-84785908D01*
X62394777Y-84785946D01*
X63803596Y-84795095D01*
X64443788Y-83973963D01*
X64571172Y-83810534D01*
X64691140Y-83656542D01*
X64801073Y-83515353D01*
X64898352Y-83390334D01*
X64980359Y-83284851D01*
X65044475Y-83202271D01*
X65088083Y-83145961D01*
X65108564Y-83119286D01*
X65109302Y-83118293D01*
X65118856Y-83111316D01*
X65138912Y-83104478D01*
X65172237Y-83097535D01*
X65221600Y-83090240D01*
X65289772Y-83082350D01*
X65379520Y-83073619D01*
X65493613Y-83063801D01*
X65634821Y-83052652D01*
X65805912Y-83039926D01*
X66009655Y-83025378D01*
X66248819Y-83008764D01*
X66526174Y-82989836D01*
X66669208Y-82980160D01*
X66896764Y-82964840D01*
X67108118Y-82950778D01*
X67305816Y-82937918D01*
X67492404Y-82926209D01*
X67670427Y-82915595D01*
X67842432Y-82906025D01*
X68010965Y-82897443D01*
X68178570Y-82889796D01*
X68347795Y-82883031D01*
X68521186Y-82877094D01*
X68701287Y-82871931D01*
X68890645Y-82867490D01*
X69091807Y-82863715D01*
X69307317Y-82860555D01*
X69539721Y-82857954D01*
X69791567Y-82855860D01*
X70065398Y-82854218D01*
X70363762Y-82852976D01*
X70689205Y-82852079D01*
X71044271Y-82851475D01*
X71431508Y-82851108D01*
X71853461Y-82850927D01*
X72312675Y-82850876D01*
X72807542Y-82850903D01*
X73741426Y-82851712D01*
X74633569Y-82853968D01*
X75484539Y-82857677D01*
X76294904Y-82862848D01*
X77065230Y-82869487D01*
X77796086Y-82877601D01*
X78488039Y-82887197D01*
X79141658Y-82898283D01*
X79757509Y-82910865D01*
X80336162Y-82924950D01*
X80878182Y-82940547D01*
X81384138Y-82957661D01*
X81396271Y-82958106D01*
X81973417Y-82979325D01*
X83227188Y-83493273D01*
X84480958Y-84007221D01*
X85783285Y-84226247D01*
X87085611Y-84445273D01*
X87760614Y-86045518D01*
X87873837Y-86313850D01*
X87989148Y-86586971D01*
X88104487Y-86860009D01*
X88217792Y-87128090D01*
X88327004Y-87386344D01*
X88430060Y-87629897D01*
X88524900Y-87853877D01*
X88609463Y-88053413D01*
X88681688Y-88223631D01*
X88738996Y-88358444D01*
X88808269Y-88521782D01*
X88871984Y-88673179D01*
X88928288Y-88808148D01*
X88975331Y-88922197D01*
X89011261Y-89010839D01*
X89034226Y-89069585D01*
X89042374Y-89093944D01*
X89042375Y-89093985D01*
X89028165Y-89096119D01*
X88985113Y-89098136D01*
X88912588Y-89100039D01*
X88809958Y-89101830D01*
X88676591Y-89103510D01*
X88511854Y-89105081D01*
X88315117Y-89106545D01*
X88085746Y-89107904D01*
X87823111Y-89109159D01*
X87526579Y-89110312D01*
X87195519Y-89111365D01*
X86829298Y-89112319D01*
X86427284Y-89113177D01*
X85988846Y-89113940D01*
X85513352Y-89114610D01*
X85000170Y-89115189D01*
X84448668Y-89115678D01*
X83858213Y-89116079D01*
X83228175Y-89116394D01*
X82557921Y-89116625D01*
X81846820Y-89116773D01*
X81094239Y-89116841D01*
X80820167Y-89116846D01*
X80056542Y-89116883D01*
X79334517Y-89116999D01*
X78653360Y-89117193D01*
X78012339Y-89117469D01*
X77410719Y-89117828D01*
X76847769Y-89118273D01*
X76322756Y-89118805D01*
X75834946Y-89119427D01*
X75383608Y-89120140D01*
X74968008Y-89120948D01*
X74587414Y-89121851D01*
X74241093Y-89122852D01*
X73928312Y-89123953D01*
X73648339Y-89125156D01*
X73400440Y-89126464D01*
X73183883Y-89127877D01*
X72997935Y-89129399D01*
X72841863Y-89131031D01*
X72714936Y-89132776D01*
X72616419Y-89134635D01*
X72545580Y-89136610D01*
X72501686Y-89138705D01*
X72485792Y-89140399D01*
X72317054Y-89191720D01*
X72144324Y-89272317D01*
X71981542Y-89374252D01*
X71842650Y-89489585D01*
X71806017Y-89527485D01*
X71692937Y-89673747D01*
X71594283Y-89843175D01*
X71521817Y-90014769D01*
X71464211Y-90185762D01*
X71453251Y-91879096D01*
X71442292Y-93572429D01*
X71383680Y-93738118D01*
X71310441Y-93912200D01*
X71220224Y-94059614D01*
X71103049Y-94195445D01*
X71042988Y-94253041D01*
X70857530Y-94394506D01*
X70645849Y-94503981D01*
X70410568Y-94580467D01*
X70154306Y-94622961D01*
X70057173Y-94629756D01*
X69951431Y-94631865D01*
X69845514Y-94629432D01*
X69757448Y-94623008D01*
X69734108Y-94619907D01*
X69480651Y-94561773D01*
X69251414Y-94472436D01*
X69048557Y-94353631D01*
X68874235Y-94207098D01*
X68730605Y-94034573D01*
X68619824Y-93837796D01*
X68558935Y-93673117D01*
X68552280Y-93647229D01*
X68546421Y-93615574D01*
X68541280Y-93575245D01*
X68536781Y-93523338D01*
X68532846Y-93456948D01*
X68529398Y-93373171D01*
X68526360Y-93269102D01*
X68523655Y-93141836D01*
X68521207Y-92988468D01*
X68518938Y-92806094D01*
X68516771Y-92591808D01*
X68514629Y-92342707D01*
X68512436Y-92055885D01*
X68511091Y-91868512D01*
X68499226Y-90185762D01*
X68442208Y-90016429D01*
X68348169Y-89796839D01*
X68223084Y-89605368D01*
X68066231Y-89441298D01*
X67876887Y-89303908D01*
X67654331Y-89192480D01*
X67589958Y-89167310D01*
X67568913Y-89160266D01*
X67544322Y-89154070D01*
X67513345Y-89148640D01*
X67473142Y-89143899D01*
X67420873Y-89139766D01*
X67353698Y-89136163D01*
X67268777Y-89133010D01*
X67163270Y-89130228D01*
X67034338Y-89127738D01*
X66879139Y-89125460D01*
X66694834Y-89123316D01*
X66478583Y-89121226D01*
X66227546Y-89119110D01*
X65938883Y-89116891D01*
X65727292Y-89115336D01*
X65394262Y-89112870D01*
X65100236Y-89110464D01*
X64841887Y-89107903D01*
X64615885Y-89104974D01*
X64418904Y-89101462D01*
X64247614Y-89097155D01*
X64098687Y-89091838D01*
X63968795Y-89085297D01*
X63854611Y-89077318D01*
X63752805Y-89067687D01*
X63660050Y-89056192D01*
X63573018Y-89042617D01*
X63488380Y-89026748D01*
X63402808Y-89008373D01*
X63312974Y-88987277D01*
X63215549Y-88963246D01*
X63165538Y-88950713D01*
X62701944Y-88812809D01*
X62245337Y-88634262D01*
X61797558Y-88416451D01*
X61360449Y-88160752D01*
X60935849Y-87868543D01*
X60525600Y-87541200D01*
X60131544Y-87180102D01*
X59755521Y-86786625D01*
X59399372Y-86362146D01*
X59064939Y-85908043D01*
X59030125Y-85857179D01*
X58692538Y-85323523D01*
X58394158Y-84773936D01*
X58135113Y-84208753D01*
X57915532Y-83628309D01*
X57735544Y-83032937D01*
X57595278Y-82422973D01*
X57511115Y-81920179D01*
X57496148Y-81781548D01*
X57484618Y-81609355D01*
X57476530Y-81412231D01*
X57471885Y-81198808D01*
X57470687Y-80977716D01*
X57472937Y-80757588D01*
X57478640Y-80547054D01*
X57487797Y-80354746D01*
X57500413Y-80189296D01*
X57510521Y-80099846D01*
X57610904Y-79504675D01*
X57751130Y-78917169D01*
X57929863Y-78340088D01*
X58145766Y-77776191D01*
X58397502Y-77228239D01*
X58683735Y-76698991D01*
X59003129Y-76191207D01*
X59354346Y-75707647D01*
X59736051Y-75251071D01*
X59989860Y-74980276D01*
X60399398Y-74588689D01*
X60821019Y-74237473D01*
X61254611Y-73926687D01*
X61700061Y-73656390D01*
X62157257Y-73426639D01*
X62626084Y-73237491D01*
X63106430Y-73089006D01*
X63598182Y-72981241D01*
X63991625Y-72925267D01*
X64038673Y-72922057D01*
X64124222Y-72918281D01*
X64244444Y-72914019D01*
X64395510Y-72909347D01*
X64573592Y-72904343D01*
X64774862Y-72899085D01*
X64995493Y-72893650D01*
X65231656Y-72888116D01*
X65479524Y-72882560D01*
X65735267Y-72877061D01*
X65995059Y-72871694D01*
X66255071Y-72866539D01*
X66511475Y-72861673D01*
X66760444Y-72857173D01*
X66998148Y-72853117D01*
X67220761Y-72849583D01*
X67424453Y-72846647D01*
X67605398Y-72844389D01*
X67759767Y-72842884D01*
X67883731Y-72842212D01*
X67973464Y-72842448D01*
G37*
X86022369Y-68622221D02*
X86065957Y-69183565D01*
X86150437Y-69737091D01*
X86274767Y-70280780D01*
X86437906Y-70812619D01*
X86638811Y-71330589D01*
X86876442Y-71832677D01*
X87149757Y-72316865D01*
X87457714Y-72781137D01*
X87799272Y-73223479D01*
X88173388Y-73641873D01*
X88579021Y-74034303D01*
X89001736Y-74388343D01*
X89466107Y-74723738D01*
X89951002Y-75022724D01*
X90454563Y-75284413D01*
X90974931Y-75507915D01*
X91510249Y-75692343D01*
X92005708Y-75824748D01*
X92308296Y-75889006D01*
X92601925Y-75938707D01*
X92897164Y-75974965D01*
X93204581Y-75998894D01*
X93534747Y-76011607D01*
X93805935Y-76014452D01*
X94439154Y-75999602D01*
X95043607Y-75954310D01*
X95620249Y-75878275D01*
X96170039Y-75771200D01*
X96693932Y-75632786D01*
X97192887Y-75462732D01*
X97667859Y-75260740D01*
X98119806Y-75026511D01*
X98549684Y-74759746D01*
X98958451Y-74460145D01*
X99071513Y-74368459D01*
X99190042Y-74265045D01*
X99327348Y-74136743D01*
X99475902Y-73991315D01*
X99628171Y-73836520D01*
X99776624Y-73680119D01*
X99913729Y-73529872D01*
X100031956Y-73393540D01*
X100104478Y-73304099D01*
X100455676Y-72822207D01*
X100786020Y-72306440D01*
X101096070Y-71755792D01*
X101386386Y-71169256D01*
X101657530Y-70545826D01*
X101701044Y-70437894D01*
X101740350Y-70342337D01*
X101775564Y-70262258D01*
X101803160Y-70205289D01*
X101819617Y-70179062D01*
X101820903Y-70178253D01*
X101825854Y-70179037D01*
X101835714Y-70184293D01*
X101852075Y-70195346D01*
X101876530Y-70213522D01*
X101910673Y-70240147D01*
X101956096Y-70276546D01*
X102014393Y-70324044D01*
X102087158Y-70383969D01*
X102175982Y-70457645D01*
X102282460Y-70546398D01*
X102408184Y-70651554D01*
X102554748Y-70774438D01*
X102723744Y-70916376D01*
X102916766Y-71078695D01*
X103135407Y-71262719D01*
X103381261Y-71469774D01*
X103655919Y-71701186D01*
X103960976Y-71958281D01*
X104033841Y-72019696D01*
X105007203Y-72840130D01*
X105888907Y-74125779D01*
X105979546Y-74257936D01*
X106092764Y-74423001D01*
X106227191Y-74618976D01*
X106381454Y-74843862D01*
X106554184Y-75095662D01*
X106744008Y-75372375D01*
X106949557Y-75672004D01*
X107169458Y-75992551D01*
X107402341Y-76332016D01*
X107646835Y-76688401D01*
X107901568Y-77059708D01*
X108165170Y-77443938D01*
X108436270Y-77839093D01*
X108713496Y-78243174D01*
X108995478Y-78654182D01*
X109280843Y-79070120D01*
X109568223Y-79488987D01*
X109856244Y-79908787D01*
X109982955Y-80093472D01*
X110311019Y-80571643D01*
X110615977Y-81016181D01*
X110898681Y-81428354D01*
X111159984Y-81809431D01*
X111400738Y-82160679D01*
X111621795Y-82483368D01*
X111824007Y-82778765D01*
X112008227Y-83048139D01*
X112175308Y-83292758D01*
X112326100Y-83513891D01*
X112461457Y-83712806D01*
X112582231Y-83890771D01*
X112689274Y-84049054D01*
X112783438Y-84188925D01*
X112865576Y-84311650D01*
X112936540Y-84418499D01*
X112997182Y-84510741D01*
X113048354Y-84589642D01*
X113090909Y-84656472D01*
X113125699Y-84712499D01*
X113153576Y-84758992D01*
X113175393Y-84797218D01*
X113192001Y-84828446D01*
X113204254Y-84853944D01*
X113213003Y-84874982D01*
X113219100Y-84892826D01*
X113223398Y-84908746D01*
X113225803Y-84919472D01*
X113255848Y-85161662D01*
X113246575Y-85413938D01*
X113199108Y-85673874D01*
X113114571Y-85939044D01*
X112994090Y-86207020D01*
X112838787Y-86475377D01*
X112649787Y-86741688D01*
X112428214Y-87003527D01*
X112175193Y-87258469D01*
X112117535Y-87311476D01*
X111724610Y-87639222D01*
X111302508Y-87939054D01*
X110855371Y-88209174D01*
X110387338Y-88447785D01*
X109902550Y-88653090D01*
X109405147Y-88823291D01*
X108899271Y-88956591D01*
X108389061Y-89051193D01*
X108007708Y-89095524D01*
X107982936Y-89097748D01*
X107960884Y-89099832D01*
X107940097Y-89101772D01*
X107919123Y-89103562D01*
X107896508Y-89105196D01*
X107870796Y-89106670D01*
X107840535Y-89107978D01*
X107804270Y-89109115D01*
X107760547Y-89110076D01*
X107707913Y-89110856D01*
X107644914Y-89111449D01*
X107570095Y-89111850D01*
X107482003Y-89112053D01*
X107379183Y-89112054D01*
X107260182Y-89111848D01*
X107123546Y-89111429D01*
X106967820Y-89110791D01*
X106791552Y-89109930D01*
X106593286Y-89108840D01*
X106371569Y-89107517D01*
X106124948Y-89105954D01*
X105851967Y-89104146D01*
X105551173Y-89102089D01*
X105221113Y-89099778D01*
X104860332Y-89097206D01*
X104467376Y-89094368D01*
X104040791Y-89091260D01*
X103579124Y-89087876D01*
X103080920Y-89084211D01*
X102544726Y-89080260D01*
X101969087Y-89076016D01*
X101361375Y-89071541D01*
X100881062Y-89067973D01*
X100407432Y-89064387D01*
X99942557Y-89060802D01*
X99488514Y-89057236D01*
X99047375Y-89053706D01*
X98621216Y-89050233D01*
X98212110Y-89046833D01*
X97822131Y-89043525D01*
X97453355Y-89040327D01*
X97107854Y-89037257D01*
X96787704Y-89034334D01*
X96494979Y-89031576D01*
X96231752Y-89029001D01*
X96000099Y-89026628D01*
X95802093Y-89024474D01*
X95639808Y-89022557D01*
X95515320Y-89020897D01*
X95430702Y-89019512D01*
X95419471Y-89019284D01*
X94800983Y-89006196D01*
X94714139Y-88781062D01*
X94695291Y-88732589D01*
X94663462Y-88651195D01*
X94620087Y-88540522D01*
X94566600Y-88404214D01*
X94504433Y-88245913D01*
X94435021Y-88069262D01*
X94359798Y-87877904D01*
X94280196Y-87675482D01*
X94197651Y-87465638D01*
X94113595Y-87252015D01*
X94029463Y-87038257D01*
X93946687Y-86828005D01*
X93866703Y-86624903D01*
X93790943Y-86432593D01*
X93720841Y-86254719D01*
X93657832Y-86094923D01*
X93603348Y-85956847D01*
X93558823Y-85844135D01*
X93525692Y-85760430D01*
X93505387Y-85709374D01*
X93499282Y-85694364D01*
X93479353Y-85699541D01*
X93422988Y-85715294D01*
X93334409Y-85740403D01*
X93217838Y-85773651D01*
X93077497Y-85813820D01*
X92917608Y-85859693D01*
X92742394Y-85910050D01*
X92556075Y-85963676D01*
X92362874Y-86019350D01*
X92167012Y-86075857D01*
X91972713Y-86131978D01*
X91784197Y-86186495D01*
X91605687Y-86238190D01*
X91441404Y-86285846D01*
X91295571Y-86328244D01*
X91172409Y-86364167D01*
X91076140Y-86392397D01*
X91010987Y-86411716D01*
X90986020Y-86419328D01*
X90968449Y-86411311D01*
X90929182Y-86382268D01*
X90867291Y-86331367D01*
X90781850Y-86257777D01*
X90671930Y-86160667D01*
X90536604Y-86039206D01*
X90374944Y-85892562D01*
X90186024Y-85719905D01*
X89968914Y-85520404D01*
X89722688Y-85293227D01*
X89522051Y-85107607D01*
X89313994Y-84914854D01*
X89114810Y-84730163D01*
X88926690Y-84555577D01*
X88751825Y-84393136D01*
X88592409Y-84244883D01*
X88450633Y-84112858D01*
X88328688Y-83999103D01*
X88228768Y-83905659D01*
X88153064Y-83834569D01*
X88103768Y-83787872D01*
X88083072Y-83767611D01*
X88082595Y-83767024D01*
X88098254Y-83753302D01*
X88147216Y-83720122D01*
X88226277Y-83669456D01*
X88332233Y-83603277D01*
X88461881Y-83523560D01*
X88612015Y-83432277D01*
X88779433Y-83331402D01*
X88960930Y-83222908D01*
X89103949Y-83137971D01*
X90136228Y-82526595D01*
X91484968Y-80491429D01*
X91692725Y-79435163D01*
X91732965Y-79229959D01*
X91770422Y-79037750D01*
X91804347Y-78862453D01*
X91833995Y-78707985D01*
X91858619Y-78578265D01*
X91877472Y-78477208D01*
X91889806Y-78408732D01*
X91894875Y-78376756D01*
X91894887Y-78374873D01*
X91873439Y-78374243D01*
X91811735Y-78373273D01*
X91711847Y-78371981D01*
X91575843Y-78370387D01*
X91405794Y-78368509D01*
X91203770Y-78366365D01*
X90971841Y-78363974D01*
X90712076Y-78361354D01*
X90426547Y-78358525D01*
X90117322Y-78355505D01*
X89786473Y-78352312D01*
X89436068Y-78348966D01*
X89068178Y-78345484D01*
X88684873Y-78341885D01*
X88288222Y-78338189D01*
X87880297Y-78334412D01*
X87463166Y-78330576D01*
X87038900Y-78326696D01*
X86609569Y-78322794D01*
X86177242Y-78318886D01*
X85743991Y-78314991D01*
X85311884Y-78311129D01*
X84882992Y-78307318D01*
X84459385Y-78303576D01*
X84043132Y-78299923D01*
X83636305Y-78296376D01*
X83240972Y-78292954D01*
X82859203Y-78289676D01*
X82493070Y-78286560D01*
X82144641Y-78283626D01*
X81815987Y-78280892D01*
X81509178Y-78278375D01*
X81226283Y-78276096D01*
X80969373Y-78274072D01*
X80740518Y-78272322D01*
X80541788Y-78270865D01*
X80375252Y-78269720D01*
X80242981Y-78268904D01*
X80147045Y-78268437D01*
X80089513Y-78268338D01*
X80072283Y-78268576D01*
X80076375Y-78289426D01*
X80089952Y-78348522D01*
X80112321Y-78443016D01*
X80142791Y-78570063D01*
X80180670Y-78726815D01*
X80225266Y-78910427D01*
X80275887Y-79118051D01*
X80331842Y-79346841D01*
X80392438Y-79593950D01*
X80456985Y-79856531D01*
X80524790Y-80131739D01*
X80543241Y-80206524D01*
X80611945Y-80485201D01*
X80677685Y-80752425D01*
X80739757Y-81005303D01*
X80797458Y-81240945D01*
X80850085Y-81456459D01*
X80896933Y-81648954D01*
X80937301Y-81815538D01*
X80970484Y-81953320D01*
X80995779Y-82059408D01*
X81012482Y-82130911D01*
X81019891Y-82164937D01*
X81020208Y-82167252D01*
X81014461Y-82170167D01*
X80996317Y-82172883D01*
X80964425Y-82175406D01*
X80917433Y-82177744D01*
X80853989Y-82179902D01*
X80772741Y-82181888D01*
X80672338Y-82183707D01*
X80551428Y-82185368D01*
X80408658Y-82186877D01*
X80242678Y-82188239D01*
X80052135Y-82189463D01*
X79835677Y-82190555D01*
X79591953Y-82191520D01*
X79319611Y-82192367D01*
X79017299Y-82193102D01*
X78683664Y-82193731D01*
X78317356Y-82194261D01*
X77917023Y-82194699D01*
X77481312Y-82195052D01*
X77008872Y-82195326D01*
X76498351Y-82195528D01*
X75948397Y-82195665D01*
X75357658Y-82195743D01*
X75268167Y-82195750D01*
X74730911Y-82195862D01*
X74208564Y-82196117D01*
X73702708Y-82196512D01*
X73214926Y-82197039D01*
X72746800Y-82197695D01*
X72299912Y-82198474D01*
X71875845Y-82199370D01*
X71476181Y-82200378D01*
X71102503Y-82201494D01*
X70756393Y-82202711D01*
X70439433Y-82204024D01*
X70153207Y-82205429D01*
X69899296Y-82206919D01*
X69679282Y-82208491D01*
X69494749Y-82210137D01*
X69347279Y-82211854D01*
X69238453Y-82213635D01*
X69169856Y-82215477D01*
X69156292Y-82216098D01*
X68778843Y-82235010D01*
X68408574Y-82249656D01*
X68049413Y-82260035D01*
X67705285Y-82266149D01*
X67380119Y-82267998D01*
X67077841Y-82265582D01*
X66802379Y-82258904D01*
X66557659Y-82247963D01*
X66347608Y-82232760D01*
X66191939Y-82215501D01*
X65937034Y-82170484D01*
X65719907Y-82109367D01*
X65538671Y-82030848D01*
X65391441Y-81933627D01*
X65276332Y-81816400D01*
X65191457Y-81677867D01*
X65134932Y-81516725D01*
X65126496Y-81479929D01*
X65111708Y-81370588D01*
X65104719Y-81221191D01*
X65105488Y-81033284D01*
X65113975Y-80808410D01*
X65130143Y-80548115D01*
X65153951Y-80253945D01*
X65159266Y-80195096D01*
X65174101Y-80028471D01*
X65186214Y-79878973D01*
X65195910Y-79739147D01*
X65203489Y-79601535D01*
X65209255Y-79458683D01*
X65213509Y-79303134D01*
X65216554Y-79127433D01*
X65218692Y-78924123D01*
X65220192Y-78692262D01*
X65224819Y-77803262D01*
X65360922Y-77644512D01*
X65403031Y-77595096D01*
X65468886Y-77517426D01*
X65554986Y-77415648D01*
X65657829Y-77293908D01*
X65773914Y-77156351D01*
X65899742Y-77007124D01*
X66031810Y-76850372D01*
X66129500Y-76734346D01*
X66391197Y-76423887D01*
X66628596Y-76143312D01*
X66844240Y-75889767D01*
X67040671Y-75660398D01*
X67220430Y-75452352D01*
X67386060Y-75262774D01*
X67540104Y-75088812D01*
X67685103Y-74927610D01*
X67823600Y-74776316D01*
X67958136Y-74632076D01*
X68091255Y-74492036D01*
X68225497Y-74353342D01*
X68363406Y-74213141D01*
X68477862Y-74098197D01*
X68695281Y-73883567D01*
X68890421Y-73696986D01*
X69068221Y-73534080D01*
X69233622Y-73390477D01*
X69391564Y-73261802D01*
X69546986Y-73143683D01*
X69597247Y-73107220D01*
X69693325Y-73040470D01*
X69794132Y-72974140D01*
X69892450Y-72912577D01*
X69981060Y-72860124D01*
X70052741Y-72821126D01*
X70100275Y-72799925D01*
X70112197Y-72797346D01*
X70120926Y-72799441D01*
X70135196Y-72806979D01*
X70157284Y-72821841D01*
X70189468Y-72845904D01*
X70234028Y-72881050D01*
X70293239Y-72929157D01*
X70369381Y-72992105D01*
X70464732Y-73071773D01*
X70581569Y-73170042D01*
X70722171Y-73288790D01*
X70888816Y-73429896D01*
X71083781Y-73595242D01*
X71241208Y-73728858D01*
X71473389Y-73925581D01*
X71676437Y-74096756D01*
X71853125Y-74244658D01*
X72006223Y-74371566D01*
X72138503Y-74479755D01*
X72252737Y-74571502D01*
X72351696Y-74649083D01*
X72438152Y-74714776D01*
X72471251Y-74739259D01*
X72715661Y-74911487D01*
X72957334Y-75066628D01*
X73200035Y-75205844D01*
X73447532Y-75330294D01*
X73703592Y-75441140D01*
X73971980Y-75539543D01*
X74256465Y-75626663D01*
X74560813Y-75703661D01*
X74888790Y-75771698D01*
X75244165Y-75831935D01*
X75630702Y-75885532D01*
X76052170Y-75933651D01*
X76479958Y-75974605D01*
X76777438Y-75997361D01*
X77065565Y-76012527D01*
X77338447Y-76020061D01*
X77590194Y-76019920D01*
X77814914Y-76012061D01*
X78006716Y-75996442D01*
X78084501Y-75986304D01*
X78569872Y-75893007D01*
X79057686Y-75759419D01*
X79543713Y-75587054D01*
X80023717Y-75377426D01*
X80493466Y-75132046D01*
X80525451Y-75113802D01*
X81033381Y-74799136D01*
X81524479Y-74448349D01*
X81994537Y-74065159D01*
X82439345Y-73653284D01*
X82854696Y-73216440D01*
X83236379Y-72758347D01*
X83327772Y-72638636D01*
X83667760Y-72153750D01*
X83966045Y-71661849D01*
X84222706Y-71162724D01*
X84437822Y-70656169D01*
X84611472Y-70141975D01*
X84743736Y-69619936D01*
X84834693Y-69089844D01*
X84884029Y-68558721D01*
X84898800Y-68288846D01*
X86008910Y-68288846D01*
X86022369Y-68622221D01*
G36*
X86022369Y-68622221D02*
G01*
X86065957Y-69183565D01*
X86150437Y-69737091D01*
X86274767Y-70280780D01*
X86437906Y-70812619D01*
X86638811Y-71330589D01*
X86876442Y-71832677D01*
X87149757Y-72316865D01*
X87457714Y-72781137D01*
X87799272Y-73223479D01*
X88173388Y-73641873D01*
X88579021Y-74034303D01*
X89001736Y-74388343D01*
X89466107Y-74723738D01*
X89951002Y-75022724D01*
X90454563Y-75284413D01*
X90974931Y-75507915D01*
X91510249Y-75692343D01*
X92005708Y-75824748D01*
X92308296Y-75889006D01*
X92601925Y-75938707D01*
X92897164Y-75974965D01*
X93204581Y-75998894D01*
X93534747Y-76011607D01*
X93805935Y-76014452D01*
X94439154Y-75999602D01*
X95043607Y-75954310D01*
X95620249Y-75878275D01*
X96170039Y-75771200D01*
X96693932Y-75632786D01*
X97192887Y-75462732D01*
X97667859Y-75260740D01*
X98119806Y-75026511D01*
X98549684Y-74759746D01*
X98958451Y-74460145D01*
X99071513Y-74368459D01*
X99190042Y-74265045D01*
X99327348Y-74136743D01*
X99475902Y-73991315D01*
X99628171Y-73836520D01*
X99776624Y-73680119D01*
X99913729Y-73529872D01*
X100031956Y-73393540D01*
X100104478Y-73304099D01*
X100455676Y-72822207D01*
X100786020Y-72306440D01*
X101096070Y-71755792D01*
X101386386Y-71169256D01*
X101657530Y-70545826D01*
X101701044Y-70437894D01*
X101740350Y-70342337D01*
X101775564Y-70262258D01*
X101803160Y-70205289D01*
X101819617Y-70179062D01*
X101820903Y-70178253D01*
X101825854Y-70179037D01*
X101835714Y-70184293D01*
X101852075Y-70195346D01*
X101876530Y-70213522D01*
X101910673Y-70240147D01*
X101956096Y-70276546D01*
X102014393Y-70324044D01*
X102087158Y-70383969D01*
X102175982Y-70457645D01*
X102282460Y-70546398D01*
X102408184Y-70651554D01*
X102554748Y-70774438D01*
X102723744Y-70916376D01*
X102916766Y-71078695D01*
X103135407Y-71262719D01*
X103381261Y-71469774D01*
X103655919Y-71701186D01*
X103960976Y-71958281D01*
X104033841Y-72019696D01*
X105007203Y-72840130D01*
X105888907Y-74125779D01*
X105979546Y-74257936D01*
X106092764Y-74423001D01*
X106227191Y-74618976D01*
X106381454Y-74843862D01*
X106554184Y-75095662D01*
X106744008Y-75372375D01*
X106949557Y-75672004D01*
X107169458Y-75992551D01*
X107402341Y-76332016D01*
X107646835Y-76688401D01*
X107901568Y-77059708D01*
X108165170Y-77443938D01*
X108436270Y-77839093D01*
X108713496Y-78243174D01*
X108995478Y-78654182D01*
X109280843Y-79070120D01*
X109568223Y-79488987D01*
X109856244Y-79908787D01*
X109982955Y-80093472D01*
X110311019Y-80571643D01*
X110615977Y-81016181D01*
X110898681Y-81428354D01*
X111159984Y-81809431D01*
X111400738Y-82160679D01*
X111621795Y-82483368D01*
X111824007Y-82778765D01*
X112008227Y-83048139D01*
X112175308Y-83292758D01*
X112326100Y-83513891D01*
X112461457Y-83712806D01*
X112582231Y-83890771D01*
X112689274Y-84049054D01*
X112783438Y-84188925D01*
X112865576Y-84311650D01*
X112936540Y-84418499D01*
X112997182Y-84510741D01*
X113048354Y-84589642D01*
X113090909Y-84656472D01*
X113125699Y-84712499D01*
X113153576Y-84758992D01*
X113175393Y-84797218D01*
X113192001Y-84828446D01*
X113204254Y-84853944D01*
X113213003Y-84874982D01*
X113219100Y-84892826D01*
X113223398Y-84908746D01*
X113225803Y-84919472D01*
X113255848Y-85161662D01*
X113246575Y-85413938D01*
X113199108Y-85673874D01*
X113114571Y-85939044D01*
X112994090Y-86207020D01*
X112838787Y-86475377D01*
X112649787Y-86741688D01*
X112428214Y-87003527D01*
X112175193Y-87258469D01*
X112117535Y-87311476D01*
X111724610Y-87639222D01*
X111302508Y-87939054D01*
X110855371Y-88209174D01*
X110387338Y-88447785D01*
X109902550Y-88653090D01*
X109405147Y-88823291D01*
X108899271Y-88956591D01*
X108389061Y-89051193D01*
X108007708Y-89095524D01*
X107982936Y-89097748D01*
X107960884Y-89099832D01*
X107940097Y-89101772D01*
X107919123Y-89103562D01*
X107896508Y-89105196D01*
X107870796Y-89106670D01*
X107840535Y-89107978D01*
X107804270Y-89109115D01*
X107760547Y-89110076D01*
X107707913Y-89110856D01*
X107644914Y-89111449D01*
X107570095Y-89111850D01*
X107482003Y-89112053D01*
X107379183Y-89112054D01*
X107260182Y-89111848D01*
X107123546Y-89111429D01*
X106967820Y-89110791D01*
X106791552Y-89109930D01*
X106593286Y-89108840D01*
X106371569Y-89107517D01*
X106124948Y-89105954D01*
X105851967Y-89104146D01*
X105551173Y-89102089D01*
X105221113Y-89099778D01*
X104860332Y-89097206D01*
X104467376Y-89094368D01*
X104040791Y-89091260D01*
X103579124Y-89087876D01*
X103080920Y-89084211D01*
X102544726Y-89080260D01*
X101969087Y-89076016D01*
X101361375Y-89071541D01*
X100881062Y-89067973D01*
X100407432Y-89064387D01*
X99942557Y-89060802D01*
X99488514Y-89057236D01*
X99047375Y-89053706D01*
X98621216Y-89050233D01*
X98212110Y-89046833D01*
X97822131Y-89043525D01*
X97453355Y-89040327D01*
X97107854Y-89037257D01*
X96787704Y-89034334D01*
X96494979Y-89031576D01*
X96231752Y-89029001D01*
X96000099Y-89026628D01*
X95802093Y-89024474D01*
X95639808Y-89022557D01*
X95515320Y-89020897D01*
X95430702Y-89019512D01*
X95419471Y-89019284D01*
X94800983Y-89006196D01*
X94714139Y-88781062D01*
X94695291Y-88732589D01*
X94663462Y-88651195D01*
X94620087Y-88540522D01*
X94566600Y-88404214D01*
X94504433Y-88245913D01*
X94435021Y-88069262D01*
X94359798Y-87877904D01*
X94280196Y-87675482D01*
X94197651Y-87465638D01*
X94113595Y-87252015D01*
X94029463Y-87038257D01*
X93946687Y-86828005D01*
X93866703Y-86624903D01*
X93790943Y-86432593D01*
X93720841Y-86254719D01*
X93657832Y-86094923D01*
X93603348Y-85956847D01*
X93558823Y-85844135D01*
X93525692Y-85760430D01*
X93505387Y-85709374D01*
X93499282Y-85694364D01*
X93479353Y-85699541D01*
X93422988Y-85715294D01*
X93334409Y-85740403D01*
X93217838Y-85773651D01*
X93077497Y-85813820D01*
X92917608Y-85859693D01*
X92742394Y-85910050D01*
X92556075Y-85963676D01*
X92362874Y-86019350D01*
X92167012Y-86075857D01*
X91972713Y-86131978D01*
X91784197Y-86186495D01*
X91605687Y-86238190D01*
X91441404Y-86285846D01*
X91295571Y-86328244D01*
X91172409Y-86364167D01*
X91076140Y-86392397D01*
X91010987Y-86411716D01*
X90986020Y-86419328D01*
X90968449Y-86411311D01*
X90929182Y-86382268D01*
X90867291Y-86331367D01*
X90781850Y-86257777D01*
X90671930Y-86160667D01*
X90536604Y-86039206D01*
X90374944Y-85892562D01*
X90186024Y-85719905D01*
X89968914Y-85520404D01*
X89722688Y-85293227D01*
X89522051Y-85107607D01*
X89313994Y-84914854D01*
X89114810Y-84730163D01*
X88926690Y-84555577D01*
X88751825Y-84393136D01*
X88592409Y-84244883D01*
X88450633Y-84112858D01*
X88328688Y-83999103D01*
X88228768Y-83905659D01*
X88153064Y-83834569D01*
X88103768Y-83787872D01*
X88083072Y-83767611D01*
X88082595Y-83767024D01*
X88098254Y-83753302D01*
X88147216Y-83720122D01*
X88226277Y-83669456D01*
X88332233Y-83603277D01*
X88461881Y-83523560D01*
X88612015Y-83432277D01*
X88779433Y-83331402D01*
X88960930Y-83222908D01*
X89103949Y-83137971D01*
X90136228Y-82526595D01*
X91484968Y-80491429D01*
X91692725Y-79435163D01*
X91732965Y-79229959D01*
X91770422Y-79037750D01*
X91804347Y-78862453D01*
X91833995Y-78707985D01*
X91858619Y-78578265D01*
X91877472Y-78477208D01*
X91889806Y-78408732D01*
X91894875Y-78376756D01*
X91894887Y-78374873D01*
X91873439Y-78374243D01*
X91811735Y-78373273D01*
X91711847Y-78371981D01*
X91575843Y-78370387D01*
X91405794Y-78368509D01*
X91203770Y-78366365D01*
X90971841Y-78363974D01*
X90712076Y-78361354D01*
X90426547Y-78358525D01*
X90117322Y-78355505D01*
X89786473Y-78352312D01*
X89436068Y-78348966D01*
X89068178Y-78345484D01*
X88684873Y-78341885D01*
X88288222Y-78338189D01*
X87880297Y-78334412D01*
X87463166Y-78330576D01*
X87038900Y-78326696D01*
X86609569Y-78322794D01*
X86177242Y-78318886D01*
X85743991Y-78314991D01*
X85311884Y-78311129D01*
X84882992Y-78307318D01*
X84459385Y-78303576D01*
X84043132Y-78299923D01*
X83636305Y-78296376D01*
X83240972Y-78292954D01*
X82859203Y-78289676D01*
X82493070Y-78286560D01*
X82144641Y-78283626D01*
X81815987Y-78280892D01*
X81509178Y-78278375D01*
X81226283Y-78276096D01*
X80969373Y-78274072D01*
X80740518Y-78272322D01*
X80541788Y-78270865D01*
X80375252Y-78269720D01*
X80242981Y-78268904D01*
X80147045Y-78268437D01*
X80089513Y-78268338D01*
X80072283Y-78268576D01*
X80076375Y-78289426D01*
X80089952Y-78348522D01*
X80112321Y-78443016D01*
X80142791Y-78570063D01*
X80180670Y-78726815D01*
X80225266Y-78910427D01*
X80275887Y-79118051D01*
X80331842Y-79346841D01*
X80392438Y-79593950D01*
X80456985Y-79856531D01*
X80524790Y-80131739D01*
X80543241Y-80206524D01*
X80611945Y-80485201D01*
X80677685Y-80752425D01*
X80739757Y-81005303D01*
X80797458Y-81240945D01*
X80850085Y-81456459D01*
X80896933Y-81648954D01*
X80937301Y-81815538D01*
X80970484Y-81953320D01*
X80995779Y-82059408D01*
X81012482Y-82130911D01*
X81019891Y-82164937D01*
X81020208Y-82167252D01*
X81014461Y-82170167D01*
X80996317Y-82172883D01*
X80964425Y-82175406D01*
X80917433Y-82177744D01*
X80853989Y-82179902D01*
X80772741Y-82181888D01*
X80672338Y-82183707D01*
X80551428Y-82185368D01*
X80408658Y-82186877D01*
X80242678Y-82188239D01*
X80052135Y-82189463D01*
X79835677Y-82190555D01*
X79591953Y-82191520D01*
X79319611Y-82192367D01*
X79017299Y-82193102D01*
X78683664Y-82193731D01*
X78317356Y-82194261D01*
X77917023Y-82194699D01*
X77481312Y-82195052D01*
X77008872Y-82195326D01*
X76498351Y-82195528D01*
X75948397Y-82195665D01*
X75357658Y-82195743D01*
X75268167Y-82195750D01*
X74730911Y-82195862D01*
X74208564Y-82196117D01*
X73702708Y-82196512D01*
X73214926Y-82197039D01*
X72746800Y-82197695D01*
X72299912Y-82198474D01*
X71875845Y-82199370D01*
X71476181Y-82200378D01*
X71102503Y-82201494D01*
X70756393Y-82202711D01*
X70439433Y-82204024D01*
X70153207Y-82205429D01*
X69899296Y-82206919D01*
X69679282Y-82208491D01*
X69494749Y-82210137D01*
X69347279Y-82211854D01*
X69238453Y-82213635D01*
X69169856Y-82215477D01*
X69156292Y-82216098D01*
X68778843Y-82235010D01*
X68408574Y-82249656D01*
X68049413Y-82260035D01*
X67705285Y-82266149D01*
X67380119Y-82267998D01*
X67077841Y-82265582D01*
X66802379Y-82258904D01*
X66557659Y-82247963D01*
X66347608Y-82232760D01*
X66191939Y-82215501D01*
X65937034Y-82170484D01*
X65719907Y-82109367D01*
X65538671Y-82030848D01*
X65391441Y-81933627D01*
X65276332Y-81816400D01*
X65191457Y-81677867D01*
X65134932Y-81516725D01*
X65126496Y-81479929D01*
X65111708Y-81370588D01*
X65104719Y-81221191D01*
X65105488Y-81033284D01*
X65113975Y-80808410D01*
X65130143Y-80548115D01*
X65153951Y-80253945D01*
X65159266Y-80195096D01*
X65174101Y-80028471D01*
X65186214Y-79878973D01*
X65195910Y-79739147D01*
X65203489Y-79601535D01*
X65209255Y-79458683D01*
X65213509Y-79303134D01*
X65216554Y-79127433D01*
X65218692Y-78924123D01*
X65220192Y-78692262D01*
X65224819Y-77803262D01*
X65360922Y-77644512D01*
X65403031Y-77595096D01*
X65468886Y-77517426D01*
X65554986Y-77415648D01*
X65657829Y-77293908D01*
X65773914Y-77156351D01*
X65899742Y-77007124D01*
X66031810Y-76850372D01*
X66129500Y-76734346D01*
X66391197Y-76423887D01*
X66628596Y-76143312D01*
X66844240Y-75889767D01*
X67040671Y-75660398D01*
X67220430Y-75452352D01*
X67386060Y-75262774D01*
X67540104Y-75088812D01*
X67685103Y-74927610D01*
X67823600Y-74776316D01*
X67958136Y-74632076D01*
X68091255Y-74492036D01*
X68225497Y-74353342D01*
X68363406Y-74213141D01*
X68477862Y-74098197D01*
X68695281Y-73883567D01*
X68890421Y-73696986D01*
X69068221Y-73534080D01*
X69233622Y-73390477D01*
X69391564Y-73261802D01*
X69546986Y-73143683D01*
X69597247Y-73107220D01*
X69693325Y-73040470D01*
X69794132Y-72974140D01*
X69892450Y-72912577D01*
X69981060Y-72860124D01*
X70052741Y-72821126D01*
X70100275Y-72799925D01*
X70112197Y-72797346D01*
X70120926Y-72799441D01*
X70135196Y-72806979D01*
X70157284Y-72821841D01*
X70189468Y-72845904D01*
X70234028Y-72881050D01*
X70293239Y-72929157D01*
X70369381Y-72992105D01*
X70464732Y-73071773D01*
X70581569Y-73170042D01*
X70722171Y-73288790D01*
X70888816Y-73429896D01*
X71083781Y-73595242D01*
X71241208Y-73728858D01*
X71473389Y-73925581D01*
X71676437Y-74096756D01*
X71853125Y-74244658D01*
X72006223Y-74371566D01*
X72138503Y-74479755D01*
X72252737Y-74571502D01*
X72351696Y-74649083D01*
X72438152Y-74714776D01*
X72471251Y-74739259D01*
X72715661Y-74911487D01*
X72957334Y-75066628D01*
X73200035Y-75205844D01*
X73447532Y-75330294D01*
X73703592Y-75441140D01*
X73971980Y-75539543D01*
X74256465Y-75626663D01*
X74560813Y-75703661D01*
X74888790Y-75771698D01*
X75244165Y-75831935D01*
X75630702Y-75885532D01*
X76052170Y-75933651D01*
X76479958Y-75974605D01*
X76777438Y-75997361D01*
X77065565Y-76012527D01*
X77338447Y-76020061D01*
X77590194Y-76019920D01*
X77814914Y-76012061D01*
X78006716Y-75996442D01*
X78084501Y-75986304D01*
X78569872Y-75893007D01*
X79057686Y-75759419D01*
X79543713Y-75587054D01*
X80023717Y-75377426D01*
X80493466Y-75132046D01*
X80525451Y-75113802D01*
X81033381Y-74799136D01*
X81524479Y-74448349D01*
X81994537Y-74065159D01*
X82439345Y-73653284D01*
X82854696Y-73216440D01*
X83236379Y-72758347D01*
X83327772Y-72638636D01*
X83667760Y-72153750D01*
X83966045Y-71661849D01*
X84222706Y-71162724D01*
X84437822Y-70656169D01*
X84611472Y-70141975D01*
X84743736Y-69619936D01*
X84834693Y-69089844D01*
X84884029Y-68558721D01*
X84898800Y-68288846D01*
X86008910Y-68288846D01*
X86022369Y-68622221D01*
G37*
%TD*%
D11*
%TO.C,REF\u002A\u002A*%
X79025000Y-51325000D03*
D12*
X79025000Y-51325000D03*
%TD*%
D13*
%TO.C,D1*%
X61940000Y-79880000D03*
X61940000Y-82420000D03*
%TD*%
D14*
%TO.C,SW1*%
X112500307Y-80162020D03*
X91827070Y-87686463D03*
%TD*%
D15*
%TO.C,Batterie1*%
X100950000Y-66110000D03*
X71650000Y-66110000D03*
%TD*%
M02*
