%TF.GenerationSoftware,KiCad,Pcbnew,8.0.1*%
%TF.CreationDate,2025-04-09T11:51:24+02:00*%
%TF.ProjectId,PCB-Shit_v4,5043422d-5368-4697-945f-76342e6b6963,rev?*%
%TF.SameCoordinates,Original*%
%TF.FileFunction,Copper,L1,Top*%
%TF.FilePolarity,Positive*%
%FSLAX46Y46*%
G04 Gerber Fmt 4.6, Leading zero omitted, Abs format (unit mm)*
G04 Created by KiCad (PCBNEW 8.0.1) date 2025-04-09 11:51:24*
%MOMM*%
%LPD*%
G01*
G04 APERTURE LIST*
%TA.AperFunction,EtchedComponent*%
%ADD10C,0.010000*%
%TD*%
%TA.AperFunction,ComponentPad*%
%ADD11C,2.900000*%
%TD*%
%TA.AperFunction,ConnectorPad*%
%ADD12C,5.000000*%
%TD*%
G04 APERTURE END LIST*
D10*
%TO.C,Ref\u002A\u002A*%
X109088833Y-85137333D02*
X108961833Y-85137333D01*
X108961833Y-84671667D01*
X109088833Y-84671667D01*
X109088833Y-85137333D01*
%TA.AperFunction,EtchedComponent*%
G36*
X109088833Y-85137333D02*
G01*
X108961833Y-85137333D01*
X108961833Y-84671667D01*
X109088833Y-84671667D01*
X109088833Y-85137333D01*
G37*
%TD.AperFunction*%
X109107905Y-85434034D02*
X109166656Y-85436528D01*
X109198932Y-85443234D01*
X109212665Y-85456240D01*
X109215782Y-85477632D01*
X109215833Y-85486583D01*
X109208999Y-85524401D01*
X109179947Y-85538236D01*
X109152333Y-85539500D01*
X109088833Y-85539500D01*
X109088833Y-85878167D01*
X108961833Y-85878167D01*
X108961833Y-85539500D01*
X108887750Y-85539500D01*
X108837650Y-85535546D01*
X108817140Y-85517755D01*
X108813667Y-85486583D01*
X108815063Y-85462069D01*
X108824538Y-85446608D01*
X108850023Y-85438114D01*
X108899446Y-85434500D01*
X108980736Y-85433680D01*
X109014750Y-85433667D01*
X109107905Y-85434034D01*
%TA.AperFunction,EtchedComponent*%
G36*
X109107905Y-85434034D02*
G01*
X109166656Y-85436528D01*
X109198932Y-85443234D01*
X109212665Y-85456240D01*
X109215782Y-85477632D01*
X109215833Y-85486583D01*
X109208999Y-85524401D01*
X109179947Y-85538236D01*
X109152333Y-85539500D01*
X109088833Y-85539500D01*
X109088833Y-85878167D01*
X108961833Y-85878167D01*
X108961833Y-85539500D01*
X108887750Y-85539500D01*
X108837650Y-85535546D01*
X108817140Y-85517755D01*
X108813667Y-85486583D01*
X108815063Y-85462069D01*
X108824538Y-85446608D01*
X108850023Y-85438114D01*
X108899446Y-85434500D01*
X108980736Y-85433680D01*
X109014750Y-85433667D01*
X109107905Y-85434034D01*
G37*
%TD.AperFunction*%
X109107905Y-86196034D02*
X109166656Y-86198528D01*
X109198932Y-86205234D01*
X109212665Y-86218240D01*
X109215782Y-86239632D01*
X109215833Y-86248583D01*
X109208999Y-86286401D01*
X109179947Y-86300236D01*
X109152333Y-86301500D01*
X109088833Y-86301500D01*
X109088833Y-86640167D01*
X108961833Y-86640167D01*
X108961833Y-86301500D01*
X108887750Y-86301500D01*
X108837650Y-86297546D01*
X108817140Y-86279755D01*
X108813667Y-86248583D01*
X108815063Y-86224069D01*
X108824538Y-86208608D01*
X108850023Y-86200114D01*
X108899446Y-86196500D01*
X108980736Y-86195680D01*
X109014750Y-86195667D01*
X109107905Y-86196034D01*
%TA.AperFunction,EtchedComponent*%
G36*
X109107905Y-86196034D02*
G01*
X109166656Y-86198528D01*
X109198932Y-86205234D01*
X109212665Y-86218240D01*
X109215782Y-86239632D01*
X109215833Y-86248583D01*
X109208999Y-86286401D01*
X109179947Y-86300236D01*
X109152333Y-86301500D01*
X109088833Y-86301500D01*
X109088833Y-86640167D01*
X108961833Y-86640167D01*
X108961833Y-86301500D01*
X108887750Y-86301500D01*
X108837650Y-86297546D01*
X108817140Y-86279755D01*
X108813667Y-86248583D01*
X108815063Y-86224069D01*
X108824538Y-86208608D01*
X108850023Y-86200114D01*
X108899446Y-86196500D01*
X108980736Y-86195680D01*
X109014750Y-86195667D01*
X109107905Y-86196034D01*
G37*
%TD.AperFunction*%
X100713589Y-84257708D02*
X100754869Y-84291457D01*
X100761595Y-84301096D01*
X100783794Y-84353159D01*
X100779999Y-84408177D01*
X100747716Y-84471722D01*
X100684449Y-84549371D01*
X100621520Y-84613990D01*
X100479749Y-84734838D01*
X100337380Y-84820988D01*
X100197976Y-84871323D01*
X100065099Y-84884723D01*
X99942312Y-84860066D01*
X99899770Y-84840873D01*
X99817558Y-84785596D01*
X99756926Y-84721396D01*
X99724343Y-84656706D01*
X99722831Y-84610225D01*
X99749366Y-84543634D01*
X99792564Y-84510494D01*
X99854411Y-84502333D01*
X99941166Y-84522799D01*
X99991027Y-84555250D01*
X100040385Y-84589795D01*
X100081969Y-84607539D01*
X100087941Y-84608167D01*
X100153159Y-84592506D01*
X100236473Y-84549055D01*
X100329571Y-84483106D01*
X100424137Y-84399955D01*
X100440765Y-84383477D01*
X100508843Y-84317044D01*
X100558216Y-84276403D01*
X100598164Y-84255584D01*
X100637968Y-84248616D01*
X100650805Y-84248333D01*
X100713589Y-84257708D01*
%TA.AperFunction,EtchedComponent*%
G36*
X100713589Y-84257708D02*
G01*
X100754869Y-84291457D01*
X100761595Y-84301096D01*
X100783794Y-84353159D01*
X100779999Y-84408177D01*
X100747716Y-84471722D01*
X100684449Y-84549371D01*
X100621520Y-84613990D01*
X100479749Y-84734838D01*
X100337380Y-84820988D01*
X100197976Y-84871323D01*
X100065099Y-84884723D01*
X99942312Y-84860066D01*
X99899770Y-84840873D01*
X99817558Y-84785596D01*
X99756926Y-84721396D01*
X99724343Y-84656706D01*
X99722831Y-84610225D01*
X99749366Y-84543634D01*
X99792564Y-84510494D01*
X99854411Y-84502333D01*
X99941166Y-84522799D01*
X99991027Y-84555250D01*
X100040385Y-84589795D01*
X100081969Y-84607539D01*
X100087941Y-84608167D01*
X100153159Y-84592506D01*
X100236473Y-84549055D01*
X100329571Y-84483106D01*
X100424137Y-84399955D01*
X100440765Y-84383477D01*
X100508843Y-84317044D01*
X100558216Y-84276403D01*
X100598164Y-84255584D01*
X100637968Y-84248616D01*
X100650805Y-84248333D01*
X100713589Y-84257708D01*
G37*
%TD.AperFunction*%
X106466876Y-84157370D02*
X106471020Y-84268921D01*
X106474893Y-84411227D01*
X106478260Y-84572712D01*
X106480888Y-84741796D01*
X106482541Y-84906903D01*
X106482751Y-84941542D01*
X106485333Y-85433667D01*
X104897833Y-85433667D01*
X104897833Y-84650500D01*
X104898160Y-84473141D01*
X104899090Y-84309848D01*
X104900548Y-84165280D01*
X104902461Y-84044095D01*
X104904753Y-83950953D01*
X104907350Y-83890511D01*
X104910177Y-83867430D01*
X104910374Y-83867333D01*
X104930367Y-83879276D01*
X104979430Y-83912732D01*
X105052522Y-83964140D01*
X105144604Y-84029940D01*
X105250637Y-84106570D01*
X105304663Y-84145902D01*
X105431546Y-84237877D01*
X105529062Y-84306845D01*
X105601530Y-84355433D01*
X105653272Y-84386272D01*
X105688606Y-84401991D01*
X105711854Y-84405218D01*
X105723911Y-84401051D01*
X105751880Y-84381672D01*
X105808036Y-84341268D01*
X105886584Y-84284062D01*
X105981730Y-84214278D01*
X106087680Y-84136139D01*
X106107498Y-84121478D01*
X106453583Y-83865324D01*
X106466876Y-84157370D01*
%TA.AperFunction,EtchedComponent*%
G36*
X106466876Y-84157370D02*
G01*
X106471020Y-84268921D01*
X106474893Y-84411227D01*
X106478260Y-84572712D01*
X106480888Y-84741796D01*
X106482541Y-84906903D01*
X106482751Y-84941542D01*
X106485333Y-85433667D01*
X104897833Y-85433667D01*
X104897833Y-84650500D01*
X104898160Y-84473141D01*
X104899090Y-84309848D01*
X104900548Y-84165280D01*
X104902461Y-84044095D01*
X104904753Y-83950953D01*
X104907350Y-83890511D01*
X104910177Y-83867430D01*
X104910374Y-83867333D01*
X104930367Y-83879276D01*
X104979430Y-83912732D01*
X105052522Y-83964140D01*
X105144604Y-84029940D01*
X105250637Y-84106570D01*
X105304663Y-84145902D01*
X105431546Y-84237877D01*
X105529062Y-84306845D01*
X105601530Y-84355433D01*
X105653272Y-84386272D01*
X105688606Y-84401991D01*
X105711854Y-84405218D01*
X105723911Y-84401051D01*
X105751880Y-84381672D01*
X105808036Y-84341268D01*
X105886584Y-84284062D01*
X105981730Y-84214278D01*
X106087680Y-84136139D01*
X106107498Y-84121478D01*
X106453583Y-83865324D01*
X106466876Y-84157370D01*
G37*
%TD.AperFunction*%
X108868191Y-83943203D02*
X108913642Y-83984678D01*
X108944826Y-84025585D01*
X108987211Y-84080048D01*
X109019946Y-84100781D01*
X109051422Y-84086623D01*
X109090025Y-84036415D01*
X109111470Y-84002537D01*
X109158194Y-83947559D01*
X109206976Y-83930833D01*
X109229753Y-83932215D01*
X109244517Y-83941388D01*
X109253005Y-83965895D01*
X109256953Y-84013278D01*
X109258100Y-84091080D01*
X109258167Y-84153083D01*
X109258167Y-84375333D01*
X109194667Y-84375333D01*
X109154494Y-84372188D01*
X109136253Y-84354803D01*
X109131334Y-84311253D01*
X109131167Y-84287386D01*
X109129849Y-84233327D01*
X109122498Y-84214621D01*
X109104015Y-84224299D01*
X109092458Y-84234469D01*
X109042711Y-84262541D01*
X108991466Y-84267311D01*
X108954439Y-84248422D01*
X108948321Y-84237750D01*
X108928575Y-84207312D01*
X108911131Y-84214778D01*
X108900132Y-84255761D01*
X108898333Y-84290667D01*
X108895826Y-84344955D01*
X108882237Y-84369089D01*
X108848469Y-84375200D01*
X108834833Y-84375333D01*
X108771333Y-84375333D01*
X108771333Y-83930833D01*
X108824686Y-83930833D01*
X108868191Y-83943203D01*
%TA.AperFunction,EtchedComponent*%
G36*
X108868191Y-83943203D02*
G01*
X108913642Y-83984678D01*
X108944826Y-84025585D01*
X108987211Y-84080048D01*
X109019946Y-84100781D01*
X109051422Y-84086623D01*
X109090025Y-84036415D01*
X109111470Y-84002537D01*
X109158194Y-83947559D01*
X109206976Y-83930833D01*
X109229753Y-83932215D01*
X109244517Y-83941388D01*
X109253005Y-83965895D01*
X109256953Y-84013278D01*
X109258100Y-84091080D01*
X109258167Y-84153083D01*
X109258167Y-84375333D01*
X109194667Y-84375333D01*
X109154494Y-84372188D01*
X109136253Y-84354803D01*
X109131334Y-84311253D01*
X109131167Y-84287386D01*
X109129849Y-84233327D01*
X109122498Y-84214621D01*
X109104015Y-84224299D01*
X109092458Y-84234469D01*
X109042711Y-84262541D01*
X108991466Y-84267311D01*
X108954439Y-84248422D01*
X108948321Y-84237750D01*
X108928575Y-84207312D01*
X108911131Y-84214778D01*
X108900132Y-84255761D01*
X108898333Y-84290667D01*
X108895826Y-84344955D01*
X108882237Y-84369089D01*
X108848469Y-84375200D01*
X108834833Y-84375333D01*
X108771333Y-84375333D01*
X108771333Y-83930833D01*
X108824686Y-83930833D01*
X108868191Y-83943203D01*
G37*
%TD.AperFunction*%
X109194667Y-87000000D02*
X109192354Y-87037590D01*
X109178138Y-87056335D01*
X109141096Y-87062787D01*
X109088833Y-87063500D01*
X109028461Y-87067307D01*
X108990142Y-87077042D01*
X108983000Y-87084667D01*
X109001918Y-87097290D01*
X109049784Y-87104862D01*
X109078250Y-87105833D01*
X109137027Y-87108026D01*
X109164874Y-87118807D01*
X109173136Y-87144477D01*
X109173500Y-87158750D01*
X109169552Y-87191404D01*
X109150146Y-87206875D01*
X109103941Y-87211464D01*
X109078250Y-87211667D01*
X109015469Y-87215822D01*
X108986873Y-87229950D01*
X108983000Y-87243417D01*
X108994330Y-87263383D01*
X109033557Y-87273135D01*
X109088833Y-87275167D01*
X109151644Y-87276882D01*
X109182979Y-87285638D01*
X109193664Y-87306846D01*
X109194667Y-87328083D01*
X109191803Y-87357895D01*
X109176448Y-87373746D01*
X109138460Y-87380069D01*
X109072958Y-87381289D01*
X108996757Y-87383644D01*
X108931557Y-87389384D01*
X108903625Y-87394341D01*
X108882924Y-87398520D01*
X108869305Y-87393182D01*
X108861286Y-87371396D01*
X108857383Y-87326236D01*
X108856115Y-87250771D01*
X108856000Y-87171802D01*
X108856000Y-86936500D01*
X109194667Y-86936500D01*
X109194667Y-87000000D01*
%TA.AperFunction,EtchedComponent*%
G36*
X109194667Y-87000000D02*
G01*
X109192354Y-87037590D01*
X109178138Y-87056335D01*
X109141096Y-87062787D01*
X109088833Y-87063500D01*
X109028461Y-87067307D01*
X108990142Y-87077042D01*
X108983000Y-87084667D01*
X109001918Y-87097290D01*
X109049784Y-87104862D01*
X109078250Y-87105833D01*
X109137027Y-87108026D01*
X109164874Y-87118807D01*
X109173136Y-87144477D01*
X109173500Y-87158750D01*
X109169552Y-87191404D01*
X109150146Y-87206875D01*
X109103941Y-87211464D01*
X109078250Y-87211667D01*
X109015469Y-87215822D01*
X108986873Y-87229950D01*
X108983000Y-87243417D01*
X108994330Y-87263383D01*
X109033557Y-87273135D01*
X109088833Y-87275167D01*
X109151644Y-87276882D01*
X109182979Y-87285638D01*
X109193664Y-87306846D01*
X109194667Y-87328083D01*
X109191803Y-87357895D01*
X109176448Y-87373746D01*
X109138460Y-87380069D01*
X109072958Y-87381289D01*
X108996757Y-87383644D01*
X108931557Y-87389384D01*
X108903625Y-87394341D01*
X108882924Y-87398520D01*
X108869305Y-87393182D01*
X108861286Y-87371396D01*
X108857383Y-87326236D01*
X108856115Y-87250771D01*
X108856000Y-87171802D01*
X108856000Y-86936500D01*
X109194667Y-86936500D01*
X109194667Y-87000000D01*
G37*
%TD.AperFunction*%
X105870179Y-85751425D02*
X106034739Y-85752162D01*
X106180638Y-85753319D01*
X106303246Y-85754837D01*
X106397936Y-85756657D01*
X106460081Y-85758720D01*
X106485054Y-85760969D01*
X106485333Y-85761237D01*
X106473272Y-85780435D01*
X106439532Y-85828474D01*
X106387776Y-85900283D01*
X106321671Y-85990795D01*
X106244879Y-86094939D01*
X106213725Y-86136945D01*
X106131277Y-86248287D01*
X106055683Y-86351032D01*
X105991231Y-86439299D01*
X105942208Y-86507208D01*
X105912903Y-86548878D01*
X105908523Y-86555500D01*
X105898550Y-86573192D01*
X105894461Y-86591442D01*
X105898917Y-86614856D01*
X105914579Y-86648037D01*
X105944108Y-86695588D01*
X105990165Y-86762114D01*
X106055410Y-86852219D01*
X106142506Y-86970505D01*
X106169548Y-87007106D01*
X106252902Y-87120698D01*
X106327109Y-87223345D01*
X106388653Y-87310058D01*
X106434017Y-87375846D01*
X106459684Y-87415719D01*
X106464167Y-87425148D01*
X106443609Y-87429936D01*
X106384366Y-87434198D01*
X106290084Y-87437844D01*
X106164409Y-87440785D01*
X106010988Y-87442931D01*
X105833465Y-87444190D01*
X105681000Y-87444500D01*
X104897833Y-87444500D01*
X104897833Y-85751167D01*
X105691583Y-85751167D01*
X105870179Y-85751425D01*
%TA.AperFunction,EtchedComponent*%
G36*
X105870179Y-85751425D02*
G01*
X106034739Y-85752162D01*
X106180638Y-85753319D01*
X106303246Y-85754837D01*
X106397936Y-85756657D01*
X106460081Y-85758720D01*
X106485054Y-85760969D01*
X106485333Y-85761237D01*
X106473272Y-85780435D01*
X106439532Y-85828474D01*
X106387776Y-85900283D01*
X106321671Y-85990795D01*
X106244879Y-86094939D01*
X106213725Y-86136945D01*
X106131277Y-86248287D01*
X106055683Y-86351032D01*
X105991231Y-86439299D01*
X105942208Y-86507208D01*
X105912903Y-86548878D01*
X105908523Y-86555500D01*
X105898550Y-86573192D01*
X105894461Y-86591442D01*
X105898917Y-86614856D01*
X105914579Y-86648037D01*
X105944108Y-86695588D01*
X105990165Y-86762114D01*
X106055410Y-86852219D01*
X106142506Y-86970505D01*
X106169548Y-87007106D01*
X106252902Y-87120698D01*
X106327109Y-87223345D01*
X106388653Y-87310058D01*
X106434017Y-87375846D01*
X106459684Y-87415719D01*
X106464167Y-87425148D01*
X106443609Y-87429936D01*
X106384366Y-87434198D01*
X106290084Y-87437844D01*
X106164409Y-87440785D01*
X106010988Y-87442931D01*
X105833465Y-87444190D01*
X105681000Y-87444500D01*
X104897833Y-87444500D01*
X104897833Y-85751167D01*
X105691583Y-85751167D01*
X105870179Y-85751425D01*
G37*
%TD.AperFunction*%
X107724930Y-85783483D02*
X107810293Y-85786119D01*
X107873186Y-85792229D01*
X107923537Y-85803215D01*
X107971274Y-85820482D01*
X108016443Y-85840786D01*
X108182137Y-85937039D01*
X108311810Y-86054314D01*
X108406214Y-86193923D01*
X108466104Y-86357181D01*
X108492232Y-86545399D01*
X108492072Y-86669683D01*
X108472335Y-86842851D01*
X108427873Y-86988421D01*
X108354548Y-87115786D01*
X108248218Y-87234339D01*
X108239704Y-87242300D01*
X108137098Y-87326972D01*
X108034302Y-87387203D01*
X107920780Y-87426785D01*
X107785997Y-87449514D01*
X107638917Y-87458664D01*
X107518557Y-87460274D01*
X107427644Y-87456028D01*
X107353552Y-87444763D01*
X107286203Y-87426157D01*
X107152179Y-87372491D01*
X107042823Y-87304034D01*
X106940601Y-87209357D01*
X106921309Y-87188319D01*
X106840069Y-87084879D01*
X106783735Y-86978619D01*
X106748876Y-86859182D01*
X106732062Y-86716213D01*
X106729188Y-86608417D01*
X106729839Y-86502777D01*
X106733746Y-86426894D01*
X106743138Y-86368203D01*
X106760243Y-86314138D01*
X106787290Y-86252136D01*
X106795451Y-86234798D01*
X106889565Y-86079075D01*
X107010816Y-85954825D01*
X107163138Y-85858116D01*
X107180632Y-85849618D01*
X107239417Y-85822651D01*
X107288621Y-85804144D01*
X107338410Y-85792507D01*
X107398950Y-85786151D01*
X107480409Y-85783484D01*
X107592952Y-85782919D01*
X107607167Y-85782917D01*
X107724930Y-85783483D01*
%TA.AperFunction,EtchedComponent*%
G36*
X107724930Y-85783483D02*
G01*
X107810293Y-85786119D01*
X107873186Y-85792229D01*
X107923537Y-85803215D01*
X107971274Y-85820482D01*
X108016443Y-85840786D01*
X108182137Y-85937039D01*
X108311810Y-86054314D01*
X108406214Y-86193923D01*
X108466104Y-86357181D01*
X108492232Y-86545399D01*
X108492072Y-86669683D01*
X108472335Y-86842851D01*
X108427873Y-86988421D01*
X108354548Y-87115786D01*
X108248218Y-87234339D01*
X108239704Y-87242300D01*
X108137098Y-87326972D01*
X108034302Y-87387203D01*
X107920780Y-87426785D01*
X107785997Y-87449514D01*
X107638917Y-87458664D01*
X107518557Y-87460274D01*
X107427644Y-87456028D01*
X107353552Y-87444763D01*
X107286203Y-87426157D01*
X107152179Y-87372491D01*
X107042823Y-87304034D01*
X106940601Y-87209357D01*
X106921309Y-87188319D01*
X106840069Y-87084879D01*
X106783735Y-86978619D01*
X106748876Y-86859182D01*
X106732062Y-86716213D01*
X106729188Y-86608417D01*
X106729839Y-86502777D01*
X106733746Y-86426894D01*
X106743138Y-86368203D01*
X106760243Y-86314138D01*
X106787290Y-86252136D01*
X106795451Y-86234798D01*
X106889565Y-86079075D01*
X107010816Y-85954825D01*
X107163138Y-85858116D01*
X107180632Y-85849618D01*
X107239417Y-85822651D01*
X107288621Y-85804144D01*
X107338410Y-85792507D01*
X107398950Y-85786151D01*
X107480409Y-85783484D01*
X107592952Y-85782919D01*
X107607167Y-85782917D01*
X107724930Y-85783483D01*
G37*
%TD.AperFunction*%
X107668625Y-83857936D02*
X107743311Y-83862466D01*
X107802097Y-83873061D01*
X107858191Y-83892112D01*
X107924801Y-83922011D01*
X107925669Y-83922422D01*
X108059234Y-83995919D01*
X108160945Y-84077758D01*
X108241265Y-84177441D01*
X108281122Y-84245200D01*
X108330414Y-84363337D01*
X108363284Y-84494593D01*
X108375797Y-84620509D01*
X108373097Y-84676496D01*
X108366444Y-84734242D01*
X107585402Y-84745750D01*
X107903201Y-84922037D01*
X108007404Y-84981374D01*
X108097260Y-85035471D01*
X108166715Y-85080442D01*
X108209715Y-85112404D01*
X108221000Y-85125949D01*
X108203900Y-85161149D01*
X108158495Y-85209405D01*
X108093630Y-85263473D01*
X108018148Y-85316108D01*
X107940892Y-85360066D01*
X107927207Y-85366624D01*
X107815181Y-85403253D01*
X107677646Y-85425263D01*
X107529022Y-85432099D01*
X107383730Y-85423203D01*
X107256191Y-85398018D01*
X107240508Y-85393139D01*
X107076625Y-85320113D01*
X106942038Y-85217397D01*
X106834128Y-85082631D01*
X106776246Y-84974974D01*
X106753951Y-84919162D01*
X106740031Y-84861671D01*
X106732781Y-84790400D01*
X106730499Y-84693251D01*
X106730560Y-84650500D01*
X106742358Y-84468646D01*
X106777716Y-84317469D01*
X106839743Y-84190580D01*
X106931552Y-84081587D01*
X107054434Y-83985306D01*
X107145866Y-83930568D01*
X107233441Y-83893381D01*
X107329100Y-83870744D01*
X107444784Y-83859658D01*
X107564833Y-83857079D01*
X107668625Y-83857936D01*
%TA.AperFunction,EtchedComponent*%
G36*
X107668625Y-83857936D02*
G01*
X107743311Y-83862466D01*
X107802097Y-83873061D01*
X107858191Y-83892112D01*
X107924801Y-83922011D01*
X107925669Y-83922422D01*
X108059234Y-83995919D01*
X108160945Y-84077758D01*
X108241265Y-84177441D01*
X108281122Y-84245200D01*
X108330414Y-84363337D01*
X108363284Y-84494593D01*
X108375797Y-84620509D01*
X108373097Y-84676496D01*
X108366444Y-84734242D01*
X107585402Y-84745750D01*
X107903201Y-84922037D01*
X108007404Y-84981374D01*
X108097260Y-85035471D01*
X108166715Y-85080442D01*
X108209715Y-85112404D01*
X108221000Y-85125949D01*
X108203900Y-85161149D01*
X108158495Y-85209405D01*
X108093630Y-85263473D01*
X108018148Y-85316108D01*
X107940892Y-85360066D01*
X107927207Y-85366624D01*
X107815181Y-85403253D01*
X107677646Y-85425263D01*
X107529022Y-85432099D01*
X107383730Y-85423203D01*
X107256191Y-85398018D01*
X107240508Y-85393139D01*
X107076625Y-85320113D01*
X106942038Y-85217397D01*
X106834128Y-85082631D01*
X106776246Y-84974974D01*
X106753951Y-84919162D01*
X106740031Y-84861671D01*
X106732781Y-84790400D01*
X106730499Y-84693251D01*
X106730560Y-84650500D01*
X106742358Y-84468646D01*
X106777716Y-84317469D01*
X106839743Y-84190580D01*
X106931552Y-84081587D01*
X107054434Y-83985306D01*
X107145866Y-83930568D01*
X107233441Y-83893381D01*
X107329100Y-83870744D01*
X107444784Y-83859658D01*
X107564833Y-83857079D01*
X107668625Y-83857936D01*
G37*
%TD.AperFunction*%
X103691597Y-84034367D02*
X103740238Y-84083575D01*
X103759165Y-84152038D01*
X103759070Y-84158311D01*
X103754686Y-84190172D01*
X103742870Y-84260001D01*
X103724299Y-84364218D01*
X103699649Y-84499241D01*
X103669596Y-84661489D01*
X103634816Y-84847380D01*
X103595987Y-85053335D01*
X103553784Y-85275770D01*
X103508884Y-85511106D01*
X103461963Y-85755762D01*
X103413698Y-86006155D01*
X103364764Y-86258705D01*
X103315839Y-86509831D01*
X103290331Y-86640167D01*
X103259456Y-86794932D01*
X103233915Y-86912977D01*
X103211546Y-86999246D01*
X103190187Y-87058681D01*
X103167678Y-87096228D01*
X103141856Y-87116830D01*
X103110561Y-87125431D01*
X103077500Y-87127000D01*
X103003152Y-87111118D01*
X102957634Y-87065682D01*
X102944227Y-86997165D01*
X102948441Y-86966063D01*
X102959789Y-86898104D01*
X102977384Y-86797998D01*
X103000341Y-86670455D01*
X103027773Y-86520183D01*
X103058793Y-86351894D01*
X103092516Y-86170296D01*
X103128055Y-85980100D01*
X103164524Y-85786015D01*
X103201036Y-85592752D01*
X103236706Y-85405018D01*
X103270647Y-85227526D01*
X103301972Y-85064983D01*
X103329795Y-84922101D01*
X103353231Y-84803588D01*
X103371393Y-84714154D01*
X103383394Y-84658510D01*
X103387056Y-84643983D01*
X103376388Y-84647703D01*
X103340273Y-84678407D01*
X103282512Y-84732472D01*
X103206903Y-84806274D01*
X103117246Y-84896190D01*
X103043027Y-84972067D01*
X102845222Y-85175721D01*
X102674617Y-85350975D01*
X102529025Y-85499900D01*
X102406260Y-85624568D01*
X102304137Y-85727052D01*
X102220468Y-85809423D01*
X102153068Y-85873753D01*
X102099750Y-85922115D01*
X102058328Y-85956579D01*
X102026616Y-85979218D01*
X102002428Y-85992105D01*
X101983576Y-85997310D01*
X101967876Y-85996906D01*
X101962768Y-85995834D01*
X101911721Y-85978197D01*
X101881583Y-85960306D01*
X101875364Y-85933588D01*
X101869336Y-85867966D01*
X101863654Y-85766870D01*
X101858473Y-85633729D01*
X101853948Y-85471974D01*
X101850236Y-85285034D01*
X101849833Y-85259840D01*
X101839250Y-84580072D01*
X101710307Y-84747578D01*
X101441970Y-85096098D01*
X101198487Y-85412185D01*
X100978955Y-85697003D01*
X100782474Y-85951714D01*
X100608139Y-86177483D01*
X100455049Y-86375472D01*
X100322301Y-86546844D01*
X100208993Y-86692764D01*
X100114223Y-86814394D01*
X100037088Y-86912897D01*
X99976685Y-86989438D01*
X99932113Y-87045178D01*
X99902468Y-87081282D01*
X99886849Y-87098914D01*
X99885067Y-87100542D01*
X99826500Y-87123917D01*
X99756042Y-87121207D01*
X99700170Y-87096981D01*
X99688943Y-87086799D01*
X99679851Y-87071423D01*
X99672581Y-87046433D01*
X99666821Y-87007408D01*
X99662259Y-86949927D01*
X99658583Y-86869571D01*
X99655479Y-86761918D01*
X99652638Y-86622548D01*
X99649744Y-86447040D01*
X99648500Y-86365527D01*
X99637917Y-85664092D01*
X98932702Y-86395546D01*
X98769363Y-86564765D01*
X98632584Y-86705879D01*
X98519694Y-86821408D01*
X98428025Y-86913872D01*
X98354908Y-86985791D01*
X98297676Y-87039685D01*
X98253658Y-87078075D01*
X98220187Y-87103480D01*
X98194594Y-87118419D01*
X98174210Y-87125414D01*
X98158107Y-87127000D01*
X98086591Y-87110906D01*
X98049702Y-87083877D01*
X98040491Y-87074134D01*
X98032825Y-87064575D01*
X98027173Y-87052131D01*
X98024007Y-87033729D01*
X98023794Y-87006299D01*
X98027004Y-86966770D01*
X98034108Y-86912072D01*
X98045574Y-86839132D01*
X98061872Y-86744881D01*
X98083472Y-86626248D01*
X98110843Y-86480160D01*
X98144454Y-86303549D01*
X98184776Y-86093341D01*
X98232278Y-85846468D01*
X98264491Y-85679101D01*
X98303429Y-85475791D01*
X98339541Y-85285395D01*
X98372096Y-85111895D01*
X98400364Y-84959272D01*
X98423615Y-84831507D01*
X98441119Y-84732581D01*
X98452145Y-84666475D01*
X98455963Y-84637170D01*
X98455807Y-84636084D01*
X98439987Y-84649190D01*
X98397873Y-84689841D01*
X98332449Y-84755009D01*
X98246702Y-84841666D01*
X98143616Y-84946783D01*
X98026178Y-85067332D01*
X97897373Y-85200284D01*
X97796372Y-85305000D01*
X97660110Y-85446098D01*
X97532158Y-85577751D01*
X97415634Y-85696809D01*
X97313661Y-85800123D01*
X97229359Y-85884541D01*
X97165848Y-85946914D01*
X97126249Y-85984092D01*
X97114338Y-85993475D01*
X97054782Y-86003799D01*
X97001094Y-85980670D01*
X96969954Y-85953212D01*
X96918000Y-85901257D01*
X96918000Y-84581470D01*
X96836969Y-84684777D01*
X96809606Y-84719977D01*
X96758953Y-84785464D01*
X96687532Y-84877967D01*
X96597862Y-84994217D01*
X96492464Y-85130943D01*
X96373859Y-85284877D01*
X96244567Y-85452749D01*
X96107107Y-85631289D01*
X95965972Y-85814667D01*
X95780613Y-86055598D01*
X95619348Y-86265210D01*
X95480377Y-86445675D01*
X95361898Y-86599163D01*
X95262113Y-86727844D01*
X95179220Y-86833892D01*
X95111419Y-86919476D01*
X95056911Y-86986768D01*
X95013894Y-87037939D01*
X94980568Y-87075160D01*
X94955133Y-87100603D01*
X94935788Y-87116438D01*
X94920734Y-87124836D01*
X94908170Y-87127970D01*
X94896296Y-87128009D01*
X94883311Y-87127126D01*
X94877785Y-87127000D01*
X94813123Y-87114363D01*
X94772864Y-87088291D01*
X94753283Y-87063341D01*
X94742056Y-87037073D01*
X94741209Y-87005842D01*
X94752768Y-86966002D01*
X94778758Y-86913907D01*
X94821203Y-86845911D01*
X94882131Y-86758370D01*
X94963566Y-86647638D01*
X95067534Y-86510069D01*
X95164901Y-86382666D01*
X95406780Y-86067148D01*
X95635494Y-85769174D01*
X95849980Y-85490117D01*
X96049177Y-85231347D01*
X96232023Y-84994235D01*
X96397457Y-84780152D01*
X96544416Y-84590469D01*
X96671838Y-84426557D01*
X96778663Y-84289787D01*
X96863827Y-84181531D01*
X96926270Y-84103158D01*
X96964928Y-84056041D01*
X96977775Y-84041958D01*
X97036558Y-84018129D01*
X97103382Y-84022426D01*
X97157427Y-84053434D01*
X97158136Y-84054208D01*
X97170105Y-84072559D01*
X97179166Y-84101386D01*
X97185764Y-84146338D01*
X97190343Y-84213063D01*
X97193348Y-84307209D01*
X97195224Y-84434425D01*
X97196036Y-84535750D01*
X97197621Y-84689196D01*
X97200286Y-84847473D01*
X97203760Y-84998694D01*
X97207772Y-85130975D01*
X97211911Y-85229799D01*
X97224917Y-85481015D01*
X97930807Y-84748257D01*
X98095999Y-84577065D01*
X98234637Y-84434157D01*
X98349280Y-84317087D01*
X98442489Y-84223409D01*
X98516828Y-84150678D01*
X98574855Y-84096447D01*
X98619133Y-84058270D01*
X98652222Y-84033702D01*
X98676685Y-84020296D01*
X98695081Y-84015607D01*
X98698098Y-84015500D01*
X98756588Y-84029941D01*
X98809020Y-84065560D01*
X98840640Y-84110796D01*
X98844167Y-84129945D01*
X98840806Y-84159380D01*
X98830603Y-84222646D01*
X98813378Y-84320710D01*
X98788951Y-84454539D01*
X98757141Y-84625103D01*
X98717767Y-84833368D01*
X98670649Y-85080301D01*
X98615608Y-85366872D01*
X98556313Y-85674126D01*
X98521642Y-85854829D01*
X98490029Y-86022255D01*
X98462284Y-86171920D01*
X98439215Y-86299339D01*
X98421630Y-86400029D01*
X98410338Y-86469504D01*
X98406146Y-86503281D01*
X98406400Y-86505789D01*
X98422484Y-86492947D01*
X98464863Y-86452552D01*
X98530547Y-86387620D01*
X98616547Y-86301169D01*
X98719875Y-86196217D01*
X98837542Y-86075782D01*
X98966558Y-85942881D01*
X99069051Y-85836756D01*
X99225063Y-85675015D01*
X99354639Y-85541210D01*
X99460620Y-85432700D01*
X99545850Y-85346848D01*
X99613169Y-85281013D01*
X99665422Y-85232556D01*
X99705449Y-85198837D01*
X99736094Y-85177217D01*
X99760198Y-85165056D01*
X99780604Y-85159714D01*
X99799366Y-85158552D01*
X99835069Y-85159179D01*
X99863846Y-85163888D01*
X99886525Y-85176837D01*
X99903936Y-85202188D01*
X99916908Y-85244099D01*
X99926268Y-85306731D01*
X99932846Y-85394242D01*
X99937471Y-85510794D01*
X99940971Y-85660546D01*
X99944175Y-85847657D01*
X99944833Y-85888702D01*
X99955417Y-86548971D01*
X100929083Y-85287527D01*
X101112621Y-85049901D01*
X101272223Y-84843690D01*
X101409684Y-84666699D01*
X101526804Y-84516729D01*
X101625380Y-84391585D01*
X101707209Y-84289069D01*
X101774088Y-84206983D01*
X101827816Y-84143132D01*
X101870190Y-84095317D01*
X101903007Y-84061343D01*
X101928065Y-84039011D01*
X101947161Y-84026125D01*
X101962093Y-84020487D01*
X101966250Y-84019859D01*
X102027055Y-84025412D01*
X102072083Y-84044590D01*
X102083586Y-84054700D01*
X102092899Y-84069391D01*
X102100338Y-84093072D01*
X102106218Y-84130152D01*
X102110855Y-84185041D01*
X102114565Y-84262147D01*
X102117663Y-84365880D01*
X102120466Y-84500650D01*
X102123288Y-84670864D01*
X102125000Y-84783636D01*
X102135583Y-85491727D01*
X102494391Y-85118738D01*
X102696911Y-84908304D01*
X102872260Y-84726377D01*
X103022553Y-84570894D01*
X103149902Y-84439790D01*
X103256421Y-84331002D01*
X103344222Y-84242466D01*
X103415418Y-84172117D01*
X103472122Y-84117891D01*
X103516447Y-84077724D01*
X103550507Y-84049552D01*
X103576414Y-84031311D01*
X103596281Y-84020937D01*
X103612220Y-84016366D01*
X103623749Y-84015500D01*
X103691597Y-84034367D01*
%TA.AperFunction,EtchedComponent*%
G36*
X103691597Y-84034367D02*
G01*
X103740238Y-84083575D01*
X103759165Y-84152038D01*
X103759070Y-84158311D01*
X103754686Y-84190172D01*
X103742870Y-84260001D01*
X103724299Y-84364218D01*
X103699649Y-84499241D01*
X103669596Y-84661489D01*
X103634816Y-84847380D01*
X103595987Y-85053335D01*
X103553784Y-85275770D01*
X103508884Y-85511106D01*
X103461963Y-85755762D01*
X103413698Y-86006155D01*
X103364764Y-86258705D01*
X103315839Y-86509831D01*
X103290331Y-86640167D01*
X103259456Y-86794932D01*
X103233915Y-86912977D01*
X103211546Y-86999246D01*
X103190187Y-87058681D01*
X103167678Y-87096228D01*
X103141856Y-87116830D01*
X103110561Y-87125431D01*
X103077500Y-87127000D01*
X103003152Y-87111118D01*
X102957634Y-87065682D01*
X102944227Y-86997165D01*
X102948441Y-86966063D01*
X102959789Y-86898104D01*
X102977384Y-86797998D01*
X103000341Y-86670455D01*
X103027773Y-86520183D01*
X103058793Y-86351894D01*
X103092516Y-86170296D01*
X103128055Y-85980100D01*
X103164524Y-85786015D01*
X103201036Y-85592752D01*
X103236706Y-85405018D01*
X103270647Y-85227526D01*
X103301972Y-85064983D01*
X103329795Y-84922101D01*
X103353231Y-84803588D01*
X103371393Y-84714154D01*
X103383394Y-84658510D01*
X103387056Y-84643983D01*
X103376388Y-84647703D01*
X103340273Y-84678407D01*
X103282512Y-84732472D01*
X103206903Y-84806274D01*
X103117246Y-84896190D01*
X103043027Y-84972067D01*
X102845222Y-85175721D01*
X102674617Y-85350975D01*
X102529025Y-85499900D01*
X102406260Y-85624568D01*
X102304137Y-85727052D01*
X102220468Y-85809423D01*
X102153068Y-85873753D01*
X102099750Y-85922115D01*
X102058328Y-85956579D01*
X102026616Y-85979218D01*
X102002428Y-85992105D01*
X101983576Y-85997310D01*
X101967876Y-85996906D01*
X101962768Y-85995834D01*
X101911721Y-85978197D01*
X101881583Y-85960306D01*
X101875364Y-85933588D01*
X101869336Y-85867966D01*
X101863654Y-85766870D01*
X101858473Y-85633729D01*
X101853948Y-85471974D01*
X101850236Y-85285034D01*
X101849833Y-85259840D01*
X101839250Y-84580072D01*
X101710307Y-84747578D01*
X101441970Y-85096098D01*
X101198487Y-85412185D01*
X100978955Y-85697003D01*
X100782474Y-85951714D01*
X100608139Y-86177483D01*
X100455049Y-86375472D01*
X100322301Y-86546844D01*
X100208993Y-86692764D01*
X100114223Y-86814394D01*
X100037088Y-86912897D01*
X99976685Y-86989438D01*
X99932113Y-87045178D01*
X99902468Y-87081282D01*
X99886849Y-87098914D01*
X99885067Y-87100542D01*
X99826500Y-87123917D01*
X99756042Y-87121207D01*
X99700170Y-87096981D01*
X99688943Y-87086799D01*
X99679851Y-87071423D01*
X99672581Y-87046433D01*
X99666821Y-87007408D01*
X99662259Y-86949927D01*
X99658583Y-86869571D01*
X99655479Y-86761918D01*
X99652638Y-86622548D01*
X99649744Y-86447040D01*
X99648500Y-86365527D01*
X99637917Y-85664092D01*
X98932702Y-86395546D01*
X98769363Y-86564765D01*
X98632584Y-86705879D01*
X98519694Y-86821408D01*
X98428025Y-86913872D01*
X98354908Y-86985791D01*
X98297676Y-87039685D01*
X98253658Y-87078075D01*
X98220187Y-87103480D01*
X98194594Y-87118419D01*
X98174210Y-87125414D01*
X98158107Y-87127000D01*
X98086591Y-87110906D01*
X98049702Y-87083877D01*
X98040491Y-87074134D01*
X98032825Y-87064575D01*
X98027173Y-87052131D01*
X98024007Y-87033729D01*
X98023794Y-87006299D01*
X98027004Y-86966770D01*
X98034108Y-86912072D01*
X98045574Y-86839132D01*
X98061872Y-86744881D01*
X98083472Y-86626248D01*
X98110843Y-86480160D01*
X98144454Y-86303549D01*
X98184776Y-86093341D01*
X98232278Y-85846468D01*
X98264491Y-85679101D01*
X98303429Y-85475791D01*
X98339541Y-85285395D01*
X98372096Y-85111895D01*
X98400364Y-84959272D01*
X98423615Y-84831507D01*
X98441119Y-84732581D01*
X98452145Y-84666475D01*
X98455963Y-84637170D01*
X98455807Y-84636084D01*
X98439987Y-84649190D01*
X98397873Y-84689841D01*
X98332449Y-84755009D01*
X98246702Y-84841666D01*
X98143616Y-84946783D01*
X98026178Y-85067332D01*
X97897373Y-85200284D01*
X97796372Y-85305000D01*
X97660110Y-85446098D01*
X97532158Y-85577751D01*
X97415634Y-85696809D01*
X97313661Y-85800123D01*
X97229359Y-85884541D01*
X97165848Y-85946914D01*
X97126249Y-85984092D01*
X97114338Y-85993475D01*
X97054782Y-86003799D01*
X97001094Y-85980670D01*
X96969954Y-85953212D01*
X96918000Y-85901257D01*
X96918000Y-84581470D01*
X96836969Y-84684777D01*
X96809606Y-84719977D01*
X96758953Y-84785464D01*
X96687532Y-84877967D01*
X96597862Y-84994217D01*
X96492464Y-85130943D01*
X96373859Y-85284877D01*
X96244567Y-85452749D01*
X96107107Y-85631289D01*
X95965972Y-85814667D01*
X95780613Y-86055598D01*
X95619348Y-86265210D01*
X95480377Y-86445675D01*
X95361898Y-86599163D01*
X95262113Y-86727844D01*
X95179220Y-86833892D01*
X95111419Y-86919476D01*
X95056911Y-86986768D01*
X95013894Y-87037939D01*
X94980568Y-87075160D01*
X94955133Y-87100603D01*
X94935788Y-87116438D01*
X94920734Y-87124836D01*
X94908170Y-87127970D01*
X94896296Y-87128009D01*
X94883311Y-87127126D01*
X94877785Y-87127000D01*
X94813123Y-87114363D01*
X94772864Y-87088291D01*
X94753283Y-87063341D01*
X94742056Y-87037073D01*
X94741209Y-87005842D01*
X94752768Y-86966002D01*
X94778758Y-86913907D01*
X94821203Y-86845911D01*
X94882131Y-86758370D01*
X94963566Y-86647638D01*
X95067534Y-86510069D01*
X95164901Y-86382666D01*
X95406780Y-86067148D01*
X95635494Y-85769174D01*
X95849980Y-85490117D01*
X96049177Y-85231347D01*
X96232023Y-84994235D01*
X96397457Y-84780152D01*
X96544416Y-84590469D01*
X96671838Y-84426557D01*
X96778663Y-84289787D01*
X96863827Y-84181531D01*
X96926270Y-84103158D01*
X96964928Y-84056041D01*
X96977775Y-84041958D01*
X97036558Y-84018129D01*
X97103382Y-84022426D01*
X97157427Y-84053434D01*
X97158136Y-84054208D01*
X97170105Y-84072559D01*
X97179166Y-84101386D01*
X97185764Y-84146338D01*
X97190343Y-84213063D01*
X97193348Y-84307209D01*
X97195224Y-84434425D01*
X97196036Y-84535750D01*
X97197621Y-84689196D01*
X97200286Y-84847473D01*
X97203760Y-84998694D01*
X97207772Y-85130975D01*
X97211911Y-85229799D01*
X97224917Y-85481015D01*
X97930807Y-84748257D01*
X98095999Y-84577065D01*
X98234637Y-84434157D01*
X98349280Y-84317087D01*
X98442489Y-84223409D01*
X98516828Y-84150678D01*
X98574855Y-84096447D01*
X98619133Y-84058270D01*
X98652222Y-84033702D01*
X98676685Y-84020296D01*
X98695081Y-84015607D01*
X98698098Y-84015500D01*
X98756588Y-84029941D01*
X98809020Y-84065560D01*
X98840640Y-84110796D01*
X98844167Y-84129945D01*
X98840806Y-84159380D01*
X98830603Y-84222646D01*
X98813378Y-84320710D01*
X98788951Y-84454539D01*
X98757141Y-84625103D01*
X98717767Y-84833368D01*
X98670649Y-85080301D01*
X98615608Y-85366872D01*
X98556313Y-85674126D01*
X98521642Y-85854829D01*
X98490029Y-86022255D01*
X98462284Y-86171920D01*
X98439215Y-86299339D01*
X98421630Y-86400029D01*
X98410338Y-86469504D01*
X98406146Y-86503281D01*
X98406400Y-86505789D01*
X98422484Y-86492947D01*
X98464863Y-86452552D01*
X98530547Y-86387620D01*
X98616547Y-86301169D01*
X98719875Y-86196217D01*
X98837542Y-86075782D01*
X98966558Y-85942881D01*
X99069051Y-85836756D01*
X99225063Y-85675015D01*
X99354639Y-85541210D01*
X99460620Y-85432700D01*
X99545850Y-85346848D01*
X99613169Y-85281013D01*
X99665422Y-85232556D01*
X99705449Y-85198837D01*
X99736094Y-85177217D01*
X99760198Y-85165056D01*
X99780604Y-85159714D01*
X99799366Y-85158552D01*
X99835069Y-85159179D01*
X99863846Y-85163888D01*
X99886525Y-85176837D01*
X99903936Y-85202188D01*
X99916908Y-85244099D01*
X99926268Y-85306731D01*
X99932846Y-85394242D01*
X99937471Y-85510794D01*
X99940971Y-85660546D01*
X99944175Y-85847657D01*
X99944833Y-85888702D01*
X99955417Y-86548971D01*
X100929083Y-85287527D01*
X101112621Y-85049901D01*
X101272223Y-84843690D01*
X101409684Y-84666699D01*
X101526804Y-84516729D01*
X101625380Y-84391585D01*
X101707209Y-84289069D01*
X101774088Y-84206983D01*
X101827816Y-84143132D01*
X101870190Y-84095317D01*
X101903007Y-84061343D01*
X101928065Y-84039011D01*
X101947161Y-84026125D01*
X101962093Y-84020487D01*
X101966250Y-84019859D01*
X102027055Y-84025412D01*
X102072083Y-84044590D01*
X102083586Y-84054700D01*
X102092899Y-84069391D01*
X102100338Y-84093072D01*
X102106218Y-84130152D01*
X102110855Y-84185041D01*
X102114565Y-84262147D01*
X102117663Y-84365880D01*
X102120466Y-84500650D01*
X102123288Y-84670864D01*
X102125000Y-84783636D01*
X102135583Y-85491727D01*
X102494391Y-85118738D01*
X102696911Y-84908304D01*
X102872260Y-84726377D01*
X103022553Y-84570894D01*
X103149902Y-84439790D01*
X103256421Y-84331002D01*
X103344222Y-84242466D01*
X103415418Y-84172117D01*
X103472122Y-84117891D01*
X103516447Y-84077724D01*
X103550507Y-84049552D01*
X103576414Y-84031311D01*
X103596281Y-84020937D01*
X103612220Y-84016366D01*
X103623749Y-84015500D01*
X103691597Y-84034367D01*
G37*
%TD.AperFunction*%
%TO.C,G\u002A\u002A\u002A*%
X86309830Y-80455797D02*
X86643267Y-80495204D01*
X86950467Y-80553578D01*
X87229484Y-80630030D01*
X87478372Y-80723669D01*
X87695187Y-80833603D01*
X87877983Y-80958944D01*
X88024814Y-81098799D01*
X88133736Y-81252280D01*
X88159523Y-81302536D01*
X88193411Y-81380488D01*
X88210910Y-81442915D01*
X88215705Y-81509753D01*
X88212326Y-81588286D01*
X88193423Y-81720777D01*
X88151826Y-81835981D01*
X88081719Y-81946567D01*
X88008536Y-82032372D01*
X87848419Y-82176333D01*
X87652554Y-82303719D01*
X87424554Y-82413535D01*
X87168034Y-82504783D01*
X86886608Y-82576466D01*
X86583891Y-82627587D01*
X86263497Y-82657149D01*
X85929040Y-82664156D01*
X85740375Y-82658032D01*
X85420041Y-82629134D01*
X85116123Y-82576925D01*
X84832771Y-82502814D01*
X84574139Y-82408212D01*
X84344379Y-82294530D01*
X84147642Y-82163179D01*
X84057622Y-82086358D01*
X83929389Y-81943481D01*
X83842585Y-81795199D01*
X83797022Y-81643863D01*
X83792511Y-81491823D01*
X83828864Y-81341429D01*
X83905893Y-81195031D01*
X84023410Y-81054980D01*
X84148839Y-80947286D01*
X84351516Y-80816950D01*
X84587491Y-80703779D01*
X84850792Y-80609131D01*
X85135445Y-80534363D01*
X85435476Y-80480835D01*
X85744912Y-80449905D01*
X86057780Y-80442933D01*
X86309830Y-80455797D01*
%TA.AperFunction,EtchedComponent*%
G36*
X86309830Y-80455797D02*
G01*
X86643267Y-80495204D01*
X86950467Y-80553578D01*
X87229484Y-80630030D01*
X87478372Y-80723669D01*
X87695187Y-80833603D01*
X87877983Y-80958944D01*
X88024814Y-81098799D01*
X88133736Y-81252280D01*
X88159523Y-81302536D01*
X88193411Y-81380488D01*
X88210910Y-81442915D01*
X88215705Y-81509753D01*
X88212326Y-81588286D01*
X88193423Y-81720777D01*
X88151826Y-81835981D01*
X88081719Y-81946567D01*
X88008536Y-82032372D01*
X87848419Y-82176333D01*
X87652554Y-82303719D01*
X87424554Y-82413535D01*
X87168034Y-82504783D01*
X86886608Y-82576466D01*
X86583891Y-82627587D01*
X86263497Y-82657149D01*
X85929040Y-82664156D01*
X85740375Y-82658032D01*
X85420041Y-82629134D01*
X85116123Y-82576925D01*
X84832771Y-82502814D01*
X84574139Y-82408212D01*
X84344379Y-82294530D01*
X84147642Y-82163179D01*
X84057622Y-82086358D01*
X83929389Y-81943481D01*
X83842585Y-81795199D01*
X83797022Y-81643863D01*
X83792511Y-81491823D01*
X83828864Y-81341429D01*
X83905893Y-81195031D01*
X84023410Y-81054980D01*
X84148839Y-80947286D01*
X84351516Y-80816950D01*
X84587491Y-80703779D01*
X84850792Y-80609131D01*
X85135445Y-80534363D01*
X85435476Y-80480835D01*
X85744912Y-80449905D01*
X86057780Y-80442933D01*
X86309830Y-80455797D01*
G37*
%TD.AperFunction*%
%TD*%
D11*
%TO.P,REF\u002A\u002A,1*%
%TO.N,N/C*%
X79025000Y-51325000D03*
D12*
X79025000Y-51325000D03*
%TD*%
M02*
