%TF.GenerationSoftware,KiCad,Pcbnew,8.0.1*%
%TF.CreationDate,2025-04-09T11:51:24+02:00*%
%TF.ProjectId,PCB-Shit_v4,5043422d-5368-4697-945f-76342e6b6963,rev?*%
%TF.SameCoordinates,Original*%
%TF.FileFunction,Legend,Top*%
%TF.FilePolarity,Positive*%
%FSLAX46Y46*%
G04 Gerber Fmt 4.6, Leading zero omitted, Abs format (unit mm)*
G04 Created by KiCad (PCBNEW 8.0.1) date 2025-04-09 11:51:24*
%MOMM*%
%LPD*%
G01*
G04 APERTURE LIST*
%ADD10C,0.010000*%
G04 APERTURE END LIST*
D10*
%TO.C,G\u002A\u002A\u002A*%
X91530982Y-78494593D02*
X91481970Y-78979436D01*
X91392837Y-79453478D01*
X91264535Y-79914643D01*
X91098012Y-80360858D01*
X90894220Y-80790047D01*
X90654109Y-81200135D01*
X90378628Y-81589047D01*
X90068730Y-81954708D01*
X89838841Y-82189002D01*
X89476263Y-82508528D01*
X89091058Y-82793023D01*
X88685525Y-83041667D01*
X88261966Y-83253642D01*
X87822680Y-83428128D01*
X87369968Y-83564306D01*
X86906130Y-83661357D01*
X86433466Y-83718461D01*
X85954277Y-83734799D01*
X85549875Y-83716541D01*
X85085923Y-83659192D01*
X84632946Y-83563049D01*
X84187300Y-83427094D01*
X83745342Y-83250310D01*
X83547048Y-83157339D01*
X83131483Y-82930514D01*
X82740126Y-82670168D01*
X82374502Y-82378528D01*
X82036136Y-82057815D01*
X81726552Y-81710255D01*
X81613483Y-81559570D01*
X83814208Y-81559570D01*
X83831645Y-81707440D01*
X83885060Y-81845526D01*
X83976111Y-81976306D01*
X84106456Y-82102257D01*
X84246315Y-82205332D01*
X84485678Y-82341564D01*
X84755897Y-82453740D01*
X85052477Y-82541094D01*
X85370922Y-82602861D01*
X85706737Y-82638274D01*
X86055427Y-82646569D01*
X86412497Y-82626979D01*
X86597625Y-82605838D01*
X86876976Y-82557673D01*
X87134971Y-82492172D01*
X87369658Y-82411011D01*
X87579087Y-82315866D01*
X87761307Y-82208412D01*
X87914367Y-82090325D01*
X88036316Y-81963280D01*
X88125202Y-81828954D01*
X88179075Y-81689020D01*
X88195985Y-81545156D01*
X88173979Y-81399036D01*
X88130812Y-81289072D01*
X88038801Y-81149091D01*
X87908366Y-81017079D01*
X87742958Y-80894787D01*
X87546027Y-80783966D01*
X87321024Y-80686366D01*
X87071398Y-80603740D01*
X86800601Y-80537836D01*
X86572991Y-80498609D01*
X86458930Y-80486818D01*
X86314147Y-80478525D01*
X86149535Y-80473733D01*
X85975991Y-80472446D01*
X85804409Y-80474670D01*
X85645683Y-80480409D01*
X85510708Y-80489667D01*
X85436925Y-80498138D01*
X85147686Y-80550850D01*
X84878266Y-80621497D01*
X84631929Y-80708421D01*
X84411939Y-80809962D01*
X84221560Y-80924463D01*
X84064053Y-81050266D01*
X83942684Y-81185711D01*
X83878662Y-81289956D01*
X83839604Y-81378383D01*
X83820032Y-81456630D01*
X83814248Y-81548545D01*
X83814208Y-81559570D01*
X81613483Y-81559570D01*
X81447277Y-81338071D01*
X81199834Y-80943488D01*
X80985748Y-80528729D01*
X80806546Y-80096018D01*
X80663751Y-79647579D01*
X80558889Y-79185636D01*
X80493484Y-78712413D01*
X80492589Y-78702846D01*
X80483271Y-78592468D01*
X80475811Y-78485287D01*
X80471113Y-78395479D01*
X80469947Y-78348304D01*
X80469875Y-78237179D01*
X91546039Y-78237179D01*
X91530982Y-78494593D01*
G36*
X91530982Y-78494593D02*
G01*
X91481970Y-78979436D01*
X91392837Y-79453478D01*
X91264535Y-79914643D01*
X91098012Y-80360858D01*
X90894220Y-80790047D01*
X90654109Y-81200135D01*
X90378628Y-81589047D01*
X90068730Y-81954708D01*
X89838841Y-82189002D01*
X89476263Y-82508528D01*
X89091058Y-82793023D01*
X88685525Y-83041667D01*
X88261966Y-83253642D01*
X87822680Y-83428128D01*
X87369968Y-83564306D01*
X86906130Y-83661357D01*
X86433466Y-83718461D01*
X85954277Y-83734799D01*
X85549875Y-83716541D01*
X85085923Y-83659192D01*
X84632946Y-83563049D01*
X84187300Y-83427094D01*
X83745342Y-83250310D01*
X83547048Y-83157339D01*
X83131483Y-82930514D01*
X82740126Y-82670168D01*
X82374502Y-82378528D01*
X82036136Y-82057815D01*
X81726552Y-81710255D01*
X81613483Y-81559570D01*
X83814208Y-81559570D01*
X83831645Y-81707440D01*
X83885060Y-81845526D01*
X83976111Y-81976306D01*
X84106456Y-82102257D01*
X84246315Y-82205332D01*
X84485678Y-82341564D01*
X84755897Y-82453740D01*
X85052477Y-82541094D01*
X85370922Y-82602861D01*
X85706737Y-82638274D01*
X86055427Y-82646569D01*
X86412497Y-82626979D01*
X86597625Y-82605838D01*
X86876976Y-82557673D01*
X87134971Y-82492172D01*
X87369658Y-82411011D01*
X87579087Y-82315866D01*
X87761307Y-82208412D01*
X87914367Y-82090325D01*
X88036316Y-81963280D01*
X88125202Y-81828954D01*
X88179075Y-81689020D01*
X88195985Y-81545156D01*
X88173979Y-81399036D01*
X88130812Y-81289072D01*
X88038801Y-81149091D01*
X87908366Y-81017079D01*
X87742958Y-80894787D01*
X87546027Y-80783966D01*
X87321024Y-80686366D01*
X87071398Y-80603740D01*
X86800601Y-80537836D01*
X86572991Y-80498609D01*
X86458930Y-80486818D01*
X86314147Y-80478525D01*
X86149535Y-80473733D01*
X85975991Y-80472446D01*
X85804409Y-80474670D01*
X85645683Y-80480409D01*
X85510708Y-80489667D01*
X85436925Y-80498138D01*
X85147686Y-80550850D01*
X84878266Y-80621497D01*
X84631929Y-80708421D01*
X84411939Y-80809962D01*
X84221560Y-80924463D01*
X84064053Y-81050266D01*
X83942684Y-81185711D01*
X83878662Y-81289956D01*
X83839604Y-81378383D01*
X83820032Y-81456630D01*
X83814248Y-81548545D01*
X83814208Y-81559570D01*
X81613483Y-81559570D01*
X81447277Y-81338071D01*
X81199834Y-80943488D01*
X80985748Y-80528729D01*
X80806546Y-80096018D01*
X80663751Y-79647579D01*
X80558889Y-79185636D01*
X80493484Y-78712413D01*
X80492589Y-78702846D01*
X80483271Y-78592468D01*
X80475811Y-78485287D01*
X80471113Y-78395479D01*
X80469947Y-78348304D01*
X80469875Y-78237179D01*
X91546039Y-78237179D01*
X91530982Y-78494593D01*
G37*
X81143839Y-43179419D02*
X81308469Y-43209875D01*
X81348292Y-43219698D01*
X81546431Y-43291586D01*
X81732629Y-43399784D01*
X81901021Y-43538709D01*
X82045743Y-43702776D01*
X82160933Y-43886402D01*
X82234450Y-44063596D01*
X82249059Y-44119300D01*
X82268499Y-44207592D01*
X82290908Y-44319256D01*
X82314422Y-44445079D01*
X82332894Y-44550429D01*
X82464249Y-45200225D01*
X82634703Y-45833797D01*
X82844233Y-46451095D01*
X83092815Y-47052068D01*
X83380425Y-47636665D01*
X83707042Y-48204835D01*
X84072640Y-48756529D01*
X84477197Y-49291694D01*
X84563488Y-49397596D01*
X84658290Y-49507721D01*
X84777992Y-49639312D01*
X84916250Y-49785994D01*
X85066719Y-49941390D01*
X85223057Y-50099124D01*
X85378918Y-50252821D01*
X85527959Y-50396103D01*
X85663835Y-50522596D01*
X85780203Y-50625923D01*
X85814458Y-50654861D01*
X86343579Y-51067720D01*
X86890892Y-51442662D01*
X87455787Y-51779386D01*
X88037650Y-52077590D01*
X88635870Y-52336974D01*
X89249834Y-52557235D01*
X89878930Y-52738073D01*
X90201135Y-52814091D01*
X90499814Y-52879512D01*
X92475136Y-52879716D01*
X92827913Y-52879869D01*
X93141044Y-52880277D01*
X93417217Y-52880976D01*
X93659119Y-52882003D01*
X93869437Y-52883396D01*
X94050859Y-52885192D01*
X94206072Y-52887427D01*
X94337764Y-52890140D01*
X94448621Y-52893366D01*
X94541330Y-52897143D01*
X94618581Y-52901509D01*
X94683058Y-52906499D01*
X94725625Y-52910784D01*
X95239752Y-52989184D01*
X95739908Y-53107332D01*
X96225196Y-53264902D01*
X96694723Y-53461567D01*
X97147593Y-53697004D01*
X97519625Y-53927938D01*
X97684027Y-54040932D01*
X97831548Y-54149302D01*
X97970625Y-54260128D01*
X98109696Y-54380491D01*
X98257200Y-54517471D01*
X98421575Y-54678147D01*
X98462543Y-54719087D01*
X98752324Y-55026006D01*
X99007630Y-55332804D01*
X99235247Y-55648826D01*
X99441961Y-55983419D01*
X99614531Y-56305747D01*
X99823917Y-56768205D01*
X99993928Y-57241868D01*
X100124235Y-57724241D01*
X100214507Y-58212828D01*
X100264413Y-58705136D01*
X100273624Y-59198671D01*
X100241809Y-59690937D01*
X100168638Y-60179441D01*
X100143667Y-60301513D01*
X100129300Y-60368096D01*
X100888212Y-60378681D01*
X101141322Y-60383017D01*
X101355510Y-60388493D01*
X101534178Y-60395262D01*
X101680727Y-60403475D01*
X101798558Y-60413287D01*
X101879958Y-60423183D01*
X102451119Y-60525937D01*
X103000430Y-60664810D01*
X103528817Y-60840237D01*
X104037202Y-61052649D01*
X104526511Y-61302482D01*
X104997666Y-61590167D01*
X105451592Y-61916139D01*
X105889214Y-62280830D01*
X105941962Y-62328385D01*
X106148242Y-62527638D01*
X106363163Y-62756644D01*
X106579027Y-63006104D01*
X106788135Y-63266718D01*
X106982790Y-63529188D01*
X107155293Y-63784213D01*
X107181796Y-63826053D01*
X107273372Y-63980009D01*
X107373941Y-64162467D01*
X107478062Y-64362472D01*
X107580293Y-64569067D01*
X107675195Y-64771299D01*
X107757325Y-64958210D01*
X107813254Y-65097452D01*
X107985479Y-65603383D01*
X108119561Y-66111103D01*
X108216488Y-66626142D01*
X108277248Y-67154026D01*
X108302828Y-67700284D01*
X108303841Y-67842128D01*
X108302613Y-68007674D01*
X108299263Y-68200431D01*
X108294050Y-68414033D01*
X108287235Y-68642117D01*
X108279077Y-68878319D01*
X108269836Y-69116274D01*
X108259771Y-69349620D01*
X108249142Y-69571991D01*
X108238209Y-69777025D01*
X108227231Y-69958357D01*
X108216469Y-70109622D01*
X108206914Y-70217419D01*
X108194721Y-70336242D01*
X108371090Y-70351291D01*
X108622737Y-70380240D01*
X108901802Y-70425532D01*
X109197710Y-70484834D01*
X109499886Y-70555817D01*
X109797756Y-70636149D01*
X110080744Y-70723501D01*
X110120946Y-70736960D01*
X110673684Y-70946163D01*
X111213915Y-71194544D01*
X111740178Y-71480411D01*
X112251008Y-71802075D01*
X112744943Y-72157846D01*
X113220519Y-72546033D01*
X113676275Y-72964947D01*
X114110745Y-73412896D01*
X114522468Y-73888190D01*
X114909980Y-74389140D01*
X115271818Y-74914055D01*
X115606520Y-75461245D01*
X115912621Y-76029020D01*
X116188659Y-76615688D01*
X116433171Y-77219561D01*
X116644693Y-77838947D01*
X116821763Y-78472157D01*
X116823862Y-78480596D01*
X116966146Y-79138522D01*
X117066119Y-79795989D01*
X117123805Y-80452803D01*
X117139226Y-81108772D01*
X117112404Y-81763705D01*
X117043363Y-82417408D01*
X116932124Y-83069690D01*
X116778710Y-83720359D01*
X116583144Y-84369222D01*
X116345448Y-85016086D01*
X116065644Y-85660761D01*
X115956254Y-85888929D01*
X115644124Y-86479674D01*
X115298101Y-87051686D01*
X114920489Y-87602163D01*
X114513591Y-88128308D01*
X114079709Y-88627319D01*
X113621148Y-89096397D01*
X113140210Y-89532743D01*
X112639199Y-89933556D01*
X112612437Y-89953526D01*
X112102372Y-90307990D01*
X111578667Y-90623244D01*
X111042245Y-90898933D01*
X110494030Y-91134701D01*
X109934946Y-91330193D01*
X109365915Y-91485055D01*
X108787863Y-91598931D01*
X108201713Y-91671466D01*
X108126343Y-91677733D01*
X108085868Y-91679224D01*
X108003099Y-91680661D01*
X107878073Y-91682046D01*
X107710829Y-91683377D01*
X107501406Y-91684654D01*
X107249842Y-91685878D01*
X106956176Y-91687049D01*
X106620446Y-91688165D01*
X106242690Y-91689229D01*
X105822947Y-91690238D01*
X105361256Y-91691194D01*
X104857654Y-91692096D01*
X104312181Y-91692945D01*
X103724875Y-91693739D01*
X103095775Y-91694480D01*
X102424918Y-91695166D01*
X101712344Y-91695799D01*
X100958090Y-91696377D01*
X100162196Y-91696902D01*
X99324700Y-91697372D01*
X98445639Y-91697788D01*
X97525054Y-91698150D01*
X96562982Y-91698457D01*
X95559461Y-91698710D01*
X94514531Y-91698909D01*
X93428229Y-91699053D01*
X92300595Y-91699143D01*
X91131666Y-91699178D01*
X90957449Y-91699179D01*
X74061503Y-91699179D01*
X74050559Y-92625221D01*
X74047306Y-92874388D01*
X74043623Y-93086392D01*
X74039074Y-93266403D01*
X74033219Y-93419590D01*
X74025623Y-93551123D01*
X74015846Y-93666173D01*
X74003451Y-93769909D01*
X73988000Y-93867500D01*
X73969055Y-93964118D01*
X73946180Y-94064932D01*
X73919515Y-94172825D01*
X73799693Y-94560780D01*
X73642158Y-94932009D01*
X73449016Y-95284151D01*
X73222377Y-95614843D01*
X72964348Y-95921722D01*
X72677038Y-96202427D01*
X72362555Y-96454594D01*
X72023007Y-96675862D01*
X71660502Y-96863867D01*
X71432279Y-96959945D01*
X71243105Y-97025431D01*
X71028964Y-97086901D01*
X70807217Y-97139712D01*
X70637958Y-97172280D01*
X70525522Y-97186771D01*
X70381927Y-97198517D01*
X70218274Y-97207232D01*
X70045667Y-97212632D01*
X69875207Y-97214428D01*
X69717998Y-97212336D01*
X69585142Y-97206069D01*
X69527852Y-97200895D01*
X69131186Y-97134834D01*
X68738146Y-97026606D01*
X68348709Y-96876206D01*
X68161458Y-96788239D01*
X67799257Y-96585162D01*
X67464504Y-96350570D01*
X67158484Y-96086231D01*
X66882485Y-95793910D01*
X66637791Y-95475375D01*
X66425689Y-95132394D01*
X66247464Y-94766731D01*
X66104403Y-94380155D01*
X65997791Y-93974433D01*
X65957825Y-93760442D01*
X65948652Y-93693161D01*
X65940795Y-93610785D01*
X65934096Y-93509316D01*
X65928398Y-93384753D01*
X65923541Y-93233100D01*
X65919369Y-93050355D01*
X65915723Y-92832520D01*
X65913043Y-92627320D01*
X65902118Y-91703377D01*
X64851622Y-91692991D01*
X64587710Y-91690118D01*
X64360948Y-91686901D01*
X64166151Y-91683012D01*
X63998133Y-91678124D01*
X63851712Y-91671910D01*
X63721702Y-91664043D01*
X63602919Y-91654196D01*
X63490179Y-91642041D01*
X63378298Y-91627252D01*
X63262091Y-91609500D01*
X63136373Y-91588459D01*
X63102625Y-91582608D01*
X62539052Y-91463055D01*
X61981420Y-91302295D01*
X61431470Y-91101245D01*
X60890944Y-90860822D01*
X60361582Y-90581943D01*
X59845127Y-90265524D01*
X59343320Y-89912484D01*
X58857901Y-89523739D01*
X58392163Y-89101699D01*
X57926915Y-88625481D01*
X57488727Y-88119350D01*
X57079080Y-87586175D01*
X56699455Y-87028820D01*
X56351335Y-86450154D01*
X56036201Y-85853043D01*
X55755534Y-85240353D01*
X55510817Y-84614953D01*
X55303530Y-83979708D01*
X55135155Y-83337485D01*
X55007175Y-82691152D01*
X54976120Y-82491679D01*
X54908384Y-81900029D01*
X54874846Y-81296380D01*
X54875336Y-80824705D01*
X57489311Y-80824705D01*
X57490547Y-81299478D01*
X57516528Y-81750125D01*
X57568748Y-82187895D01*
X57648700Y-82624037D01*
X57757876Y-83069801D01*
X57812927Y-83263013D01*
X57988480Y-83794960D01*
X58195079Y-84312063D01*
X58430962Y-84812499D01*
X58694363Y-85294448D01*
X58983521Y-85756088D01*
X59296671Y-86195598D01*
X59632050Y-86611156D01*
X59987895Y-87000941D01*
X60362441Y-87363132D01*
X60753925Y-87695908D01*
X61160585Y-87997447D01*
X61580655Y-88265927D01*
X62012373Y-88499528D01*
X62453975Y-88696428D01*
X62903697Y-88854806D01*
X63336819Y-88967919D01*
X63426937Y-88987355D01*
X63508712Y-89004429D01*
X63585464Y-89019315D01*
X63660511Y-89032189D01*
X63737173Y-89043225D01*
X63818768Y-89052601D01*
X63908615Y-89060491D01*
X64010033Y-89067069D01*
X64126341Y-89072513D01*
X64260858Y-89076997D01*
X64416902Y-89080697D01*
X64597793Y-89083787D01*
X64806850Y-89086444D01*
X65047391Y-89088843D01*
X65322735Y-89091159D01*
X65636201Y-89093568D01*
X65727292Y-89094253D01*
X66040796Y-89096627D01*
X66314864Y-89098788D01*
X66552393Y-89100827D01*
X66756279Y-89102835D01*
X66929417Y-89104904D01*
X67074705Y-89107124D01*
X67195039Y-89109587D01*
X67293314Y-89112384D01*
X67372428Y-89115607D01*
X67435276Y-89119346D01*
X67484755Y-89123693D01*
X67523762Y-89128739D01*
X67555191Y-89134575D01*
X67581941Y-89141292D01*
X67606907Y-89148982D01*
X67621708Y-89153923D01*
X67834707Y-89247650D01*
X68026461Y-89376026D01*
X68193297Y-89535185D01*
X68331541Y-89721264D01*
X68437519Y-89930396D01*
X68482391Y-90059493D01*
X68489304Y-90086087D01*
X68495371Y-90117624D01*
X68500673Y-90157071D01*
X68505293Y-90207398D01*
X68509311Y-90271575D01*
X68512810Y-90352569D01*
X68515870Y-90453350D01*
X68518575Y-90576888D01*
X68521004Y-90726151D01*
X68523240Y-90904107D01*
X68525364Y-91113727D01*
X68527458Y-91357979D01*
X68529604Y-91639832D01*
X68530935Y-91826179D01*
X68542458Y-93466596D01*
X68609950Y-93641711D01*
X68719436Y-93870426D01*
X68860461Y-94074247D01*
X69029612Y-94250299D01*
X69223476Y-94395707D01*
X69438639Y-94507597D01*
X69671687Y-94583094D01*
X69746057Y-94598484D01*
X69884681Y-94611957D01*
X70044962Y-94609193D01*
X70210029Y-94591497D01*
X70363010Y-94560170D01*
X70406771Y-94547444D01*
X70635472Y-94453236D01*
X70843103Y-94323787D01*
X71026329Y-94162290D01*
X71181818Y-93971944D01*
X71306235Y-93755942D01*
X71356742Y-93636688D01*
X71420666Y-93466596D01*
X71432544Y-91826179D01*
X71434826Y-91520474D01*
X71437003Y-91254135D01*
X71439155Y-91024195D01*
X71441364Y-90827687D01*
X71443712Y-90661644D01*
X71446282Y-90523098D01*
X71449155Y-90409083D01*
X71452414Y-90316631D01*
X71456139Y-90242776D01*
X71460413Y-90184551D01*
X71465318Y-90138988D01*
X71470935Y-90103121D01*
X71477348Y-90073982D01*
X71481317Y-90059493D01*
X71567143Y-89838392D01*
X71687630Y-89638239D01*
X71839184Y-89462819D01*
X72018212Y-89315916D01*
X72221121Y-89201314D01*
X72341875Y-89153327D01*
X72479458Y-89106262D01*
X90259458Y-89095160D01*
X91304951Y-89094503D01*
X92308955Y-89093864D01*
X93272318Y-89093239D01*
X94195883Y-89092626D01*
X95080497Y-89092024D01*
X95927006Y-89091431D01*
X96736254Y-89090843D01*
X97509087Y-89090260D01*
X98246351Y-89089678D01*
X98948891Y-89089095D01*
X99617553Y-89088510D01*
X100253183Y-89087920D01*
X100856625Y-89087324D01*
X101428725Y-89086718D01*
X101970329Y-89086100D01*
X102482282Y-89085469D01*
X102965430Y-89084823D01*
X103420618Y-89084158D01*
X103848692Y-89083474D01*
X104250498Y-89082767D01*
X104626880Y-89082036D01*
X104978684Y-89081278D01*
X105306757Y-89080491D01*
X105611942Y-89079673D01*
X105895087Y-89078822D01*
X106157035Y-89077936D01*
X106398634Y-89077013D01*
X106620728Y-89076049D01*
X106824163Y-89075044D01*
X107009784Y-89073995D01*
X107178437Y-89072899D01*
X107330967Y-89071756D01*
X107468220Y-89070561D01*
X107591041Y-89069314D01*
X107700277Y-89068012D01*
X107796772Y-89066652D01*
X107881371Y-89065234D01*
X107954921Y-89063753D01*
X108018267Y-89062210D01*
X108072255Y-89060600D01*
X108117729Y-89058922D01*
X108155536Y-89057174D01*
X108186520Y-89055354D01*
X108211529Y-89053459D01*
X108231406Y-89051488D01*
X108246997Y-89049437D01*
X108251125Y-89048780D01*
X108728083Y-88952978D01*
X109182649Y-88827434D01*
X109619304Y-88670113D01*
X110042528Y-88478978D01*
X110456803Y-88251995D01*
X110866610Y-87987127D01*
X111276430Y-87682341D01*
X111299125Y-87664327D01*
X111422796Y-87560488D01*
X111566719Y-87430756D01*
X111724194Y-87281882D01*
X111888523Y-87120619D01*
X112053007Y-86953720D01*
X112210948Y-86787937D01*
X112355648Y-86630025D01*
X112480408Y-86486735D01*
X112543444Y-86409914D01*
X112920923Y-85902960D01*
X113260595Y-85377947D01*
X113562012Y-84835911D01*
X113824727Y-84277886D01*
X114048294Y-83704907D01*
X114232264Y-83118009D01*
X114376189Y-82518227D01*
X114474882Y-81941346D01*
X114492924Y-81777100D01*
X114506865Y-81580815D01*
X114516572Y-81362598D01*
X114521913Y-81132557D01*
X114522758Y-80900798D01*
X114518973Y-80677430D01*
X114510428Y-80472558D01*
X114496991Y-80296292D01*
X114496388Y-80290346D01*
X114414464Y-79698338D01*
X114291067Y-79112496D01*
X114126818Y-78534510D01*
X113922339Y-77966072D01*
X113678252Y-77408871D01*
X113395179Y-76864599D01*
X113073743Y-76334945D01*
X112999724Y-76223201D01*
X112663994Y-75755618D01*
X112307216Y-75319299D01*
X111930913Y-74915390D01*
X111536607Y-74545033D01*
X111125821Y-74209374D01*
X110700077Y-73909556D01*
X110260899Y-73646724D01*
X109809810Y-73422021D01*
X109348331Y-73236592D01*
X108877985Y-73091581D01*
X108808212Y-73073747D01*
X108676125Y-73041714D01*
X108556791Y-73015144D01*
X108444076Y-72993422D01*
X108331845Y-72975932D01*
X108213963Y-72962060D01*
X108084296Y-72951189D01*
X107936708Y-72942705D01*
X107765065Y-72935992D01*
X107563233Y-72930435D01*
X107330375Y-72925520D01*
X107126170Y-72921544D01*
X106959446Y-72918004D01*
X106825358Y-72914532D01*
X106719061Y-72910758D01*
X106635709Y-72906314D01*
X106570458Y-72900831D01*
X106518463Y-72893941D01*
X106474878Y-72885275D01*
X106434859Y-72874464D01*
X106393561Y-72861139D01*
X106367495Y-72852245D01*
X106183840Y-72777179D01*
X106027079Y-72684282D01*
X105882622Y-72564164D01*
X105817097Y-72498044D01*
X105679665Y-72327619D01*
X105577179Y-72143248D01*
X105508789Y-71941772D01*
X105473645Y-71720030D01*
X105470898Y-71474861D01*
X105489067Y-71277688D01*
X105511452Y-71089015D01*
X105534411Y-70865490D01*
X105557398Y-70614581D01*
X105579869Y-70343754D01*
X105601277Y-70060477D01*
X105621078Y-69772217D01*
X105638724Y-69486441D01*
X105653672Y-69210616D01*
X105665375Y-68952209D01*
X105671490Y-68780971D01*
X105686043Y-68310012D01*
X101493808Y-68310012D01*
X101479183Y-68590471D01*
X101435652Y-69136347D01*
X101362527Y-69656569D01*
X101258285Y-70157170D01*
X101121406Y-70644179D01*
X100950368Y-71123630D01*
X100743651Y-71601554D01*
X100693150Y-71707262D01*
X100434522Y-72191885D01*
X100138797Y-72658841D01*
X99808492Y-73105396D01*
X99446123Y-73528814D01*
X99054206Y-73926360D01*
X98635259Y-74295298D01*
X98191797Y-74632893D01*
X97726338Y-74936410D01*
X97717771Y-74941545D01*
X97228378Y-75211790D01*
X96726847Y-75443456D01*
X96210468Y-75637477D01*
X95676531Y-75794786D01*
X95122325Y-75916317D01*
X94686713Y-75985217D01*
X94547733Y-75999928D01*
X94375977Y-76012093D01*
X94180936Y-76021524D01*
X93972103Y-76028035D01*
X93758969Y-76031438D01*
X93551025Y-76031547D01*
X93357764Y-76028175D01*
X93188676Y-76021135D01*
X93115894Y-76016159D01*
X92554287Y-75950102D01*
X92001529Y-75843454D01*
X91459778Y-75697362D01*
X90931195Y-75512977D01*
X90417939Y-75291446D01*
X89922170Y-75033920D01*
X89446047Y-74741547D01*
X88991732Y-74415477D01*
X88561383Y-74056859D01*
X88157160Y-73666842D01*
X87781224Y-73246575D01*
X87682752Y-73125429D01*
X87343991Y-72666128D01*
X87041309Y-72185502D01*
X86775449Y-71685539D01*
X86547154Y-71168228D01*
X86357170Y-70635558D01*
X86206240Y-70089519D01*
X86095107Y-69532100D01*
X86024515Y-68965289D01*
X86002402Y-68632140D01*
X85987866Y-68310012D01*
X84919138Y-68310012D01*
X84905440Y-68579887D01*
X84857212Y-69167541D01*
X84772845Y-69733935D01*
X84651622Y-70280992D01*
X84492824Y-70810637D01*
X84295733Y-71324791D01*
X84059632Y-71825380D01*
X83783802Y-72314325D01*
X83467527Y-72793551D01*
X83197974Y-73154602D01*
X83108875Y-73261905D01*
X82994354Y-73390268D01*
X82861009Y-73533060D01*
X82715440Y-73683652D01*
X82564246Y-73835414D01*
X82414028Y-73981717D01*
X82271383Y-74115931D01*
X82142913Y-74231425D01*
X82040599Y-74317295D01*
X81578157Y-74660322D01*
X81096724Y-74967621D01*
X80598836Y-75237873D01*
X80087027Y-75469757D01*
X79563831Y-75661953D01*
X79311769Y-75739043D01*
X78896392Y-75846556D01*
X78489326Y-75927784D01*
X78077997Y-75984598D01*
X77649831Y-76018868D01*
X77356063Y-76029951D01*
X76938602Y-76031102D01*
X76547766Y-76013857D01*
X76171463Y-75976939D01*
X75797602Y-75919072D01*
X75414090Y-75838981D01*
X75310176Y-75814083D01*
X74766065Y-75659178D01*
X74239801Y-75466883D01*
X73732833Y-75238799D01*
X73246607Y-74976528D01*
X72782570Y-74681672D01*
X72342168Y-74355832D01*
X71926850Y-74000609D01*
X71538061Y-73617606D01*
X71177250Y-73208424D01*
X70845862Y-72774664D01*
X70545345Y-72317928D01*
X70277146Y-71839817D01*
X70042712Y-71341934D01*
X69843490Y-70825880D01*
X69680926Y-70293255D01*
X69556468Y-69745663D01*
X69496196Y-69378929D01*
X69473203Y-69197347D01*
X69453208Y-69006482D01*
X69437218Y-68818463D01*
X69426238Y-68645417D01*
X69421276Y-68499474D01*
X69421093Y-68474054D01*
X69420875Y-68310012D01*
X66323780Y-68310012D01*
X66337507Y-68791554D01*
X66357589Y-69302964D01*
X66389087Y-69841796D01*
X66431066Y-70394980D01*
X66482590Y-70949445D01*
X66511346Y-71220429D01*
X66523293Y-71339444D01*
X66533076Y-71457930D01*
X66539658Y-71561882D01*
X66542004Y-71635085D01*
X66529170Y-71790258D01*
X66493337Y-71959332D01*
X66439130Y-72124127D01*
X66389982Y-72232491D01*
X66313496Y-72350916D01*
X66208988Y-72474560D01*
X66087574Y-72592502D01*
X65960369Y-72693825D01*
X65852340Y-72760635D01*
X65782784Y-72795964D01*
X65719746Y-72825182D01*
X65658285Y-72848966D01*
X65593459Y-72867994D01*
X65520328Y-72882943D01*
X65433950Y-72894490D01*
X65329385Y-72903314D01*
X65201691Y-72910092D01*
X65045926Y-72915501D01*
X64857151Y-72920219D01*
X64658375Y-72924366D01*
X64420209Y-72929655D01*
X64218025Y-72935629D01*
X64045475Y-72942960D01*
X63896208Y-72952319D01*
X63763873Y-72964375D01*
X63642120Y-72979799D01*
X63524600Y-72999262D01*
X63404961Y-73023435D01*
X63276855Y-73052987D01*
X63155849Y-73083017D01*
X62697112Y-73220787D01*
X62246364Y-73398537D01*
X61805323Y-73614380D01*
X61375708Y-73866430D01*
X60959239Y-74152799D01*
X60557635Y-74471602D01*
X60172614Y-74820951D01*
X59805895Y-75198960D01*
X59459198Y-75603742D01*
X59134241Y-76033411D01*
X58832743Y-76486080D01*
X58556424Y-76959862D01*
X58307002Y-77452870D01*
X58086195Y-77963219D01*
X57895724Y-78489021D01*
X57737307Y-79028390D01*
X57736647Y-79030929D01*
X57662538Y-79332211D01*
X57604055Y-79608950D01*
X57559476Y-79873620D01*
X57527083Y-80138696D01*
X57505154Y-80416654D01*
X57491970Y-80719970D01*
X57489311Y-80824705D01*
X54875336Y-80824705D01*
X54875477Y-80689822D01*
X54910245Y-80089446D01*
X54979120Y-79504342D01*
X54986425Y-79456385D01*
X55109534Y-78797062D01*
X55272623Y-78144602D01*
X55474311Y-77501458D01*
X55713216Y-76870085D01*
X55987958Y-76252940D01*
X56297155Y-75652475D01*
X56639425Y-75071147D01*
X57013388Y-74511410D01*
X57417661Y-73975718D01*
X57850864Y-73466527D01*
X58311616Y-72986292D01*
X58798534Y-72537466D01*
X58953958Y-72405605D01*
X59446772Y-72020827D01*
X59954588Y-71673289D01*
X60475941Y-71363647D01*
X61009367Y-71092558D01*
X61553401Y-70860676D01*
X62106578Y-70668658D01*
X62667434Y-70517159D01*
X63234503Y-70406835D01*
X63501585Y-70369536D01*
X63813417Y-70331429D01*
X63801959Y-70225596D01*
X63791672Y-70113119D01*
X63780971Y-69964516D01*
X63770107Y-69785988D01*
X63759332Y-69583735D01*
X63748897Y-69363960D01*
X63739052Y-69132862D01*
X63730049Y-68896645D01*
X63722138Y-68661508D01*
X63715571Y-68433654D01*
X63710598Y-68219284D01*
X63707471Y-68024598D01*
X63706439Y-67865512D01*
X63723356Y-67301820D01*
X63774963Y-66760129D01*
X63862040Y-66237103D01*
X63898310Y-66087783D01*
X66607198Y-66087783D01*
X68173446Y-66082356D01*
X69739695Y-66076929D01*
X69822391Y-65830144D01*
X70011084Y-65328500D01*
X70236960Y-64836029D01*
X70496663Y-64358590D01*
X70786838Y-63902039D01*
X71104128Y-63472233D01*
X71324311Y-63208846D01*
X71387462Y-63136574D01*
X71442786Y-63072483D01*
X71482422Y-63025716D01*
X71495022Y-63010264D01*
X71503560Y-62997575D01*
X71503501Y-62988071D01*
X71490092Y-62981451D01*
X71458581Y-62977415D01*
X71404216Y-62975663D01*
X71322246Y-62975894D01*
X71207917Y-62977808D01*
X71056479Y-62981104D01*
X71039740Y-62981484D01*
X70844245Y-62987131D01*
X70682026Y-62994760D01*
X70544046Y-63005068D01*
X70421269Y-63018748D01*
X70304656Y-63036497D01*
X70288708Y-63039275D01*
X69845056Y-63138499D01*
X69418955Y-63275639D01*
X69012054Y-63449376D01*
X68626004Y-63658394D01*
X68262454Y-63901374D01*
X67923055Y-64176999D01*
X67609455Y-64483951D01*
X67323306Y-64820911D01*
X67066256Y-65186563D01*
X66839956Y-65579588D01*
X66677535Y-65923606D01*
X66607198Y-66087783D01*
X63898310Y-66087783D01*
X63985363Y-65729403D01*
X64145712Y-65233693D01*
X64343864Y-64746634D01*
X64518481Y-64383596D01*
X64652292Y-64131146D01*
X64782007Y-63905522D01*
X64916092Y-63693120D01*
X65063009Y-63480337D01*
X65176958Y-63325291D01*
X65530773Y-62888467D01*
X65912615Y-62482838D01*
X66320914Y-62109391D01*
X66754095Y-61769114D01*
X67210587Y-61462995D01*
X67688816Y-61192021D01*
X68187209Y-60957180D01*
X68704195Y-60759460D01*
X69238200Y-60599848D01*
X69674875Y-60500599D01*
X69809157Y-60474757D01*
X69929603Y-60453149D01*
X70041919Y-60435346D01*
X70151809Y-60420916D01*
X70264981Y-60409428D01*
X70387140Y-60400451D01*
X70523992Y-60393555D01*
X70681243Y-60388308D01*
X70864599Y-60384280D01*
X71079765Y-60381040D01*
X71290369Y-60378600D01*
X71527145Y-60375775D01*
X71724083Y-60372728D01*
X71883675Y-60369365D01*
X72008416Y-60365593D01*
X72100800Y-60361317D01*
X72163320Y-60356445D01*
X72198471Y-60350883D01*
X72208747Y-60344537D01*
X72208637Y-60344155D01*
X72027958Y-59817597D01*
X71884356Y-59290241D01*
X71779157Y-58767324D01*
X71738790Y-58488679D01*
X71726220Y-58383071D01*
X71715604Y-58281253D01*
X71706990Y-58179958D01*
X71700429Y-58075924D01*
X71695970Y-57965883D01*
X71693663Y-57846572D01*
X71693569Y-57729030D01*
X74301924Y-57729030D01*
X74303279Y-57843575D01*
X74307097Y-57946260D01*
X74313366Y-58040462D01*
X74322077Y-58129559D01*
X74333219Y-58216927D01*
X74346781Y-58305945D01*
X74362754Y-58399990D01*
X74373310Y-58459239D01*
X74469799Y-58878919D01*
X74606228Y-59293251D01*
X74780201Y-59696743D01*
X74989327Y-60083900D01*
X75231211Y-60449227D01*
X75253493Y-60479485D01*
X75326694Y-60578330D01*
X75381492Y-60648185D01*
X75426103Y-60692976D01*
X75468741Y-60716629D01*
X75517621Y-60723071D01*
X75580960Y-60716228D01*
X75666972Y-60700029D01*
X75701084Y-60693422D01*
X75946284Y-60649396D01*
X76171511Y-60615666D01*
X76388808Y-60591143D01*
X76610215Y-60574740D01*
X76847775Y-60565368D01*
X77113529Y-60561940D01*
X77157292Y-60561872D01*
X77550617Y-60569063D01*
X77917074Y-60591918D01*
X78269699Y-60631970D01*
X78621532Y-60690756D01*
X78985609Y-60769810D01*
X79044469Y-60784098D01*
X79582544Y-60938023D01*
X80106099Y-61130890D01*
X80613190Y-61361219D01*
X81101873Y-61627527D01*
X81570203Y-61928336D01*
X82016235Y-62262164D01*
X82438026Y-62627530D01*
X82833631Y-63022954D01*
X83201106Y-63446955D01*
X83538505Y-63898053D01*
X83843886Y-64374767D01*
X83910270Y-64489429D01*
X84056183Y-64761087D01*
X84196332Y-65049923D01*
X84325270Y-65343540D01*
X84437550Y-65629544D01*
X84526516Y-65891613D01*
X84586792Y-66087298D01*
X85450460Y-66082113D01*
X86314128Y-66076929D01*
X86416214Y-65780596D01*
X86622332Y-65246124D01*
X86864616Y-64732618D01*
X87141679Y-64241501D01*
X87452134Y-63774199D01*
X87794594Y-63332136D01*
X88117543Y-62972549D01*
X99363942Y-62972549D01*
X99488169Y-63106572D01*
X99797515Y-63466984D01*
X100090110Y-63861049D01*
X100361985Y-64282064D01*
X100609173Y-64723326D01*
X100827705Y-65178131D01*
X101013613Y-65639775D01*
X101052247Y-65748846D01*
X101088308Y-65853374D01*
X101119817Y-65944614D01*
X101144012Y-66014572D01*
X101158130Y-66055257D01*
X101160163Y-66061054D01*
X101169722Y-66065559D01*
X101196400Y-66069557D01*
X101242268Y-66073074D01*
X101309398Y-66076137D01*
X101399861Y-66078771D01*
X101515731Y-66081001D01*
X101659078Y-66082855D01*
X101831973Y-66084358D01*
X102036490Y-66085535D01*
X102274699Y-66086413D01*
X102548673Y-66087017D01*
X102860483Y-66087374D01*
X103212201Y-66087509D01*
X103276294Y-66087512D01*
X103608117Y-66087321D01*
X103918001Y-66086762D01*
X104203906Y-66085852D01*
X104463791Y-66084610D01*
X104695617Y-66083056D01*
X104897341Y-66081207D01*
X105066925Y-66079083D01*
X105202328Y-66076702D01*
X105301508Y-66074083D01*
X105362426Y-66071245D01*
X105383042Y-66068221D01*
X105374101Y-66034593D01*
X105349672Y-65971154D01*
X105313341Y-65885886D01*
X105268693Y-65786769D01*
X105219317Y-65681785D01*
X105168797Y-65578915D01*
X105125376Y-65494846D01*
X104901320Y-65118597D01*
X104643172Y-64765381D01*
X104353707Y-64437421D01*
X104035699Y-64136942D01*
X103691924Y-63866169D01*
X103325156Y-63627326D01*
X102938169Y-63422637D01*
X102533740Y-63254328D01*
X102196091Y-63146420D01*
X102076252Y-63113616D01*
X101968893Y-63085789D01*
X101869188Y-63062492D01*
X101772313Y-63043277D01*
X101673445Y-63027699D01*
X101567758Y-63015311D01*
X101450428Y-63005665D01*
X101316633Y-62998316D01*
X101161546Y-62992816D01*
X100980343Y-62988718D01*
X100768202Y-62985577D01*
X100520297Y-62982944D01*
X100420867Y-62982031D01*
X99363942Y-62972549D01*
X88117543Y-62972549D01*
X88167670Y-62916736D01*
X88569977Y-62529425D01*
X89000126Y-62171625D01*
X89456730Y-61844763D01*
X89938402Y-61550263D01*
X90443756Y-61289549D01*
X90971402Y-61064046D01*
X91031719Y-61041085D01*
X91430634Y-60905144D01*
X91854668Y-60786828D01*
X92288855Y-60690154D01*
X92450208Y-60660478D01*
X92820880Y-60608541D01*
X93217879Y-60575200D01*
X93629450Y-60560563D01*
X94043840Y-60564735D01*
X94449293Y-60587822D01*
X94834056Y-60629929D01*
X94893308Y-60638498D01*
X95323501Y-60716315D01*
X95758141Y-60820316D01*
X96183807Y-60946785D01*
X96587073Y-61092004D01*
X96705732Y-61140371D01*
X96929006Y-61234149D01*
X96966129Y-61144394D01*
X96993719Y-61087488D01*
X97037507Y-61007958D01*
X97090345Y-60918497D01*
X97122338Y-60867033D01*
X97313329Y-60528856D01*
X97463448Y-60181357D01*
X97572499Y-59826157D01*
X97640286Y-59464879D01*
X97666613Y-59099144D01*
X97651285Y-58730575D01*
X97594107Y-58360793D01*
X97494882Y-57991420D01*
X97476039Y-57935218D01*
X97329569Y-57573289D01*
X97147685Y-57232868D01*
X96932596Y-56916056D01*
X96686511Y-56624954D01*
X96411639Y-56361663D01*
X96110187Y-56128283D01*
X95784366Y-55926915D01*
X95436385Y-55759661D01*
X95068451Y-55628621D01*
X95043093Y-55621174D01*
X94976708Y-55601831D01*
X94916858Y-55584613D01*
X94860800Y-55569383D01*
X94805791Y-55556002D01*
X94749088Y-55544331D01*
X94687948Y-55534234D01*
X94619629Y-55525572D01*
X94541386Y-55518206D01*
X94450477Y-55512000D01*
X94344159Y-55506813D01*
X94219688Y-55502510D01*
X94074322Y-55498950D01*
X93905318Y-55495997D01*
X93709933Y-55493512D01*
X93485423Y-55491357D01*
X93229045Y-55489395D01*
X92938057Y-55487486D01*
X92609715Y-55485493D01*
X92312625Y-55483710D01*
X90111292Y-55470392D01*
X89804486Y-55402263D01*
X89192198Y-55254777D01*
X88613037Y-55090997D01*
X88060129Y-54908488D01*
X87526600Y-54704813D01*
X87005575Y-54477539D01*
X86512958Y-54236018D01*
X85870854Y-53880941D01*
X85253337Y-53492133D01*
X84661514Y-53070897D01*
X84096493Y-52618532D01*
X83559379Y-52136341D01*
X83051281Y-51625624D01*
X82573305Y-51087682D01*
X82126559Y-50523818D01*
X81712149Y-49935330D01*
X81331183Y-49323522D01*
X80984768Y-48689694D01*
X80674011Y-48035147D01*
X80400019Y-47361183D01*
X80216939Y-46836429D01*
X80179391Y-46721154D01*
X80145541Y-46617987D01*
X80117904Y-46534535D01*
X80098995Y-46478404D01*
X80092278Y-46459388D01*
X80083297Y-46448875D01*
X80064828Y-46448772D01*
X80032390Y-46461456D01*
X79981500Y-46489302D01*
X79907677Y-46534688D01*
X79806437Y-46599989D01*
X79719877Y-46656831D01*
X79128969Y-47071571D01*
X78565975Y-47518004D01*
X78031575Y-47995412D01*
X77526450Y-48503077D01*
X77051281Y-49040281D01*
X76606750Y-49606304D01*
X76193536Y-50200430D01*
X75877459Y-50709929D01*
X75780616Y-50880974D01*
X75673165Y-51081815D01*
X75559827Y-51302785D01*
X75445321Y-51534219D01*
X75334366Y-51766450D01*
X75231684Y-51989812D01*
X75141993Y-52194641D01*
X75085364Y-52332110D01*
X74908781Y-52806156D01*
X74747351Y-53298556D01*
X74608102Y-53787604D01*
X74584184Y-53880519D01*
X74476086Y-54308262D01*
X74380980Y-55980429D01*
X74362260Y-56311438D01*
X74346087Y-56603569D01*
X74332448Y-56860198D01*
X74321335Y-57084703D01*
X74312737Y-57280462D01*
X74306642Y-57450851D01*
X74303041Y-57599248D01*
X74301924Y-57729030D01*
X71693569Y-57729030D01*
X71693557Y-57714725D01*
X71695702Y-57567078D01*
X71700148Y-57400364D01*
X71706945Y-57211320D01*
X71716141Y-56996680D01*
X71727788Y-56753178D01*
X71741934Y-56477551D01*
X71758630Y-56166534D01*
X71777924Y-55816860D01*
X71780015Y-55779346D01*
X71798264Y-55452332D01*
X71814504Y-55164084D01*
X71829128Y-54911102D01*
X71842530Y-54689887D01*
X71855103Y-54496940D01*
X71867241Y-54328761D01*
X71879337Y-54181851D01*
X71891784Y-54052709D01*
X71904977Y-53937838D01*
X71919307Y-53833737D01*
X71935169Y-53736908D01*
X71952956Y-53643850D01*
X71973061Y-53551064D01*
X71995878Y-53455051D01*
X72021800Y-53352312D01*
X72051221Y-53239347D01*
X72076270Y-53144096D01*
X72299979Y-52375035D01*
X72561780Y-51623587D01*
X72861219Y-50890662D01*
X73197841Y-50177171D01*
X73571190Y-49484024D01*
X73980811Y-48812132D01*
X74426250Y-48162405D01*
X74831154Y-47630179D01*
X75147623Y-47248926D01*
X75491863Y-46863054D01*
X75856146Y-46480274D01*
X76232743Y-46108298D01*
X76613925Y-45754836D01*
X76991962Y-45427599D01*
X77241958Y-45225037D01*
X77778667Y-44822464D01*
X78337849Y-44440269D01*
X78911829Y-44083145D01*
X79492929Y-43755783D01*
X80073474Y-43462878D01*
X80284460Y-43365140D01*
X80488839Y-43279146D01*
X80668665Y-43218711D01*
X80832238Y-43182702D01*
X80987863Y-43169983D01*
X81143839Y-43179419D01*
G36*
X81143839Y-43179419D02*
G01*
X81308469Y-43209875D01*
X81348292Y-43219698D01*
X81546431Y-43291586D01*
X81732629Y-43399784D01*
X81901021Y-43538709D01*
X82045743Y-43702776D01*
X82160933Y-43886402D01*
X82234450Y-44063596D01*
X82249059Y-44119300D01*
X82268499Y-44207592D01*
X82290908Y-44319256D01*
X82314422Y-44445079D01*
X82332894Y-44550429D01*
X82464249Y-45200225D01*
X82634703Y-45833797D01*
X82844233Y-46451095D01*
X83092815Y-47052068D01*
X83380425Y-47636665D01*
X83707042Y-48204835D01*
X84072640Y-48756529D01*
X84477197Y-49291694D01*
X84563488Y-49397596D01*
X84658290Y-49507721D01*
X84777992Y-49639312D01*
X84916250Y-49785994D01*
X85066719Y-49941390D01*
X85223057Y-50099124D01*
X85378918Y-50252821D01*
X85527959Y-50396103D01*
X85663835Y-50522596D01*
X85780203Y-50625923D01*
X85814458Y-50654861D01*
X86343579Y-51067720D01*
X86890892Y-51442662D01*
X87455787Y-51779386D01*
X88037650Y-52077590D01*
X88635870Y-52336974D01*
X89249834Y-52557235D01*
X89878930Y-52738073D01*
X90201135Y-52814091D01*
X90499814Y-52879512D01*
X92475136Y-52879716D01*
X92827913Y-52879869D01*
X93141044Y-52880277D01*
X93417217Y-52880976D01*
X93659119Y-52882003D01*
X93869437Y-52883396D01*
X94050859Y-52885192D01*
X94206072Y-52887427D01*
X94337764Y-52890140D01*
X94448621Y-52893366D01*
X94541330Y-52897143D01*
X94618581Y-52901509D01*
X94683058Y-52906499D01*
X94725625Y-52910784D01*
X95239752Y-52989184D01*
X95739908Y-53107332D01*
X96225196Y-53264902D01*
X96694723Y-53461567D01*
X97147593Y-53697004D01*
X97519625Y-53927938D01*
X97684027Y-54040932D01*
X97831548Y-54149302D01*
X97970625Y-54260128D01*
X98109696Y-54380491D01*
X98257200Y-54517471D01*
X98421575Y-54678147D01*
X98462543Y-54719087D01*
X98752324Y-55026006D01*
X99007630Y-55332804D01*
X99235247Y-55648826D01*
X99441961Y-55983419D01*
X99614531Y-56305747D01*
X99823917Y-56768205D01*
X99993928Y-57241868D01*
X100124235Y-57724241D01*
X100214507Y-58212828D01*
X100264413Y-58705136D01*
X100273624Y-59198671D01*
X100241809Y-59690937D01*
X100168638Y-60179441D01*
X100143667Y-60301513D01*
X100129300Y-60368096D01*
X100888212Y-60378681D01*
X101141322Y-60383017D01*
X101355510Y-60388493D01*
X101534178Y-60395262D01*
X101680727Y-60403475D01*
X101798558Y-60413287D01*
X101879958Y-60423183D01*
X102451119Y-60525937D01*
X103000430Y-60664810D01*
X103528817Y-60840237D01*
X104037202Y-61052649D01*
X104526511Y-61302482D01*
X104997666Y-61590167D01*
X105451592Y-61916139D01*
X105889214Y-62280830D01*
X105941962Y-62328385D01*
X106148242Y-62527638D01*
X106363163Y-62756644D01*
X106579027Y-63006104D01*
X106788135Y-63266718D01*
X106982790Y-63529188D01*
X107155293Y-63784213D01*
X107181796Y-63826053D01*
X107273372Y-63980009D01*
X107373941Y-64162467D01*
X107478062Y-64362472D01*
X107580293Y-64569067D01*
X107675195Y-64771299D01*
X107757325Y-64958210D01*
X107813254Y-65097452D01*
X107985479Y-65603383D01*
X108119561Y-66111103D01*
X108216488Y-66626142D01*
X108277248Y-67154026D01*
X108302828Y-67700284D01*
X108303841Y-67842128D01*
X108302613Y-68007674D01*
X108299263Y-68200431D01*
X108294050Y-68414033D01*
X108287235Y-68642117D01*
X108279077Y-68878319D01*
X108269836Y-69116274D01*
X108259771Y-69349620D01*
X108249142Y-69571991D01*
X108238209Y-69777025D01*
X108227231Y-69958357D01*
X108216469Y-70109622D01*
X108206914Y-70217419D01*
X108194721Y-70336242D01*
X108371090Y-70351291D01*
X108622737Y-70380240D01*
X108901802Y-70425532D01*
X109197710Y-70484834D01*
X109499886Y-70555817D01*
X109797756Y-70636149D01*
X110080744Y-70723501D01*
X110120946Y-70736960D01*
X110673684Y-70946163D01*
X111213915Y-71194544D01*
X111740178Y-71480411D01*
X112251008Y-71802075D01*
X112744943Y-72157846D01*
X113220519Y-72546033D01*
X113676275Y-72964947D01*
X114110745Y-73412896D01*
X114522468Y-73888190D01*
X114909980Y-74389140D01*
X115271818Y-74914055D01*
X115606520Y-75461245D01*
X115912621Y-76029020D01*
X116188659Y-76615688D01*
X116433171Y-77219561D01*
X116644693Y-77838947D01*
X116821763Y-78472157D01*
X116823862Y-78480596D01*
X116966146Y-79138522D01*
X117066119Y-79795989D01*
X117123805Y-80452803D01*
X117139226Y-81108772D01*
X117112404Y-81763705D01*
X117043363Y-82417408D01*
X116932124Y-83069690D01*
X116778710Y-83720359D01*
X116583144Y-84369222D01*
X116345448Y-85016086D01*
X116065644Y-85660761D01*
X115956254Y-85888929D01*
X115644124Y-86479674D01*
X115298101Y-87051686D01*
X114920489Y-87602163D01*
X114513591Y-88128308D01*
X114079709Y-88627319D01*
X113621148Y-89096397D01*
X113140210Y-89532743D01*
X112639199Y-89933556D01*
X112612437Y-89953526D01*
X112102372Y-90307990D01*
X111578667Y-90623244D01*
X111042245Y-90898933D01*
X110494030Y-91134701D01*
X109934946Y-91330193D01*
X109365915Y-91485055D01*
X108787863Y-91598931D01*
X108201713Y-91671466D01*
X108126343Y-91677733D01*
X108085868Y-91679224D01*
X108003099Y-91680661D01*
X107878073Y-91682046D01*
X107710829Y-91683377D01*
X107501406Y-91684654D01*
X107249842Y-91685878D01*
X106956176Y-91687049D01*
X106620446Y-91688165D01*
X106242690Y-91689229D01*
X105822947Y-91690238D01*
X105361256Y-91691194D01*
X104857654Y-91692096D01*
X104312181Y-91692945D01*
X103724875Y-91693739D01*
X103095775Y-91694480D01*
X102424918Y-91695166D01*
X101712344Y-91695799D01*
X100958090Y-91696377D01*
X100162196Y-91696902D01*
X99324700Y-91697372D01*
X98445639Y-91697788D01*
X97525054Y-91698150D01*
X96562982Y-91698457D01*
X95559461Y-91698710D01*
X94514531Y-91698909D01*
X93428229Y-91699053D01*
X92300595Y-91699143D01*
X91131666Y-91699178D01*
X90957449Y-91699179D01*
X74061503Y-91699179D01*
X74050559Y-92625221D01*
X74047306Y-92874388D01*
X74043623Y-93086392D01*
X74039074Y-93266403D01*
X74033219Y-93419590D01*
X74025623Y-93551123D01*
X74015846Y-93666173D01*
X74003451Y-93769909D01*
X73988000Y-93867500D01*
X73969055Y-93964118D01*
X73946180Y-94064932D01*
X73919515Y-94172825D01*
X73799693Y-94560780D01*
X73642158Y-94932009D01*
X73449016Y-95284151D01*
X73222377Y-95614843D01*
X72964348Y-95921722D01*
X72677038Y-96202427D01*
X72362555Y-96454594D01*
X72023007Y-96675862D01*
X71660502Y-96863867D01*
X71432279Y-96959945D01*
X71243105Y-97025431D01*
X71028964Y-97086901D01*
X70807217Y-97139712D01*
X70637958Y-97172280D01*
X70525522Y-97186771D01*
X70381927Y-97198517D01*
X70218274Y-97207232D01*
X70045667Y-97212632D01*
X69875207Y-97214428D01*
X69717998Y-97212336D01*
X69585142Y-97206069D01*
X69527852Y-97200895D01*
X69131186Y-97134834D01*
X68738146Y-97026606D01*
X68348709Y-96876206D01*
X68161458Y-96788239D01*
X67799257Y-96585162D01*
X67464504Y-96350570D01*
X67158484Y-96086231D01*
X66882485Y-95793910D01*
X66637791Y-95475375D01*
X66425689Y-95132394D01*
X66247464Y-94766731D01*
X66104403Y-94380155D01*
X65997791Y-93974433D01*
X65957825Y-93760442D01*
X65948652Y-93693161D01*
X65940795Y-93610785D01*
X65934096Y-93509316D01*
X65928398Y-93384753D01*
X65923541Y-93233100D01*
X65919369Y-93050355D01*
X65915723Y-92832520D01*
X65913043Y-92627320D01*
X65902118Y-91703377D01*
X64851622Y-91692991D01*
X64587710Y-91690118D01*
X64360948Y-91686901D01*
X64166151Y-91683012D01*
X63998133Y-91678124D01*
X63851712Y-91671910D01*
X63721702Y-91664043D01*
X63602919Y-91654196D01*
X63490179Y-91642041D01*
X63378298Y-91627252D01*
X63262091Y-91609500D01*
X63136373Y-91588459D01*
X63102625Y-91582608D01*
X62539052Y-91463055D01*
X61981420Y-91302295D01*
X61431470Y-91101245D01*
X60890944Y-90860822D01*
X60361582Y-90581943D01*
X59845127Y-90265524D01*
X59343320Y-89912484D01*
X58857901Y-89523739D01*
X58392163Y-89101699D01*
X57926915Y-88625481D01*
X57488727Y-88119350D01*
X57079080Y-87586175D01*
X56699455Y-87028820D01*
X56351335Y-86450154D01*
X56036201Y-85853043D01*
X55755534Y-85240353D01*
X55510817Y-84614953D01*
X55303530Y-83979708D01*
X55135155Y-83337485D01*
X55007175Y-82691152D01*
X54976120Y-82491679D01*
X54908384Y-81900029D01*
X54874846Y-81296380D01*
X54875336Y-80824705D01*
X57489311Y-80824705D01*
X57490547Y-81299478D01*
X57516528Y-81750125D01*
X57568748Y-82187895D01*
X57648700Y-82624037D01*
X57757876Y-83069801D01*
X57812927Y-83263013D01*
X57988480Y-83794960D01*
X58195079Y-84312063D01*
X58430962Y-84812499D01*
X58694363Y-85294448D01*
X58983521Y-85756088D01*
X59296671Y-86195598D01*
X59632050Y-86611156D01*
X59987895Y-87000941D01*
X60362441Y-87363132D01*
X60753925Y-87695908D01*
X61160585Y-87997447D01*
X61580655Y-88265927D01*
X62012373Y-88499528D01*
X62453975Y-88696428D01*
X62903697Y-88854806D01*
X63336819Y-88967919D01*
X63426937Y-88987355D01*
X63508712Y-89004429D01*
X63585464Y-89019315D01*
X63660511Y-89032189D01*
X63737173Y-89043225D01*
X63818768Y-89052601D01*
X63908615Y-89060491D01*
X64010033Y-89067069D01*
X64126341Y-89072513D01*
X64260858Y-89076997D01*
X64416902Y-89080697D01*
X64597793Y-89083787D01*
X64806850Y-89086444D01*
X65047391Y-89088843D01*
X65322735Y-89091159D01*
X65636201Y-89093568D01*
X65727292Y-89094253D01*
X66040796Y-89096627D01*
X66314864Y-89098788D01*
X66552393Y-89100827D01*
X66756279Y-89102835D01*
X66929417Y-89104904D01*
X67074705Y-89107124D01*
X67195039Y-89109587D01*
X67293314Y-89112384D01*
X67372428Y-89115607D01*
X67435276Y-89119346D01*
X67484755Y-89123693D01*
X67523762Y-89128739D01*
X67555191Y-89134575D01*
X67581941Y-89141292D01*
X67606907Y-89148982D01*
X67621708Y-89153923D01*
X67834707Y-89247650D01*
X68026461Y-89376026D01*
X68193297Y-89535185D01*
X68331541Y-89721264D01*
X68437519Y-89930396D01*
X68482391Y-90059493D01*
X68489304Y-90086087D01*
X68495371Y-90117624D01*
X68500673Y-90157071D01*
X68505293Y-90207398D01*
X68509311Y-90271575D01*
X68512810Y-90352569D01*
X68515870Y-90453350D01*
X68518575Y-90576888D01*
X68521004Y-90726151D01*
X68523240Y-90904107D01*
X68525364Y-91113727D01*
X68527458Y-91357979D01*
X68529604Y-91639832D01*
X68530935Y-91826179D01*
X68542458Y-93466596D01*
X68609950Y-93641711D01*
X68719436Y-93870426D01*
X68860461Y-94074247D01*
X69029612Y-94250299D01*
X69223476Y-94395707D01*
X69438639Y-94507597D01*
X69671687Y-94583094D01*
X69746057Y-94598484D01*
X69884681Y-94611957D01*
X70044962Y-94609193D01*
X70210029Y-94591497D01*
X70363010Y-94560170D01*
X70406771Y-94547444D01*
X70635472Y-94453236D01*
X70843103Y-94323787D01*
X71026329Y-94162290D01*
X71181818Y-93971944D01*
X71306235Y-93755942D01*
X71356742Y-93636688D01*
X71420666Y-93466596D01*
X71432544Y-91826179D01*
X71434826Y-91520474D01*
X71437003Y-91254135D01*
X71439155Y-91024195D01*
X71441364Y-90827687D01*
X71443712Y-90661644D01*
X71446282Y-90523098D01*
X71449155Y-90409083D01*
X71452414Y-90316631D01*
X71456139Y-90242776D01*
X71460413Y-90184551D01*
X71465318Y-90138988D01*
X71470935Y-90103121D01*
X71477348Y-90073982D01*
X71481317Y-90059493D01*
X71567143Y-89838392D01*
X71687630Y-89638239D01*
X71839184Y-89462819D01*
X72018212Y-89315916D01*
X72221121Y-89201314D01*
X72341875Y-89153327D01*
X72479458Y-89106262D01*
X90259458Y-89095160D01*
X91304951Y-89094503D01*
X92308955Y-89093864D01*
X93272318Y-89093239D01*
X94195883Y-89092626D01*
X95080497Y-89092024D01*
X95927006Y-89091431D01*
X96736254Y-89090843D01*
X97509087Y-89090260D01*
X98246351Y-89089678D01*
X98948891Y-89089095D01*
X99617553Y-89088510D01*
X100253183Y-89087920D01*
X100856625Y-89087324D01*
X101428725Y-89086718D01*
X101970329Y-89086100D01*
X102482282Y-89085469D01*
X102965430Y-89084823D01*
X103420618Y-89084158D01*
X103848692Y-89083474D01*
X104250498Y-89082767D01*
X104626880Y-89082036D01*
X104978684Y-89081278D01*
X105306757Y-89080491D01*
X105611942Y-89079673D01*
X105895087Y-89078822D01*
X106157035Y-89077936D01*
X106398634Y-89077013D01*
X106620728Y-89076049D01*
X106824163Y-89075044D01*
X107009784Y-89073995D01*
X107178437Y-89072899D01*
X107330967Y-89071756D01*
X107468220Y-89070561D01*
X107591041Y-89069314D01*
X107700277Y-89068012D01*
X107796772Y-89066652D01*
X107881371Y-89065234D01*
X107954921Y-89063753D01*
X108018267Y-89062210D01*
X108072255Y-89060600D01*
X108117729Y-89058922D01*
X108155536Y-89057174D01*
X108186520Y-89055354D01*
X108211529Y-89053459D01*
X108231406Y-89051488D01*
X108246997Y-89049437D01*
X108251125Y-89048780D01*
X108728083Y-88952978D01*
X109182649Y-88827434D01*
X109619304Y-88670113D01*
X110042528Y-88478978D01*
X110456803Y-88251995D01*
X110866610Y-87987127D01*
X111276430Y-87682341D01*
X111299125Y-87664327D01*
X111422796Y-87560488D01*
X111566719Y-87430756D01*
X111724194Y-87281882D01*
X111888523Y-87120619D01*
X112053007Y-86953720D01*
X112210948Y-86787937D01*
X112355648Y-86630025D01*
X112480408Y-86486735D01*
X112543444Y-86409914D01*
X112920923Y-85902960D01*
X113260595Y-85377947D01*
X113562012Y-84835911D01*
X113824727Y-84277886D01*
X114048294Y-83704907D01*
X114232264Y-83118009D01*
X114376189Y-82518227D01*
X114474882Y-81941346D01*
X114492924Y-81777100D01*
X114506865Y-81580815D01*
X114516572Y-81362598D01*
X114521913Y-81132557D01*
X114522758Y-80900798D01*
X114518973Y-80677430D01*
X114510428Y-80472558D01*
X114496991Y-80296292D01*
X114496388Y-80290346D01*
X114414464Y-79698338D01*
X114291067Y-79112496D01*
X114126818Y-78534510D01*
X113922339Y-77966072D01*
X113678252Y-77408871D01*
X113395179Y-76864599D01*
X113073743Y-76334945D01*
X112999724Y-76223201D01*
X112663994Y-75755618D01*
X112307216Y-75319299D01*
X111930913Y-74915390D01*
X111536607Y-74545033D01*
X111125821Y-74209374D01*
X110700077Y-73909556D01*
X110260899Y-73646724D01*
X109809810Y-73422021D01*
X109348331Y-73236592D01*
X108877985Y-73091581D01*
X108808212Y-73073747D01*
X108676125Y-73041714D01*
X108556791Y-73015144D01*
X108444076Y-72993422D01*
X108331845Y-72975932D01*
X108213963Y-72962060D01*
X108084296Y-72951189D01*
X107936708Y-72942705D01*
X107765065Y-72935992D01*
X107563233Y-72930435D01*
X107330375Y-72925520D01*
X107126170Y-72921544D01*
X106959446Y-72918004D01*
X106825358Y-72914532D01*
X106719061Y-72910758D01*
X106635709Y-72906314D01*
X106570458Y-72900831D01*
X106518463Y-72893941D01*
X106474878Y-72885275D01*
X106434859Y-72874464D01*
X106393561Y-72861139D01*
X106367495Y-72852245D01*
X106183840Y-72777179D01*
X106027079Y-72684282D01*
X105882622Y-72564164D01*
X105817097Y-72498044D01*
X105679665Y-72327619D01*
X105577179Y-72143248D01*
X105508789Y-71941772D01*
X105473645Y-71720030D01*
X105470898Y-71474861D01*
X105489067Y-71277688D01*
X105511452Y-71089015D01*
X105534411Y-70865490D01*
X105557398Y-70614581D01*
X105579869Y-70343754D01*
X105601277Y-70060477D01*
X105621078Y-69772217D01*
X105638724Y-69486441D01*
X105653672Y-69210616D01*
X105665375Y-68952209D01*
X105671490Y-68780971D01*
X105686043Y-68310012D01*
X101493808Y-68310012D01*
X101479183Y-68590471D01*
X101435652Y-69136347D01*
X101362527Y-69656569D01*
X101258285Y-70157170D01*
X101121406Y-70644179D01*
X100950368Y-71123630D01*
X100743651Y-71601554D01*
X100693150Y-71707262D01*
X100434522Y-72191885D01*
X100138797Y-72658841D01*
X99808492Y-73105396D01*
X99446123Y-73528814D01*
X99054206Y-73926360D01*
X98635259Y-74295298D01*
X98191797Y-74632893D01*
X97726338Y-74936410D01*
X97717771Y-74941545D01*
X97228378Y-75211790D01*
X96726847Y-75443456D01*
X96210468Y-75637477D01*
X95676531Y-75794786D01*
X95122325Y-75916317D01*
X94686713Y-75985217D01*
X94547733Y-75999928D01*
X94375977Y-76012093D01*
X94180936Y-76021524D01*
X93972103Y-76028035D01*
X93758969Y-76031438D01*
X93551025Y-76031547D01*
X93357764Y-76028175D01*
X93188676Y-76021135D01*
X93115894Y-76016159D01*
X92554287Y-75950102D01*
X92001529Y-75843454D01*
X91459778Y-75697362D01*
X90931195Y-75512977D01*
X90417939Y-75291446D01*
X89922170Y-75033920D01*
X89446047Y-74741547D01*
X88991732Y-74415477D01*
X88561383Y-74056859D01*
X88157160Y-73666842D01*
X87781224Y-73246575D01*
X87682752Y-73125429D01*
X87343991Y-72666128D01*
X87041309Y-72185502D01*
X86775449Y-71685539D01*
X86547154Y-71168228D01*
X86357170Y-70635558D01*
X86206240Y-70089519D01*
X86095107Y-69532100D01*
X86024515Y-68965289D01*
X86002402Y-68632140D01*
X85987866Y-68310012D01*
X84919138Y-68310012D01*
X84905440Y-68579887D01*
X84857212Y-69167541D01*
X84772845Y-69733935D01*
X84651622Y-70280992D01*
X84492824Y-70810637D01*
X84295733Y-71324791D01*
X84059632Y-71825380D01*
X83783802Y-72314325D01*
X83467527Y-72793551D01*
X83197974Y-73154602D01*
X83108875Y-73261905D01*
X82994354Y-73390268D01*
X82861009Y-73533060D01*
X82715440Y-73683652D01*
X82564246Y-73835414D01*
X82414028Y-73981717D01*
X82271383Y-74115931D01*
X82142913Y-74231425D01*
X82040599Y-74317295D01*
X81578157Y-74660322D01*
X81096724Y-74967621D01*
X80598836Y-75237873D01*
X80087027Y-75469757D01*
X79563831Y-75661953D01*
X79311769Y-75739043D01*
X78896392Y-75846556D01*
X78489326Y-75927784D01*
X78077997Y-75984598D01*
X77649831Y-76018868D01*
X77356063Y-76029951D01*
X76938602Y-76031102D01*
X76547766Y-76013857D01*
X76171463Y-75976939D01*
X75797602Y-75919072D01*
X75414090Y-75838981D01*
X75310176Y-75814083D01*
X74766065Y-75659178D01*
X74239801Y-75466883D01*
X73732833Y-75238799D01*
X73246607Y-74976528D01*
X72782570Y-74681672D01*
X72342168Y-74355832D01*
X71926850Y-74000609D01*
X71538061Y-73617606D01*
X71177250Y-73208424D01*
X70845862Y-72774664D01*
X70545345Y-72317928D01*
X70277146Y-71839817D01*
X70042712Y-71341934D01*
X69843490Y-70825880D01*
X69680926Y-70293255D01*
X69556468Y-69745663D01*
X69496196Y-69378929D01*
X69473203Y-69197347D01*
X69453208Y-69006482D01*
X69437218Y-68818463D01*
X69426238Y-68645417D01*
X69421276Y-68499474D01*
X69421093Y-68474054D01*
X69420875Y-68310012D01*
X66323780Y-68310012D01*
X66337507Y-68791554D01*
X66357589Y-69302964D01*
X66389087Y-69841796D01*
X66431066Y-70394980D01*
X66482590Y-70949445D01*
X66511346Y-71220429D01*
X66523293Y-71339444D01*
X66533076Y-71457930D01*
X66539658Y-71561882D01*
X66542004Y-71635085D01*
X66529170Y-71790258D01*
X66493337Y-71959332D01*
X66439130Y-72124127D01*
X66389982Y-72232491D01*
X66313496Y-72350916D01*
X66208988Y-72474560D01*
X66087574Y-72592502D01*
X65960369Y-72693825D01*
X65852340Y-72760635D01*
X65782784Y-72795964D01*
X65719746Y-72825182D01*
X65658285Y-72848966D01*
X65593459Y-72867994D01*
X65520328Y-72882943D01*
X65433950Y-72894490D01*
X65329385Y-72903314D01*
X65201691Y-72910092D01*
X65045926Y-72915501D01*
X64857151Y-72920219D01*
X64658375Y-72924366D01*
X64420209Y-72929655D01*
X64218025Y-72935629D01*
X64045475Y-72942960D01*
X63896208Y-72952319D01*
X63763873Y-72964375D01*
X63642120Y-72979799D01*
X63524600Y-72999262D01*
X63404961Y-73023435D01*
X63276855Y-73052987D01*
X63155849Y-73083017D01*
X62697112Y-73220787D01*
X62246364Y-73398537D01*
X61805323Y-73614380D01*
X61375708Y-73866430D01*
X60959239Y-74152799D01*
X60557635Y-74471602D01*
X60172614Y-74820951D01*
X59805895Y-75198960D01*
X59459198Y-75603742D01*
X59134241Y-76033411D01*
X58832743Y-76486080D01*
X58556424Y-76959862D01*
X58307002Y-77452870D01*
X58086195Y-77963219D01*
X57895724Y-78489021D01*
X57737307Y-79028390D01*
X57736647Y-79030929D01*
X57662538Y-79332211D01*
X57604055Y-79608950D01*
X57559476Y-79873620D01*
X57527083Y-80138696D01*
X57505154Y-80416654D01*
X57491970Y-80719970D01*
X57489311Y-80824705D01*
X54875336Y-80824705D01*
X54875477Y-80689822D01*
X54910245Y-80089446D01*
X54979120Y-79504342D01*
X54986425Y-79456385D01*
X55109534Y-78797062D01*
X55272623Y-78144602D01*
X55474311Y-77501458D01*
X55713216Y-76870085D01*
X55987958Y-76252940D01*
X56297155Y-75652475D01*
X56639425Y-75071147D01*
X57013388Y-74511410D01*
X57417661Y-73975718D01*
X57850864Y-73466527D01*
X58311616Y-72986292D01*
X58798534Y-72537466D01*
X58953958Y-72405605D01*
X59446772Y-72020827D01*
X59954588Y-71673289D01*
X60475941Y-71363647D01*
X61009367Y-71092558D01*
X61553401Y-70860676D01*
X62106578Y-70668658D01*
X62667434Y-70517159D01*
X63234503Y-70406835D01*
X63501585Y-70369536D01*
X63813417Y-70331429D01*
X63801959Y-70225596D01*
X63791672Y-70113119D01*
X63780971Y-69964516D01*
X63770107Y-69785988D01*
X63759332Y-69583735D01*
X63748897Y-69363960D01*
X63739052Y-69132862D01*
X63730049Y-68896645D01*
X63722138Y-68661508D01*
X63715571Y-68433654D01*
X63710598Y-68219284D01*
X63707471Y-68024598D01*
X63706439Y-67865512D01*
X63723356Y-67301820D01*
X63774963Y-66760129D01*
X63862040Y-66237103D01*
X63898310Y-66087783D01*
X66607198Y-66087783D01*
X68173446Y-66082356D01*
X69739695Y-66076929D01*
X69822391Y-65830144D01*
X70011084Y-65328500D01*
X70236960Y-64836029D01*
X70496663Y-64358590D01*
X70786838Y-63902039D01*
X71104128Y-63472233D01*
X71324311Y-63208846D01*
X71387462Y-63136574D01*
X71442786Y-63072483D01*
X71482422Y-63025716D01*
X71495022Y-63010264D01*
X71503560Y-62997575D01*
X71503501Y-62988071D01*
X71490092Y-62981451D01*
X71458581Y-62977415D01*
X71404216Y-62975663D01*
X71322246Y-62975894D01*
X71207917Y-62977808D01*
X71056479Y-62981104D01*
X71039740Y-62981484D01*
X70844245Y-62987131D01*
X70682026Y-62994760D01*
X70544046Y-63005068D01*
X70421269Y-63018748D01*
X70304656Y-63036497D01*
X70288708Y-63039275D01*
X69845056Y-63138499D01*
X69418955Y-63275639D01*
X69012054Y-63449376D01*
X68626004Y-63658394D01*
X68262454Y-63901374D01*
X67923055Y-64176999D01*
X67609455Y-64483951D01*
X67323306Y-64820911D01*
X67066256Y-65186563D01*
X66839956Y-65579588D01*
X66677535Y-65923606D01*
X66607198Y-66087783D01*
X63898310Y-66087783D01*
X63985363Y-65729403D01*
X64145712Y-65233693D01*
X64343864Y-64746634D01*
X64518481Y-64383596D01*
X64652292Y-64131146D01*
X64782007Y-63905522D01*
X64916092Y-63693120D01*
X65063009Y-63480337D01*
X65176958Y-63325291D01*
X65530773Y-62888467D01*
X65912615Y-62482838D01*
X66320914Y-62109391D01*
X66754095Y-61769114D01*
X67210587Y-61462995D01*
X67688816Y-61192021D01*
X68187209Y-60957180D01*
X68704195Y-60759460D01*
X69238200Y-60599848D01*
X69674875Y-60500599D01*
X69809157Y-60474757D01*
X69929603Y-60453149D01*
X70041919Y-60435346D01*
X70151809Y-60420916D01*
X70264981Y-60409428D01*
X70387140Y-60400451D01*
X70523992Y-60393555D01*
X70681243Y-60388308D01*
X70864599Y-60384280D01*
X71079765Y-60381040D01*
X71290369Y-60378600D01*
X71527145Y-60375775D01*
X71724083Y-60372728D01*
X71883675Y-60369365D01*
X72008416Y-60365593D01*
X72100800Y-60361317D01*
X72163320Y-60356445D01*
X72198471Y-60350883D01*
X72208747Y-60344537D01*
X72208637Y-60344155D01*
X72027958Y-59817597D01*
X71884356Y-59290241D01*
X71779157Y-58767324D01*
X71738790Y-58488679D01*
X71726220Y-58383071D01*
X71715604Y-58281253D01*
X71706990Y-58179958D01*
X71700429Y-58075924D01*
X71695970Y-57965883D01*
X71693663Y-57846572D01*
X71693569Y-57729030D01*
X74301924Y-57729030D01*
X74303279Y-57843575D01*
X74307097Y-57946260D01*
X74313366Y-58040462D01*
X74322077Y-58129559D01*
X74333219Y-58216927D01*
X74346781Y-58305945D01*
X74362754Y-58399990D01*
X74373310Y-58459239D01*
X74469799Y-58878919D01*
X74606228Y-59293251D01*
X74780201Y-59696743D01*
X74989327Y-60083900D01*
X75231211Y-60449227D01*
X75253493Y-60479485D01*
X75326694Y-60578330D01*
X75381492Y-60648185D01*
X75426103Y-60692976D01*
X75468741Y-60716629D01*
X75517621Y-60723071D01*
X75580960Y-60716228D01*
X75666972Y-60700029D01*
X75701084Y-60693422D01*
X75946284Y-60649396D01*
X76171511Y-60615666D01*
X76388808Y-60591143D01*
X76610215Y-60574740D01*
X76847775Y-60565368D01*
X77113529Y-60561940D01*
X77157292Y-60561872D01*
X77550617Y-60569063D01*
X77917074Y-60591918D01*
X78269699Y-60631970D01*
X78621532Y-60690756D01*
X78985609Y-60769810D01*
X79044469Y-60784098D01*
X79582544Y-60938023D01*
X80106099Y-61130890D01*
X80613190Y-61361219D01*
X81101873Y-61627527D01*
X81570203Y-61928336D01*
X82016235Y-62262164D01*
X82438026Y-62627530D01*
X82833631Y-63022954D01*
X83201106Y-63446955D01*
X83538505Y-63898053D01*
X83843886Y-64374767D01*
X83910270Y-64489429D01*
X84056183Y-64761087D01*
X84196332Y-65049923D01*
X84325270Y-65343540D01*
X84437550Y-65629544D01*
X84526516Y-65891613D01*
X84586792Y-66087298D01*
X85450460Y-66082113D01*
X86314128Y-66076929D01*
X86416214Y-65780596D01*
X86622332Y-65246124D01*
X86864616Y-64732618D01*
X87141679Y-64241501D01*
X87452134Y-63774199D01*
X87794594Y-63332136D01*
X88117543Y-62972549D01*
X99363942Y-62972549D01*
X99488169Y-63106572D01*
X99797515Y-63466984D01*
X100090110Y-63861049D01*
X100361985Y-64282064D01*
X100609173Y-64723326D01*
X100827705Y-65178131D01*
X101013613Y-65639775D01*
X101052247Y-65748846D01*
X101088308Y-65853374D01*
X101119817Y-65944614D01*
X101144012Y-66014572D01*
X101158130Y-66055257D01*
X101160163Y-66061054D01*
X101169722Y-66065559D01*
X101196400Y-66069557D01*
X101242268Y-66073074D01*
X101309398Y-66076137D01*
X101399861Y-66078771D01*
X101515731Y-66081001D01*
X101659078Y-66082855D01*
X101831973Y-66084358D01*
X102036490Y-66085535D01*
X102274699Y-66086413D01*
X102548673Y-66087017D01*
X102860483Y-66087374D01*
X103212201Y-66087509D01*
X103276294Y-66087512D01*
X103608117Y-66087321D01*
X103918001Y-66086762D01*
X104203906Y-66085852D01*
X104463791Y-66084610D01*
X104695617Y-66083056D01*
X104897341Y-66081207D01*
X105066925Y-66079083D01*
X105202328Y-66076702D01*
X105301508Y-66074083D01*
X105362426Y-66071245D01*
X105383042Y-66068221D01*
X105374101Y-66034593D01*
X105349672Y-65971154D01*
X105313341Y-65885886D01*
X105268693Y-65786769D01*
X105219317Y-65681785D01*
X105168797Y-65578915D01*
X105125376Y-65494846D01*
X104901320Y-65118597D01*
X104643172Y-64765381D01*
X104353707Y-64437421D01*
X104035699Y-64136942D01*
X103691924Y-63866169D01*
X103325156Y-63627326D01*
X102938169Y-63422637D01*
X102533740Y-63254328D01*
X102196091Y-63146420D01*
X102076252Y-63113616D01*
X101968893Y-63085789D01*
X101869188Y-63062492D01*
X101772313Y-63043277D01*
X101673445Y-63027699D01*
X101567758Y-63015311D01*
X101450428Y-63005665D01*
X101316633Y-62998316D01*
X101161546Y-62992816D01*
X100980343Y-62988718D01*
X100768202Y-62985577D01*
X100520297Y-62982944D01*
X100420867Y-62982031D01*
X99363942Y-62972549D01*
X88117543Y-62972549D01*
X88167670Y-62916736D01*
X88569977Y-62529425D01*
X89000126Y-62171625D01*
X89456730Y-61844763D01*
X89938402Y-61550263D01*
X90443756Y-61289549D01*
X90971402Y-61064046D01*
X91031719Y-61041085D01*
X91430634Y-60905144D01*
X91854668Y-60786828D01*
X92288855Y-60690154D01*
X92450208Y-60660478D01*
X92820880Y-60608541D01*
X93217879Y-60575200D01*
X93629450Y-60560563D01*
X94043840Y-60564735D01*
X94449293Y-60587822D01*
X94834056Y-60629929D01*
X94893308Y-60638498D01*
X95323501Y-60716315D01*
X95758141Y-60820316D01*
X96183807Y-60946785D01*
X96587073Y-61092004D01*
X96705732Y-61140371D01*
X96929006Y-61234149D01*
X96966129Y-61144394D01*
X96993719Y-61087488D01*
X97037507Y-61007958D01*
X97090345Y-60918497D01*
X97122338Y-60867033D01*
X97313329Y-60528856D01*
X97463448Y-60181357D01*
X97572499Y-59826157D01*
X97640286Y-59464879D01*
X97666613Y-59099144D01*
X97651285Y-58730575D01*
X97594107Y-58360793D01*
X97494882Y-57991420D01*
X97476039Y-57935218D01*
X97329569Y-57573289D01*
X97147685Y-57232868D01*
X96932596Y-56916056D01*
X96686511Y-56624954D01*
X96411639Y-56361663D01*
X96110187Y-56128283D01*
X95784366Y-55926915D01*
X95436385Y-55759661D01*
X95068451Y-55628621D01*
X95043093Y-55621174D01*
X94976708Y-55601831D01*
X94916858Y-55584613D01*
X94860800Y-55569383D01*
X94805791Y-55556002D01*
X94749088Y-55544331D01*
X94687948Y-55534234D01*
X94619629Y-55525572D01*
X94541386Y-55518206D01*
X94450477Y-55512000D01*
X94344159Y-55506813D01*
X94219688Y-55502510D01*
X94074322Y-55498950D01*
X93905318Y-55495997D01*
X93709933Y-55493512D01*
X93485423Y-55491357D01*
X93229045Y-55489395D01*
X92938057Y-55487486D01*
X92609715Y-55485493D01*
X92312625Y-55483710D01*
X90111292Y-55470392D01*
X89804486Y-55402263D01*
X89192198Y-55254777D01*
X88613037Y-55090997D01*
X88060129Y-54908488D01*
X87526600Y-54704813D01*
X87005575Y-54477539D01*
X86512958Y-54236018D01*
X85870854Y-53880941D01*
X85253337Y-53492133D01*
X84661514Y-53070897D01*
X84096493Y-52618532D01*
X83559379Y-52136341D01*
X83051281Y-51625624D01*
X82573305Y-51087682D01*
X82126559Y-50523818D01*
X81712149Y-49935330D01*
X81331183Y-49323522D01*
X80984768Y-48689694D01*
X80674011Y-48035147D01*
X80400019Y-47361183D01*
X80216939Y-46836429D01*
X80179391Y-46721154D01*
X80145541Y-46617987D01*
X80117904Y-46534535D01*
X80098995Y-46478404D01*
X80092278Y-46459388D01*
X80083297Y-46448875D01*
X80064828Y-46448772D01*
X80032390Y-46461456D01*
X79981500Y-46489302D01*
X79907677Y-46534688D01*
X79806437Y-46599989D01*
X79719877Y-46656831D01*
X79128969Y-47071571D01*
X78565975Y-47518004D01*
X78031575Y-47995412D01*
X77526450Y-48503077D01*
X77051281Y-49040281D01*
X76606750Y-49606304D01*
X76193536Y-50200430D01*
X75877459Y-50709929D01*
X75780616Y-50880974D01*
X75673165Y-51081815D01*
X75559827Y-51302785D01*
X75445321Y-51534219D01*
X75334366Y-51766450D01*
X75231684Y-51989812D01*
X75141993Y-52194641D01*
X75085364Y-52332110D01*
X74908781Y-52806156D01*
X74747351Y-53298556D01*
X74608102Y-53787604D01*
X74584184Y-53880519D01*
X74476086Y-54308262D01*
X74380980Y-55980429D01*
X74362260Y-56311438D01*
X74346087Y-56603569D01*
X74332448Y-56860198D01*
X74321335Y-57084703D01*
X74312737Y-57280462D01*
X74306642Y-57450851D01*
X74303041Y-57599248D01*
X74301924Y-57729030D01*
X71693569Y-57729030D01*
X71693557Y-57714725D01*
X71695702Y-57567078D01*
X71700148Y-57400364D01*
X71706945Y-57211320D01*
X71716141Y-56996680D01*
X71727788Y-56753178D01*
X71741934Y-56477551D01*
X71758630Y-56166534D01*
X71777924Y-55816860D01*
X71780015Y-55779346D01*
X71798264Y-55452332D01*
X71814504Y-55164084D01*
X71829128Y-54911102D01*
X71842530Y-54689887D01*
X71855103Y-54496940D01*
X71867241Y-54328761D01*
X71879337Y-54181851D01*
X71891784Y-54052709D01*
X71904977Y-53937838D01*
X71919307Y-53833737D01*
X71935169Y-53736908D01*
X71952956Y-53643850D01*
X71973061Y-53551064D01*
X71995878Y-53455051D01*
X72021800Y-53352312D01*
X72051221Y-53239347D01*
X72076270Y-53144096D01*
X72299979Y-52375035D01*
X72561780Y-51623587D01*
X72861219Y-50890662D01*
X73197841Y-50177171D01*
X73571190Y-49484024D01*
X73980811Y-48812132D01*
X74426250Y-48162405D01*
X74831154Y-47630179D01*
X75147623Y-47248926D01*
X75491863Y-46863054D01*
X75856146Y-46480274D01*
X76232743Y-46108298D01*
X76613925Y-45754836D01*
X76991962Y-45427599D01*
X77241958Y-45225037D01*
X77778667Y-44822464D01*
X78337849Y-44440269D01*
X78911829Y-44083145D01*
X79492929Y-43755783D01*
X80073474Y-43462878D01*
X80284460Y-43365140D01*
X80488839Y-43279146D01*
X80668665Y-43218711D01*
X80832238Y-43182702D01*
X80987863Y-43169983D01*
X81143839Y-43179419D01*
G37*
%TD*%
M02*
