%TF.GenerationSoftware,KiCad,Pcbnew,8.0.1*%
%TF.CreationDate,2025-04-09T11:51:24+02:00*%
%TF.ProjectId,PCB-Shit_v4,5043422d-5368-4697-945f-76342e6b6963,rev?*%
%TF.SameCoordinates,Original*%
%TF.FileFunction,Soldermask,Top*%
%TF.FilePolarity,Negative*%
%FSLAX46Y46*%
G04 Gerber Fmt 4.6, Leading zero omitted, Abs format (unit mm)*
G04 Created by KiCad (PCBNEW 8.0.1) date 2025-04-09 11:51:24*
%MOMM*%
%LPD*%
G01*
G04 APERTURE LIST*
%ADD10C,0.010000*%
%ADD11C,3.300000*%
%ADD12C,5.400000*%
G04 APERTURE END LIST*
D10*
%TO.C,G\u002A\u002A\u002A*%
X71272958Y-62958915D02*
X71696292Y-62965429D01*
X71589567Y-63081846D01*
X71258757Y-63470930D01*
X70948509Y-63892520D01*
X70662499Y-64340299D01*
X70404407Y-64807951D01*
X70177912Y-65289159D01*
X69986693Y-65777608D01*
X69940608Y-65912887D01*
X69883065Y-66087512D01*
X66587447Y-66087512D01*
X66653982Y-65923471D01*
X66839436Y-65521543D01*
X67059737Y-65141939D01*
X67312704Y-64786462D01*
X67596156Y-64456913D01*
X67907913Y-64155095D01*
X68245795Y-63882811D01*
X68607620Y-63641862D01*
X68991209Y-63434051D01*
X69394382Y-63261180D01*
X69814957Y-63125051D01*
X70129958Y-63050269D01*
X70341843Y-63011865D01*
X70547778Y-62984421D01*
X70759404Y-62967004D01*
X70988361Y-62958686D01*
X71246288Y-62958535D01*
X71272958Y-62958915D01*
G36*
X71272958Y-62958915D02*
G01*
X71696292Y-62965429D01*
X71589567Y-63081846D01*
X71258757Y-63470930D01*
X70948509Y-63892520D01*
X70662499Y-64340299D01*
X70404407Y-64807951D01*
X70177912Y-65289159D01*
X69986693Y-65777608D01*
X69940608Y-65912887D01*
X69883065Y-66087512D01*
X66587447Y-66087512D01*
X66653982Y-65923471D01*
X66839436Y-65521543D01*
X67059737Y-65141939D01*
X67312704Y-64786462D01*
X67596156Y-64456913D01*
X67907913Y-64155095D01*
X68245795Y-63882811D01*
X68607620Y-63641862D01*
X68991209Y-63434051D01*
X69394382Y-63261180D01*
X69814957Y-63125051D01*
X70129958Y-63050269D01*
X70341843Y-63011865D01*
X70547778Y-62984421D01*
X70759404Y-62967004D01*
X70988361Y-62958686D01*
X71246288Y-62958535D01*
X71272958Y-62958915D01*
G37*
X86309830Y-80455797D02*
X86643267Y-80495204D01*
X86950467Y-80553578D01*
X87229484Y-80630030D01*
X87478372Y-80723669D01*
X87695187Y-80833603D01*
X87877983Y-80958944D01*
X88024814Y-81098799D01*
X88133736Y-81252280D01*
X88159523Y-81302536D01*
X88193411Y-81380488D01*
X88210910Y-81442915D01*
X88215705Y-81509753D01*
X88212326Y-81588286D01*
X88193423Y-81720777D01*
X88151826Y-81835981D01*
X88081719Y-81946567D01*
X88008536Y-82032372D01*
X87848419Y-82176333D01*
X87652554Y-82303719D01*
X87424554Y-82413535D01*
X87168034Y-82504783D01*
X86886608Y-82576466D01*
X86583891Y-82627587D01*
X86263497Y-82657149D01*
X85929040Y-82664156D01*
X85740375Y-82658032D01*
X85420041Y-82629134D01*
X85116123Y-82576925D01*
X84832771Y-82502814D01*
X84574139Y-82408212D01*
X84344379Y-82294530D01*
X84147642Y-82163179D01*
X84057622Y-82086358D01*
X83929389Y-81943481D01*
X83842585Y-81795199D01*
X83797022Y-81643863D01*
X83792511Y-81491823D01*
X83828864Y-81341429D01*
X83905893Y-81195031D01*
X84023410Y-81054980D01*
X84148839Y-80947286D01*
X84351516Y-80816950D01*
X84587491Y-80703779D01*
X84850792Y-80609131D01*
X85135445Y-80534363D01*
X85435476Y-80480835D01*
X85744912Y-80449905D01*
X86057780Y-80442933D01*
X86309830Y-80455797D01*
G36*
X86309830Y-80455797D02*
G01*
X86643267Y-80495204D01*
X86950467Y-80553578D01*
X87229484Y-80630030D01*
X87478372Y-80723669D01*
X87695187Y-80833603D01*
X87877983Y-80958944D01*
X88024814Y-81098799D01*
X88133736Y-81252280D01*
X88159523Y-81302536D01*
X88193411Y-81380488D01*
X88210910Y-81442915D01*
X88215705Y-81509753D01*
X88212326Y-81588286D01*
X88193423Y-81720777D01*
X88151826Y-81835981D01*
X88081719Y-81946567D01*
X88008536Y-82032372D01*
X87848419Y-82176333D01*
X87652554Y-82303719D01*
X87424554Y-82413535D01*
X87168034Y-82504783D01*
X86886608Y-82576466D01*
X86583891Y-82627587D01*
X86263497Y-82657149D01*
X85929040Y-82664156D01*
X85740375Y-82658032D01*
X85420041Y-82629134D01*
X85116123Y-82576925D01*
X84832771Y-82502814D01*
X84574139Y-82408212D01*
X84344379Y-82294530D01*
X84147642Y-82163179D01*
X84057622Y-82086358D01*
X83929389Y-81943481D01*
X83842585Y-81795199D01*
X83797022Y-81643863D01*
X83792511Y-81491823D01*
X83828864Y-81341429D01*
X83905893Y-81195031D01*
X84023410Y-81054980D01*
X84148839Y-80947286D01*
X84351516Y-80816950D01*
X84587491Y-80703779D01*
X84850792Y-80609131D01*
X85135445Y-80534363D01*
X85435476Y-80480835D01*
X85744912Y-80449905D01*
X86057780Y-80442933D01*
X86309830Y-80455797D01*
G37*
X100170443Y-62954987D02*
X100357481Y-62955836D01*
X100543857Y-62957165D01*
X100724796Y-62958953D01*
X100895521Y-62961180D01*
X101051256Y-62963827D01*
X101187223Y-62966874D01*
X101298647Y-62970299D01*
X101380751Y-62974083D01*
X101420417Y-62977166D01*
X101784186Y-63031845D01*
X102151553Y-63115902D01*
X102513565Y-63226314D01*
X102861266Y-63360062D01*
X103185704Y-63514124D01*
X103431511Y-63655643D01*
X103621216Y-63778768D01*
X103784120Y-63893164D01*
X103931790Y-64007993D01*
X104075792Y-64132416D01*
X104227693Y-64275597D01*
X104283698Y-64330679D01*
X104575203Y-64642475D01*
X104828339Y-64962671D01*
X105046986Y-65296944D01*
X105235020Y-65650973D01*
X105328663Y-65860617D01*
X105423724Y-66087512D01*
X103224465Y-66087512D01*
X102923018Y-66087363D01*
X102633609Y-66086927D01*
X102359033Y-66086226D01*
X102102086Y-66085280D01*
X101865562Y-66084108D01*
X101652257Y-66082730D01*
X101464967Y-66081168D01*
X101306486Y-66079440D01*
X101179609Y-66077567D01*
X101087133Y-66075569D01*
X101031852Y-66073466D01*
X101016208Y-66071637D01*
X101005677Y-66044956D01*
X100986282Y-65989372D01*
X100961998Y-65916321D01*
X100959162Y-65907596D01*
X100816048Y-65511650D01*
X100642538Y-65108784D01*
X100443002Y-64706555D01*
X100221812Y-64312517D01*
X99983339Y-63934225D01*
X99731952Y-63579236D01*
X99472025Y-63255105D01*
X99336774Y-63103242D01*
X99283506Y-63044162D01*
X99243704Y-62997077D01*
X99224362Y-62970347D01*
X99223542Y-62967891D01*
X99243909Y-62964176D01*
X99301829Y-62961101D01*
X99392524Y-62958647D01*
X99511217Y-62956794D01*
X99653132Y-62955522D01*
X99813492Y-62954810D01*
X99987522Y-62954639D01*
X100170443Y-62954987D01*
G36*
X100170443Y-62954987D02*
G01*
X100357481Y-62955836D01*
X100543857Y-62957165D01*
X100724796Y-62958953D01*
X100895521Y-62961180D01*
X101051256Y-62963827D01*
X101187223Y-62966874D01*
X101298647Y-62970299D01*
X101380751Y-62974083D01*
X101420417Y-62977166D01*
X101784186Y-63031845D01*
X102151553Y-63115902D01*
X102513565Y-63226314D01*
X102861266Y-63360062D01*
X103185704Y-63514124D01*
X103431511Y-63655643D01*
X103621216Y-63778768D01*
X103784120Y-63893164D01*
X103931790Y-64007993D01*
X104075792Y-64132416D01*
X104227693Y-64275597D01*
X104283698Y-64330679D01*
X104575203Y-64642475D01*
X104828339Y-64962671D01*
X105046986Y-65296944D01*
X105235020Y-65650973D01*
X105328663Y-65860617D01*
X105423724Y-66087512D01*
X103224465Y-66087512D01*
X102923018Y-66087363D01*
X102633609Y-66086927D01*
X102359033Y-66086226D01*
X102102086Y-66085280D01*
X101865562Y-66084108D01*
X101652257Y-66082730D01*
X101464967Y-66081168D01*
X101306486Y-66079440D01*
X101179609Y-66077567D01*
X101087133Y-66075569D01*
X101031852Y-66073466D01*
X101016208Y-66071637D01*
X101005677Y-66044956D01*
X100986282Y-65989372D01*
X100961998Y-65916321D01*
X100959162Y-65907596D01*
X100816048Y-65511650D01*
X100642538Y-65108784D01*
X100443002Y-64706555D01*
X100221812Y-64312517D01*
X99983339Y-63934225D01*
X99731952Y-63579236D01*
X99472025Y-63255105D01*
X99336774Y-63103242D01*
X99283506Y-63044162D01*
X99243704Y-62997077D01*
X99224362Y-62970347D01*
X99223542Y-62967891D01*
X99243909Y-62964176D01*
X99301829Y-62961101D01*
X99392524Y-62958647D01*
X99511217Y-62956794D01*
X99653132Y-62955522D01*
X99813492Y-62954810D01*
X99987522Y-62954639D01*
X100170443Y-62954987D01*
G37*
X80259446Y-46417408D02*
X80271765Y-46443502D01*
X80292845Y-46501141D01*
X80319513Y-46581257D01*
X80343067Y-46656512D01*
X80559215Y-47297039D01*
X80815384Y-47933828D01*
X81109261Y-48563050D01*
X81438534Y-49180876D01*
X81800891Y-49783478D01*
X82194019Y-50367025D01*
X82615605Y-50927690D01*
X83063338Y-51461643D01*
X83534905Y-51965055D01*
X83570792Y-52001096D01*
X84103297Y-52504780D01*
X84656783Y-52971758D01*
X85231394Y-53402110D01*
X85827278Y-53795915D01*
X86444581Y-54153253D01*
X87083448Y-54474204D01*
X87744026Y-54758847D01*
X88426461Y-55007263D01*
X89130900Y-55219532D01*
X89741322Y-55370315D01*
X90090125Y-55448169D01*
X92302042Y-55462148D01*
X92664943Y-55464419D01*
X92988261Y-55466481D01*
X93274747Y-55468479D01*
X93527148Y-55470559D01*
X93748214Y-55472867D01*
X93940694Y-55475549D01*
X94107338Y-55478752D01*
X94250894Y-55482620D01*
X94374113Y-55487301D01*
X94479742Y-55492939D01*
X94570532Y-55499681D01*
X94649232Y-55507673D01*
X94718590Y-55517060D01*
X94781357Y-55527989D01*
X94840281Y-55540605D01*
X94898111Y-55555054D01*
X94957597Y-55571483D01*
X95021488Y-55590037D01*
X95090017Y-55610129D01*
X95455057Y-55737672D01*
X95798954Y-55901497D01*
X96122821Y-56102272D01*
X96427770Y-56340663D01*
X96641208Y-56540976D01*
X96900829Y-56832825D01*
X97125699Y-57148109D01*
X97314642Y-57484479D01*
X97466485Y-57839588D01*
X97580050Y-58211088D01*
X97647772Y-58552230D01*
X97664652Y-58700866D01*
X97675360Y-58872394D01*
X97679771Y-59053492D01*
X97677764Y-59230842D01*
X97669214Y-59391124D01*
X97656607Y-59504679D01*
X97580349Y-59871467D01*
X97464642Y-60231965D01*
X97312348Y-60578492D01*
X97148297Y-60869016D01*
X97097777Y-60960434D01*
X97049306Y-61066673D01*
X97020071Y-61145096D01*
X96996361Y-61217853D01*
X96977720Y-61272891D01*
X96967758Y-61299585D01*
X96967286Y-61300424D01*
X96947077Y-61295427D01*
X96896977Y-61276168D01*
X96825559Y-61246066D01*
X96775157Y-61223826D01*
X96262739Y-61016895D01*
X95739048Y-60849646D01*
X95206576Y-60722033D01*
X94667812Y-60634011D01*
X94125249Y-60585533D01*
X93581377Y-60576555D01*
X93038688Y-60607030D01*
X92499672Y-60676912D01*
X91966821Y-60786157D01*
X91442626Y-60934719D01*
X90929577Y-61122551D01*
X90449958Y-61339721D01*
X90012044Y-61573973D01*
X89603369Y-61827439D01*
X89216022Y-62105820D01*
X88842095Y-62414817D01*
X88473679Y-62760130D01*
X88458888Y-62774836D01*
X88068467Y-63190211D01*
X87716008Y-63621307D01*
X87399225Y-64071613D01*
X87115830Y-64544619D01*
X86863534Y-65043814D01*
X86662565Y-65514807D01*
X86617247Y-65631909D01*
X86573165Y-65748900D01*
X86534875Y-65853489D01*
X86506934Y-65933387D01*
X86503211Y-65944637D01*
X86456590Y-66087512D01*
X85452235Y-66087512D01*
X85209385Y-66087282D01*
X85005935Y-66086539D01*
X84838953Y-66085208D01*
X84705509Y-66083212D01*
X84602670Y-66080474D01*
X84527506Y-66076918D01*
X84477085Y-66072468D01*
X84448476Y-66067046D01*
X84438872Y-66061054D01*
X84302727Y-65679647D01*
X84165190Y-65332390D01*
X84022859Y-65011146D01*
X83875940Y-64714668D01*
X83593220Y-64217500D01*
X83279281Y-63746400D01*
X82935793Y-63302653D01*
X82564429Y-62887546D01*
X82166862Y-62502364D01*
X81744761Y-62148394D01*
X81299801Y-61826921D01*
X80833651Y-61539231D01*
X80347985Y-61286611D01*
X79844474Y-61070346D01*
X79324790Y-60891723D01*
X78790604Y-60752027D01*
X78698587Y-60732267D01*
X78180484Y-60644015D01*
X77653881Y-60592176D01*
X77124973Y-60576746D01*
X76599957Y-60597722D01*
X76085029Y-60655102D01*
X75654676Y-60733629D01*
X75464395Y-60775016D01*
X75425740Y-60727222D01*
X75145759Y-60353224D01*
X74906727Y-59973104D01*
X74707355Y-59583627D01*
X74546359Y-59181557D01*
X74422449Y-58763657D01*
X74334340Y-58326691D01*
X74280745Y-57867423D01*
X74278894Y-57843096D01*
X74277837Y-57790216D01*
X74279360Y-57697647D01*
X74283350Y-57567948D01*
X74289692Y-57403676D01*
X74298271Y-57207391D01*
X74308975Y-56981650D01*
X74321687Y-56729012D01*
X74336293Y-56452035D01*
X74352680Y-56153278D01*
X74361218Y-56001596D01*
X74456097Y-54329429D01*
X74562052Y-53912790D01*
X74757742Y-53228102D01*
X74991958Y-52560154D01*
X75263896Y-51910029D01*
X75572750Y-51278810D01*
X75917716Y-50667579D01*
X76297988Y-50077419D01*
X76712762Y-49509412D01*
X77161234Y-48964640D01*
X77642597Y-48444187D01*
X78156047Y-47949134D01*
X78700780Y-47480564D01*
X79275990Y-47039561D01*
X79880873Y-46627205D01*
X80065671Y-46510691D01*
X80142402Y-46465702D01*
X80205922Y-46433162D01*
X80247824Y-46417118D01*
X80259446Y-46417408D01*
G36*
X80259446Y-46417408D02*
G01*
X80271765Y-46443502D01*
X80292845Y-46501141D01*
X80319513Y-46581257D01*
X80343067Y-46656512D01*
X80559215Y-47297039D01*
X80815384Y-47933828D01*
X81109261Y-48563050D01*
X81438534Y-49180876D01*
X81800891Y-49783478D01*
X82194019Y-50367025D01*
X82615605Y-50927690D01*
X83063338Y-51461643D01*
X83534905Y-51965055D01*
X83570792Y-52001096D01*
X84103297Y-52504780D01*
X84656783Y-52971758D01*
X85231394Y-53402110D01*
X85827278Y-53795915D01*
X86444581Y-54153253D01*
X87083448Y-54474204D01*
X87744026Y-54758847D01*
X88426461Y-55007263D01*
X89130900Y-55219532D01*
X89741322Y-55370315D01*
X90090125Y-55448169D01*
X92302042Y-55462148D01*
X92664943Y-55464419D01*
X92988261Y-55466481D01*
X93274747Y-55468479D01*
X93527148Y-55470559D01*
X93748214Y-55472867D01*
X93940694Y-55475549D01*
X94107338Y-55478752D01*
X94250894Y-55482620D01*
X94374113Y-55487301D01*
X94479742Y-55492939D01*
X94570532Y-55499681D01*
X94649232Y-55507673D01*
X94718590Y-55517060D01*
X94781357Y-55527989D01*
X94840281Y-55540605D01*
X94898111Y-55555054D01*
X94957597Y-55571483D01*
X95021488Y-55590037D01*
X95090017Y-55610129D01*
X95455057Y-55737672D01*
X95798954Y-55901497D01*
X96122821Y-56102272D01*
X96427770Y-56340663D01*
X96641208Y-56540976D01*
X96900829Y-56832825D01*
X97125699Y-57148109D01*
X97314642Y-57484479D01*
X97466485Y-57839588D01*
X97580050Y-58211088D01*
X97647772Y-58552230D01*
X97664652Y-58700866D01*
X97675360Y-58872394D01*
X97679771Y-59053492D01*
X97677764Y-59230842D01*
X97669214Y-59391124D01*
X97656607Y-59504679D01*
X97580349Y-59871467D01*
X97464642Y-60231965D01*
X97312348Y-60578492D01*
X97148297Y-60869016D01*
X97097777Y-60960434D01*
X97049306Y-61066673D01*
X97020071Y-61145096D01*
X96996361Y-61217853D01*
X96977720Y-61272891D01*
X96967758Y-61299585D01*
X96967286Y-61300424D01*
X96947077Y-61295427D01*
X96896977Y-61276168D01*
X96825559Y-61246066D01*
X96775157Y-61223826D01*
X96262739Y-61016895D01*
X95739048Y-60849646D01*
X95206576Y-60722033D01*
X94667812Y-60634011D01*
X94125249Y-60585533D01*
X93581377Y-60576555D01*
X93038688Y-60607030D01*
X92499672Y-60676912D01*
X91966821Y-60786157D01*
X91442626Y-60934719D01*
X90929577Y-61122551D01*
X90449958Y-61339721D01*
X90012044Y-61573973D01*
X89603369Y-61827439D01*
X89216022Y-62105820D01*
X88842095Y-62414817D01*
X88473679Y-62760130D01*
X88458888Y-62774836D01*
X88068467Y-63190211D01*
X87716008Y-63621307D01*
X87399225Y-64071613D01*
X87115830Y-64544619D01*
X86863534Y-65043814D01*
X86662565Y-65514807D01*
X86617247Y-65631909D01*
X86573165Y-65748900D01*
X86534875Y-65853489D01*
X86506934Y-65933387D01*
X86503211Y-65944637D01*
X86456590Y-66087512D01*
X85452235Y-66087512D01*
X85209385Y-66087282D01*
X85005935Y-66086539D01*
X84838953Y-66085208D01*
X84705509Y-66083212D01*
X84602670Y-66080474D01*
X84527506Y-66076918D01*
X84477085Y-66072468D01*
X84448476Y-66067046D01*
X84438872Y-66061054D01*
X84302727Y-65679647D01*
X84165190Y-65332390D01*
X84022859Y-65011146D01*
X83875940Y-64714668D01*
X83593220Y-64217500D01*
X83279281Y-63746400D01*
X82935793Y-63302653D01*
X82564429Y-62887546D01*
X82166862Y-62502364D01*
X81744761Y-62148394D01*
X81299801Y-61826921D01*
X80833651Y-61539231D01*
X80347985Y-61286611D01*
X79844474Y-61070346D01*
X79324790Y-60891723D01*
X78790604Y-60752027D01*
X78698587Y-60732267D01*
X78180484Y-60644015D01*
X77653881Y-60592176D01*
X77124973Y-60576746D01*
X76599957Y-60597722D01*
X76085029Y-60655102D01*
X75654676Y-60733629D01*
X75464395Y-60775016D01*
X75425740Y-60727222D01*
X75145759Y-60353224D01*
X74906727Y-59973104D01*
X74707355Y-59583627D01*
X74546359Y-59181557D01*
X74422449Y-58763657D01*
X74334340Y-58326691D01*
X74280745Y-57867423D01*
X74278894Y-57843096D01*
X74277837Y-57790216D01*
X74279360Y-57697647D01*
X74283350Y-57567948D01*
X74289692Y-57403676D01*
X74298271Y-57207391D01*
X74308975Y-56981650D01*
X74321687Y-56729012D01*
X74336293Y-56452035D01*
X74352680Y-56153278D01*
X74361218Y-56001596D01*
X74456097Y-54329429D01*
X74562052Y-53912790D01*
X74757742Y-53228102D01*
X74991958Y-52560154D01*
X75263896Y-51910029D01*
X75572750Y-51278810D01*
X75917716Y-50667579D01*
X76297988Y-50077419D01*
X76712762Y-49509412D01*
X77161234Y-48964640D01*
X77642597Y-48444187D01*
X78156047Y-47949134D01*
X78700780Y-47480564D01*
X79275990Y-47039561D01*
X79880873Y-46627205D01*
X80065671Y-46510691D01*
X80142402Y-46465702D01*
X80205922Y-46433162D01*
X80247824Y-46417118D01*
X80259446Y-46417408D01*
G37*
X69448611Y-68632804D02*
X69490838Y-69188321D01*
X69573915Y-69736396D01*
X69696706Y-70275033D01*
X69858080Y-70802235D01*
X70056901Y-71316003D01*
X70292038Y-71814340D01*
X70562357Y-72295250D01*
X70866723Y-72756734D01*
X71204005Y-73196796D01*
X71573069Y-73613438D01*
X71972780Y-74004662D01*
X72402007Y-74368471D01*
X72859615Y-74702869D01*
X72913398Y-74738943D01*
X73400863Y-75038103D01*
X73903660Y-75297897D01*
X74420858Y-75518046D01*
X74951525Y-75698268D01*
X75494729Y-75838283D01*
X76049539Y-75937810D01*
X76615024Y-75996569D01*
X77146708Y-76014380D01*
X77398759Y-76012335D01*
X77621043Y-76005389D01*
X77825941Y-75992595D01*
X78025833Y-75973010D01*
X78233100Y-75945688D01*
X78410519Y-75917960D01*
X78897238Y-75823419D01*
X79359914Y-75703090D01*
X79808690Y-75553606D01*
X80253710Y-75371604D01*
X80688399Y-75162350D01*
X80932983Y-75032564D01*
X81150930Y-74907823D01*
X81355736Y-74779701D01*
X81560898Y-74639775D01*
X81768250Y-74488370D01*
X82215165Y-74127695D01*
X82632146Y-73738334D01*
X83017908Y-73322042D01*
X83371165Y-72880572D01*
X83690633Y-72415680D01*
X83975025Y-71929119D01*
X84223057Y-71422643D01*
X84433444Y-70898006D01*
X84465187Y-70807679D01*
X84614156Y-70326518D01*
X84730069Y-69841730D01*
X84814467Y-69345126D01*
X84868891Y-68828513D01*
X84884386Y-68579887D01*
X84898814Y-68288846D01*
X86008910Y-68288846D01*
X86022369Y-68622221D01*
X86065973Y-69184223D01*
X86150456Y-69738158D01*
X86274811Y-70282072D01*
X86438027Y-70814013D01*
X86639097Y-71332029D01*
X86877010Y-71834167D01*
X87150758Y-72318476D01*
X87459331Y-72783002D01*
X87801721Y-73225794D01*
X88176918Y-73644899D01*
X88583913Y-74038364D01*
X89003593Y-74390146D01*
X89466490Y-74725002D01*
X89949500Y-75022802D01*
X90451416Y-75283058D01*
X90971031Y-75505288D01*
X91507137Y-75689005D01*
X92058528Y-75833725D01*
X92623996Y-75938963D01*
X92968792Y-75982874D01*
X93123722Y-75995591D01*
X93309890Y-76004988D01*
X93516323Y-76010992D01*
X93732050Y-76013530D01*
X93946100Y-76012528D01*
X94147501Y-76007912D01*
X94325282Y-75999609D01*
X94418708Y-75992589D01*
X94986279Y-75920446D01*
X95542896Y-75807582D01*
X96087407Y-75654462D01*
X96618659Y-75461547D01*
X97135501Y-75229300D01*
X97636780Y-74958186D01*
X98121344Y-74648665D01*
X98546208Y-74334482D01*
X98672868Y-74229075D01*
X98819374Y-74098346D01*
X98978659Y-73949329D01*
X99143654Y-73789062D01*
X99307290Y-73624581D01*
X99462499Y-73462922D01*
X99602212Y-73311121D01*
X99719361Y-73176215D01*
X99760817Y-73125429D01*
X100104614Y-72660656D01*
X100411444Y-72176421D01*
X100680598Y-71674205D01*
X100911367Y-71155492D01*
X101103043Y-70621763D01*
X101254919Y-70074503D01*
X101288493Y-69926993D01*
X101351585Y-69600738D01*
X101400036Y-69266710D01*
X101435584Y-68911788D01*
X101449989Y-68707451D01*
X101475662Y-68288846D01*
X103588102Y-68288846D01*
X103934196Y-68288875D01*
X104240391Y-68288993D01*
X104509119Y-68289241D01*
X104742813Y-68289662D01*
X104943908Y-68290300D01*
X105114837Y-68291195D01*
X105258032Y-68292392D01*
X105375928Y-68293933D01*
X105470957Y-68295861D01*
X105545553Y-68298218D01*
X105602150Y-68301046D01*
X105643180Y-68304389D01*
X105671078Y-68308290D01*
X105688276Y-68312790D01*
X105697207Y-68317933D01*
X105700306Y-68323762D01*
X105700464Y-68325887D01*
X105699653Y-68356329D01*
X105697410Y-68423079D01*
X105693951Y-68520144D01*
X105689493Y-68641531D01*
X105684253Y-68781246D01*
X105678811Y-68923846D01*
X105657658Y-69397679D01*
X105631013Y-69866932D01*
X105599495Y-70322953D01*
X105563721Y-70757093D01*
X105524308Y-71160701D01*
X105509614Y-71294512D01*
X105499496Y-71404140D01*
X105492143Y-71522534D01*
X105489064Y-71625079D01*
X105489049Y-71630124D01*
X105509146Y-71852151D01*
X105568008Y-72062989D01*
X105662734Y-72258932D01*
X105790422Y-72436278D01*
X105948173Y-72591321D01*
X106133083Y-72720357D01*
X106342253Y-72819683D01*
X106448544Y-72855174D01*
X106490384Y-72864388D01*
X106550614Y-72872405D01*
X106633008Y-72879430D01*
X106741341Y-72885666D01*
X106879385Y-72891317D01*
X107050915Y-72896587D01*
X107259703Y-72901682D01*
X107340958Y-72903433D01*
X107579159Y-72908909D01*
X107781409Y-72914970D01*
X107954091Y-72922313D01*
X108103588Y-72931635D01*
X108236284Y-72943632D01*
X108358559Y-72959001D01*
X108476798Y-72978439D01*
X108597384Y-73002642D01*
X108726698Y-73032306D01*
X108871123Y-73068129D01*
X108887050Y-73072181D01*
X109349049Y-73211466D01*
X109801474Y-73390421D01*
X110242808Y-73607155D01*
X110671537Y-73859780D01*
X111086147Y-74146406D01*
X111485121Y-74465143D01*
X111866945Y-74814101D01*
X112230104Y-75191392D01*
X112573083Y-75595125D01*
X112894366Y-76023410D01*
X113192438Y-76474360D01*
X113465786Y-76946082D01*
X113712892Y-77436690D01*
X113932243Y-77944291D01*
X114122323Y-78466998D01*
X114281616Y-79002921D01*
X114408609Y-79550169D01*
X114496463Y-80068096D01*
X114511556Y-80204594D01*
X114524051Y-80373799D01*
X114533747Y-80566151D01*
X114540446Y-80772090D01*
X114543948Y-80982057D01*
X114544055Y-81186492D01*
X114540566Y-81375837D01*
X114533283Y-81540532D01*
X114528530Y-81606261D01*
X114460429Y-82168746D01*
X114351755Y-82731307D01*
X114204130Y-83290575D01*
X114019175Y-83843183D01*
X113798511Y-84385764D01*
X113543757Y-84914950D01*
X113256536Y-85427374D01*
X112938468Y-85919668D01*
X112591175Y-86388465D01*
X112216276Y-86830396D01*
X111816179Y-87241343D01*
X111407048Y-87607530D01*
X110985661Y-87935012D01*
X110552917Y-88223358D01*
X110109713Y-88472139D01*
X109656944Y-88680922D01*
X109195510Y-88849277D01*
X108726305Y-88976775D01*
X108250229Y-89062983D01*
X107954792Y-89095279D01*
X107916905Y-89096637D01*
X107836929Y-89097952D01*
X107715106Y-89099226D01*
X107551680Y-89100456D01*
X107346894Y-89101644D01*
X107100991Y-89102788D01*
X106814215Y-89103889D01*
X106486809Y-89104946D01*
X106119016Y-89105959D01*
X105711080Y-89106927D01*
X105263244Y-89107851D01*
X104775751Y-89108730D01*
X104248845Y-89109563D01*
X103682769Y-89110351D01*
X103077767Y-89111093D01*
X102434081Y-89111788D01*
X101751954Y-89112437D01*
X101031632Y-89113040D01*
X100273356Y-89113595D01*
X99477370Y-89114103D01*
X98643917Y-89114563D01*
X97773241Y-89114976D01*
X96865585Y-89115340D01*
X95921192Y-89115656D01*
X94940306Y-89115923D01*
X93923169Y-89116140D01*
X92870027Y-89116309D01*
X91781120Y-89116428D01*
X90656694Y-89116496D01*
X90162804Y-89116510D01*
X89032985Y-89116550D01*
X87945044Y-89116627D01*
X86898522Y-89116739D01*
X85892963Y-89116890D01*
X84927911Y-89117078D01*
X84002910Y-89117306D01*
X83117501Y-89117572D01*
X82271229Y-89117878D01*
X81463637Y-89118225D01*
X80694269Y-89118613D01*
X79962667Y-89119042D01*
X79268375Y-89119514D01*
X78610936Y-89120029D01*
X77989894Y-89120587D01*
X77404792Y-89121189D01*
X76855174Y-89121837D01*
X76340582Y-89122529D01*
X75860560Y-89123267D01*
X75414651Y-89124052D01*
X75002399Y-89124884D01*
X74623347Y-89125764D01*
X74277039Y-89126692D01*
X73963017Y-89127669D01*
X73680825Y-89128696D01*
X73430006Y-89129772D01*
X73210104Y-89130900D01*
X73020662Y-89132079D01*
X72861224Y-89133310D01*
X72731332Y-89134594D01*
X72630530Y-89135930D01*
X72558361Y-89137321D01*
X72514370Y-89138766D01*
X72499221Y-89139949D01*
X72329226Y-89187851D01*
X72154806Y-89266417D01*
X71989597Y-89368025D01*
X71847235Y-89485052D01*
X71806017Y-89527485D01*
X71692771Y-89673992D01*
X71594088Y-89843627D01*
X71521940Y-90014769D01*
X71464459Y-90185762D01*
X71453375Y-91879096D01*
X71442292Y-93572429D01*
X71383680Y-93738118D01*
X71310441Y-93912200D01*
X71220224Y-94059614D01*
X71103049Y-94195445D01*
X71042988Y-94253041D01*
X70857530Y-94394506D01*
X70645849Y-94503981D01*
X70410568Y-94580467D01*
X70154306Y-94622961D01*
X70057173Y-94629756D01*
X69951431Y-94631865D01*
X69845514Y-94629432D01*
X69757448Y-94623008D01*
X69734108Y-94619907D01*
X69480651Y-94561773D01*
X69251414Y-94472436D01*
X69048557Y-94353631D01*
X68874235Y-94207098D01*
X68730605Y-94034573D01*
X68619824Y-93837796D01*
X68558935Y-93673117D01*
X68552279Y-93647221D01*
X68546419Y-93615541D01*
X68541275Y-93575174D01*
X68536770Y-93523214D01*
X68532828Y-93456758D01*
X68529371Y-93372900D01*
X68526322Y-93268737D01*
X68523603Y-93141363D01*
X68521137Y-92987875D01*
X68518847Y-92805367D01*
X68516656Y-92590936D01*
X68514486Y-92341676D01*
X68512259Y-92054684D01*
X68510903Y-91868512D01*
X68498849Y-90185762D01*
X68449477Y-90037596D01*
X68404329Y-89912044D01*
X68358917Y-89811513D01*
X68304777Y-89719493D01*
X68238567Y-89626275D01*
X68088141Y-89461188D01*
X67903981Y-89321013D01*
X67687079Y-89206451D01*
X67589958Y-89167433D01*
X67568870Y-89160410D01*
X67544156Y-89154229D01*
X67512978Y-89148812D01*
X67472496Y-89144079D01*
X67419871Y-89139951D01*
X67352263Y-89136348D01*
X67266834Y-89133191D01*
X67160743Y-89130401D01*
X67031152Y-89127899D01*
X66875222Y-89125605D01*
X66690112Y-89123439D01*
X66472984Y-89121323D01*
X66220998Y-89119178D01*
X65931315Y-89116923D01*
X65727292Y-89115405D01*
X65394191Y-89112904D01*
X65100097Y-89110466D01*
X64841679Y-89107876D01*
X64615612Y-89104921D01*
X64418569Y-89101387D01*
X64247220Y-89097060D01*
X64098240Y-89091725D01*
X63968301Y-89085170D01*
X63854076Y-89077180D01*
X63752236Y-89067541D01*
X63659456Y-89056039D01*
X63572407Y-89042461D01*
X63487762Y-89026592D01*
X63402194Y-89008218D01*
X63312375Y-88987127D01*
X63214978Y-88963103D01*
X63165538Y-88950713D01*
X62701944Y-88812809D01*
X62245337Y-88634262D01*
X61797558Y-88416451D01*
X61360449Y-88160752D01*
X60935849Y-87868543D01*
X60525600Y-87541200D01*
X60131544Y-87180102D01*
X59755521Y-86786625D01*
X59399372Y-86362146D01*
X59064939Y-85908043D01*
X59030125Y-85857179D01*
X58692538Y-85323523D01*
X58394158Y-84773936D01*
X58135113Y-84208753D01*
X57915532Y-83628309D01*
X57735544Y-83032937D01*
X57595278Y-82422973D01*
X57511115Y-81920179D01*
X57496148Y-81781548D01*
X57484618Y-81609355D01*
X57476530Y-81412231D01*
X57471885Y-81198808D01*
X57470687Y-80977716D01*
X57472937Y-80757588D01*
X57478640Y-80547054D01*
X57487797Y-80354746D01*
X57500413Y-80189296D01*
X57510521Y-80099846D01*
X57612653Y-79495297D01*
X57755767Y-78899094D01*
X57938979Y-78313296D01*
X57960297Y-78258346D01*
X80484690Y-78258346D01*
X80499212Y-78517637D01*
X80547036Y-78995625D01*
X80636261Y-79465763D01*
X80766384Y-79926234D01*
X80936904Y-80375221D01*
X81114712Y-80749305D01*
X81352859Y-81161351D01*
X81622891Y-81547381D01*
X81922518Y-81906130D01*
X82249456Y-82236338D01*
X82601415Y-82536741D01*
X82976108Y-82806075D01*
X83371248Y-83043080D01*
X83784549Y-83246491D01*
X84213721Y-83415047D01*
X84656479Y-83547484D01*
X85110534Y-83642540D01*
X85573599Y-83698952D01*
X86043388Y-83715458D01*
X86453597Y-83696558D01*
X86926078Y-83636418D01*
X87390234Y-83536782D01*
X87842395Y-83398902D01*
X88278891Y-83224034D01*
X88696052Y-83013431D01*
X89007595Y-82823883D01*
X89402941Y-82539101D01*
X89768203Y-82225711D01*
X90102244Y-81885674D01*
X90403926Y-81520955D01*
X90672111Y-81133516D01*
X90905660Y-80725321D01*
X91103435Y-80298332D01*
X91264298Y-79854512D01*
X91387110Y-79395824D01*
X91470734Y-78924232D01*
X91510603Y-78507054D01*
X91525088Y-78258346D01*
X80484690Y-78258346D01*
X57960297Y-78258346D01*
X58161406Y-77739964D01*
X58422166Y-77181160D01*
X58720375Y-76638943D01*
X59055151Y-76115374D01*
X59425610Y-75612513D01*
X59442359Y-75591346D01*
X59549708Y-75462390D01*
X59681637Y-75313983D01*
X59831507Y-75152819D01*
X59992676Y-74985596D01*
X60158502Y-74819010D01*
X60322345Y-74659756D01*
X60477563Y-74514531D01*
X60617515Y-74390031D01*
X60710792Y-74312425D01*
X61109163Y-74016798D01*
X61524881Y-73750961D01*
X61952981Y-73517453D01*
X62388499Y-73318813D01*
X62826470Y-73157576D01*
X63157000Y-73061848D01*
X63297151Y-73027304D01*
X63426139Y-72998603D01*
X63550233Y-72975091D01*
X63675701Y-72956118D01*
X63808812Y-72941033D01*
X63955834Y-72929183D01*
X64123034Y-72919917D01*
X64316683Y-72912584D01*
X64543047Y-72906532D01*
X64679542Y-72903599D01*
X64897761Y-72899025D01*
X65078625Y-72894483D01*
X65227105Y-72889286D01*
X65348174Y-72882745D01*
X65446803Y-72874171D01*
X65527963Y-72862875D01*
X65596627Y-72848170D01*
X65657767Y-72829366D01*
X65716353Y-72805775D01*
X65777359Y-72776708D01*
X65844164Y-72742309D01*
X66031290Y-72621288D01*
X66193097Y-72469355D01*
X66326118Y-72291856D01*
X66426884Y-72094137D01*
X66491929Y-71881543D01*
X66515760Y-71706890D01*
X66517270Y-71620073D01*
X66513713Y-71505183D01*
X66505769Y-71376088D01*
X66494119Y-71246656D01*
X66492381Y-71230640D01*
X66470370Y-71018391D01*
X66448202Y-70778815D01*
X66426296Y-70518443D01*
X66405067Y-70243804D01*
X66384933Y-69961430D01*
X66366311Y-69677851D01*
X66349619Y-69399597D01*
X66335274Y-69133198D01*
X66323692Y-68885185D01*
X66315292Y-68662089D01*
X66310491Y-68470440D01*
X66309500Y-68368221D01*
X66309375Y-68288846D01*
X69435417Y-68288846D01*
X69448611Y-68632804D01*
G36*
X69448611Y-68632804D02*
G01*
X69490838Y-69188321D01*
X69573915Y-69736396D01*
X69696706Y-70275033D01*
X69858080Y-70802235D01*
X70056901Y-71316003D01*
X70292038Y-71814340D01*
X70562357Y-72295250D01*
X70866723Y-72756734D01*
X71204005Y-73196796D01*
X71573069Y-73613438D01*
X71972780Y-74004662D01*
X72402007Y-74368471D01*
X72859615Y-74702869D01*
X72913398Y-74738943D01*
X73400863Y-75038103D01*
X73903660Y-75297897D01*
X74420858Y-75518046D01*
X74951525Y-75698268D01*
X75494729Y-75838283D01*
X76049539Y-75937810D01*
X76615024Y-75996569D01*
X77146708Y-76014380D01*
X77398759Y-76012335D01*
X77621043Y-76005389D01*
X77825941Y-75992595D01*
X78025833Y-75973010D01*
X78233100Y-75945688D01*
X78410519Y-75917960D01*
X78897238Y-75823419D01*
X79359914Y-75703090D01*
X79808690Y-75553606D01*
X80253710Y-75371604D01*
X80688399Y-75162350D01*
X80932983Y-75032564D01*
X81150930Y-74907823D01*
X81355736Y-74779701D01*
X81560898Y-74639775D01*
X81768250Y-74488370D01*
X82215165Y-74127695D01*
X82632146Y-73738334D01*
X83017908Y-73322042D01*
X83371165Y-72880572D01*
X83690633Y-72415680D01*
X83975025Y-71929119D01*
X84223057Y-71422643D01*
X84433444Y-70898006D01*
X84465187Y-70807679D01*
X84614156Y-70326518D01*
X84730069Y-69841730D01*
X84814467Y-69345126D01*
X84868891Y-68828513D01*
X84884386Y-68579887D01*
X84898814Y-68288846D01*
X86008910Y-68288846D01*
X86022369Y-68622221D01*
X86065973Y-69184223D01*
X86150456Y-69738158D01*
X86274811Y-70282072D01*
X86438027Y-70814013D01*
X86639097Y-71332029D01*
X86877010Y-71834167D01*
X87150758Y-72318476D01*
X87459331Y-72783002D01*
X87801721Y-73225794D01*
X88176918Y-73644899D01*
X88583913Y-74038364D01*
X89003593Y-74390146D01*
X89466490Y-74725002D01*
X89949500Y-75022802D01*
X90451416Y-75283058D01*
X90971031Y-75505288D01*
X91507137Y-75689005D01*
X92058528Y-75833725D01*
X92623996Y-75938963D01*
X92968792Y-75982874D01*
X93123722Y-75995591D01*
X93309890Y-76004988D01*
X93516323Y-76010992D01*
X93732050Y-76013530D01*
X93946100Y-76012528D01*
X94147501Y-76007912D01*
X94325282Y-75999609D01*
X94418708Y-75992589D01*
X94986279Y-75920446D01*
X95542896Y-75807582D01*
X96087407Y-75654462D01*
X96618659Y-75461547D01*
X97135501Y-75229300D01*
X97636780Y-74958186D01*
X98121344Y-74648665D01*
X98546208Y-74334482D01*
X98672868Y-74229075D01*
X98819374Y-74098346D01*
X98978659Y-73949329D01*
X99143654Y-73789062D01*
X99307290Y-73624581D01*
X99462499Y-73462922D01*
X99602212Y-73311121D01*
X99719361Y-73176215D01*
X99760817Y-73125429D01*
X100104614Y-72660656D01*
X100411444Y-72176421D01*
X100680598Y-71674205D01*
X100911367Y-71155492D01*
X101103043Y-70621763D01*
X101254919Y-70074503D01*
X101288493Y-69926993D01*
X101351585Y-69600738D01*
X101400036Y-69266710D01*
X101435584Y-68911788D01*
X101449989Y-68707451D01*
X101475662Y-68288846D01*
X103588102Y-68288846D01*
X103934196Y-68288875D01*
X104240391Y-68288993D01*
X104509119Y-68289241D01*
X104742813Y-68289662D01*
X104943908Y-68290300D01*
X105114837Y-68291195D01*
X105258032Y-68292392D01*
X105375928Y-68293933D01*
X105470957Y-68295861D01*
X105545553Y-68298218D01*
X105602150Y-68301046D01*
X105643180Y-68304389D01*
X105671078Y-68308290D01*
X105688276Y-68312790D01*
X105697207Y-68317933D01*
X105700306Y-68323762D01*
X105700464Y-68325887D01*
X105699653Y-68356329D01*
X105697410Y-68423079D01*
X105693951Y-68520144D01*
X105689493Y-68641531D01*
X105684253Y-68781246D01*
X105678811Y-68923846D01*
X105657658Y-69397679D01*
X105631013Y-69866932D01*
X105599495Y-70322953D01*
X105563721Y-70757093D01*
X105524308Y-71160701D01*
X105509614Y-71294512D01*
X105499496Y-71404140D01*
X105492143Y-71522534D01*
X105489064Y-71625079D01*
X105489049Y-71630124D01*
X105509146Y-71852151D01*
X105568008Y-72062989D01*
X105662734Y-72258932D01*
X105790422Y-72436278D01*
X105948173Y-72591321D01*
X106133083Y-72720357D01*
X106342253Y-72819683D01*
X106448544Y-72855174D01*
X106490384Y-72864388D01*
X106550614Y-72872405D01*
X106633008Y-72879430D01*
X106741341Y-72885666D01*
X106879385Y-72891317D01*
X107050915Y-72896587D01*
X107259703Y-72901682D01*
X107340958Y-72903433D01*
X107579159Y-72908909D01*
X107781409Y-72914970D01*
X107954091Y-72922313D01*
X108103588Y-72931635D01*
X108236284Y-72943632D01*
X108358559Y-72959001D01*
X108476798Y-72978439D01*
X108597384Y-73002642D01*
X108726698Y-73032306D01*
X108871123Y-73068129D01*
X108887050Y-73072181D01*
X109349049Y-73211466D01*
X109801474Y-73390421D01*
X110242808Y-73607155D01*
X110671537Y-73859780D01*
X111086147Y-74146406D01*
X111485121Y-74465143D01*
X111866945Y-74814101D01*
X112230104Y-75191392D01*
X112573083Y-75595125D01*
X112894366Y-76023410D01*
X113192438Y-76474360D01*
X113465786Y-76946082D01*
X113712892Y-77436690D01*
X113932243Y-77944291D01*
X114122323Y-78466998D01*
X114281616Y-79002921D01*
X114408609Y-79550169D01*
X114496463Y-80068096D01*
X114511556Y-80204594D01*
X114524051Y-80373799D01*
X114533747Y-80566151D01*
X114540446Y-80772090D01*
X114543948Y-80982057D01*
X114544055Y-81186492D01*
X114540566Y-81375837D01*
X114533283Y-81540532D01*
X114528530Y-81606261D01*
X114460429Y-82168746D01*
X114351755Y-82731307D01*
X114204130Y-83290575D01*
X114019175Y-83843183D01*
X113798511Y-84385764D01*
X113543757Y-84914950D01*
X113256536Y-85427374D01*
X112938468Y-85919668D01*
X112591175Y-86388465D01*
X112216276Y-86830396D01*
X111816179Y-87241343D01*
X111407048Y-87607530D01*
X110985661Y-87935012D01*
X110552917Y-88223358D01*
X110109713Y-88472139D01*
X109656944Y-88680922D01*
X109195510Y-88849277D01*
X108726305Y-88976775D01*
X108250229Y-89062983D01*
X107954792Y-89095279D01*
X107916905Y-89096637D01*
X107836929Y-89097952D01*
X107715106Y-89099226D01*
X107551680Y-89100456D01*
X107346894Y-89101644D01*
X107100991Y-89102788D01*
X106814215Y-89103889D01*
X106486809Y-89104946D01*
X106119016Y-89105959D01*
X105711080Y-89106927D01*
X105263244Y-89107851D01*
X104775751Y-89108730D01*
X104248845Y-89109563D01*
X103682769Y-89110351D01*
X103077767Y-89111093D01*
X102434081Y-89111788D01*
X101751954Y-89112437D01*
X101031632Y-89113040D01*
X100273356Y-89113595D01*
X99477370Y-89114103D01*
X98643917Y-89114563D01*
X97773241Y-89114976D01*
X96865585Y-89115340D01*
X95921192Y-89115656D01*
X94940306Y-89115923D01*
X93923169Y-89116140D01*
X92870027Y-89116309D01*
X91781120Y-89116428D01*
X90656694Y-89116496D01*
X90162804Y-89116510D01*
X89032985Y-89116550D01*
X87945044Y-89116627D01*
X86898522Y-89116739D01*
X85892963Y-89116890D01*
X84927911Y-89117078D01*
X84002910Y-89117306D01*
X83117501Y-89117572D01*
X82271229Y-89117878D01*
X81463637Y-89118225D01*
X80694269Y-89118613D01*
X79962667Y-89119042D01*
X79268375Y-89119514D01*
X78610936Y-89120029D01*
X77989894Y-89120587D01*
X77404792Y-89121189D01*
X76855174Y-89121837D01*
X76340582Y-89122529D01*
X75860560Y-89123267D01*
X75414651Y-89124052D01*
X75002399Y-89124884D01*
X74623347Y-89125764D01*
X74277039Y-89126692D01*
X73963017Y-89127669D01*
X73680825Y-89128696D01*
X73430006Y-89129772D01*
X73210104Y-89130900D01*
X73020662Y-89132079D01*
X72861224Y-89133310D01*
X72731332Y-89134594D01*
X72630530Y-89135930D01*
X72558361Y-89137321D01*
X72514370Y-89138766D01*
X72499221Y-89139949D01*
X72329226Y-89187851D01*
X72154806Y-89266417D01*
X71989597Y-89368025D01*
X71847235Y-89485052D01*
X71806017Y-89527485D01*
X71692771Y-89673992D01*
X71594088Y-89843627D01*
X71521940Y-90014769D01*
X71464459Y-90185762D01*
X71453375Y-91879096D01*
X71442292Y-93572429D01*
X71383680Y-93738118D01*
X71310441Y-93912200D01*
X71220224Y-94059614D01*
X71103049Y-94195445D01*
X71042988Y-94253041D01*
X70857530Y-94394506D01*
X70645849Y-94503981D01*
X70410568Y-94580467D01*
X70154306Y-94622961D01*
X70057173Y-94629756D01*
X69951431Y-94631865D01*
X69845514Y-94629432D01*
X69757448Y-94623008D01*
X69734108Y-94619907D01*
X69480651Y-94561773D01*
X69251414Y-94472436D01*
X69048557Y-94353631D01*
X68874235Y-94207098D01*
X68730605Y-94034573D01*
X68619824Y-93837796D01*
X68558935Y-93673117D01*
X68552279Y-93647221D01*
X68546419Y-93615541D01*
X68541275Y-93575174D01*
X68536770Y-93523214D01*
X68532828Y-93456758D01*
X68529371Y-93372900D01*
X68526322Y-93268737D01*
X68523603Y-93141363D01*
X68521137Y-92987875D01*
X68518847Y-92805367D01*
X68516656Y-92590936D01*
X68514486Y-92341676D01*
X68512259Y-92054684D01*
X68510903Y-91868512D01*
X68498849Y-90185762D01*
X68449477Y-90037596D01*
X68404329Y-89912044D01*
X68358917Y-89811513D01*
X68304777Y-89719493D01*
X68238567Y-89626275D01*
X68088141Y-89461188D01*
X67903981Y-89321013D01*
X67687079Y-89206451D01*
X67589958Y-89167433D01*
X67568870Y-89160410D01*
X67544156Y-89154229D01*
X67512978Y-89148812D01*
X67472496Y-89144079D01*
X67419871Y-89139951D01*
X67352263Y-89136348D01*
X67266834Y-89133191D01*
X67160743Y-89130401D01*
X67031152Y-89127899D01*
X66875222Y-89125605D01*
X66690112Y-89123439D01*
X66472984Y-89121323D01*
X66220998Y-89119178D01*
X65931315Y-89116923D01*
X65727292Y-89115405D01*
X65394191Y-89112904D01*
X65100097Y-89110466D01*
X64841679Y-89107876D01*
X64615612Y-89104921D01*
X64418569Y-89101387D01*
X64247220Y-89097060D01*
X64098240Y-89091725D01*
X63968301Y-89085170D01*
X63854076Y-89077180D01*
X63752236Y-89067541D01*
X63659456Y-89056039D01*
X63572407Y-89042461D01*
X63487762Y-89026592D01*
X63402194Y-89008218D01*
X63312375Y-88987127D01*
X63214978Y-88963103D01*
X63165538Y-88950713D01*
X62701944Y-88812809D01*
X62245337Y-88634262D01*
X61797558Y-88416451D01*
X61360449Y-88160752D01*
X60935849Y-87868543D01*
X60525600Y-87541200D01*
X60131544Y-87180102D01*
X59755521Y-86786625D01*
X59399372Y-86362146D01*
X59064939Y-85908043D01*
X59030125Y-85857179D01*
X58692538Y-85323523D01*
X58394158Y-84773936D01*
X58135113Y-84208753D01*
X57915532Y-83628309D01*
X57735544Y-83032937D01*
X57595278Y-82422973D01*
X57511115Y-81920179D01*
X57496148Y-81781548D01*
X57484618Y-81609355D01*
X57476530Y-81412231D01*
X57471885Y-81198808D01*
X57470687Y-80977716D01*
X57472937Y-80757588D01*
X57478640Y-80547054D01*
X57487797Y-80354746D01*
X57500413Y-80189296D01*
X57510521Y-80099846D01*
X57612653Y-79495297D01*
X57755767Y-78899094D01*
X57938979Y-78313296D01*
X57960297Y-78258346D01*
X80484690Y-78258346D01*
X80499212Y-78517637D01*
X80547036Y-78995625D01*
X80636261Y-79465763D01*
X80766384Y-79926234D01*
X80936904Y-80375221D01*
X81114712Y-80749305D01*
X81352859Y-81161351D01*
X81622891Y-81547381D01*
X81922518Y-81906130D01*
X82249456Y-82236338D01*
X82601415Y-82536741D01*
X82976108Y-82806075D01*
X83371248Y-83043080D01*
X83784549Y-83246491D01*
X84213721Y-83415047D01*
X84656479Y-83547484D01*
X85110534Y-83642540D01*
X85573599Y-83698952D01*
X86043388Y-83715458D01*
X86453597Y-83696558D01*
X86926078Y-83636418D01*
X87390234Y-83536782D01*
X87842395Y-83398902D01*
X88278891Y-83224034D01*
X88696052Y-83013431D01*
X89007595Y-82823883D01*
X89402941Y-82539101D01*
X89768203Y-82225711D01*
X90102244Y-81885674D01*
X90403926Y-81520955D01*
X90672111Y-81133516D01*
X90905660Y-80725321D01*
X91103435Y-80298332D01*
X91264298Y-79854512D01*
X91387110Y-79395824D01*
X91470734Y-78924232D01*
X91510603Y-78507054D01*
X91525088Y-78258346D01*
X80484690Y-78258346D01*
X57960297Y-78258346D01*
X58161406Y-77739964D01*
X58422166Y-77181160D01*
X58720375Y-76638943D01*
X59055151Y-76115374D01*
X59425610Y-75612513D01*
X59442359Y-75591346D01*
X59549708Y-75462390D01*
X59681637Y-75313983D01*
X59831507Y-75152819D01*
X59992676Y-74985596D01*
X60158502Y-74819010D01*
X60322345Y-74659756D01*
X60477563Y-74514531D01*
X60617515Y-74390031D01*
X60710792Y-74312425D01*
X61109163Y-74016798D01*
X61524881Y-73750961D01*
X61952981Y-73517453D01*
X62388499Y-73318813D01*
X62826470Y-73157576D01*
X63157000Y-73061848D01*
X63297151Y-73027304D01*
X63426139Y-72998603D01*
X63550233Y-72975091D01*
X63675701Y-72956118D01*
X63808812Y-72941033D01*
X63955834Y-72929183D01*
X64123034Y-72919917D01*
X64316683Y-72912584D01*
X64543047Y-72906532D01*
X64679542Y-72903599D01*
X64897761Y-72899025D01*
X65078625Y-72894483D01*
X65227105Y-72889286D01*
X65348174Y-72882745D01*
X65446803Y-72874171D01*
X65527963Y-72862875D01*
X65596627Y-72848170D01*
X65657767Y-72829366D01*
X65716353Y-72805775D01*
X65777359Y-72776708D01*
X65844164Y-72742309D01*
X66031290Y-72621288D01*
X66193097Y-72469355D01*
X66326118Y-72291856D01*
X66426884Y-72094137D01*
X66491929Y-71881543D01*
X66515760Y-71706890D01*
X66517270Y-71620073D01*
X66513713Y-71505183D01*
X66505769Y-71376088D01*
X66494119Y-71246656D01*
X66492381Y-71230640D01*
X66470370Y-71018391D01*
X66448202Y-70778815D01*
X66426296Y-70518443D01*
X66405067Y-70243804D01*
X66384933Y-69961430D01*
X66366311Y-69677851D01*
X66349619Y-69399597D01*
X66335274Y-69133198D01*
X66323692Y-68885185D01*
X66315292Y-68662089D01*
X66310491Y-68470440D01*
X66309500Y-68368221D01*
X66309375Y-68288846D01*
X69435417Y-68288846D01*
X69448611Y-68632804D01*
G37*
%TD*%
D11*
%TO.C,REF\u002A\u002A*%
X79025000Y-51325000D03*
D12*
X79025000Y-51325000D03*
%TD*%
M02*
